<?xml version="1.0" encoding="UTF-8"?>
<svg width="24px" height="24px" viewBox="0 0 24 24" version="1.1" xmlns="http://www.w3.org/2000/svg" xmlns:xlink="http://www.w3.org/1999/xlink">
    <!-- Generator: Sketch 55 (78076) - https://sketchapp.com -->
    <title>Combined Shape Copy 12</title>
    <desc>Created with Sketch.</desc>
    <g id="Sizes" stroke="none" stroke-width="1" fill="none" fill-rule="evenodd">
        <g id="icons-copy-2" transform="translate(-999.000000, -360.000000)" fill="#102B4E">
            <path d="M1007.78178,381.480289 L1021.1473,360.477326 C1021.3232,360.190974 1021.6393,360 1022,360 C1022.55228,360 1023,360.447715 1023,361 C1023,361.202961 1022.93954,361.3918 1022.83564,361.549485 L1008.8527,383.522674 C1008.6768,383.809026 1008.3607,384 1008,384 C1007.74606,384 1007.51422,383.905343 1007.33785,383.749386 L999.345751,376.7563 C999.133974,376.572938 999,376.302115 999,376 C999,375.447715 999.447715,375 1000,375 C1000.25394,375 1000.48578,375.094657 1000.66215,375.250614 L1007.78178,381.480289 Z" id="Combined-Shape-Copy-12"></path>
        </g>
    </g>
</svg>