<?xml version="1.0" encoding="UTF-8"?>
<svg width="16px" height="16px" viewBox="0 0 16 16" version="1.1" xmlns="http://www.w3.org/2000/svg" xmlns:xlink="http://www.w3.org/1999/xlink">
    <!-- Generator: Sketch 55 (78076) - https://sketchapp.com -->
    <title>Combined Shape Copy 9</title>
    <desc>Created with Sketch.</desc>
    <g id="Sizes" stroke="none" stroke-width="1" fill="none" fill-rule="evenodd">
        <g id="icons-copy-2" transform="translate(-1003.000000, -183.000000)" fill="#102B4E">
            <path d="M1008.85452,197.320193 L1017.76487,183.318218 C1017.88213,183.127316 1018.09287,183 1018.33333,183 C1018.70152,183 1019,183.298477 1019,183.666667 C1019,183.801974 1018.95969,183.927866 1018.89042,184.03299 L1009.56847,198.681782 C1009.4512,198.872684 1009.24047,199 1009,199 C1008.8307,199 1008.67615,198.936895 1008.55857,198.832924 L1003.2305,194.170867 C1003.08932,194.048626 1003,193.868077 1003,193.666667 C1003,193.298477 1003.29848,193 1003.66667,193 C1003.83596,193 1003.99052,193.063105 1004.1081,193.167076 L1008.85452,197.320193 Z" id="Combined-Shape-Copy-9"></path>
        </g>
    </g>
</svg>