<?xml version="1.0" encoding="UTF-8"?>
<svg width="64px" height="64px" viewBox="0 0 64 64" version="1.1" xmlns="http://www.w3.org/2000/svg" xmlns:xlink="http://www.w3.org/1999/xlink">
    <!-- Generator: Sketch 55 (78076) - https://sketchapp.com -->
    <title>Combined Shape Copy 19</title>
    <desc>Created with Sketch.</desc>
    <g id="Sizes" stroke="none" stroke-width="1" fill="none" fill-rule="evenodd">
        <g id="icons-copy-2" transform="translate(-979.000000, -878.000000)" fill="#102B4E">
            <path d="M1002.41808,935.28077 L1038.05947,879.27287 C1038.52853,878.509264 1039.37146,878 1040.33333,878 C1041.80609,878 1043,879.193907 1043,880.666667 C1043,881.207896 1042.83876,881.711465 1042.5617,882.131961 L1005.27386,940.72713 C1004.8048,941.490736 1003.96187,942 1003,942 C1002.32281,942 1001.70458,941.74758 1001.23427,941.331697 L979.922003,922.683468 C979.357263,922.194502 979,921.472306 979,920.666667 C979,919.193907 980.193907,918 981.666667,918 C982.343853,918 982.962083,918.25242 983.432401,918.668303 L1002.41808,935.28077 Z" id="Combined-Shape-Copy-19"></path>
        </g>
    </g>
</svg>