<?xml version="1.0" encoding="UTF-8"?>
<svg width="48px" height="48px" viewBox="0 0 48 48" version="1.1" xmlns="http://www.w3.org/2000/svg" xmlns:xlink="http://www.w3.org/1999/xlink">
    <!-- Generator: Sketch 55 (78076) - https://sketchapp.com -->
    <title>Combined Shape Copy 17</title>
    <desc>Created with Sketch.</desc>
    <g id="Sizes" stroke="none" stroke-width="1" fill="none" fill-rule="evenodd">
        <g id="icons-copy-2" transform="translate(-987.000000, -706.000000)" fill="#102B4E">
            <path d="M1004.56356,748.960578 L1031.2946,706.954653 C1031.6464,706.381948 1032.2786,706 1033,706 C1034.10457,706 1035,706.895431 1035,708 C1035,708.405922 1034.87907,708.783599 1034.67127,709.098971 L1006.7054,753.045347 C1006.3536,753.618052 1005.7214,754 1005,754 C1004.49211,754 1004.02844,753.810685 1003.6757,753.498773 L987.691502,739.512601 C987.267947,739.145877 987,738.60423 987,738 C987,736.895431 987.895431,736 989,736 C989.50789,736 989.971562,736.189315 990.324301,736.501227 L1004.56356,748.960578 Z" id="Combined-Shape-Copy-17"></path>
        </g>
    </g>
</svg>