<?xml version="1.0" encoding="UTF-8"?>
<svg width="32px" height="32px" viewBox="0 0 32 32" version="1.1" xmlns="http://www.w3.org/2000/svg" xmlns:xlink="http://www.w3.org/1999/xlink">
    <!-- Generator: Sketch 55 (78076) - https://sketchapp.com -->
    <title>Combined Shape Copy 14</title>
    <desc>Created with Sketch.</desc>
    <g id="Sizes" stroke="none" stroke-width="1" fill="none" fill-rule="evenodd">
        <g id="icons-copy-2" transform="translate(-995.000000, -540.000000)" fill="#102B4E">
            <path d="M1006.70904,568.640385 L1024.52973,540.636435 C1024.76427,540.254632 1025.18573,540 1025.66667,540 C1026.40305,540 1027,540.596954 1027,541.333333 C1027,541.603948 1026.91938,541.855733 1026.78085,542.065981 L1008.13693,571.363565 C1007.9024,571.745368 1007.48094,572 1007,572 C1006.66141,572 1006.35229,571.87379 1006.11713,571.665849 L995.461001,562.341734 C995.178632,562.097251 995,561.736153 995,561.333333 C995,560.596954 995.596954,560 996.333333,560 C996.671926,560 996.981042,560.12621 997.216201,560.334151 L1006.70904,568.640385 Z" id="Combined-Shape-Copy-14"></path>
        </g>
    </g>
</svg>