<?xml version="1.0" encoding="UTF-8"?>
<svg width="48px" height="48px" viewBox="0 0 48 48" version="1.1" xmlns="http://www.w3.org/2000/svg" xmlns:xlink="http://www.w3.org/1999/xlink">
    <!-- Generator: Sketch 55 (78076) - https://sketchapp.com -->
    <title>Group 3 Copy 4</title>
    <desc>Created with Sketch.</desc>
    <g id="Sizes" stroke="none" stroke-width="1" fill="none" fill-rule="evenodd">
        <g id="Form-Field-Icons" transform="translate(-1813.000000, -706.000000)">
            <g id="Group-3-Copy-4" transform="translate(1813.000000, 706.000000)">
                <rect id="Rectangle-Copy-45" x="0" y="0" width="48" height="48"></rect>
                <path d="M18.591502,34.5800939 L29.1715501,24.0850507 L18.5801393,13.4085438 C17.8022221,12.6243764 17.8072888,11.3580566 18.5914562,10.5801393 C19.3756236,9.80222206 20.6419434,9.80728879 21.4198607,10.5914562 L33.4198607,22.6878695 C34.1977957,23.4720548 34.1927084,24.7384098 33.408498,25.5163195 L21.408498,37.4199061 C20.6243055,38.1977981 19.3579858,38.1926905 18.5800939,37.408498 C17.8022019,36.6243055 17.8073095,35.3579858 18.591502,34.5800939 Z M24,48 C10.745166,48 0,37.254834 0,24 C0,10.745166 10.745166,0 24,0 C37.254834,0 48,10.745166 48,24 C48,37.254834 37.254834,48 24,48 Z M24,44 C35.045695,44 44,35.045695 44,24 C44,12.954305 35.045695,4 24,4 C12.954305,4 4,12.954305 4,24 C4,35.045695 12.954305,44 24,44 Z" id="Combined-Shape" fill="#102B4E" fill-rule="nonzero"></path>
            </g>
        </g>
    </g>
</svg>