<?xml version="1.0" encoding="UTF-8"?>
<svg width="16px" height="16px" viewBox="0 0 16 16" version="1.1" xmlns="http://www.w3.org/2000/svg" xmlns:xlink="http://www.w3.org/1999/xlink">
    <!-- Generator: Sketch 55 (78076) - https://sketchapp.com -->
    <title>Group 3 Copy 9</title>
    <desc>Created with Sketch.</desc>
    <g id="Sizes" stroke="none" stroke-width="1" fill="none" fill-rule="evenodd">
        <g id="Form-Field-Icons" transform="translate(-2121.000000, -179.000000)">
            <g id="Group-3-Copy-9" transform="translate(2129.000000, 187.000000) scale(-1, 1) translate(-2129.000000, -187.000000) translate(2121.000000, 179.000000)">
                <rect id="Rectangle-Copy-45" x="0" y="0" width="16" height="16"></rect>
                <path d="M6.19716734,11.526698 L9.72385002,8.02835022 L6.19337977,4.4695146 C5.93407402,4.20812547 5.93576293,3.78601886 6.19715206,3.52671311 C6.4585412,3.26740735 6.8806478,3.26909626 7.13995356,3.5304854 L11.1399536,7.56262318 C11.3992652,7.82401828 11.3975695,8.24613659 11.136166,8.50543983 L7.13616599,12.473302 C6.87476849,12.7325994 6.45266194,12.7308968 6.19336462,12.4694993 C5.9340673,12.2081018 5.93576984,11.7859953 6.19716734,11.526698 Z M8,16 C3.581722,16 0,12.418278 0,8 C0,3.581722 3.581722,0 8,0 C12.418278,0 16,3.581722 16,8 C16,12.418278 12.418278,16 8,16 Z M8,14.6666667 C11.6818983,14.6666667 14.6666667,11.6818983 14.6666667,8 C14.6666667,4.31810167 11.6818983,1.33333333 8,1.33333333 C4.31810167,1.33333333 1.33333333,4.31810167 1.33333333,8 C1.33333333,11.6818983 4.31810167,14.6666667 8,14.6666667 Z" id="Combined-Shape" fill="#102B4E" fill-rule="nonzero"></path>
            </g>
        </g>
    </g>
</svg>