<?xml version="1.0" encoding="UTF-8"?>
<svg width="16px" height="16px" viewBox="0 0 16 16" version="1.1" xmlns="http://www.w3.org/2000/svg" xmlns:xlink="http://www.w3.org/1999/xlink">
    <!-- Generator: Sketch 55 (78076) - https://sketchapp.com -->
    <title>Group 4 Copy</title>
    <desc>Created with Sketch.</desc>
    <g id="Sizes" stroke="none" stroke-width="1" fill="none" fill-rule="evenodd">
        <g id="Form-Field-Icons" transform="translate(-2391.000000, -197.000000)" fill-rule="nonzero">
            <g id="Group-4-Copy" transform="translate(2391.000000, 197.000000)">
                <path d="M8,16 C12.418278,16 16,12.418278 16,8 C16,3.581722 12.418278,0 8,0 C3.581722,0 0,3.581722 0,8 C0,12.418278 3.581722,16 8,16 Z" id="Oval-Copy-22" fill="#102B4E"></path>
                <path d="M6.19716734,11.526698 C5.93576984,11.7859953 5.9340673,12.2081018 6.19336462,12.4694993 C6.45266194,12.7308968 6.87476849,12.7325994 7.13616599,12.473302 L11.136166,8.50543983 C11.3975695,8.24613659 11.3992652,7.82401828 11.1399536,7.56262318 L7.13995356,3.5304854 C6.8806478,3.26909626 6.4585412,3.26740735 6.19715206,3.52671311 C5.93576293,3.78601886 5.93407402,4.20812547 6.19337977,4.4695146 L9.72385002,8.02835022 L6.19716734,11.526698 Z" id="Path-Copy-7" fill="#FFFFFF"></path>
            </g>
        </g>
    </g>
</svg>