<?xml version="1.0" encoding="UTF-8"?>
<svg width="32px" height="32px" viewBox="0 0 32 32" version="1.1" xmlns="http://www.w3.org/2000/svg" xmlns:xlink="http://www.w3.org/1999/xlink">
    <!-- Generator: Sketch 55 (78076) - https://sketchapp.com -->
    <title>Group 3 Copy 3</title>
    <desc>Created with Sketch.</desc>
    <g id="Sizes" stroke="none" stroke-width="1" fill="none" fill-rule="evenodd">
        <g id="Form-Field-Icons" transform="translate(-1821.000000, -540.000000)">
            <g id="Group-3-Copy-3" transform="translate(1821.000000, 540.000000)">
                <rect id="Rectangle-Copy-45" x="0" y="0" width="32" height="32"></rect>
                <path d="M12.3943347,23.0533959 L19.4477,16.0567004 L12.3867595,8.93902921 C11.868148,8.41625094 11.8715259,7.57203773 12.3943041,7.05342622 C12.9170824,6.53481471 13.7612956,6.53819253 14.2799071,7.06097079 L22.2799071,15.1252464 C22.7985305,15.6480366 22.7951389,16.4922732 22.272332,17.0108797 L14.272332,24.9466041 C13.749537,25.4651987 12.9053239,25.4617937 12.3867292,24.9389987 C11.8681346,24.4162036 11.8715397,23.5719905 12.3943347,23.0533959 Z M16,32 C7.163444,32 0,24.836556 0,16 C0,7.163444 7.163444,0 16,0 C24.836556,0 32,7.163444 32,16 C32,24.836556 24.836556,32 16,32 Z M16,29.3333333 C23.3637967,29.3333333 29.3333333,23.3637967 29.3333333,16 C29.3333333,8.63620334 23.3637967,2.66666667 16,2.66666667 C8.63620334,2.66666667 2.66666667,8.63620334 2.66666667,16 C2.66666667,23.3637967 8.63620334,29.3333333 16,29.3333333 Z" id="Combined-Shape" fill="#102B4E" fill-rule="nonzero"></path>
            </g>
        </g>
    </g>
</svg>