<?xml version="1.0" encoding="UTF-8"?>
<svg width="24px" height="24px" viewBox="0 0 24 24" version="1.1" xmlns="http://www.w3.org/2000/svg" xmlns:xlink="http://www.w3.org/1999/xlink">
    <!-- Generator: Sketch 55 (78076) - https://sketchapp.com -->
    <title>Group 4</title>
    <desc>Created with Sketch.</desc>
    <g id="Sizes" stroke="none" stroke-width="1" fill="none" fill-rule="evenodd">
        <g id="Form-Field-Icons" transform="translate(-2387.000000, -380.000000)" fill-rule="nonzero">
            <g id="Group-4" transform="translate(2387.000000, 380.000000)">
                <path d="M12,24 C18.627417,24 24,18.627417 24,12 C24,5.372583 18.627417,0 12,0 C5.372583,0 0,5.372583 0,12 C0,18.627417 5.372583,24 12,24 Z" id="Oval-Copy-22" fill="#102B4E"></path>
                <path d="M9.29575101,17.2900469 C8.90365476,17.6789929 8.90110095,18.3121527 9.29004693,18.704249 C9.67899291,19.0963452 10.3121527,19.098899 10.704249,18.7099531 L16.704249,12.7581597 C17.0963542,12.3692049 17.0988978,11.7360274 16.7099303,11.3439348 L10.7099303,5.2957281 C10.3209717,4.9036444 9.6878118,4.90111103 9.2957281,5.29006966 C8.9036444,5.67902829 8.90111103,6.3121882 9.29006966,6.7042719 L14.585775,12.0425253 L9.29575101,17.2900469 Z" id="Path-Copy-7" fill="#FFFFFF"></path>
            </g>
        </g>
    </g>
</svg>