<?xml version="1.0" encoding="UTF-8"?>
<svg width="32px" height="32px" viewBox="0 0 32 32" version="1.1" xmlns="http://www.w3.org/2000/svg" xmlns:xlink="http://www.w3.org/1999/xlink">
    <!-- Generator: Sketch 55 (78076) - https://sketchapp.com -->
    <title>Group 4 Copy 6</title>
    <desc>Created with Sketch.</desc>
    <g id="Sizes" stroke="none" stroke-width="1" fill="none" fill-rule="evenodd">
        <g id="Form-Field-Icons" transform="translate(-2669.000000, -554.000000)" fill-rule="nonzero">
            <g id="Group-4-Copy-6" transform="translate(2685.000000, 570.000000) scale(-1, 1) translate(-2685.000000, -570.000000) translate(2669.000000, 554.000000)">
                <path d="M16,32 C24.836556,32 32,24.836556 32,16 C32,7.163444 24.836556,0 16,0 C7.163444,0 0,7.163444 0,16 C0,24.836556 7.163444,32 16,32 Z" id="Oval-Copy-22" fill="#102B4E"></path>
                <path d="M12.3943347,23.0533959 C11.8715397,23.5719905 11.8681346,24.4162036 12.3867292,24.9389987 C12.9053239,25.4617937 13.749537,25.4651987 14.272332,24.9466041 L22.272332,17.0108797 C22.7951389,16.4922732 22.7985305,15.6480366 22.2799071,15.1252464 L14.2799071,7.06097079 C13.7612956,6.53819253 12.9170824,6.53481471 12.3943041,7.05342622 C11.8715259,7.57203773 11.868148,8.41625094 12.3867595,8.93902921 L19.4477,16.0567004 L12.3943347,23.0533959 Z" id="Path-Copy-7" fill="#FFFFFF"></path>
            </g>
        </g>
    </g>
</svg>