<?xml version="1.0" encoding="UTF-8"?>
<svg width="48px" height="48px" viewBox="0 0 48 48" version="1.1" xmlns="http://www.w3.org/2000/svg" xmlns:xlink="http://www.w3.org/1999/xlink">
    <!-- Generator: Sketch 55 (78076) - https://sketchapp.com -->
    <title>Group 4 Copy 7</title>
    <desc>Created with Sketch.</desc>
    <g id="Sizes" stroke="none" stroke-width="1" fill="none" fill-rule="evenodd">
        <g id="Form-Field-Icons" transform="translate(-2661.000000, -720.000000)" fill-rule="nonzero">
            <g id="Group-4-Copy-7" transform="translate(2685.000000, 744.000000) scale(-1, 1) translate(-2685.000000, -744.000000) translate(2661.000000, 720.000000)">
                <path d="M24,48 C37.254834,48 48,37.254834 48,24 C48,10.745166 37.254834,0 24,0 C10.745166,0 0,10.745166 0,24 C0,37.254834 10.745166,48 24,48 Z" id="Oval-Copy-22" fill="#102B4E"></path>
                <path d="M18.591502,34.5800939 C17.8073095,35.3579858 17.8022019,36.6243055 18.5800939,37.408498 C19.3579858,38.1926905 20.6243055,38.1977981 21.408498,37.4199061 L33.408498,25.5163195 C34.1927084,24.7384098 34.1977957,23.4720548 33.4198607,22.6878695 L21.4198607,10.5914562 C20.6419434,9.80728879 19.3756236,9.80222206 18.5914562,10.5801393 C17.8072888,11.3580566 17.8022221,12.6243764 18.5801393,13.4085438 L29.1715501,24.0850507 L18.591502,34.5800939 Z" id="Path-Copy-7" fill="#FFFFFF"></path>
            </g>
        </g>
    </g>
</svg>