<?xml version="1.0" encoding="UTF-8"?>
<svg width="24px" height="24px" viewBox="0 0 24 24" version="1.1" xmlns="http://www.w3.org/2000/svg" xmlns:xlink="http://www.w3.org/1999/xlink">
    <!-- Generator: Sketch 55 (78076) - https://sketchapp.com -->
    <title>Group 3 Copy</title>
    <desc>Created with Sketch.</desc>
    <g id="Sizes" stroke="none" stroke-width="1" fill="none" fill-rule="evenodd">
        <g id="Form-Field-Icons" transform="translate(-2117.000000, -362.000000)">
            <g id="Group-3-Copy" transform="translate(2129.000000, 374.000000) scale(-1, 1) translate(-2129.000000, -374.000000) translate(2117.000000, 362.000000)">
                <rect id="Rectangle-Copy-45" x="0" y="0" width="24" height="24"></rect>
                <path d="M9.29575101,17.2900469 L14.585775,12.0425253 L9.29006966,6.7042719 C8.90111103,6.3121882 8.9036444,5.67902829 9.2957281,5.29006966 C9.6878118,4.90111103 10.3209717,4.9036444 10.7099303,5.2957281 L16.7099303,11.3439348 C17.0988978,11.7360274 17.0963542,12.3692049 16.704249,12.7581597 L10.704249,18.7099531 C10.3121527,19.098899 9.67899291,19.0963452 9.29004693,18.704249 C8.90110095,18.3121527 8.90365476,17.6789929 9.29575101,17.2900469 Z M12,24 C5.372583,24 0,18.627417 0,12 C0,5.372583 5.372583,0 12,0 C18.627417,0 24,5.372583 24,12 C24,18.627417 18.627417,24 12,24 Z M12,22 C17.5228475,22 22,17.5228475 22,12 C22,6.4771525 17.5228475,2 12,2 C6.4771525,2 2,6.4771525 2,12 C2,17.5228475 6.4771525,22 12,22 Z" id="Combined-Shape" fill="#102B4E" fill-rule="nonzero"></path>
            </g>
        </g>
    </g>
</svg>