<?xml version="1.0" encoding="UTF-8"?>
<svg width="64px" height="64px" viewBox="0 0 64 64" version="1.1" xmlns="http://www.w3.org/2000/svg" xmlns:xlink="http://www.w3.org/1999/xlink">
    <!-- Generator: Sketch 55 (78076) - https://sketchapp.com -->
    <title>Group 3 Copy 8</title>
    <desc>Created with Sketch.</desc>
    <g id="Sizes" stroke="none" stroke-width="1" fill="none" fill-rule="evenodd">
        <g id="Form-Field-Icons" transform="translate(-2097.000000, -873.000000)">
            <g id="Group-3-Copy-8" transform="translate(2129.000000, 905.000000) scale(-1, 1) translate(-2129.000000, -905.000000) translate(2097.000000, 873.000000)">
                <rect id="Rectangle-Copy-45" x="0" y="0" width="64" height="64"></rect>
                <path d="M24.7886694,46.1067918 L38.8954001,32.1134009 L24.7735191,17.8780584 C23.7362961,16.8325019 23.7430517,15.1440755 24.7886083,14.1068524 C25.8341648,13.0696294 27.5225912,13.0763851 28.5598142,14.1219416 L44.5598142,30.2504927 C45.5970609,31.2960731 45.5902778,32.9845464 44.544664,34.0217593 L28.544664,49.8932082 C27.499074,50.9303975 25.8106478,50.9235873 24.7734585,49.8779973 C23.7362692,48.8324073 23.7430794,47.1439811 24.7886694,46.1067918 Z M32,64 C14.326888,64 0,49.673112 0,32 C0,14.326888 14.326888,0 32,0 C49.673112,0 64,14.326888 64,32 C64,49.673112 49.673112,64 32,64 Z M32,58.6666667 C46.7275933,58.6666667 58.6666667,46.7275933 58.6666667,32 C58.6666667,17.2724067 46.7275933,5.33333333 32,5.33333333 C17.2724067,5.33333333 5.33333333,17.2724067 5.33333333,32 C5.33333333,46.7275933 17.2724067,58.6666667 32,58.6666667 Z" id="Combined-Shape" fill="#102B4E" fill-rule="nonzero"></path>
            </g>
        </g>
    </g>
</svg>