<?xml version="1.0" encoding="UTF-8"?>
<svg width="16px" height="16px" viewBox="0 0 16 16" version="1.1" xmlns="http://www.w3.org/2000/svg" xmlns:xlink="http://www.w3.org/1999/xlink">
    <!-- Generator: Sketch 55 (78076) - https://sketchapp.com -->
    <title>Combined Shape Copy 2</title>
    <desc>Created with Sketch.</desc>
    <g id="Sizes" stroke="none" stroke-width="1" fill="none" fill-rule="evenodd">
        <g id="icons-copy-2" transform="translate(-437.000000, -183.000000)" fill="#102B4E" fill-rule="nonzero">
            <path d="M445,191.942809 L438.138071,198.804738 C437.877722,199.065087 437.455612,199.065087 437.195262,198.804738 C436.934913,198.544388 436.934913,198.122278 437.195262,197.861929 L444.057191,191 L437.195262,184.138071 C436.934913,183.877722 436.934913,183.455612 437.195262,183.195262 C437.455612,182.934913 437.877722,182.934913 438.138071,183.195262 L445,190.057191 L451.861929,183.195262 C452.122278,182.934913 452.544388,182.934913 452.804738,183.195262 C453.065087,183.455612 453.065087,183.877722 452.804738,184.138071 L445.942809,191 L452.804738,197.861929 C453.065087,198.122278 453.065087,198.544388 452.804738,198.804738 C452.544388,199.065087 452.122278,199.065087 451.861929,198.804738 L445,191.942809 Z" id="Combined-Shape-Copy-2"></path>
        </g>
    </g>
</svg>