<?xml version="1.0" encoding="UTF-8"?>
<svg width="64px" height="64px" viewBox="0 0 64 64" version="1.1" xmlns="http://www.w3.org/2000/svg" xmlns:xlink="http://www.w3.org/1999/xlink">
    <!-- Generator: Sketch 55 (78076) - https://sketchapp.com -->
    <title>Combined Shape Copy 5</title>
    <desc>Created with Sketch.</desc>
    <g id="Sizes" stroke="none" stroke-width="1" fill="none" fill-rule="evenodd">
        <g id="icons-copy-2" transform="translate(-413.000000, -878.000000)" fill="#102B4E" fill-rule="nonzero">
            <path d="M445,913.771236 L417.552285,941.218951 C416.510887,942.26035 414.822447,942.26035 413.781049,941.218951 C412.73965,940.177553 412.73965,938.489113 413.781049,937.447715 L441.228764,910 L413.781049,882.552285 C412.73965,881.510887 412.73965,879.822447 413.781049,878.781049 C414.822447,877.73965 416.510887,877.73965 417.552285,878.781049 L445,906.228764 L472.447715,878.781049 C473.489113,877.73965 475.177553,877.73965 476.218951,878.781049 C477.26035,879.822447 477.26035,881.510887 476.218951,882.552285 L448.771236,910 L476.218951,937.447715 C477.26035,938.489113 477.26035,940.177553 476.218951,941.218951 C475.177553,942.26035 473.489113,942.26035 472.447715,941.218951 L445,913.771236 Z" id="Combined-Shape-Copy-5"></path>
        </g>
    </g>
</svg>