<?xml version="1.0" encoding="UTF-8"?>
<svg width="48px" height="48px" viewBox="0 0 48 48" version="1.1" xmlns="http://www.w3.org/2000/svg" xmlns:xlink="http://www.w3.org/1999/xlink">
    <!-- Generator: Sketch 55 (78076) - https://sketchapp.com -->
    <title>Combined Shape Copy 4</title>
    <desc>Created with Sketch.</desc>
    <g id="Sizes" stroke="none" stroke-width="1" fill="none" fill-rule="evenodd">
        <g id="icons-copy-2" transform="translate(-421.000000, -708.000000)" fill="#102B4E" fill-rule="nonzero">
            <path d="M445,734.828427 L424.414214,755.414214 C423.633165,756.195262 422.366835,756.195262 421.585786,755.414214 C420.804738,754.633165 420.804738,753.366835 421.585786,752.585786 L442.171573,732 L421.585786,711.414214 C420.804738,710.633165 420.804738,709.366835 421.585786,708.585786 C422.366835,707.804738 423.633165,707.804738 424.414214,708.585786 L445,729.171573 L465.585786,708.585786 C466.366835,707.804738 467.633165,707.804738 468.414214,708.585786 C469.195262,709.366835 469.195262,710.633165 468.414214,711.414214 L447.828427,732 L468.414214,752.585786 C469.195262,753.366835 469.195262,754.633165 468.414214,755.414214 C467.633165,756.195262 466.366835,756.195262 465.585786,755.414214 L445,734.828427 Z" id="Combined-Shape-Copy-4"></path>
        </g>
    </g>
</svg>