<?xml version="1.0" encoding="UTF-8"?>
<svg width="32px" height="32px" viewBox="0 0 32 32" version="1.1" xmlns="http://www.w3.org/2000/svg" xmlns:xlink="http://www.w3.org/1999/xlink">
    <!-- Generator: Sketch 55 (78076) - https://sketchapp.com -->
    <title>Combined Shape Copy 3</title>
    <desc>Created with Sketch.</desc>
    <g id="Sizes" stroke="none" stroke-width="1" fill="none" fill-rule="evenodd">
        <g id="icons-copy-2" transform="translate(-429.000000, -540.000000)" fill="#102B4E" fill-rule="nonzero">
            <path d="M445,557.885618 L431.276142,571.609476 C430.755443,572.130175 429.911223,572.130175 429.390524,571.609476 C428.869825,571.088777 428.869825,570.244557 429.390524,569.723858 L443.114382,556 L429.390524,542.276142 C428.869825,541.755443 428.869825,540.911223 429.390524,540.390524 C429.911223,539.869825 430.755443,539.869825 431.276142,540.390524 L445,554.114382 L458.723858,540.390524 C459.244557,539.869825 460.088777,539.869825 460.609476,540.390524 C461.130175,540.911223 461.130175,541.755443 460.609476,542.276142 L446.885618,556 L460.609476,569.723858 C461.130175,570.244557 461.130175,571.088777 460.609476,571.609476 C460.088777,572.130175 459.244557,572.130175 458.723858,571.609476 L445,557.885618 Z" id="Combined-Shape-Copy-3"></path>
        </g>
    </g>
</svg>