<?xml version="1.0" encoding="UTF-8"?>
<svg width="24px" height="24px" viewBox="0 0 24 24" version="1.1" xmlns="http://www.w3.org/2000/svg" xmlns:xlink="http://www.w3.org/1999/xlink">
    <!-- Generator: Sketch 55 (78076) - https://sketchapp.com -->
    <title>Combined Shape</title>
    <desc>Created with Sketch.</desc>
    <g id="Sizes" stroke="none" stroke-width="1" fill="none" fill-rule="evenodd">
        <g id="icons-copy-2" transform="translate(-433.000000, -360.000000)" fill="#102B4E" fill-rule="nonzero">
            <path d="M445,373.414214 L434.707107,383.707107 C434.316582,384.097631 433.683418,384.097631 433.292893,383.707107 C432.902369,383.316582 432.902369,382.683418 433.292893,382.292893 L443.585786,372 L433.292893,361.707107 C432.902369,361.316582 432.902369,360.683418 433.292893,360.292893 C433.683418,359.902369 434.316582,359.902369 434.707107,360.292893 L445,370.585786 L455.292893,360.292893 C455.683418,359.902369 456.316582,359.902369 456.707107,360.292893 C457.097631,360.683418 457.097631,361.316582 456.707107,361.707107 L446.414214,372 L456.707107,382.292893 C457.097631,382.683418 457.097631,383.316582 456.707107,383.707107 C456.316582,384.097631 455.683418,384.097631 455.292893,383.707107 L445,373.414214 Z" id="Combined-Shape"></path>
        </g>
    </g>
</svg>