<?xml version="1.0" encoding="UTF-8"?>
<svg width="48px" height="48px" viewBox="0 0 48 48" version="1.1" xmlns="http://www.w3.org/2000/svg" xmlns:xlink="http://www.w3.org/1999/xlink">
    <!-- Generator: Sketch 55 (78076) - https://sketchapp.com -->
    <title>Combined Shape</title>
    <desc>Created with Sketch.</desc>
    <g id="Sizes" stroke="none" stroke-width="1" fill="none" fill-rule="evenodd">
        <g id="icons-copy-2" transform="translate(-1545.000000, -706.000000)" fill="#102B4E">
            <path d="M1577.57158,715.469854 L1574.38512,718.670317 C1572.6869,718.231028 1570.89283,718 1569,718 C1562.90151,718 1557.8282,720.398208 1553.68266,724.433194 C1552.21736,725.859415 1550.97703,727.391089 1549.96098,728.919645 C1549.69003,729.327271 1549.46288,729.690763 1549.27919,730 C1549.46288,730.309237 1549.69003,730.672729 1549.96098,731.080355 C1550.97703,732.608911 1552.21736,734.140585 1553.68266,735.566806 C1554.34914,736.215516 1555.03961,736.82192 1555.75446,737.382854 L1552.91504,740.23475 C1552.21934,739.669651 1551.54524,739.068327 1550.89271,738.433194 C1549.2116,736.796915 1547.79481,735.047339 1546.62978,733.294645 C1545.92221,732.230168 1545.44855,731.385995 1545.19933,730.870388 C1544.93356,730.320561 1544.93356,729.679439 1545.19933,729.129612 C1545.44855,728.614005 1545.92221,727.769832 1546.62978,726.705355 C1547.79481,724.952661 1549.2116,723.203085 1550.89271,721.566806 C1555.7369,716.851792 1561.76975,714 1569,714 C1572.07331,714 1574.93028,714.515259 1577.57158,715.469854 Z M1585.16747,719.832525 C1585.83399,720.378007 1586.48059,720.956814 1587.10729,721.566806 C1588.7884,723.203085 1590.20519,724.952661 1591.37022,726.705355 C1592.07779,727.769832 1592.55145,728.614005 1592.80067,729.129612 C1593.06644,729.679439 1593.06644,730.320561 1592.80067,730.870388 C1592.55145,731.385995 1592.07779,732.230168 1591.37022,733.294645 C1590.20519,735.047339 1588.7884,736.796915 1587.10729,738.433194 C1582.2631,743.148208 1576.23025,746 1569,746 C1565.93849,746 1563.09167,745.488693 1560.45887,744.541128 L1563.65897,741.341035 C1565.34414,741.772951 1567.12354,742 1569,742 C1575.09849,742 1580.1718,739.601792 1584.31734,735.566806 C1585.78264,734.140585 1587.02297,732.608911 1588.03902,731.080355 C1588.30997,730.672729 1588.53712,730.309237 1588.72081,730 C1588.53712,729.690763 1588.30997,729.327271 1588.03902,728.919645 C1587.02297,727.391089 1585.78264,725.859415 1584.31734,724.433194 C1583.67476,723.807743 1583.00988,723.221619 1582.32234,722.677658 L1585.16747,719.832525 Z M1548.41421,753.414214 C1547.63316,754.195262 1546.36684,754.195262 1545.58579,753.414214 C1544.80474,752.633165 1544.80474,751.366835 1545.58579,750.585786 L1589.58579,706.585786 C1590.36684,705.804738 1591.63316,705.804738 1592.41421,706.585786 C1593.19526,707.366835 1593.19526,708.633165 1592.41421,709.414214 L1548.41421,753.414214 Z M1572.45209,720.611844 L1569.07826,724.0005 C1569.05221,724.000167 1569.02613,724 1569,724 C1565.68629,724 1563,726.686292 1563,730 C1563,730.034928 1563.0003,730.069786 1563.00089,730.104571 L1559.62708,733.493216 C1559.22162,732.405768 1559,731.228765 1559,730 C1559,724.477153 1563.47715,720 1569,720 C1570.21329,720 1571.37611,720.216075 1572.45209,720.611844 Z M1578.40525,726.59475 C1578.79014,727.657603 1579,728.804294 1579,730 C1579,735.522847 1574.52285,740 1569,740 C1567.80429,740 1566.6576,739.790143 1565.59475,739.40525 L1569,736 C1572.31371,736 1575,733.313708 1575,730 L1578.40525,726.59475 Z" id="Combined-Shape"></path>
        </g>
    </g>
</svg>