<?xml version="1.0" encoding="UTF-8"?>
<svg width="32px" height="32px" viewBox="0 0 32 32" version="1.1" xmlns="http://www.w3.org/2000/svg" xmlns:xlink="http://www.w3.org/1999/xlink">
    <!-- Generator: Sketch 55 (78076) - https://sketchapp.com -->
    <title>Combined Shape</title>
    <desc>Created with Sketch.</desc>
    <g id="Sizes" stroke="none" stroke-width="1" fill="none" fill-rule="evenodd">
        <g id="icons-copy-2" transform="translate(-1553.000000, -540.000000)" fill="#102B4E">
            <path d="M1574.71439,546.313236 L1572.59008,548.446878 C1571.45793,548.154018 1570.26189,548 1569,548 C1564.93434,548 1561.55213,549.598805 1558.78844,552.288796 C1557.81157,553.23961 1556.98469,554.260726 1556.30732,555.279763 C1556.12669,555.551514 1555.97525,555.793842 1555.85279,556 C1555.97525,556.206158 1556.12669,556.448486 1556.30732,556.720237 C1556.98469,557.739274 1557.81157,558.76039 1558.78844,559.711204 C1559.23276,560.143677 1559.69307,560.547947 1560.16964,560.921902 L1558.27669,562.823167 C1557.8129,562.446434 1557.36349,562.045551 1556.92847,561.62213 C1555.80773,560.531277 1554.86321,559.364893 1554.08652,558.19643 C1553.61481,557.486779 1553.29904,556.923996 1553.13288,556.580259 C1552.95571,556.213707 1552.95571,555.786293 1553.13288,555.419741 C1553.29904,555.076004 1553.61481,554.513221 1554.08652,553.80357 C1554.86321,552.635107 1555.80773,551.468723 1556.92847,550.37787 C1560.15794,547.234528 1564.17984,545.333333 1569,545.333333 C1571.04888,545.333333 1572.95352,545.676839 1574.71439,546.313236 Z M1579.77832,549.221684 C1580.22266,549.585338 1580.65372,549.971209 1581.07153,550.37787 C1582.19227,551.468723 1583.13679,552.635107 1583.91348,553.80357 C1584.38519,554.513221 1584.70096,555.076004 1584.86712,555.419741 C1585.04429,555.786293 1585.04429,556.213707 1584.86712,556.580259 C1584.70096,556.923996 1584.38519,557.486779 1583.91348,558.19643 C1583.13679,559.364893 1582.19227,560.531277 1581.07153,561.62213 C1577.84206,564.765472 1573.82016,566.666667 1569,566.666667 C1566.959,566.666667 1565.06111,566.325795 1563.30591,565.694085 L1565.43931,563.56069 C1566.56276,563.848634 1567.74903,564 1569,564 C1573.06566,564 1576.44787,562.401195 1579.21156,559.711204 C1580.18843,558.76039 1581.01531,557.739274 1581.69268,556.720237 C1581.87331,556.448486 1582.02475,556.206158 1582.14721,556 C1582.02475,555.793842 1581.87331,555.551514 1581.69268,555.279763 C1581.01531,554.260726 1580.18843,553.23961 1579.21156,552.288796 C1578.78317,551.871829 1578.33992,551.481079 1577.88156,551.118439 L1579.77832,549.221684 Z M1555.27614,571.609476 C1554.75544,572.130175 1553.91122,572.130175 1553.39052,571.609476 C1552.86983,571.088777 1552.86983,570.244557 1553.39052,569.723858 L1582.72386,540.390524 C1583.24456,539.869825 1584.08878,539.869825 1584.60948,540.390524 C1585.13017,540.911223 1585.13017,541.755443 1584.60948,542.276142 L1555.27614,571.609476 Z M1571.30139,549.741229 L1569.05217,552.00033 C1569.03481,552.000111 1569.01742,552 1569,552 C1566.79086,552 1565,553.790861 1565,556 C1565,556.023285 1565.0002,556.046524 1565.0006,556.069714 L1562.75138,558.328811 C1562.48108,557.603845 1562.33333,556.819177 1562.33333,556 C1562.33333,552.318102 1565.3181,549.333333 1569,549.333333 C1569.80886,549.333333 1570.58408,549.477384 1571.30139,549.741229 Z M1575.27017,553.729833 C1575.52676,554.438402 1575.66667,555.202863 1575.66667,556 C1575.66667,559.681898 1572.6819,562.666667 1569,562.666667 C1568.20286,562.666667 1567.4384,562.526762 1566.72983,562.270167 L1569,560 C1571.20914,560 1573,558.209139 1573,556 L1575.27017,553.729833 Z" id="Combined-Shape"></path>
        </g>
    </g>
</svg>