<?xml version="1.0" encoding="UTF-8"?>
<svg width="24px" height="24px" viewBox="0 0 24 24" version="1.1" xmlns="http://www.w3.org/2000/svg" xmlns:xlink="http://www.w3.org/1999/xlink">
    <!-- Generator: Sketch 55 (78076) - https://sketchapp.com -->
    <title>Combined Shape 2</title>
    <desc>Created with Sketch.</desc>
    <g id="Sizes" stroke="none" stroke-width="1" fill="none" fill-rule="evenodd">
        <g id="icons-copy-2" transform="translate(-1557.000000, -360.000000)" fill="#102B4E">
            <g id="Combined-Shape-2" transform="translate(1557.000000, 360.000000)">
                <path d="M16.2857896,4.73492715 L14.6925599,6.33515836 C13.8434489,6.11551386 12.9464143,6 12,6 C8.95075255,6 6.41409759,7.19910391 4.34132838,9.21659721 C3.60867985,9.92970772 2.98851576,10.6955445 2.48049148,11.4598224 C2.34501454,11.6636356 2.23143969,11.8453815 2.13959379,12 C2.23143969,12.1546185 2.34501454,12.3363644 2.48049148,12.5401776 C2.98851576,13.3044555 3.60867985,14.0702923 4.34132838,14.7834028 C4.67457049,15.1077581 5.01980287,15.4109602 5.37722793,15.6914268 L3.95751857,17.1173751 C3.60967236,16.8348256 3.27262104,16.5341636 2.94635391,16.2165972 C2.10579878,15.3984577 1.39740737,14.5236695 0.814889383,13.6473224 C0.461104343,13.1150839 0.224277176,12.6929973 0.099663296,12.435194 C-0.0332210987,12.1602805 -0.0332210987,11.8397195 0.099663296,11.564806 C0.224277176,11.3070027 0.461104343,10.8849161 0.814889383,10.3526776 C1.39740737,9.47633047 2.10579878,8.60154228 2.94635391,7.78340279 C5.36845233,5.42589609 8.38487679,4 12,4 C13.5366569,4 14.9651415,4.25762943 16.2857896,4.73492715 Z M20.0837374,6.91626263 C20.4169939,7.18900328 20.7402937,7.47840677 21.0536461,7.78340279 C21.8942012,8.60154228 22.6025926,9.47633047 23.1851106,10.3526776 C23.5388957,10.8849161 23.7757228,11.3070027 23.9003367,11.564806 C24.0332211,11.8397195 24.0332211,12.1602805 23.9003367,12.435194 C23.7757228,12.6929973 23.5388957,13.1150839 23.1851106,13.6473224 C22.6025926,14.5236695 21.8942012,15.3984577 21.0536461,16.2165972 C18.6315477,18.5741039 15.6151232,20 12,20 C10.4692466,20 9.04583586,19.7443463 7.72943592,19.2705641 L9.32948265,17.6705173 C10.1720717,17.8864756 11.0617712,18 12,18 C15.0492475,18 17.5859024,16.8008961 19.6586716,14.7834028 C20.3913202,14.0702923 21.0114842,13.3044555 21.5195085,12.5401776 C21.6549855,12.3363644 21.7685603,12.1546185 21.8604062,12 C21.7685603,11.8453815 21.6549855,11.6636356 21.5195085,11.4598224 C21.0114842,10.6955445 20.3913202,9.92970772 19.6586716,9.21659721 C19.3373778,8.90387153 19.0049381,8.61080945 18.6611711,8.33882888 L20.0837374,6.91626263 Z M1.70710678,23.7071068 C1.31658249,24.0976311 0.683417511,24.0976311 0.292893219,23.7071068 C-0.0976310729,23.3165825 -0.0976310729,22.6834175 0.292893219,22.2928932 L22.2928932,0.292893219 C22.6834175,-0.0976310729 23.3165825,-0.0976310729 23.7071068,0.292893219 C24.0976311,0.683417511 24.0976311,1.31658249 23.7071068,1.70710678 L1.70710678,23.7071068 Z M13.7260436,7.30592204 L12.0391289,9.00024995 C12.0261058,9.00008349 12.0130626,9 12,9 C10.3431458,9 9,10.3431458 9,12 C9,12.0174638 9.00014922,12.0348928 9.00044646,12.0522857 L7.31353769,13.7466079 C7.11081118,13.2028838 7,12.6143826 7,12 C7,9.23857625 9.23857625,7 12,7 C12.606645,7 13.1880565,7.10803763 13.7260436,7.30592204 Z M16.7026251,10.2973749 C16.8950713,10.8288016 17,11.4021471 17,12 C17,14.7614237 14.7614237,17 12,17 C11.4021471,17 10.8288016,16.8950713 10.2973749,16.7026251 L12,15 C13.6568542,15 15,13.6568542 15,12 L16.7026251,10.2973749 Z" id="Combined-Shape"></path>
            </g>
        </g>
    </g>
</svg>