<?xml version="1.0" encoding="UTF-8"?>
<svg width="16px" height="16px" viewBox="0 0 16 16" version="1.1" xmlns="http://www.w3.org/2000/svg" xmlns:xlink="http://www.w3.org/1999/xlink">
    <!-- Generator: Sketch 55 (78076) - https://sketchapp.com -->
    <title>Combined Shape</title>
    <desc>Created with Sketch.</desc>
    <g id="Sizes" stroke="none" stroke-width="1" fill="none" fill-rule="evenodd">
        <g id="icons-copy-2" transform="translate(-1561.000000, -183.000000)" fill="#102B4E">
            <path d="M1567.86492,194.135083 L1572.13508,189.864917 C1572.26338,190.219201 1572.33333,190.601431 1572.33333,191 C1572.33333,192.840949 1570.84095,194.333333 1569,194.333333 C1568.60143,194.333333 1568.2192,194.263381 1567.86492,194.135083 Z M1565.87569,192.164405 C1565.74054,191.801923 1565.66667,191.409588 1565.66667,191 C1565.66667,189.159051 1567.15905,187.666667 1569,187.666667 C1569.40443,187.666667 1569.79204,187.738692 1570.1507,187.870615 L1565.87569,192.164405 Z M1571.85719,186.156618 L1570.79504,187.223439 C1570.22897,187.077009 1569.63094,187 1569,187 C1566.96717,187 1565.27607,187.799403 1563.89422,189.144398 C1563.40579,189.619805 1562.99234,190.130363 1562.65366,190.639882 C1562.56334,190.775757 1562.48763,190.896921 1562.4264,191 C1562.48763,191.103079 1562.56334,191.224243 1562.65366,191.360118 C1562.99234,191.869637 1563.40579,192.380195 1563.89422,192.855602 C1564.11638,193.071839 1564.34654,193.273973 1564.58482,193.460951 L1563.63835,194.411583 C1563.40645,194.223217 1563.18175,194.022776 1562.96424,193.811065 C1562.40387,193.265638 1561.9316,192.682446 1561.54326,192.098215 C1561.3074,191.743389 1561.14952,191.461998 1561.06644,191.290129 C1560.97785,191.106854 1560.97785,190.893146 1561.06644,190.709871 C1561.14952,190.538002 1561.3074,190.256611 1561.54326,189.901785 C1561.9316,189.317554 1562.40387,188.734362 1562.96424,188.188935 C1564.57897,186.617264 1566.58992,185.666667 1569,185.666667 C1570.02444,185.666667 1570.97676,185.83842 1571.85719,186.156618 Z M1574.38916,187.610842 C1574.61133,187.792669 1574.82686,187.985605 1575.03576,188.188935 C1575.59613,188.734362 1576.0684,189.317554 1576.45674,189.901785 C1576.6926,190.256611 1576.85048,190.538002 1576.93356,190.709871 C1577.02215,190.893146 1577.02215,191.106854 1576.93356,191.290129 C1576.85048,191.461998 1576.6926,191.743389 1576.45674,192.098215 C1576.0684,192.682446 1575.59613,193.265638 1575.03576,193.811065 C1573.42103,195.382736 1571.41008,196.333333 1569,196.333333 C1567.9795,196.333333 1567.03056,196.162898 1566.15296,195.847043 L1567.21966,194.780345 C1567.78138,194.924317 1568.37451,195 1569,195 C1571.03283,195 1572.72393,194.200597 1574.10578,192.855602 C1574.59421,192.380195 1575.00766,191.869637 1575.34634,191.360118 C1575.43666,191.224243 1575.51237,191.103079 1575.5736,191 C1575.51237,190.896921 1575.43666,190.775757 1575.34634,190.639882 C1575.00766,190.130363 1574.59421,189.619805 1574.10578,189.144398 C1573.89159,188.935914 1573.66996,188.74054 1573.44078,188.559219 L1574.38916,187.610842 Z M1562.13807,198.804738 C1561.87772,199.065087 1561.45561,199.065087 1561.19526,198.804738 C1560.93491,198.544388 1560.93491,198.122278 1561.19526,197.861929 L1575.86193,183.195262 C1576.12228,182.934913 1576.54439,182.934913 1576.80474,183.195262 C1577.06509,183.455612 1577.06509,183.877722 1576.80474,184.138071 L1562.13807,198.804738 Z" id="Combined-Shape"></path>
        </g>
    </g>
</svg>