<?xml version="1.0" encoding="UTF-8"?>
<svg width="64px" height="64px" viewBox="0 0 64 64" version="1.1" xmlns="http://www.w3.org/2000/svg" xmlns:xlink="http://www.w3.org/1999/xlink">
    <!-- Generator: Sketch 55 (78076) - https://sketchapp.com -->
    <title>Combined Shape Copy</title>
    <desc>Created with Sketch.</desc>
    <g id="Sizes" stroke="none" stroke-width="1" fill="none" fill-rule="evenodd">
        <g id="icons-copy-2" transform="translate(-1537.000000, -878.000000)" fill="#102B4E">
            <path d="M1580.42877,890.626472 L1576.18016,894.893756 C1573.91586,894.308037 1571.52377,894 1569,894 C1560.86867,894 1554.10426,897.19761 1548.57688,902.577593 C1546.62315,904.479221 1544.96938,906.521452 1543.61464,908.559526 C1543.25337,909.103028 1542.95051,909.587684 1542.70558,910 C1542.95051,910.412316 1543.25337,910.896972 1543.61464,911.440474 C1544.96938,913.478548 1546.62315,915.520779 1548.57688,917.422407 C1549.46552,918.287355 1550.38614,919.095894 1551.33927,919.843805 L1547.55338,923.646334 C1546.62579,922.892868 1545.72699,922.091103 1544.85694,921.244259 C1542.61546,919.062554 1540.72642,916.729785 1539.17304,914.39286 C1538.22961,912.973557 1537.59807,911.847993 1537.26577,911.160517 C1536.91141,910.427415 1536.91141,909.572585 1537.26577,908.839483 C1537.59807,908.152007 1538.22961,907.026443 1539.17304,905.60714 C1540.72642,903.270215 1542.61546,900.937446 1544.85694,898.755741 C1551.31587,892.469056 1559.35967,888.666667 1569,888.666667 C1573.09775,888.666667 1576.90704,889.353678 1580.42877,890.626472 Z M1590.55663,896.443367 C1591.44532,897.170675 1592.30745,897.942418 1593.14306,898.755741 C1595.38454,900.937446 1597.27358,903.270215 1598.82696,905.60714 C1599.77039,907.026443 1600.40193,908.152007 1600.73423,908.839483 C1601.08859,909.572585 1601.08859,910.427415 1600.73423,911.160517 C1600.40193,911.847993 1599.77039,912.973557 1598.82696,914.39286 C1597.27358,916.729785 1595.38454,919.062554 1593.14306,921.244259 C1586.68413,927.530944 1578.64033,931.333333 1569,931.333333 C1564.91799,931.333333 1561.12223,930.65159 1557.61183,929.388171 L1561.87862,925.12138 C1564.12552,925.697268 1566.49806,926 1569,926 C1577.13133,926 1583.89574,922.80239 1589.42312,917.422407 C1591.37685,915.520779 1593.03062,913.478548 1594.38536,911.440474 C1594.74663,910.896972 1595.04949,910.412316 1595.29442,910 C1595.04949,909.587684 1594.74663,909.103028 1594.38536,908.559526 C1593.03062,906.521452 1591.37685,904.479221 1589.42312,902.577593 C1588.56634,901.743657 1587.67983,900.962159 1586.76312,900.236877 L1590.55663,896.443367 Z M1541.55228,941.218951 C1540.51089,942.26035 1538.82245,942.26035 1537.78105,941.218951 C1536.73965,940.177553 1536.73965,938.489113 1537.78105,937.447715 L1596.44772,878.781049 C1597.48911,877.73965 1599.17755,877.73965 1600.21895,878.781049 C1601.26035,879.822447 1601.26035,881.510887 1600.21895,882.552285 L1541.55228,941.218951 Z M1573.60278,897.482459 L1569.10434,902.000667 C1569.06962,902.000223 1569.03483,902 1569,902 C1564.58172,902 1561,905.581722 1561,910 C1561,910.04657 1561.0004,910.093047 1561.00119,910.139429 L1556.50277,914.657621 C1555.96216,913.20769 1555.66667,911.638354 1555.66667,910 C1555.66667,902.636203 1561.6362,896.666667 1569,896.666667 C1570.61772,896.666667 1572.16815,896.954767 1573.60278,897.482459 Z M1581.54033,905.459666 C1582.05352,906.876804 1582.33333,908.405726 1582.33333,910 C1582.33333,917.363797 1576.3638,923.333333 1569,923.333333 C1567.40573,923.333333 1565.8768,923.053523 1564.45967,922.540334 L1569,918 C1573.41828,918 1577,914.418278 1577,910 L1581.54033,905.459666 Z" id="Combined-Shape-Copy"></path>
        </g>
    </g>
</svg>