<?xml version="1.0" encoding="UTF-8"?>
<svg width="16px" height="16px" viewBox="0 0 16 16" version="1.1" xmlns="http://www.w3.org/2000/svg" xmlns:xlink="http://www.w3.org/1999/xlink">
    <!-- Generator: Sketch 57.1 (83088) - https://sketch.com -->
    <title>Icons / Text Field Icons / Mask</title>
    <desc>Created with Sketch.</desc>
    <defs>
        <path d="M15.85425,0.14625 C16.04925,0.34225 16.04925,0.65825 15.85425,0.85425 L0.85425,15.85425 C0.75625,15.95125 0.62825,16.00025 0.50025,16.00025 C0.37225,16.00025 0.24425,15.95125 0.14625,15.85425 C-0.04875,15.65825 -0.04875,15.34225 0.14625,15.14625 L15.14625,0.14625 C15.34225,-0.04875 15.65825,-0.04875 15.85425,0.14625 Z M13.33005,4.79605 C13.57205,4.98005 13.80805,5.17405 14.03505,5.38205 C14.60005,5.90005 15.07505,6.45405 15.46705,7.00905 C15.70405,7.34505 15.86305,7.61205 15.94505,7.77205 C16.01805,7.91505 16.01805,8.08505 15.94505,8.22805 C15.86305,8.38905 15.70405,8.65505 15.46705,8.99105 C15.07505,9.54705 14.60005,10.10105 14.03505,10.61805 C12.41605,12.10405 10.40605,13.00005 8.00005,13.00005 C7.23376429,13.00005 6.50788673,12.9082133 5.82178761,12.7365048 L5.48205,12.64405 L6.30805,11.81705 C6.84605,11.93305 7.40705,12.00005 8.00005,12.00005 C10.13705,12.00005 11.91405,11.20805 13.35905,9.88205 C13.86805,9.41505 14.29805,8.91505 14.65005,8.41505 C14.76305,8.25405 14.85505,8.11405 14.92505,8.00005 C14.85505,7.88605 14.76305,7.74605 14.65005,7.58505 C14.29805,7.08605 13.86805,6.58505 13.35905,6.11805 C13.2003833,5.97271667 13.0359389,5.83582778 12.8677907,5.70471667 L12.61305,5.51205 L13.33005,4.79605 Z M7.99995,3.00045 C8.76623571,3.00045 9.49211327,3.09155204 10.1782124,3.26368032 L10.51795,3.35645 L9.69195,4.18245 C9.15395,4.06645 8.59295,4.00045 7.99995,4.00045 C5.86295,4.00045 4.08595,4.79145 2.64095,6.11845 C2.13195,6.58545 1.70195,7.08545 1.34995,7.58545 C1.23695,7.74545 1.14495,7.88645 1.07495,8.00045 C1.14495,8.11445 1.23695,8.25445 1.34995,8.41545 C1.70195,8.91445 2.13195,9.41545 2.64095,9.88145 C2.79961667,10.02745 2.96406111,10.1645611 3.13220926,10.29545 L3.38695,10.48745 L2.66995,11.20445 C2.42795,11.02045 2.19195,10.82645 1.96495,10.61845 C1.39995,10.10045 0.92395,9.54645 0.53295,8.99145 C0.29595,8.65445 0.13695,8.38845 0.05495,8.22845 C-0.01805,8.08545 -0.01805,7.91545 0.05495,7.77145 C0.13695,7.61145 0.29595,7.34545 0.53295,7.00945 C0.92395,6.45345 1.39995,5.89945 1.96495,5.38145 C3.58395,3.89545 5.59395,3.00045 7.99995,3.00045 Z M7.23605,10.88945 L10.88905,7.23645 C10.95405,7.48145 11.00005,7.73445 11.00005,8.00045 C11.00005,9.65745 9.65705,11.00045 8.00005,11.00045 C7.80055,11.00045 7.6083625,10.974575 7.42137813,10.9342156 L7.23605,10.88945 L10.88905,7.23645 Z M7.99985,5.00065 C8.19935,5.00065 8.3915375,5.0259625 8.57852187,5.06604062 L8.76385,5.11065 L5.11085,8.76365 C5.04585,8.51865 4.99985,8.26565 4.99985,8.00065 C4.99985,6.34265 6.34285,5.00065 7.99985,5.00065 Z" id="path-1"></path>
    </defs>
    <g id="Icons-/-Text-Field-Icons-/-Mask" stroke="none" stroke-width="1" fill="none" fill-rule="evenodd">
        <mask id="mask-2" fill="white">
            <use xlink:href="#path-1"></use>
        </mask>
        <use id="Combined-Shape" fill="#102B4E" xlink:href="#path-1"></use>
    </g>
</svg>