<?xml version="1.0" encoding="utf-8"?>
<!-- Generator: Adobe Illustrator 24.0.1, SVG Export Plug-In . SVG Version: 6.00 Build 0)  -->
<svg version="1.1" id="Layer_1" xmlns="http://www.w3.org/2000/svg" xmlns:xlink="http://www.w3.org/1999/xlink" x="0px" y="0px"
	 viewBox="0 0 65 65" style="enable-background:new 0 0 65 65;" xml:space="preserve">
<title>4748940B-EE5B-4404-A28F-E94436BDE816</title>
<desc>Created with sketchtool.</desc>
<g id="FDS-Cards">
	<g id="VIDEO-CARD---Interactive-States" transform="translate(-301.000000, -274.000000)">
		<g id="Card-_x2F_-Cards-_x2F_-Simple-Card-_x2F_-Default" transform="translate(127.000000, 194.000000)">
			<g id="Card-_x2F_-Cards-_x2F_-components-_x2F_-Media">
				<g id="play-icon" transform="translate(137.000000, 50.000000)">
					<g id="play-symbol" transform="translate(37.500000, 30.764368)">
						<g id="Path-6-Copy-16">
							<path d="M62,33c-0.2,0-0.5-0.1-0.7-0.2L0.3,2.3c-0.7-0.4-1-1.3-0.7-2c0.4-0.7,1.3-1,2-0.7l61,30.5c0.7,0.4,1,1.3,0.7,2
								C63.1,32.7,62.6,33,62,33z"/>
						</g>
						<g id="Path-6-Copy-25">
							<path d="M1,63.5c-0.6,0-1.1-0.3-1.3-0.8c-0.4-0.7-0.1-1.6,0.7-2l61-30.1c0.7-0.4,1.6-0.1,2,0.7c0.4,0.7,0.1,1.6-0.7,2
								l-61,30.1C1.5,63.5,1.2,63.5,1,63.5z"/>
						</g>
						<g id="Path-8-Copy-11">
							<path d="M1,63.5c-0.8,0-1.5-0.7-1.5-1.5V1c0-0.8,0.7-1.5,1.5-1.5S2.5,0.2,2.5,1v61C2.5,62.8,1.8,63.5,1,63.5z"/>
						</g>
					</g>
				</g>
			</g>
		</g>
	</g>
</g>
</svg>
