<?xml version="1.0" encoding="UTF-8"?>
<svg width="16px" height="16px" viewBox="0 0 16 16" version="1.1" xmlns="http://www.w3.org/2000/svg" xmlns:xlink="http://www.w3.org/1999/xlink">
    <!-- Generator: Sketch 57.1 (83088) - https://sketch.com -->
    <title>Icons / Text Field Icons / Unmask</title>
    <desc>Created with Sketch.</desc>
    <defs>
        <path d="M8,3 C10.406657,3 12.4162963,3.89569353 14.0354528,5.38161505 C14.5996673,5.89940222 15.0756625,6.45361698 15.4670472,7.00877493 C15.7043418,7.3453645 15.8626487,7.61138528 15.9449372,7.77189714 C16.0183543,7.91510446 16.0183543,8.08489554 15.9449372,8.22810286 C15.8626487,8.38861472 15.7043418,8.6546355 15.4670472,8.99122507 C15.0756625,9.54638302 14.5996673,10.1005978 14.0354528,10.6183849 C12.4162963,12.1043065 10.406657,13 8,13 C5.593343,13 3.58370367,12.1043065 1.96454718,10.6183849 C1.40033269,10.1005978 0.924337499,9.54638302 0.532952798,8.99122507 C0.295658152,8.6546355 0.137351334,8.38861472 0.0550628317,8.22810286 C-0.0183542772,8.08489554 -0.0183542772,7.91510446 0.0550628317,7.77189714 C0.137351334,7.61138528 0.295658152,7.3453645 0.532952798,7.00877493 C0.924337499,6.45361698 1.40033269,5.89940222 1.96454718,5.38161505 C3.58370367,3.89569353 5.593343,3 8,3 Z M8,4 C5.86276792,4 4.08621672,4.79180647 2.64069075,6.11838495 C2.13226637,6.58497278 1.70242827,7.08544552 1.35026142,7.58497507 C1.23682714,7.74587545 1.14529827,7.88610664 1.07542573,8 C1.14529827,8.11389336 1.23682714,8.25412455 1.35026142,8.41502493 C1.70242827,8.91455448 2.13226637,9.41502722 2.64069075,9.88161505 C4.08621672,11.2081935 5.86276792,12 8,12 C10.1372321,12 11.9137833,11.2081935 13.3593093,9.88161505 C13.8677336,9.41502722 14.2975717,8.91455448 14.6497386,8.41502493 C14.7631729,8.25412455 14.8547017,8.11389336 14.9245743,8 C14.8547017,7.88610664 14.7631729,7.74587545 14.6497386,7.58497507 C14.2975717,7.08544552 13.8677336,6.58497278 13.3593093,6.11838495 C11.9137833,4.79180647 10.1372321,4 8,4 Z M8,5 C9.65685425,5 11,6.34314575 11,8 C11,9.65685425 9.65685425,11 8,11 C6.34314575,11 5,9.65685425 5,8 C5,6.34314575 6.34314575,5 8,5 Z" id="path-1"></path>
    </defs>
    <g id="Icons-/-Text-Field-Icons-/-Unmask" stroke="none" stroke-width="1" fill="none" fill-rule="evenodd">
        <mask id="mask-2" fill="white">
            <use xlink:href="#path-1"></use>
        </mask>
        <use id="Combined-Shape" fill="#102B4E" fill-rule="nonzero" xlink:href="#path-1"></use>
    </g>
</svg>