<svg id="Layer_1" data-name="Layer 1" xmlns="http://www.w3.org/2000/svg" viewBox="0 0 24 24"><defs><style>.cls-1{fill:none;}.cls-2{fill:#102b4e;}</style></defs><title>view_24x24</title><g id="Sizes"><g id="icons-copy-2"><g id="Group-Copy-3"><rect id="Rectangle-Copy-38" class="cls-1" width="24" height="24"/><path id="Combined-Shape" class="cls-2" d="M12,17a5,5,0,1,1,5-5A5,5,0,0,1,12,17Zm0-2a3,3,0,1,0-3-3A3,3,0,0,0,12,15Zm0,5a12.68,12.68,0,0,1-9-3.78A16.67,16.67,0,0,1,.81,13.65,11.17,11.17,0,0,1,.1,12.44a1,1,0,0,1,0-.88,11.17,11.17,0,0,1,.71-1.21A16.67,16.67,0,0,1,3,7.78a12.72,12.72,0,0,1,18.1,0,16.67,16.67,0,0,1,2.14,2.57,11.17,11.17,0,0,1,.71,1.21,1,1,0,0,1,0,.88,11.17,11.17,0,0,1-.71,1.21,16.67,16.67,0,0,1-2.14,2.57A12.68,12.68,0,0,1,12,20ZM2.48,11.46,2.14,12l.34.54a14.07,14.07,0,0,0,1.86,2.24,10.72,10.72,0,0,0,15.32,0,14.07,14.07,0,0,0,1.86-2.24l.34-.54-.34-.54a14.07,14.07,0,0,0-1.86-2.24,10.72,10.72,0,0,0-15.32,0A14.07,14.07,0,0,0,2.48,11.46Z"/></g></g></g></svg>