<svg id="Layer_1" data-name="Layer 1" xmlns="http://www.w3.org/2000/svg" viewBox="0 0 32 32"><defs><style>.cls-1{fill:none;}.cls-2{fill:#102b4e;}</style></defs><title>view_32x32</title><g id="Sizes"><g id="icons-copy-2"><g id="Group-Copy-4"><rect id="Rectangle-Copy-38" class="cls-1" width="32" height="32"/><path id="Combined-Shape" class="cls-2" d="M16,22.67A6.67,6.67,0,1,1,22.67,16,6.67,6.67,0,0,1,16,22.67ZM16,20a4,4,0,1,0-4-4A4,4,0,0,0,16,20Zm0,6.67A16.87,16.87,0,0,1,3.93,21.62,21,21,0,0,1,1.09,18.2a14.61,14.61,0,0,1-1-1.62,1.38,1.38,0,0,1,0-1.16,14.61,14.61,0,0,1,1-1.62,21,21,0,0,1,2.84-3.42,16.95,16.95,0,0,1,24.14,0,21,21,0,0,1,2.84,3.42,14.61,14.61,0,0,1,1,1.62,1.38,1.38,0,0,1,0,1.16,14.61,14.61,0,0,1-1,1.62,21,21,0,0,1-2.84,3.42A16.87,16.87,0,0,1,16,26.67ZM3.31,15.28c-.18.27-.33.51-.46.72.13.21.28.45.46.72a17.8,17.8,0,0,0,2.48,3,14.29,14.29,0,0,0,20.42,0,17.8,17.8,0,0,0,2.48-3c.18-.27.33-.51.46-.72-.13-.21-.28-.45-.46-.72a17.8,17.8,0,0,0-2.48-3,14.29,14.29,0,0,0-20.42,0A17.8,17.8,0,0,0,3.31,15.28Z"/></g></g></g></svg>