<svg id="Layer_1" data-name="Layer 1" xmlns="http://www.w3.org/2000/svg" viewBox="0 0 16 16"><defs><style>.cls-1{fill:none;}.cls-2{fill:#102b4e;}</style></defs><title>view_16x16</title><g id="Sizes"><g id="icons-copy-2"><g id="Group-Copy-2"><rect id="Rectangle-Copy-38" class="cls-1" width="16" height="16"/><path id="Combined-Shape" class="cls-2" d="M8,11.33A3.33,3.33,0,1,1,11.33,8,3.33,3.33,0,0,1,8,11.33ZM8,10A2,2,0,1,0,6,8,2,2,0,0,0,8,10Zm0,3.33a8.47,8.47,0,0,1-6-2.52A10.56,10.56,0,0,1,.54,9.1a8.2,8.2,0,0,1-.47-.81.66.66,0,0,1,0-.58A8.2,8.2,0,0,1,.54,6.9,10.56,10.56,0,0,1,2,5.19,8.5,8.5,0,0,1,14,5.19,10.56,10.56,0,0,1,15.46,6.9a8.2,8.2,0,0,1,.47.81.66.66,0,0,1,0,.58,8.2,8.2,0,0,1-.47.81A10.56,10.56,0,0,1,14,10.81,8.47,8.47,0,0,1,8,13.33ZM1.65,7.64,1.43,8l.22.36a10,10,0,0,0,1.24,1.5,7.17,7.17,0,0,0,10.22,0,10,10,0,0,0,1.24-1.5L14.57,8l-.22-.36a10,10,0,0,0-1.24-1.5,7.17,7.17,0,0,0-10.22,0A10,10,0,0,0,1.65,7.64Z"/></g></g></g></svg>