<svg id="Layer_1" data-name="Layer 1" xmlns="http://www.w3.org/2000/svg" viewBox="0 0 48 48"><defs><style>.cls-1{fill:none;}.cls-2{fill:#102b4e;}</style></defs><title>view_48x48</title><g id="Sizes"><g id="icons-copy-2"><g id="Group-Copy-5"><rect id="Rectangle-Copy-38" class="cls-1" width="48" height="48"/><path id="Combined-Shape" class="cls-2" d="M24,34A10,10,0,1,1,34,24,10,10,0,0,1,24,34Zm0-4a6,6,0,1,0-6-6A6,6,0,0,0,24,30Zm0,10A25.34,25.34,0,0,1,5.89,32.43a30.81,30.81,0,0,1-4.26-5.14A21,21,0,0,1,.2,24.87a2,2,0,0,1,0-1.74,21,21,0,0,1,1.43-2.42,30.81,30.81,0,0,1,4.26-5.14,25.45,25.45,0,0,1,36.22,0,30.81,30.81,0,0,1,4.26,5.14,21,21,0,0,1,1.43,2.42,2,2,0,0,1,0,1.74,21,21,0,0,1-1.43,2.42,30.81,30.81,0,0,1-4.26,5.14A25.34,25.34,0,0,1,24,40ZM5,22.92c-.27.41-.5.77-.68,1.08.18.31.41.67.68,1.08a28.2,28.2,0,0,0,3.72,4.49,21.47,21.47,0,0,0,30.64,0A28.2,28.2,0,0,0,43,25.08c.27-.41.5-.77.68-1.08-.18-.31-.41-.67-.68-1.08a28.2,28.2,0,0,0-3.72-4.49,21.47,21.47,0,0,0-30.64,0A28.2,28.2,0,0,0,5,22.92Z"/></g></g></g></svg>