<svg id="Layer_1" data-name="Layer 1" xmlns="http://www.w3.org/2000/svg" viewBox="0 0 64 64"><defs><style>.cls-1{fill:none;}.cls-2{fill:#102b4e;}</style></defs><title>view_64x64</title><g id="Sizes"><g id="icons-copy-2"><g id="Group-Copy-6"><rect id="Rectangle-Copy-38" class="cls-1" width="64" height="64"/><path id="Combined-Shape" class="cls-2" d="M32,45.33A13.33,13.33,0,1,1,45.33,32,13.33,13.33,0,0,1,32,45.33ZM32,40a8,8,0,1,0-8-8A8,8,0,0,0,32,40Zm0,13.33A33.77,33.77,0,0,1,7.86,43.24a42.36,42.36,0,0,1-5.69-6.85,29,29,0,0,1-1.9-3.23,2.63,2.63,0,0,1,0-2.32,29,29,0,0,1,1.9-3.23,42.36,42.36,0,0,1,5.69-6.85,33.92,33.92,0,0,1,48.28,0,42.36,42.36,0,0,1,5.69,6.85,29,29,0,0,1,1.9,3.23,2.63,2.63,0,0,1,0,2.32,29,29,0,0,1-1.9,3.23,42.36,42.36,0,0,1-5.69,6.85A33.77,33.77,0,0,1,32,53.33ZM6.61,30.56c-.36.54-.66,1-.9,1.44.24.41.54.9.9,1.44a36.66,36.66,0,0,0,5,6,28.59,28.59,0,0,0,40.84,0,36.66,36.66,0,0,0,5-6c.36-.54.66-1,.9-1.44-.24-.41-.54-.9-.9-1.44a36.66,36.66,0,0,0-5-6,28.59,28.59,0,0,0-40.84,0A36.66,36.66,0,0,0,6.61,30.56Z"/></g></g></g></svg>