<?xml version="1.0" encoding="UTF-8"?>
<svg width="48px" height="48px" viewBox="0 0 48 48" version="1.1" xmlns="http://www.w3.org/2000/svg" xmlns:xlink="http://www.w3.org/1999/xlink">
    <!-- Generator: Sketch 55 (78076) - https://sketchapp.com -->
    <title>Combined Shape Copy 16</title>
    <desc>Created with Sketch.</desc>
    <g id="Sizes" stroke="none" stroke-width="1" fill="none" fill-rule="evenodd">
        <g id="icons-copy-2" transform="translate(-712.000000, -706.000000)" fill="#102B4E">
            <path d="M754.763932,750 L736,712.472136 L717.236068,750 L754.763932,750 Z M714,754 C712.895431,754 712,753.104569 712,752 C712,751.664085 712.082814,751.347513 712.229139,751.069586 L734.191769,707.144327 C734.512457,706.467835 735.201594,706 736,706 C736.798406,706 737.487543,706.467835 737.808231,707.144327 L759.770861,751.069586 C759.917186,751.347513 760,751.664085 760,752 C760,753.104569 759.104569,754 758,754 L714,754 Z M734,732 C734,730.895431 734.895431,730 736,730 C737.104569,730 738,730.895431 738,732 L738,746 C738,747.104569 737.104569,748 736,748 C734.895431,748 734,747.104569 734,746 L734,732 Z M736,728 C734.895431,728 734,727.104569 734,726 C734,724.895431 734.895431,724 736,724 C737.104569,724 738,724.895431 738,726 C738,727.104569 737.104569,728 736,728 Z" id="Combined-Shape-Copy-16"></path>
        </g>
    </g>
</svg>