<?xml version="1.0" encoding="UTF-8"?>
<svg width="16px" height="16px" viewBox="0 0 16 16" version="1.1" xmlns="http://www.w3.org/2000/svg" xmlns:xlink="http://www.w3.org/1999/xlink">
    <!-- Generator: Sketch 57.1 (83088) - https://sketch.com -->
    <title>Shape</title>
    <desc>Created with Sketch.</desc>
    <g id="Symbols" stroke="none" stroke-width="1" fill="none" fill-rule="evenodd">
        <g id="Icons-/-Text-Field-Icons-/-Warning" fill="#D62D14" fill-rule="nonzero">
            <path d="M8,1.618 L1.309,15 L14.691,15 L8,1.618 Z M8,12.0001095 C8.27614237,12.0001095 8.5,12.2239672 8.5,12.5001095 C8.5,12.7762519 8.27614237,13.0001095 8,13.0001095 C7.72385763,13.0001095 7.5,12.7762519 7.5,12.5001095 C7.5,12.2239672 7.72385763,12.0001095 8,12.0001095 Z M8,6.00010953 C8.24545989,6.00010953 8.44960837,6.17698469 8.49194433,6.41023389 L8.5,6.50010953 L8.5,10.5001095 C8.5,10.7762519 8.27614237,11.0001095 8,11.0001095 C7.75454011,11.0001095 7.55039163,10.8232344 7.50805567,10.5899852 L7.5,10.5001095 L7.5,6.50010953 C7.5,6.22396715 7.72385763,6.00010953 8,6.00010953 Z M15.51,16.0001095 L15.5,16.0001095 L0.5,16.0001095 C0.490795254,16.0001095 0.481648603,15.9998608 0.4725664,15.9993697 C0.458832377,15.9987649 0.444078364,15.9973338 0.429347781,15.9952297 C0.413792361,15.9929362 0.399091392,15.9901491 0.384632933,15.9867343 L0.360383017,15.9803115 L0.34098779,15.974294 C0.328375,15.9700662 0.315986531,15.9653493 0.303844916,15.9601658 L0.276393202,15.9473231 L0.261065035,15.9394329 L0.24,15.927 L0.262,15.939 L0.223,15.916 L0.190941001,15.8932779 L0.152529658,15.8596437 C0.143293613,15.8508958 0.134759278,15.8419968 0.126592421,15.8328256 C0.116181081,15.8209731 0.10601835,15.8084277 0.096470996,15.795403 C0.0885713947,15.784699 0.0812989496,15.7738614 0.0744714256,15.7627771 L0.0529972637,15.7243804 C0.0459269555,15.7100493 0.0396604744,15.695902 0.0340598053,15.6815028 C0.0311341449,15.6743672 0.028384539,15.6667859 0.0258155391,15.6591217 C0.0189245433,15.6380931 0.0133619322,15.6170161 0.00918442213,15.5956331 L0.006,15.575 L0.001,15.514 L0,15.5001095 L0,15.4888886 C0.000453062867,15.4666651 0.00252333028,15.4435038 0.00625562943,15.4204214 C0.00774510325,15.4115447 0.00931583409,15.4031751 0.0110922303,15.3948819 L0.0197980096,15.3604925 L0.0264717739,15.3391529 C0.0305297619,15.3272108 0.0350268171,15.3154716 0.0399437088,15.3039544 L0.0527864045,15.2765027 L7.5527864,0.276502728 C7.55706327,0.267948988 7.56155224,0.259571409 7.56624375,0.251373178 C7.57368189,0.238260402 7.58208449,0.225015657 7.59111993,0.212161579 C7.59898186,0.201034457 7.60700051,0.190555246 7.61537285,0.180463036 C7.62487124,0.168970341 7.63536489,0.157437369 7.64643874,0.146372219 C7.65732784,0.13547442 7.66886081,0.124980766 7.68081237,0.115083715 C7.69044572,0.107110036 7.70092493,0.0990913837 7.71178182,0.0914543852 C7.72490613,0.0821940191 7.73815088,0.073791411 7.75173433,0.0660389512 C7.75946188,0.0616617709 7.76783946,0.0571728005 7.7763932,0.0528959304 L7.78972262,0.0464551907 L7.825,0.031 L7.79,0.046 L7.82633605,0.0311921481 C7.84317465,0.0249324452 7.86018161,0.0196400993 7.87728914,0.0152925075 C7.88429574,0.0136217805 7.89092295,0.0120891517 7.89758149,0.0106911889 C7.91893947,0.00608806644 7.94073542,0.00301365268 7.96251329,0.0013847927 C7.97494542,0.000489201895 7.98762608,9.7407858e-14 8.00033954,9.7407858e-14 L8.03263935,0.00109506372 C8.05926458,0.00301365268 8.08106053,0.00608806644 8.10273823,0.0106534784 C8.10907705,0.0120891517 8.11570426,0.0136217805 8.12229583,0.015287639 L8.174,0.031 L8.21027738,0.0464551907 L8.2236068,0.0528959304 C8.23216054,0.0571728005 8.24053812,0.0616617709 8.24873635,0.0663532801 C8.26184912,0.073791411 8.27509387,0.0821940191 8.28794795,0.0912294555 C8.29907507,0.0990913837 8.30955428,0.107110036 8.31964649,0.115482375 C8.33113919,0.124980766 8.34267216,0.13547442 8.35373731,0.146548266 L8.38502581,0.180921899 C8.39299949,0.190555246 8.40101814,0.201034457 8.40865514,0.211891347 L8.43407057,0.251843853 C8.43844776,0.259571409 8.44293673,0.267948988 8.4472136,0.276502728 L15.9472136,15.2765027 L15.9600563,15.3039544 L15.9671143,15.3213943 L15.972,15.335 L15.966,15.321 L15.9735282,15.3391529 L15.9890304,15.3953706 L15.9939056,15.421425 L15.999,15.488 L16,15.5001095 C16,15.504936 16,15.5097465 15.9997958,15.5145401 C15.9992621,15.5352824 15.9973806,15.5556658 15.9942758,15.5758198 C15.9932297,15.5828679 15.992073,15.5895303 15.990786,15.5961462 C15.9866381,15.6170161 15.9810755,15.6380931 15.9741749,15.6587229 C15.9716155,15.6667859 15.9688659,15.6743672 15.9659407,15.6818607 C15.9603395,15.695902 15.954073,15.7100493 15.9471576,15.723894 C15.9403631,15.7375883 15.9331552,15.7504614 15.9254113,15.7629677 C15.9187011,15.7738614 15.9114286,15.784699 15.9037212,15.7952598 C15.8939817,15.8084277 15.8838189,15.8209731 15.8730836,15.8329963 C15.8652407,15.8419968 15.8567064,15.8508958 15.8478126,15.8594983 C15.8352029,15.871502 15.8223303,15.8827382 15.8089034,15.8933015 C15.7998615,15.9004924 15.7903614,15.9074203 15.7805652,15.9140422 L15.7599856,15.9272851 L15.738935,15.9394329 C15.7342302,15.9418942 15.7289529,15.9446501 15.7236068,15.9473231 L15.6961551,15.9601658 L15.6777603,15.9675883 L15.669,15.97 L15.6590122,15.974294 L15.667,15.97 L15.6147314,15.9868843 L15.565,15.995 L15.56,15.996 L15.559,15.996 L15.5296087,15.9991619 L15.51,16.0001095 Z" id="Shape"></path>
        </g>
    </g>
</svg>