<?xml version="1.0" encoding="UTF-8"?>
<svg width="64px" height="64px" viewBox="0 0 64 64" version="1.1" xmlns="http://www.w3.org/2000/svg" xmlns:xlink="http://www.w3.org/1999/xlink">
    <!-- Generator: Sketch 55 (78076) - https://sketchapp.com -->
    <title>Combined Shape Copy 18</title>
    <desc>Created with Sketch.</desc>
    <g id="Sizes" stroke="none" stroke-width="1" fill="none" fill-rule="evenodd">
        <g id="icons-copy-2" transform="translate(-704.000000, -878.000000)" fill="#102B4E">
            <path d="M761.018576,936.666667 L736,886.629515 L710.981424,936.666667 L761.018576,936.666667 Z M706.666667,942 C705.193907,942 704,940.806093 704,939.333333 C704,938.885447 704.110419,938.463351 704.305519,938.092781 L733.589025,879.525769 C734.01661,878.62378 734.935459,878 736,878 C737.064541,878 737.98339,878.62378 738.410975,879.525769 L767.694481,938.092781 C767.889581,938.463351 768,938.885447 768,939.333333 C768,940.806093 766.806093,942 765.333333,942 L706.666667,942 Z M733.333333,912.666667 C733.333333,911.193907 734.527241,910 736,910 C737.472759,910 738.666667,911.193907 738.666667,912.666667 L738.666667,931.333333 C738.666667,932.806093 737.472759,934 736,934 C734.527241,934 733.333333,932.806093 733.333333,931.333333 L733.333333,912.666667 Z M736,907.333333 C734.527241,907.333333 733.333333,906.139426 733.333333,904.666667 C733.333333,903.193907 734.527241,902 736,902 C737.472759,902 738.666667,903.193907 738.666667,904.666667 C738.666667,906.139426 737.472759,907.333333 736,907.333333 Z" id="Combined-Shape-Copy-18"></path>
        </g>
    </g>
</svg>