<?xml version="1.0" encoding="UTF-8"?>
<svg width="24px" height="24px" viewBox="0 0 24 24" version="1.1" xmlns="http://www.w3.org/2000/svg" xmlns:xlink="http://www.w3.org/1999/xlink">
    <!-- Generator: Sketch 55 (78076) - https://sketchapp.com -->
    <title>Combined Shape Copy 11</title>
    <desc>Created with Sketch.</desc>
    <g id="Sizes" stroke="none" stroke-width="1" fill="none" fill-rule="evenodd">
        <g id="icons-copy-2" transform="translate(-724.000000, -360.000000)" fill="#102B4E">
            <path d="M745.381966,382 L736,363.236068 L726.618034,382 L745.381966,382 Z M725,384 C724.447715,384 724,383.552285 724,383 C724,382.832043 724.041407,382.673757 724.11457,382.534793 L735.095884,360.572163 C735.256229,360.233918 735.600797,360 736,360 C736.399203,360 736.743771,360.233918 736.904116,360.572163 L747.88543,382.534793 C747.958593,382.673757 748,382.832043 748,383 C748,383.552285 747.552285,384 747,384 L725,384 Z M735,373 C735,372.447715 735.447715,372 736,372 C736.552285,372 737,372.447715 737,373 L737,380 C737,380.552285 736.552285,381 736,381 C735.447715,381 735,380.552285 735,380 L735,373 Z M736,371 C735.447715,371 735,370.552285 735,370 C735,369.447715 735.447715,369 736,369 C736.552285,369 737,369.447715 737,370 C737,370.552285 736.552285,371 736,371 Z" id="Combined-Shape-Copy-11"></path>
        </g>
    </g>
</svg>