<?xml version="1.0" encoding="UTF-8"?>
<svg width="32px" height="32px" viewBox="0 0 32 32" version="1.1" xmlns="http://www.w3.org/2000/svg" xmlns:xlink="http://www.w3.org/1999/xlink">
    <!-- Generator: Sketch 55 (78076) - https://sketchapp.com -->
    <title>Combined Shape Copy 13</title>
    <desc>Created with Sketch.</desc>
    <g id="Sizes" stroke="none" stroke-width="1" fill="none" fill-rule="evenodd">
        <g id="icons-copy-2" transform="translate(-720.000000, -540.000000)" fill="#102B4E">
            <path d="M748.509288,569.333333 L736,544.314757 L723.490712,569.333333 L748.509288,569.333333 Z M721.333333,572 C720.596954,572 720,571.403046 720,570.666667 C720,570.442724 720.055209,570.231675 720.152759,570.04639 L734.794512,540.762884 C735.008305,540.31189 735.46773,540 736,540 C736.53227,540 736.991695,540.31189 737.205488,540.762884 L751.847241,570.04639 C751.944791,570.231675 752,570.442724 752,570.666667 C752,571.403046 751.403046,572 750.666667,572 L721.333333,572 Z M734.666667,557.333333 C734.666667,556.596954 735.26362,556 736,556 C736.73638,556 737.333333,556.596954 737.333333,557.333333 L737.333333,566.666667 C737.333333,567.403046 736.73638,568 736,568 C735.26362,568 734.666667,567.403046 734.666667,566.666667 L734.666667,557.333333 Z M736,554.666667 C735.26362,554.666667 734.666667,554.069713 734.666667,553.333333 C734.666667,552.596954 735.26362,552 736,552 C736.73638,552 737.333333,552.596954 737.333333,553.333333 C737.333333,554.069713 736.73638,554.666667 736,554.666667 Z" id="Combined-Shape-Copy-13"></path>
        </g>
    </g>
</svg>