<?xml version="1.0" encoding="UTF-8"?>
<svg width="24px" height="24px" viewBox="0 0 24 24" version="1.1" xmlns="http://www.w3.org/2000/svg" xmlns:xlink="http://www.w3.org/1999/xlink">
    <!-- Generator: Sketch 58 (84663) - https://sketch.com -->
    <title>Shape</title>
    <desc>Created with Sketch.</desc>
    <g id="Guidelines" stroke="none" stroke-width="1" fill="none" fill-rule="evenodd">
        <g id="Artboard" fill="#102B4E" fill-rule="nonzero">
            <path d="M12.000304,0 C18.6282906,0 24,5.37184555 24,12 C24,18.6275464 18.6282906,24 12.000304,24 C5.37231752,24 0,18.6275464 0,12 C0,5.37184555 5.37231752,0 12.000304,0 Z M12.000304,2 C6.47675101,2 2,6.47655104 2,12 C2,17.5230666 6.47697671,22 12.000304,22 C17.523484,22 22,17.5232139 22,12 C22,6.4764037 17.5237097,2 12.000304,2 Z M12,9 C12.5522847,9 13,9.49746139 13,10.1111111 L13,17.8888889 C13,18.5025386 12.5522847,19 12,19 C11.4477153,19 11,18.5025386 11,17.8888889 L11,10.1111111 C11,9.49746139 11.4477153,9 12,9 Z M12,5 C12.5522847,5 13,5.44771525 13,6 C13,6.55228475 12.5522847,7 12,7 C11.4477153,7 11,6.55228475 11,6 C11,5.44771525 11.4477153,5 12,5 Z" id="Shape"></path>
        </g>
    </g>
</svg>