<?xml version="1.0" encoding="UTF-8"?>
<svg width="1047px" height="393px" viewBox="0 0 1047 393" version="1.1" xmlns="http://www.w3.org/2000/svg" xmlns:xlink="http://www.w3.org/1999/xlink">
    <!-- Generator: Sketch 57.1 (83088) - https://sketch.com -->
    <title>Group 8</title>
    <desc>Created with Sketch.</desc>
    <g id="Page-1" stroke="none" stroke-width="1" fill="none" fill-rule="evenodd">
        <g id="Group-8">
            <path d="M523.5,0 C233.030208,0 0,87.3333333 0,196.5 C0,305.302778 234.847917,393 523.5,393 C812.152083,393 1047,304.938889 1047,196.5 C1047,88.0611111 812.152083,0 523.5,0" id="Fill-1-Copy" fill="#FFFFFF"></path>
            <g id="Page-1-Copy-17" transform="translate(216.000000, 65.000000)" fill="#102B4E">
                <path d="M513.922706,172.135159 C513.922706,172.859774 515.378456,173.955799 516.476653,174.319926 C516.841503,174.319926 517.202704,174.680413 516.476653,175.776438 C513.193007,182.691226 510.27421,186.700273 506.257217,192.886806 C502.608721,198.348723 498.234174,202.718258 493.12628,207.091433 C485.464438,213.642093 474.518951,220.564164 465.762561,215.830502 C461.749215,213.642093 459.924967,208.180175 460.289817,203.810641 C460.651018,191.066166 466.123762,178.321692 476.343199,165.577217 C489.112934,149.919719 502.977219,141.908906 512.098458,146.278441 C521.584548,150.651616 518.665751,161.575452 514.287556,170.31452 C513.922706,171.039134 513.922706,171.76739 513.922706,172.135159 M615.712093,74.1847671 C616.445441,73.0923836 615.712093,72 614.256343,72 L587.622323,72 C585.798075,72 584.699878,72.3641279 583.608978,74.1847671 C580.690181,80.0108127 543.475523,135.354605 536.543381,146.278441 C535.445184,148.09908 533.989434,147.738593 533.620936,145.917954 C532.894885,139.363653 527.422141,132.081096 518.665751,128.803945 C512.098458,126.251409 505.531166,125.526794 498.599024,126.619178 C486.558987,128.072048 475.6135,134.626349 466.123762,141.908906 C451.898276,152.832742 439.128541,167.037369 423.075159,177.597077 C414.318769,183.423123 402.275084,188.153144 394.252041,180.870586 C386.955049,174.319926 387.6811,159.390684 398.995086,147.738593 C400.089635,146.64621 401.549033,147.370824 401.184183,148.466849 C400.089635,153.560998 401.549033,159.022915 405.562378,162.664194 C410.305423,167.037369 417.237565,167.397856 423.440008,164.484833 C430.37215,160.843555 434.385496,154.292895 435.844894,146.64621 C437.669142,134.994118 428.547903,124.430769 417.237565,123.706155 C408.116326,122.977899 398.995086,126.251409 390.603545,133.533966 C386.22535,137.175244 383.671403,139.72778 380.022907,145.189698 C379.293208,146.64621 377.83381,146.64621 377.83381,144.82557 C378.198659,129.892687 371.996216,121.15726 359.59133,120.789491 C349.740391,120.429004 339.524603,125.890922 331.497912,132.081096 C322.741522,138.995883 315.07968,148.466849 306.68814,157.570045 C305.593591,158.662429 304.863892,158.662429 304.499042,156.47402 C304.134193,146.64621 301.580246,136.814758 297.20205,129.892687 C295.742652,127.343792 292.094156,126.251409 289.17536,128.072048 C287.715961,128.803945 283.337766,130.985071 279.68927,133.533966 C277.865022,134.994118 277.500173,136.814758 278.229872,139.363653 C282.608067,154.292895 281.878368,171.406904 275.675925,185.604249 C270.203181,198.716492 259.257693,210.732712 246.487958,214.734477 C238.096417,217.283372 229.340027,216.194629 223.867283,208.547944 C216.570291,198.348723 219.489088,180.5101 230.434576,165.577217 C240.285515,152.472255 254.149799,144.457801 268.378933,138.995883 C270.203181,138.267628 270.203181,137.175244 269.838331,135.722374 C269.108632,133.533966 268.014083,130.260456 267.284384,128.803945 C265.824986,125.526794 262.54134,124.798539 257.798295,125.162666 C247.582506,126.251409 238.461267,129.892687 229.340027,134.626349 C205.624804,147.370824 193.584767,172.135159 188.476873,185.243762 C185.922926,191.433935 183.733828,195.435701 181.179881,199.076979 C177.531385,203.810641 172.788341,208.180175 164.03195,215.830502 C163.302251,216.555116 162.572552,218.015269 163.302251,219.47178 C164.03195,221.292419 168.774995,227.478952 169.869544,228.207207 C171.328942,228.939104 172.788341,227.846721 173.51804,227.478952 C179.720483,223.477186 186.652625,216.922885 190.301121,212.553351 C191.39567,211.093198 192.855068,211.821454 193.584767,214.009862 C196.868413,225.658312 205.624804,235.489764 217.29999,239.498812 C239.190966,246.781369 261.81164,236.221661 278.959571,217.651141 C289.905059,205.99905 293.918404,198.348723 297.93175,193.254575 C304.863892,184.511865 319.093026,164.852602 335.511257,152.472255 C341.7137,147.738593 348.645843,144.457801 352.294338,146.64621 C355.213135,148.466849 356.307684,152.832742 351.564639,161.211324 C334.77791,192.162191 309.606937,228.207207 305.228741,236.949917 C304.499042,238.402787 305.228741,239.498812 306.68814,239.498812 L332.227611,239.498812 C333.687009,239.498812 334.051859,238.770556 334.77791,238.042301 C347.916143,217.651141 359.95618,198.348723 373.087117,178.321692 C373.820464,177.229308 374.550163,177.961205 374.550163,178.689461 C374.911364,183.423123 376.009562,189.613296 378.55986,193.98283 C383.671403,201.629515 390.603545,204.906666 398.265387,204.906666 C404.46783,204.906666 407.747827,204.17841 414.318769,201.629515 C419.791512,199.444748 424.166059,196.895853 427.453354,194.707445 C429.277602,193.254575 429.638803,195.80347 429.638803,195.80347 C426.723655,211.821454 430.37215,231.12023 446.425532,238.770556 C465.762561,248.234239 486.558987,234.761509 498.960225,223.113059 C500.058422,222.017034 501.51782,222.017034 501.51782,224.565929 C501.88267,229.299591 503.706918,234.401022 507.720263,238.402787 C517.936052,248.602008 538.367629,244.592961 559.160407,228.574976 C572.298641,218.375755 586.162925,203.810641 598.567811,188.88504 C598.932661,188.153144 599.293862,187.424888 598.567811,186.332504 C596.743563,184.511865 593.821118,181.96297 591.99687,180.142331 C591.270819,179.417716 589.811421,179.781844 589.081722,180.142331 C576.311986,192.162191 564.633151,205.99905 548.214919,217.651141 C542.742175,221.656547 533.620936,224.565929 529.611239,219.47178 C528.148192,217.283372 528.148192,214.37399 529.611239,210.732712 C534.719133,197.988237 611.702396,81.1031963 615.712093,74.1847671" id="Fill-1"></path>
                <g id="Group-5">
                    <path d="M253.625016,88.5974424 C253.990095,90.4232 254.720254,90.7883515 255.450413,90.4232 C259.466286,89.692897 263.847238,86.4065333 266.037714,82.7550182 C268.22819,79.4686545 269.323429,74.3565333 267.132952,72.5307758 C264.942476,70.7050182 261.656762,71.4353212 259.101206,73.6262303 C254.355175,77.642897 252.894857,83.8504727 253.625016,88.5974424 M57.2123175,239.405018 C28.3710476,239.77017 3.18057143,221.877745 0.259936508,191.205018 C-1.20038095,174.042897 3.54565079,159.071685 13.0377143,146.656533 C21.4345397,135.701988 36.0377143,126.208048 48.4504127,124.017139 C52.4662857,123.286836 57.9424762,123.651988 60.1329524,126.208048 C63.783746,130.224715 62.6885079,134.606533 59.0377143,136.432291 C49.5456508,141.179261 38.5932698,149.212594 32.752,160.532291 C28.3710476,169.661079 27.2758095,180.615624 34.2123175,191.205018 C45.8948571,208.732291 78.0218413,209.097442 107.59327,181.345927 C114.894857,174.408048 121.466286,168.200473 128.402794,160.167139 C141.545651,145.195927 145.926603,139.718655 163.450413,115.253503 C163.815492,114.888352 163.815492,114.5232 163.450413,114.5232 C163.450413,114.158048 163.085333,114.158048 162.720254,114.158048 C151.037714,114.5232 140.815492,117.809564 130.958349,125.477745 C128.037714,127.668655 124.021841,127.303503 122.196444,124.382291 C120.371048,121.461079 121.466286,117.079261 124.752,114.888352 C140.815492,103.933806 157.974222,101.742897 175.863111,98.8216848 C175.863111,98.8216848 176.958349,98.8216848 178.053587,97.3610788 C185.355175,87.8671394 190.831365,79.4686545 198.498032,69.9747152 C206.164698,60.4807758 216.386921,51.7171394 224.053587,44.7792606 C235.005968,35.6504727 241.577397,32.3641091 248.878984,28.7125939 C250.704381,27.6171394 248.513905,26.5216848 248.148825,26.5216848 C208.720254,19.2186545 168.196444,9.72471515 129.132952,23.9656242 C102.117079,34.1898667 90.4345397,55.3686545 95.9107302,69.6095636 C99.9266032,79.8338061 113.43454,81.2944121 125.847238,75.4519879 C136.06946,70.3398667 145.926603,62.3065333 152.498032,51.7171394 C156.148825,45.8747152 164.180571,50.2565333 160.164698,60.1156242 C148.847238,86.7716848 126.942476,108.315624 100.291683,109.045927 C77.6567619,109.77623 63.0535873,92.9792606 63.0535873,72.5307758 C63.0535873,31.9989576 108.323429,5.34289697 155.418667,1.3262303 C212.371048,-3.42073939 266.402794,11.9156242 322.990095,18.4883515 C366.43454,23.6004727 408.053587,23.9656242 451.498032,13.7413818 C456.609143,12.6459273 460.259937,15.9322909 459.894857,21.0444121 C459.529778,28.7125939 453.688508,35.6504727 439.450413,43.6838061 C423.021841,52.8125939 406.22819,55.3686545 388.339302,55.3686545 C345.259937,55.7338061 305.101206,38.9368364 263.482159,29.8080485 C263.482159,31.6338061 263.847238,33.8247152 262.386921,34.9201697 C239.386921,52.0822909 218.577397,69.2444121 204.704381,93.3444121 C204.339302,94.0747152 204.339302,94.4398667 205.43454,94.4398667 C217.482159,93.7095636 228.43454,93.3444121 239.752,92.6141091 C241.577397,92.6141091 241.942476,91.8838061 241.577397,90.4232 C240.482159,82.0247152 243.037714,72.5307758 250.339302,65.9580485 C258.005968,59.3853212 267.132952,58.2898667 273.339302,63.4019879 C280.27581,68.8792606 279.91073,78.7383515 275.894857,86.4065333 C271.878984,94.0747152 265.307556,98.0913818 259.101206,99.9171394 C259.101206,99.9171394 257.640889,100.282291 258.005968,101.377745 C258.371048,103.203503 266.767873,107.950473 267.498032,109.411079 C268.22819,110.506533 267.863111,112.332291 266.402794,113.792897 C265.672635,114.888352 264.212317,115.618655 262.386921,115.618655 C260.926603,115.618655 260.196444,115.253503 258.005968,114.158048 C254.355175,111.967139 249.244063,108.680776 246.323429,104.664109 C245.22819,103.203503 244.863111,103.203503 241.942476,103.568655 C229.894857,104.298958 210.545651,106.124715 197.767873,107.585321 C194.482159,107.950473 194.117079,108.680776 193.386921,109.77623 C172.942476,143.735321 150.672635,180.250473 126.577397,204.715624 C101.752,232.467139 80.2123175,239.405018 57.2123175,239.405018" id="Fill-3"></path>
                </g>
            </g>
            <path d="M524.5,30.8864097 C257.396739,30.8864097 40.8068841,104.955375 40.8068841,195 C40.8068841,285.411339 257.396739,359.11359 524.5,359.11359 C791.603261,359.11359 1008.19312,285.411339 1008.19312,195 C1008.19312,104.955375 791.603261,30.8864097 524.5,30.8864097 M524.5,374 C247.584783,374 23,293.758621 23,195 C23,96.2413793 247.584783,16 524.5,16 C801.415217,16 1026,96.2413793 1026,195 C1026,293.758621 801.415217,374 524.5,374" id="Fill-7-Copy" fill="#102B4E"></path>
        </g>
    </g>
</svg>