<svg xmlns="http://www.w3.org/2000/svg" width="277.176" height="96" viewBox="0 0 138.588 48">
  <g id="Logo-Lincoln" transform="translate(-187.019 -247.684)">
    <g id="Rv_Wordmark" data-name="Rv Wordmark" transform="translate(220.446 267.033)">
      <g id="Group_3" data-name="Group 3" transform="translate(0 0)">
        <g id="Group_2" data-name="Group 2" transform="translate(0 0.034)">
          <path id="Path_1" data-name="Path 1" d="M342.051,295.091l0,5.464-.164-.2c-1.964-2.316-4.022-4.741-4.068-4.792l-.044-.05a.993.993,0,0,0-.761-.432h-1.3l0,8.967h2.008l0-5.616c2.926,3.443,4.334,5.1,4.375,5.148a1.241,1.241,0,0,0,.9.47h1.067l0-8.963Z" transform="translate(-307.943 -294.96)" fill="#231f20"/>
          <path id="Path_2" data-name="Path 2" d="M509.826,295.13V300.6l-.167-.2c-1.986-2.341-4.021-4.742-4.068-4.794l-.045-.051a.991.991,0,0,0-.758-.429h-1.3l0,8.966h2.005l0-5.616c3.109,3.658,4.339,5.1,4.377,5.147a1.229,1.229,0,0,0,.893.47h1.067l0-8.963Z" transform="translate(-406.67 -294.983)" fill="#231f20"/>
          <rect id="Rectangle_1" data-name="Rectangle 1" width="2.029" height="8.963" transform="translate(16.001 0.126)" fill="#231f20"/>
          <path id="Path_3" data-name="Path 3" d="M428.912,299.3a4.671,4.671,0,0,0-4.91-4.518,4.745,4.745,0,0,0-4.937,4.641,4.654,4.654,0,0,0,4.911,4.594,4.747,4.747,0,0,0,4.935-4.526A.475.475,0,0,0,428.912,299.3ZM424,302.2a2.784,2.784,0,0,1-2.867-2.823,2.749,2.749,0,0,1,2.845-2.775,2.782,2.782,0,0,1,2.866,2.822A2.749,2.749,0,0,1,424,302.2Z" transform="translate(-356.993 -294.782)" fill="#231f20"/>
          <path id="Path_4" data-name="Path 4" d="M467.7,302.268l0-7.143H465.67l0,8.963,6.879,0V302.27Z" transform="translate(-384.416 -294.983)" fill="#231f20"/>
          <g id="Group_1" data-name="Group 1" transform="translate(0 0.122)">
            <path id="Path_5" data-name="Path 5" d="M275.12,304.043h-6.88l0-8.963h2.031l0,7.143,4.849,0Z" transform="translate(-268.24 -295.079)" fill="#231f20"/>
          </g>
        </g>
        <path id="Path_6" data-name="Path 6" d="M384.086,300.83l-.367.325a3.425,3.425,0,0,1-2.443,1.026,2.815,2.815,0,0,1-2.837-2.855,2.76,2.76,0,0,1,2.838-2.808,3.371,3.371,0,0,1,2.37.97l.382.337,1.393-1.382-.385-.334a5.208,5.208,0,0,0-3.746-1.408,4.748,4.748,0,0,0-4.92,4.671,4.654,4.654,0,0,0,4.88,4.628,5.218,5.218,0,0,0,3.848-1.558l.373-.351Z" transform="translate(-331.87 -294.7)" fill="#231f20"/>
      </g>
    </g>
    <g id="Rv_Horiz_Star" data-name="Rv Horiz Star" transform="translate(187.019 247.684)">
      <path id="Path_7" data-name="Path 7" d="M201.5,271.683c-.017-.989-.016-.956-.021-1.323v0a136.342,136.342,0,0,0-1.877-20.6c-.236-1.429-.344-1.571-1.867-1.8-.765-.113-1.452-.192-2.108-.239h0c-.589-.041-1.364-.044-1.364-.044s-.779,0-1.368.044h0c-.655.047-1.341.126-2.107.239-1.524.225-1.631.367-1.867,1.8a136.245,136.245,0,0,0-1.877,20.6v0c0,.367,0,.333-.021,1.323.017.989.016.956.021,1.323v0a136.25,136.25,0,0,0,1.877,20.6c.236,1.429.343,1.57,1.867,1.8.691.1,1.315.174,1.912.222l.006,0c.593.056,1.557.059,1.557.059s.963,0,1.557-.059l.009,0c.6-.047,1.218-.12,1.906-.221,1.523-.225,1.631-.367,1.867-1.8a136.346,136.346,0,0,0,1.877-20.6v0C201.481,272.639,201.481,272.673,201.5,271.683Zm-5.886-22.937c.145.871.187,1.1.259,1.558.037.237.07.271.186.288h0c.163.018.323.036.5.059.921.117,1.235.149,1.486,1.354a102.374,102.374,0,0,1,1.879,18.023h0c0,.016,0,.038,0,.075,0,.157.1.217.265.279.324.12.468.162.672.247.1.042.162.108.226.332-.791-.058-2.332-.181-3.319-.236-1.978-.111-2.143-.6-2.143-2.075,0-.687-.12-12.735-.407-20.32A.485.485,0,0,1,195.612,248.746Zm-5.135,3.259c.251-1.205.564-1.237,1.486-1.354.173-.023.333-.041.5-.059h0c.12-.017.154-.049.191-.288.072-.463.114-.686.259-1.558a.485.485,0,0,1,.4-.414c-.282,7.6-.407,19.675-.407,20.32,0,1.477-.165,1.964-2.143,2.075-1,.056-2.446.17-3.322.233.064-.221.124-.286.226-.328.2-.085.348-.127.672-.247.168-.062.268-.123.265-.279,0-.037,0-.059,0-.075h0A102.375,102.375,0,0,1,190.477,252.005Zm2.432,42.616c-.145-.871-.187-1.095-.259-1.558-.037-.24-.071-.272-.191-.288v0c-.163-.018-.323-.037-.5-.058-.921-.118-1.235-.15-1.486-1.354a102.4,102.4,0,0,1-1.879-18.023h0c0-.016,0-.039,0-.076,0-.157-.1-.217-.265-.279-.325-.121-.468-.162-.672-.247-.1-.042-.161-.106-.224-.323.99.07,2.388.175,3.321.228,1.977.111,2.143.6,2.143,2.075,0,.695.121,12.8.409,20.323A.485.485,0,0,1,192.909,294.621Zm5.13-3.259c-.251,1.2-.565,1.235-1.486,1.354-.172.022-.333.041-.5.058v0c-.116.016-.149.051-.186.287-.072.463-.114.686-.259,1.558a.484.484,0,0,1-.394.414c.287-7.507.406-19.625.406-20.321,0-1.477.165-1.964,2.143-2.075.945-.053,2.33-.164,3.319-.234-.065.223-.125.288-.226.33-.2.085-.348.127-.672.247-.168.062-.268.122-.265.279,0,.037,0,.059,0,.076h0A102.4,102.4,0,0,1,198.04,291.362Z" transform="translate(-187.019 -247.684)" fill="#231f20"/>
    </g>
  </g>
</svg>
