<?xml version="1.0" encoding="UTF-8"?>
<svg width="42px" height="30px" viewBox="0 0 42 30" version="1.1" xmlns="http://www.w3.org/2000/svg" xmlns:xlink="http://www.w3.org/1999/xlink">
    <title>Dependencies / Icons / Credit Card / Amex-Logo</title>
    <g id="Dependencies-/-Icons-/-Credit-Card-/-Amex-Logo" stroke="none" stroke-width="1" fill="none" fill-rule="evenodd">
        <g id="Amex">
            <g id="American-Express">
                <rect id="Rectangle" x="0" y="0" width="42" height="30" rx="3"></rect>
                <path d="M35.0462226,18.7585533 L35.0462226,16.3845832 L35.8142717,16.3845832 L35.8142717,0.1159056 L6,0.1159056 L6,11.5668203 L6.76804916,10.5893032 L6.76804916,14.4993716 L6,14.4993716 L6,29.8603547 L35.8142717,29.8603547 L35.8142717,21.2721687 C35.7444491,21.2721687 35.1160452,21.3419913 35.0462226,21.3419913 L35.0462226,20.0851836 L35.0462226,18.7585533 L35.0462226,18.7585533 Z" id="Path" fill="#006FCF" fill-rule="nonzero"></path>
                <path d="M35.8142717,21.2721687 L35.8142717,16.3845832 L35.5349811,16.3845832 L17.3112694,16.3845832 L16.8225108,17.0828097 L16.3337523,16.3845832 L11.0272308,16.3845832 L11.0272308,21.6212819 L16.3337523,21.6212819 L16.8225108,20.9230554 L17.3112694,21.6212819 L20.6627566,21.6212819 L20.6627566,20.5041195 L20.5929339,20.5041195 C21.0118699,20.5041195 21.3609831,20.4342969 21.7100964,20.2946516 L21.7100964,21.6212819 L24.0142438,21.6212819 L24.0142438,20.8532328 L24.572825,21.6212819 L34.6272867,21.6212819 C34.9065773,21.6212819 35.1858679,21.5514593 35.3953358,21.4816366 C35.6048038,21.411814 35.7444491,21.3419913 35.8142717,21.2721687 L35.8142717,21.2721687 Z M32.1834939,14.5691942 L34.4178187,14.5691942 L34.4178187,9.33249546 L32.0438486,9.33249546 L32.0438486,10.1703673 L31.4852674,9.33249546 L29.3905879,9.33249546 L29.3905879,10.3798352 L28.9018294,9.33249546 L25.4805195,9.33249546 C25.3408742,9.33249546 25.1314062,9.33249546 24.9917609,9.40231811 C24.8521156,9.40231811 24.7124703,9.47214076 24.572825,9.47214076 C24.5030024,9.47214076 24.3633571,9.54196341 24.2935344,9.61178606 C24.1538891,9.68160871 24.0840665,9.75143136 24.0142438,9.75143136 L24.0142438,9.54196341 L24.0142438,9.33249546 L12.8426197,9.33249546 L12.5633291,10.2401899 L12.2840385,9.33249546 L9.70060047,9.33249546 L9.70060047,10.3798352 L9.21184192,9.33249546 L7.04733976,9.33249546 L6,11.6366429 L6,14.1502583 L6,14.6390169 L7.53609831,14.6390169 L7.81538891,13.8709677 L8.37397012,13.8709677 L8.65326072,14.6390169 L20.2438207,14.6390169 L20.2438207,13.8709677 L20.8024019,14.6390169 L24.0142438,14.6390169 L24.0142438,14.4993716 L24.0142438,14.2899036 C24.0840665,14.3597263 24.1538891,14.3597263 24.2935344,14.4295489 C24.3633571,14.4993716 24.5030024,14.4993716 24.572825,14.5691942 C24.7124703,14.6390169 24.782293,14.6390169 24.9219383,14.6390169 C25.1314062,14.6390169 25.2710515,14.7088395 25.4805195,14.7088395 L27.4355537,14.7088395 L27.7148443,13.9407904 L28.2734255,13.9407904 L28.5527161,14.7088395 L31.764558,14.7088395 L31.764558,13.9407904 L32.1834939,14.5691942 L32.1834939,14.5691942 Z" id="Shape" fill="#FFFFFF" fill-rule="nonzero"></path>
                <path d="M14.7278313,17.9206815 L14.7278313,17.222455 L11.9349253,17.222455 L11.9349253,20.7135875 L14.7278313,20.7135875 L14.7278313,20.015361 L12.7727971,20.015361 L12.7727971,19.3171345 L14.7278313,19.3171345 L14.7278313,18.618908 L12.7727971,18.618908 L12.7727971,17.9206815 L14.7278313,17.9206815 L14.7278313,17.9206815 Z M17.6603826,20.7135875 L18.7077224,20.7135875 L17.3112694,18.9680212 L18.7077224,17.222455 L17.6603826,17.222455 L16.8225108,18.3396174 L15.984639,17.222455 L14.9372993,17.222455 L16.3337523,18.9680212 L14.9372993,20.7135875 L15.984639,20.7135875 L16.8225108,19.5964251 L17.6603826,20.7135875 L17.6603826,20.7135875 Z M18.8473677,17.222455 L18.8473677,20.7135875 L19.6852395,20.7135875 L19.6852395,19.5266024 L20.7325792,19.5266024 C21.5006284,19.5266024 21.989387,19.0378439 21.989387,18.3396174 C21.989387,17.6413909 21.5006284,17.1526323 20.8024019,17.1526323 L18.8473677,17.1526323 L18.8473677,17.222455 Z M21.1515152,18.40944 C21.1515152,18.618908 21.0118699,18.8283759 20.7325792,18.8283759 L19.7550621,18.8283759 L19.7550621,17.9905041 L20.7325792,17.9905041 C21.0118699,17.9905041 21.1515152,18.1301494 21.1515152,18.40944 L21.1515152,18.40944 Z M23.3160173,19.4567798 L23.7349532,19.4567798 L24.782293,20.7135875 L25.8296327,20.7135875 L24.6426477,19.3869571 C25.2710515,19.2473118 25.6201648,18.8283759 25.6201648,18.2697947 C25.6201648,17.6413909 25.1314062,17.1526323 24.4331797,17.1526323 L22.5479682,17.1526323 L22.5479682,20.6437648 L23.38584,20.6437648 L23.38584,19.4567798 L23.3160173,19.4567798 Z M24.2935344,17.9206815 C24.572825,17.9206815 24.782293,18.1301494 24.782293,18.3396174 C24.782293,18.5490853 24.6426477,18.7585533 24.2935344,18.7585533 L23.3160173,18.7585533 L23.3160173,17.9206815 L24.2935344,17.9206815 L24.2935344,17.9206815 Z M29.0414747,17.9206815 L29.0414747,17.222455 L26.2485686,17.222455 L26.2485686,20.7135875 L29.0414747,20.7135875 L29.0414747,20.015361 L27.0864404,20.015361 L27.0864404,19.3171345 L29.0414747,19.3171345 L29.0414747,18.618908 L27.0864404,18.618908 L27.0864404,17.9206815 L29.0414747,17.9206815 L29.0414747,17.9206815 Z M31.3456221,20.015361 L29.5302332,20.015361 L29.5302332,20.7135875 L31.2757995,20.7135875 C32.0438486,20.7135875 32.4627845,20.2248289 32.4627845,19.5964251 C32.4627845,18.9680212 32.0438486,18.618908 31.3456221,18.618908 L30.5077503,18.618908 C30.2982824,18.618908 30.1586371,18.4792627 30.1586371,18.2697947 C30.1586371,18.0603268 30.2982824,17.9206815 30.5077503,17.9206815 L32.0438486,17.9206815 L32.3231392,17.222455 L30.5077503,17.222455 C29.7397012,17.222455 29.3207653,17.7112135 29.3207653,18.3396174 C29.3207653,18.9680212 29.7397012,19.3869571 30.4379277,19.3869571 L31.2757995,19.3869571 C31.4852674,19.3869571 31.6249127,19.5266024 31.6249127,19.7360704 C31.6947354,19.8757157 31.5550901,20.015361 31.3456221,20.015361 L31.3456221,20.015361 Z M34.6971093,20.015361 L32.8817204,20.015361 L32.8817204,20.7135875 L34.6272867,20.7135875 C35.3953358,20.7135875 35.8142717,20.2248289 35.8142717,19.5964251 C35.8142717,18.9680212 35.3953358,18.618908 34.6971093,18.618908 L33.9290602,18.618908 C33.7195922,18.618908 33.5799469,18.4792627 33.5799469,18.2697947 C33.5799469,18.0603268 33.7195922,17.9206815 33.9290602,17.9206815 L35.4651585,17.9206815 L35.7444491,17.222455 L33.9290602,17.222455 C33.161011,17.222455 32.7420751,17.7112135 32.7420751,18.3396174 C32.7420751,18.9680212 33.161011,19.3869571 33.8592375,19.3869571 L34.6971093,19.3869571 C34.9065773,19.3869571 35.0462226,19.5266024 35.0462226,19.7360704 C35.0462226,19.8757157 34.8367546,20.015361 34.6971093,20.015361 L34.6971093,20.015361 Z" id="Shape" fill="#006FCF" fill-rule="nonzero"></path>
                <path d="M9.21184192,13.7313224 L10.189359,13.7313224 L8.72308337,10.2401899 L7.60592096,10.2401899 L6.06982265,13.7313224 L6.97751711,13.7313224 L7.25680771,12.9632733 L8.93255132,12.9632733 L9.21184192,13.7313224 L9.21184192,13.7313224 Z M7.81538891,11.5668203 L8.09467951,10.8685938 L8.37397012,11.4969976 L8.65326072,12.2650468 L7.53609831,12.2650468 L7.81538891,11.5668203 L7.81538891,11.5668203 Z M11.1668761,11.3573523 L11.1668761,10.3798352 L12.1443932,13.7313224 L12.9124424,13.7313224 L13.8899595,10.3798352 L13.8899595,11.2875297 L13.8899595,13.6614998 L14.7278313,13.6614998 L14.7278313,10.1703673 L13.2615556,10.1703673 L12.5633291,12.6839827 L11.8651026,10.1703673 L10.398827,10.1703673 L10.398827,13.6614998 L11.2366988,13.6614998 L11.2366988,11.3573523 L11.1668761,11.3573523 Z M18.1491412,10.9384164 L18.1491412,10.2401899 L15.3562352,10.2401899 L15.3562352,13.7313224 L18.1491412,13.7313224 L18.1491412,13.0330959 L16.194107,13.0330959 L16.194107,12.3348694 L18.1491412,12.3348694 L18.1491412,11.6366429 L16.194107,11.6366429 L16.194107,10.9384164 L18.1491412,10.9384164 L18.1491412,10.9384164 Z M19.6154168,12.4745147 L20.0343527,12.4745147 L21.0816925,13.7313224 L22.1290323,13.7313224 L20.9420472,12.4046921 C21.5704511,12.2650468 21.9195643,11.8461109 21.9195643,11.2875297 C21.9195643,10.6591258 21.4308058,10.1703673 20.7325792,10.1703673 L18.8473677,10.1703673 L18.8473677,13.6614998 L19.6852395,13.6614998 L19.6852395,12.4745147 L19.6154168,12.4745147 Z M20.5929339,10.9384164 C20.8722245,10.9384164 21.0816925,11.1478844 21.0816925,11.3573523 C21.0816925,11.5668203 20.9420472,11.7762882 20.5929339,11.7762882 L19.6154168,11.7762882 L19.6154168,10.9384164 L20.5929339,10.9384164 L20.5929339,10.9384164 Z M22.3385002,13.7313224 L23.176372,13.7313224 L23.176372,12.1952241 L23.176372,10.2401899 L22.3385002,10.2401899 L22.3385002,12.1952241 L22.3385002,13.7313224 L22.3385002,13.7313224 Z M25.3408742,13.7313224 L25.3408742,13.7313224 L25.7598101,12.9632733 L25.4805195,12.9632733 C24.9219383,12.9632733 24.572825,12.61416 24.572825,11.9857562 L24.572825,11.9159335 C24.572825,11.3573523 24.8521156,10.9384164 25.4805195,10.9384164 L26.3882139,10.9384164 L26.3882139,10.1703673 L25.4106968,10.1703673 C24.2935344,10.1703673 23.7349532,10.8685938 23.7349532,11.9159335 L23.7349532,11.9857562 C23.7349532,13.0330959 24.3633571,13.7313224 25.3408742,13.7313224 L25.3408742,13.7313224 Z M29.0414747,13.7313224 L30.0189918,13.7313224 L28.5527161,10.2401899 L27.4355537,10.2401899 L25.8994554,13.7313224 L26.8071498,13.7313224 L27.0864404,12.9632733 L28.7621841,12.9632733 L29.0414747,13.7313224 L29.0414747,13.7313224 Z M27.6450216,11.5668203 L27.9243122,10.9384164 L28.2036028,11.5668203 L28.4828935,12.3348694 L27.365731,12.3348694 L27.6450216,11.5668203 L27.6450216,11.5668203 Z M30.9965089,11.6366429 L30.9965089,11.3573523 L31.2059768,11.6366429 L32.5326072,13.7313224 L33.5101243,13.7313224 L33.5101243,10.2401899 L32.6722525,10.2401899 L32.6722525,12.2650468 L32.6722525,12.5443374 L32.5326072,12.2650468 L31.2059768,10.2401899 L30.1586371,10.2401899 L30.1586371,13.7313224 L30.9965089,13.7313224 L30.9965089,11.6366429 L30.9965089,11.6366429 Z" id="Shape" fill="#006FCF" fill-rule="nonzero"></path>
            </g>
            <rect id="Rectangle" x="0" y="0" width="42" height="30" rx="3"></rect>
        </g>
    </g>
</svg>