<?xml version="1.0" encoding="UTF-8"?>
<svg width="42px" height="30px" viewBox="0 0 42 30" version="1.1" xmlns="http://www.w3.org/2000/svg" xmlns:xlink="http://www.w3.org/1999/xlink">
    <title>Dependencies / Icons / Credit Card / Apple-Pay-Logo</title>
    <g id="Dependencies-/-Icons-/-Credit-Card-/-Apple-Pay-Logo" stroke="none" stroke-width="1" fill="none" fill-rule="evenodd">
        <g id="Apple-Pay">
            <g id="apple-pay" transform="translate(3.000000, 7.000000)" fill="#000000" fill-rule="nonzero">
                <path d="M6.82679399,1.97001906 C7.24550088,1.43274114 7.54457723,0.716370569 7.45485432,0 C6.82679399,0.0298487737 6.07910312,0.417882832 5.63048859,0.925311985 C5.24168934,1.37304359 4.88279772,2.11926293 4.97252062,2.80578473 C5.69030386,2.89533105 6.37817947,2.50729699 6.82679399,1.97001906 M7.45485432,2.98487737 C6.43799474,2.92517982 5.57067332,3.55200407 5.09215116,3.55200407 C4.613629,3.55200407 3.86593813,3.01472614 3.05843199,3.01472614 C2.01166476,3.04457492 1.05462044,3.61170162 0.516283014,4.56686238 C-0.560391844,6.44733512 0.217206664,9.22327107 1.29388152,10.7455585 C1.80231132,11.4917779 2.43037165,12.3275435 3.2378778,12.2976948 C4.0154763,12.267846 4.31455265,11.7902656 5.24168934,11.7902656 C6.16882602,11.7902656 6.43799474,12.2976948 7.27540852,12.267846 C8.11282229,12.2379972 8.65115972,11.5216266 9.15958952,10.7455585 C9.75774222,9.87994409 9.9970033,9.04417843 9.9970033,9.01432966 C9.96709566,8.98448088 8.35208337,8.38750541 8.35208337,6.53688144 C8.32217574,4.98474521 9.60820404,4.23852587 9.66801931,4.20867709 C8.98014371,3.13412124 7.84365358,3.01472614 7.45485432,2.98487737" id="Shape"></path>
                <path d="M16.2512508,0.863050644 C18.4610694,0.863050644 19.9840525,2.38947096 19.9840525,4.5743471 C19.9840525,6.78915305 18.431207,8.31557337 16.191526,8.31557337 L13.7726705,8.31557337 L13.7726705,12.1765189 L12.0107881,12.1765189 L12.0107881,0.863050644 L16.2512508,0.863050644 Z M13.7726705,6.84901267 L15.7734522,6.84901267 C17.2964353,6.84901267 18.1624453,6.01097799 18.1624453,4.60427691 C18.1624453,3.16764602 17.2964353,2.35954115 15.7734522,2.35954115 L13.7428081,2.35954115 L13.7428081,6.84901267 L13.7726705,6.84901267 L13.7726705,6.84901267 Z M20.4319887,9.87192349 C20.4319887,8.43529261 21.5368979,7.5373983 23.5078172,7.41767906 L25.7773606,7.29795982 L25.7773606,6.66943381 C25.7773606,5.7416097 25.1502499,5.20287311 24.1349279,5.20287311 C23.1494683,5.20287311 22.55222,5.68175007 22.4029079,6.40006552 L20.7903376,6.40006552 C20.8799249,4.90357501 22.1640086,3.79617204 24.1946527,3.79617204 C26.1954344,3.79617204 27.4795182,4.84371539 27.4795182,6.51978476 L27.4795182,12.2064487 L25.8669479,12.2064487 L25.8669479,10.8596072 L25.8370854,10.8596072 C25.3592868,11.7874313 24.3141024,12.3560977 23.2390555,12.3560977 C21.5667604,12.3560977 20.4319887,11.3384842 20.4319887,9.87192349 L20.4319887,9.87192349 Z M25.7773606,9.12367824 L25.7773606,8.46522242 L23.7467165,8.58494166 C22.7313945,8.64480128 22.1640086,9.09374843 22.1640086,9.81206387 C22.1640086,10.5303793 22.7612569,11.0092563 23.6571293,11.0092563 C24.8516258,11.0092563 25.7773606,10.2011514 25.7773606,9.12367824 L25.7773606,9.12367824 Z M28.9726388,15.2592893 L28.9726388,13.8825181 C29.0920885,13.9124479 29.3907126,13.9124479 29.5101623,13.9124479 C30.286585,13.9124479 30.7046588,13.5832199 30.9734205,12.7451853 C30.9734205,12.7152555 31.1227326,12.2363785 31.1227326,12.2363785 L28.1364913,3.9757509 L29.9580985,3.9757509 L32.0484674,10.7099582 L32.0783298,10.7099582 L34.1686987,3.9757509 L35.9604435,3.9757509 L32.884615,12.6853256 C32.167917,14.6906229 31.3616319,15.3191489 29.6594743,15.3191489 C29.5400247,15.2892191 29.1219509,15.2892191 28.9726388,15.2592893 Z" id="Shape"></path>
            </g>
            <g id="Group-2">
                <rect id="Rectangle" x="0" y="0" width="42" height="30" rx="3"></rect>
            </g>
        </g>
    </g>
</svg>