<?xml version="1.0" encoding="UTF-8"?>
<svg width="42px" height="30px" viewBox="0 0 42 30" version="1.1" xmlns="http://www.w3.org/2000/svg" xmlns:xlink="http://www.w3.org/1999/xlink">
    <title>Dependencies / Icons / Credit Card / Discover-Logo</title>
    <g id="Dependencies-/-Icons-/-Credit-Card-/-Discover-Logo" stroke="none" stroke-width="1" fill="none" fill-rule="evenodd">
        <g id="Discover">
            <g id="Group-2"></g>
            <g transform="translate(1.000000, 12.000000)" fill-rule="nonzero">
                <path d="M0,17.3584906 L38.1614577,17.3584906 C39.1774942,17.3584906 40,16.556919 40,15.5698175 L40,3.01886792 C36.3374823,5.27495352 22.5291662,13.0585001 0,17.3584906" id="Path" fill="#E6792B"></path>
                <path d="M6.88514293,3.39966095 C6.60327213,3.65170296 6.24116844,3.75896612 5.66211926,3.75896612 L5.42247629,3.7600229 L5.42247629,0.76563704 L5.66106356,0.76563704 C6.2395849,0.76563704 6.58849239,0.868144691 6.88461508,1.13181128 C7.19498967,1.40340371 7.37868075,1.82400211 7.37868075,2.25728187 C7.37868075,2.69320358 7.19498967,3.12912529 6.88514293,3.39860417 L6.88514293,3.39966095 Z M5.84000401,0 L4.52830189,0 L4.52830189,4.52830189 L5.83578123,4.52830189 C6.52884557,4.52830189 7.03030111,4.364501 7.46999844,4.00519583 C7.9925679,3.57719997 8.30188679,2.93256423 8.30188679,2.26679289 C8.30188679,0.929966315 7.29053014,0 5.8421154,0 L5.84000401,0 Z" id="Shape" fill="#0D1619"></path>
                <polygon id="Path" fill="#0D1619" points="8.30188679 4.52830189 9.05660377 4.52830189 9.05660377 0 8.30188679 0"></polygon>
                <path d="M11.5734176,1.73981858 C11.0625554,1.55192223 10.912065,1.42750439 10.912065,1.19238004 C10.912065,0.918152945 11.1788206,0.709943483 11.5462387,0.709943483 C11.802928,0.709943483 12.012306,0.81506387 12.2357767,1.06136043 L12.6802016,0.482436559 C12.3127835,0.16148929 11.8749017,0 11.3967549,0 C10.623667,0 10.0342882,0.533219354 10.0342882,1.24417849 C10.0342882,1.84595462 10.3090967,2.15166705 11.1078536,2.43757419 C11.4415497,2.55640593 11.611166,2.63410361 11.6967291,2.68640989 C11.8678553,2.79813204 11.9524118,2.95403522 11.9524118,3.13685329 C11.9524118,3.49080937 11.6705569,3.75030946 11.2895493,3.75030946 C10.8843828,3.75030946 10.5567265,3.54920959 10.3599313,3.17138559 L9.81132075,3.69952666 C10.2039044,4.27337225 10.6750049,4.52830189 11.3242779,4.52830189 C12.2080945,4.52830189 12.8301887,3.93922146 12.8301887,3.09825836 C12.8301887,2.40761234 12.5433006,2.09377466 11.5719076,1.73981858" id="Path" fill="#0D1619"></path>
                <path d="M12.8318768,2.26617431 C12.8318768,3.54089736 13.9606885,4.52830189 15.4108121,4.52830189 C15.8199078,4.52830189 16.170481,4.45647225 16.6037736,4.27538065 L16.6037736,3.27988264 C16.2211255,3.61778542 15.8851831,3.75385705 15.4535786,3.75385705 C14.4941449,3.75385705 13.8121311,3.13672922 13.8121311,2.25858668 C13.8121311,1.42748748 14.51384,0.771409783 15.4102493,0.771409783 C15.8615489,0.771409783 16.2070576,0.914057363 16.6032109,1.25701856 L16.6032109,0.264555617 C16.1856743,0.0773938995 15.8412911,0 15.4310699,0 C13.987699,0 12.8301887,1.00763822 12.8301887,2.26617431" id="Path" fill="#0D1619"></path>
                <polyline id="Path" fill="#0D1619" points="23.3927001 2.96630314 22.134085 0 21.1320755 0 23.131212 4.52830189 23.6248929 4.52830189 25.6603774 0.00103068212 24.6643354 0.00103068212 23.3927001 2.96630314"></polyline>
                <polyline id="Path" fill="#0D1619" points="26.4150943 4.52830189 28.6792453 4.52830189 28.6792453 3.76046169 27.2134856 3.76046169 27.2134856 2.53815311 28.6236313 2.53815311 28.6236313 1.77189826 27.2134856 1.77189826 27.2134856 0.767840196 28.6792453 0.767840196 28.6792453 0 26.4150943 0 26.4150943 4.52777344"></polyline>
                <path d="M30.4739004,2.08396997 L30.2405809,2.08396997 L30.2405809,0.712269655 L30.4881852,0.712269655 C30.9905363,0.712269655 31.2633772,0.943704454 31.2633772,1.38332489 C31.2633772,1.83774025 30.9905363,2.08396997 30.4739004,2.08396997 Z M32.0918993,1.33682658 C32.0918993,0.487703925 31.5600262,0 30.6300815,0 L29.4339623,0 L29.4339623,4.52830189 L30.2401048,4.52830189 L30.2401048,2.70852689 L30.3462889,2.70852689 L31.4614606,4.5277735 L32.4528302,4.5277735 L31.1490983,2.62028577 C31.7576335,2.48448955 32.0918993,2.0295458 32.0918993,1.33629819 L32.0918993,1.33682658 Z" id="Shape" fill="#0D1619"></path>
                <path d="M32.7741515,1.24854414 L32.7231005,1.24854414 L32.7231005,0.960478298 L32.7771545,0.960478298 C32.9092866,0.960478298 32.9798572,1.00750946 32.9798572,1.1030415 C32.9798572,1.19710381 32.9047821,1.25001387 32.7741515,1.25001387 L32.7741515,1.24854414 Z M33.254632,1.0971626 C33.254632,0.876704048 33.0999773,0.754716981 32.8191966,0.754716981 L32.4528302,0.754716981 L32.4528302,1.86582809 L32.7231005,1.86582809 L32.7231005,1.43519905 L33.0459233,1.86582809 L33.3867641,1.86582809 L33.0023797,1.41021375 C33.1645419,1.36612204 33.254632,1.25148359 33.254632,1.0971626 Z" id="Shape" fill="#1B1A18"></path>
                <path d="M33.0104822,1.76650149 C32.7631027,1.76650149 32.5626834,1.56448129 32.5626834,1.31195604 C32.5626834,1.05943079 32.7614256,0.857410584 33.0104822,0.857410584 C33.2536688,0.857410584 33.4515723,1.06195604 33.4515723,1.31195604 C33.4515723,1.56195604 33.2545073,1.76650149 33.0104822,1.76650149 Z M33.0104822,0.756400483 C32.7002096,0.756400483 32.4528302,1.00219173 32.4528302,1.31027254 C32.4528302,1.61835334 32.7010482,1.86582809 33.0104822,1.86582809 C33.3157233,1.86582809 33.5639413,1.61666984 33.5639413,1.31027254 C33.5639413,1.00555873 33.3157233,0.754716981 33.0104822,0.754716981 L33.0104822,0.756400483 Z" id="Shape" fill="#1B1A18"></path>
                <path d="M18.8703733,0.00101508673 C17.6190418,0.00101508673 16.6037736,1.00087551 16.6037736,2.23522097 C16.6037736,3.54772811 17.5749636,4.52830189 18.8703733,4.52830189 C20.1339488,4.52830189 21.1320755,3.53453198 21.1320755,2.26110568 C21.1320755,0.994784992 20.1403156,0 18.8703733,0" id="Path" fill="#E6792B"></path>
            </g>
            <rect id="Rectangle" x="0" y="0" width="42" height="30" rx="3"></rect>
        </g>
    </g>
</svg>