<?xml version="1.0" encoding="UTF-8"?>
<svg width="42px" height="30px" viewBox="0 0 42 30" version="1.1" xmlns="http://www.w3.org/2000/svg" xmlns:xlink="http://www.w3.org/1999/xlink">
    <title>Dependencies / Icons / Credit Card / Google-Pay-Logo</title>
    <g id="Dependencies-/-Icons-/-Credit-Card-/-Google-Pay-Logo" stroke="none" stroke-width="1" fill="none" fill-rule="evenodd">
        <g id="Google-Pay">
            <g id="Group-2">
                <rect id="Rectangle" x="0" y="0" width="42" height="30" rx="3"></rect>
            </g>
            <g id="google-pay-logo" transform="translate(3.000000, 8.000000)" fill-rule="nonzero">
                <path d="M17.0166275,6.95626571 L17.0166275,11.147541 L15.6908665,11.147541 L15.6908665,0.796949258 L19.2070152,0.796949258 C20.0547393,0.779189392 20.874417,1.10177761 21.4838657,1.69301501 C22.1004874,2.24928461 22.4472555,3.04572565 22.4349551,3.87743335 C22.4526161,4.71378646 22.1052301,5.51617129 21.4838657,6.0742397 C20.86902,6.66225704 20.1100698,6.95599042 19.2070152,6.95543984 L17.0166275,6.95543984 L17.0166275,6.95626571 Z M17.0166275,2.07126211 L17.0166275,5.68443045 L19.2399534,5.68443045 C19.7328063,5.69908219 20.209008,5.50480539 20.5517157,5.14926861 C20.8923441,4.81713117 21.0845229,4.36092355 21.0845229,3.88445322 C21.0845229,3.40798289 20.8923441,2.95177527 20.5517157,2.61963784 C20.2131644,2.25645997 19.7354849,2.05646767 19.2399534,2.07043625 L17.0166275,2.07043625 L17.0166275,2.07126211 Z" id="Shape" fill="#5F6368"></path>
                <path d="M25.4837305,3.84074941 C26.4670641,3.84074941 27.2432641,4.10325985 27.8123305,4.62828071 C28.3813969,5.15330157 28.6656547,5.87314149 28.6651046,6.78780048 L28.6651046,11.1505918 L27.3925545,11.1505918 L27.3925545,10.1682414 L27.3347113,10.1682414 C26.7838242,10.9772358 26.0511443,11.381733 25.1366716,11.381733 C24.3560645,11.381733 23.7029878,11.1505918 23.1774414,10.6883092 C22.6666581,10.2586105 22.3770466,9.62173828 22.3891219,8.95474979 C22.3891219,8.22225213 22.6662182,7.63972112 23.2204106,7.20715677 C23.7746031,6.77459241 24.5144446,6.55775989 25.439935,6.55665922 C26.2299071,6.55665922 26.8805049,6.70112251 27.3917281,6.99004908 L27.3917281,6.68626343 C27.3947788,6.23158578 27.1930021,5.79963948 26.8422182,5.50991951 C26.4904048,5.19282511 26.0319063,5.01980737 25.5581003,5.02534837 C24.8149535,5.02534837 24.2268815,5.33848975 23.7938842,5.96477249 L22.6221472,5.22759697 C23.2666852,4.30303193 24.2205463,3.84074941 25.4837305,3.84074941 Z M23.7624688,8.98364245 C23.7606738,9.3268388 23.9250549,9.64973702 24.2037442,9.85042217 C24.4979824,10.0816418 24.8631891,10.2041306 25.2374839,10.1971341 C25.7988891,10.1961968 26.337027,9.97296377 26.7339689,9.57635468 C27.1746786,9.16195142 27.3950335,8.67572927 27.3950335,8.11768823 C26.9802154,7.78748643 26.4017839,7.62238553 25.6597389,7.62238553 C25.1193186,7.62238553 24.668693,7.75254007 24.3078619,8.01284916 C23.94345,8.2770106 23.7624688,8.59813185 23.7624688,8.98364245 L23.7624688,8.98364245 Z" id="Shape" fill="#5F6368"></path>
                <polygon id="Path" fill="#5F6368" points="35.9250585 4.07494145 31.4925224 14.2857143 30.1221959 14.2857143 31.7670824 10.7129769 28.852459 4.07494145 30.2953419 4.07494145 32.4019509 9.16586502 32.4308085 9.16586502 34.4797022 4.07494145"></polygon>
                <path d="M11.6627635,6.07811643 C11.6632598,5.67362605 11.6289729,5.2698383 11.5602746,4.87119438 L5.94847775,4.87119438 L5.94847775,7.15725644 L9.1626571,7.15725644 C9.02975181,7.89505521 8.6004221,8.54666163 7.97417937,8.96104431 L7.97417937,10.4449649 L9.89243863,10.4449649 C11.0156245,9.41199128 11.6627635,7.88437751 11.6627635,6.07811643 Z" id="Path" fill="#4285F4"></path>
                <path d="M5.95322638,11.8501171 C7.55326066,11.8501171 8.90048458,11.326576 9.88290398,10.423919 L7.97159181,8.9468438 C7.43961952,9.30626542 6.75447875,9.51141475 5.95322638,9.51141475 C4.40671873,9.51141475 3.09408124,8.47253855 2.62469394,7.07259953 L0.655737705,7.07259953 L0.655737705,8.59480755 C1.66216494,10.5904649 3.711879,11.8500153 5.95322638,11.8501171 Z" id="Path" fill="#34A853"></path>
                <path d="M2.62295082,7.0864207 C2.37264102,6.3481983 2.37264102,5.54875721 2.62295082,4.8105348 L2.62295082,3.27868852 L0.63684343,3.27868852 C-0.212281143,4.9584574 -0.212281143,6.93849811 0.63684343,8.61826698 L2.62295082,7.0864207 Z" id="Path" fill="#FBBC04"></path>
                <path d="M5.95881967,2.36183061 C6.80525809,2.34793126 7.62314231,2.66937801 8.23569087,3.25669178 L8.23569087,3.25669178 L9.92974239,1.55396983 C8.85553734,0.539856652 7.43245421,-0.0169084623 5.95881967,0.000391408464 C3.71510579,0.000494191319 1.66322756,1.27228989 0.655737705,3.28734906 L2.62677283,4.82435597 C3.09665574,3.41080675 4.41067916,2.36183061 5.95881967,2.36183061 Z" id="Path" fill="#EA4335"></path>
            </g>
        </g>
    </g>
</svg>