<?xml version="1.0" encoding="UTF-8"?>
<svg width="42px" height="30px" viewBox="0 0 42 30" version="1.1" xmlns="http://www.w3.org/2000/svg" xmlns:xlink="http://www.w3.org/1999/xlink">
    <title>Dependencies / Icons / Credit Card / PayPal-Logo</title>
    <g id="Dependencies-/-Icons-/-Credit-Card-/-PayPal-Logo" stroke="none" stroke-width="1" fill="none" fill-rule="evenodd">
        <g id="PayPal">
            <g id="Group-2">
                <rect id="Rectangle" x="0" y="0" width="42" height="30" rx="3"></rect>
            </g>
            <g id="Pay-Pal" transform="translate(9.000000, 3.000000)" fill-rule="nonzero">
                <path d="M17.0787879,20.1121212 C16.9727273,20.8166667 16.4393939,20.8166667 15.9242424,20.8166667 L15.6310606,20.8166667 L15.8371212,19.5 C15.8492424,19.4204545 15.9174242,19.3613636 15.9962121,19.3613636 L16.1310606,19.3613636 C16.4818182,19.3613636 16.8128788,19.3613636 16.9840909,19.5628788 C17.0848485,19.6840909 17.1159091,19.8628788 17.0772727,20.1106061 L17.0787879,20.1121212 Z M16.8545455,18.2712121 L14.9113636,18.2712121 C14.7787879,18.2712121 14.6651515,18.369697 14.644697,18.5022727 L13.8606061,23.5386364 C13.8454545,23.6371212 13.9212121,23.7280303 14.019697,23.7280303 L15.0174242,23.7280303 C15.1113636,23.7280303 15.1901515,23.6598485 15.2045455,23.5674242 L15.4265152,22.1393939 C15.4492424,22.0068182 15.5613636,21.9090909 15.6939394,21.9090909 L16.3090909,21.9090909 C17.5893939,21.9090909 18.3272727,21.2825758 18.5212121,20.0416667 C18.6075758,19.4992424 18.5234848,19.0719697 18.2727273,18.7742424 C17.9939394,18.4454545 17.5037879,18.2712121 16.8537879,18.2712121 L16.8545455,18.2712121 Z" id="Shape" fill="#238EC2"></path>
                <path d="M3.22121212,20.1121212 C3.11515152,20.8166667 2.58257576,20.8166667 2.06742424,20.8166667 L1.7719697,20.8166667 L1.97651515,19.5 C1.99015152,19.4204545 2.05757576,19.3613636 2.13787879,19.3613636 L2.27272727,19.3613636 C2.62348485,19.3613636 2.95454545,19.3613636 3.12575758,19.5628788 C3.22727273,19.6840909 3.25833333,19.8628788 3.21969697,20.1106061 L3.22121212,20.1121212 Z M2.9969697,18.2712121 L1.05454545,18.2712121 C0.921212121,18.2712121 0.808333333,18.369697 0.787878788,18.5022727 L0.00227272727,23.5378788 C-0.0128787879,23.6363636 0.0628787879,23.7272727 0.161363636,23.7272727 L1.09090909,23.7272727 C1.22424242,23.7272727 1.33712121,23.6287879 1.35757576,23.4969697 L1.56969697,22.1386364 C1.59015152,22.0060606 1.70378788,21.9083333 1.83636364,21.9083333 L2.45151515,21.9083333 C3.73181818,21.9083333 4.46969697,21.2818182 4.66363636,20.0409091 C4.74924242,19.4984848 4.66590909,19.0712121 4.41363636,18.7734848 C4.13787879,18.444697 3.64848485,18.2704545 2.9969697,18.2704545 L2.9969697,18.2712121 Z" id="Shape" fill="#253667"></path>
                <path d="M7.50757576,21.9189394 C7.41666667,22.4568182 6.99545455,22.8166667 6.45757576,22.8166667 C6.18787879,22.8166667 5.97272727,22.7295455 5.83257576,22.5628788 C5.69393939,22.3984848 5.64318182,22.1636364 5.68560606,21.9022727 C5.76893939,21.3719697 6.19772727,20.9992424 6.7280303,20.9992424 C6.99318182,20.9992424 7.20681818,21.0878788 7.34924242,21.255303 C7.49090909,21.4242424 7.54621212,21.6606061 7.50606061,21.9204545 L7.50757576,21.9189394 Z M8.8030303,20.0878788 L7.87348485,20.0878788 C7.79393939,20.0878788 7.72651515,20.1469697 7.71439394,20.2265152 L7.67272727,20.4878788 L7.60757576,20.3924242 C7.40606061,20.0969697 6.95757576,19.9984848 6.50909091,19.9984848 C5.48106061,19.9984848 4.6030303,20.7863636 4.43333333,21.8893939 C4.34242424,22.4401515 4.46969697,22.9666667 4.77878788,23.3340909 C5.06287879,23.6719697 5.46818182,23.8113636 5.95,23.8113636 C6.77878788,23.8113636 7.23787879,23.2734848 7.23787879,23.2734848 L7.1969697,23.5356061 C7.18181818,23.6340909 7.25757576,23.725 7.35606061,23.725 L8.19469697,23.725 C8.32727273,23.725 8.44015152,23.6265152 8.46136364,23.4939394 L8.96287879,20.2742424 C8.9780303,20.1757576 8.90227273,20.0848485 8.80227273,20.0848485 L8.8030303,20.0878788 Z" id="Shape" fill="#253667"></path>
                <path d="M21.3636364,21.9189394 C21.275,22.4568182 20.8530303,22.8166667 20.3143939,22.8166667 C20.044697,22.8166667 19.8295455,22.7295455 19.6901515,22.5628788 C19.5537879,22.3984848 19.5007576,22.1636364 19.5462121,21.9022727 C19.6295455,21.3719697 20.0583333,20.9992424 20.5878788,20.9992424 C20.8530303,20.9992424 21.0666667,21.0878788 21.2090909,21.255303 C21.3507576,21.4242424 21.4060606,21.6606061 21.3659091,21.9204545 L21.3636364,21.9189394 Z M22.6613636,20.0878788 L21.7310606,20.0878788 C21.6515152,20.0878788 21.5833333,20.1469697 21.5719697,20.2265152 L21.530303,20.4878788 L21.4651515,20.3924242 C21.2636364,20.0969697 20.8136364,19.9984848 20.3666667,19.9984848 C19.3386364,19.9984848 18.4606061,20.7863636 18.2893939,21.8893939 C18.2007576,22.4401515 18.3272727,22.9666667 18.6356061,23.3340909 C18.9181818,23.6719697 19.325,23.8113636 19.8060606,23.8113636 C20.6340909,23.8113636 21.0939394,23.2734848 21.0939394,23.2734848 L21.0522727,23.5356061 C21.0371212,23.6340909 21.1128788,23.725 21.2128788,23.725 L22.0507576,23.725 C22.1833333,23.725 22.2969697,23.6265152 22.3174242,23.4939394 L22.8204545,20.2742424 C22.8356061,20.1757576 22.7598485,20.0848485 22.6613636,20.0848485 L22.6613636,20.0878788 Z" id="Shape" fill="#238EC2"></path>
                <path d="M13.7590909,20.0893939 L12.8242424,20.0893939 C12.7348485,20.0893939 12.65,20.1333333 12.6007576,20.2083333 L11.3106061,22.1287879 L10.7651515,20.2833333 C10.730303,20.1674242 10.625,20.0886364 10.505303,20.0886364 L9.58636364,20.0886364 C9.475,20.0886364 9.3969697,20.1984848 9.43333333,20.3045455 L10.4636364,23.3598485 L9.49242424,24.7409091 C9.41666667,24.85 9.49242424,25 9.625,25 L10.5606061,25 C10.6492424,25 10.7318182,24.9560606 10.7825758,24.8825758 L13.8924242,20.344697 C13.9666667,20.2371212 13.8901515,20.0886364 13.7590909,20.0886364" id="Path" fill="#253667"></path>
                <path d="M23.7575758,18.4090909 L22.9606061,23.5378788 C22.9454545,23.6363636 23.0212121,23.7272727 23.119697,23.7272727 L23.9227273,23.7272727 C24.055303,23.7272727 24.1681818,23.6287879 24.1878788,23.4969697 L24.9772727,18.4606061 C24.9924242,18.3621212 24.9166667,18.2712121 24.8166667,18.2712121 L23.9166667,18.2712121 C23.8378788,18.2712121 23.7704545,18.330303 23.7575758,18.4098485" id="Path" fill="#238EC2"></path>
                <path d="M11.369697,4.16439394 C11.4030303,3.95227273 11.5363636,3.7780303 11.7181818,3.69090909 C11.8015152,3.65075758 11.8924242,3.62878788 11.9893939,3.62878788 L15.9166667,3.62878788 C16.3818182,3.62878788 16.8151515,3.65909091 17.2121212,3.72424242 C17.3257576,3.74242424 17.4356061,3.76363636 17.5431818,3.78787879 C17.6492424,3.81212121 17.7537879,3.83863636 17.8537879,3.86893939 L18.0030303,3.91439394 C18.1977273,3.98106061 18.3795455,4.05833333 18.5462121,4.1469697 C18.7431818,2.87954545 18.5462121,2.01666667 17.8681818,1.23560606 C17.119697,0.376515152 15.7712121,0.00757575758 14.0454545,0.00757575758 L9.03484848,0.00757575758 C8.68181818,0.00757575758 8.38181818,0.266666667 8.32651515,0.618939394 L6.24242424,13.9924242 C6.20151515,14.2575758 6.4030303,14.4954545 6.66666667,14.4954545 L9.76060606,14.4954545 L11.3712121,4.16439394" id="Path" fill="#253667"></path>
                <path d="M18.5454545,4.1469697 C18.7424242,2.87954545 18.5454545,2.01666667 17.8666667,1.23560606 C17.119697,0.376515152 15.7712121,0.00757575758 14.0454545,0.00757575758 L9.03484848,0.00757575758 C8.68181818,0.00757575758 8.38181818,0.266666667 8.32651515,0.618939394 L6.24242424,13.9924242 C6.20151515,14.2575758 6.4030303,14.4954545 6.66666667,14.4954545 L9.76060606,14.4954545 L9.54848485,15.8636364 C9.51212121,16.094697 9.68787879,16.3030303 9.91969697,16.3030303 L12.5257576,16.3030303 C12.8348485,16.3030303 13.0977273,16.0757576 13.1469697,15.7681818 L13.1712121,15.6340909 L13.6636364,12.4856061 L13.6939394,12.3136364 C13.7424242,12.005303 14.0045455,11.7780303 14.3136364,11.7780303 L14.7037879,11.7780303 C17.2295455,11.7780303 19.2068182,10.7401515 19.7848485,7.74015152 C20.0272727,6.48712121 19.9015152,5.44090909 19.2621212,4.70530303 C19.069697,4.48181818 18.830303,4.29772727 18.55,4.14772727" id="Path" fill="#238EC2"></path>
                <path d="M18.5454545,4.1469697 C18.7424242,2.87954545 18.5454545,2.01666667 17.8666667,1.23560606 C17.119697,0.376515152 15.7712121,0.00757575758 14.0454545,0.00757575758 L9.03484848,0.00757575758 C8.68181818,0.00757575758 8.38181818,0.266666667 8.32651515,0.618939394 L6.24242424,13.9924242 C6.20151515,14.2575758 6.4030303,14.4954545 6.66666667,14.4954545 L9.76060606,14.4954545 L10.5378788,9.51439394 L10.5151515,9.66893939 C10.5681818,9.31666667 10.8666667,9.05757576 11.219697,9.05757576 L12.6893939,9.05757576 C15.5757576,9.05757576 17.8371212,7.8719697 18.4977273,4.44242424 C18.5174242,4.34090909 18.5340909,4.24242424 18.5492424,4.14545455" id="Path" fill="#20274F"></path>
            </g>
        </g>
    </g>
</svg>