<?xml version="1.0" encoding="UTF-8"?>
<svg width="42px" height="30px" viewBox="0 0 42 30" version="1.1" xmlns="http://www.w3.org/2000/svg" xmlns:xlink="http://www.w3.org/1999/xlink">
    <title>Dependencies / Icons / Credit Card / Visa-Logo</title>
    <g id="Dependencies-/-Icons-/-Credit-Card-/-Visa-Logo" stroke="none" stroke-width="1" fill="none" fill-rule="evenodd">
        <g id="Visa">
            <g id="Group-2">
                <rect id="Rectangle" x="0" y="0" width="42" height="30" rx="3"></rect>
            </g>
            <g transform="translate(2.000000, 10.000000)" fill="#1A1F71" fill-rule="nonzero" id="Shape">
                <path d="M13.6149022,0.214120127 L8.91908992,11.8066029 L5.84761525,11.8066029 L3.54400924,2.53873408 C3.39634219,1.95758059 3.27820855,1.77405844 2.86474081,1.52936223 C1.95485408,1.07581059 0.991858492,0.746787646 0,0.55057741 L0.0590668207,0.214120127 L4.99114635,0.214120127 C5.65781647,0.217236466 6.22241623,0.724012925 6.32014982,1.40701413 L7.53101962,8.10557274 L10.5434275,0.214120127 L13.6149022,0.214120127 Z M25.6350002,8.01381169 C25.6350002,4.95510911 21.5593895,4.77158696 21.588923,3.42575783 C21.588923,2.99753947 21.9728573,2.56932111 22.8293262,2.446973 C23.8119523,2.35194873 24.8012072,2.53150851 25.694067,2.96695244 L26.196135,0.519990384 C25.3290102,0.175144536 24.4079161,-0.00112965756 23.4790612,5.44728259e-06 C20.6143204,5.44728259e-06 18.6060485,1.59053628 18.5765152,3.82338916 C18.5469817,5.50567557 20.0236522,6.42328635 21.1163884,6.97385279 C22.2091246,7.52441926 22.6225923,7.92205058 22.6225923,8.41144302 C22.6225923,9.17611865 21.7070566,9.54316296 20.8801211,9.54316296 C19.8409457,9.57291477 18.8124175,9.31979283 17.8972467,8.80907434 L17.3656453,11.3477975 C18.3883122,11.7729122 19.4830125,11.9809405 20.584787,11.959538 C23.6267283,11.990125 25.6054668,10.4301867 25.6350002,8.01381169 L25.6350002,8.01381169 Z M33.1955533,11.8066029 L35.8830936,11.8066029 L33.5499542,0.214021311 L31.0691477,0.214021311 C30.524713,0.207365063 30.0321217,0.547474844 29.8287445,1.07055685 L25.4577997,11.8066029 L28.499741,11.8066029 L29.0904092,10.0631424 L32.8116189,10.0631424 L33.1955533,11.8066029 Z M29.9468781,7.70794141 L31.4826155,3.36458377 L32.3686178,7.70794141 L29.9468781,7.70794141 Z M17.7495796,0.214120127 L15.3573734,11.8066029 L12.4630992,11.8066029 L14.8553054,0.214120127 L17.7495796,0.214120127 Z"></path>
            </g>
        </g>
    </g>
</svg>