<?xml version="1.0" encoding="UTF-8"?><svg version="1.1" width="128px" height="101px" viewBox="0 0 128.0 101.0" xmlns="http://www.w3.org/2000/svg" xmlns:xlink="http://www.w3.org/1999/xlink"><defs><clipPath id="i0"><path d="M1440,0 L1440,1587 L0,1587 L0,0 L1440,0 Z"></path></clipPath><clipPath id="i1"><path d="M60.9202614,0 C94.5699346,0 122,10.2937063 122,23 C122,35.7062937 94.5699346,46 61.0797386,46 C27.4300654,46 0,35.7062937 0,23 C0,10.1328671 27.1111111,0 60.9202614,0 Z"></path></clipPath><clipPath id="i2"><path d="M52.3084967,0 C52.4679739,0 52.4679739,0.160839161 52.4679739,0.321678322 C51.9895425,1.12587413 43.0588235,14.7972028 42.2614379,16.0839161 C42.1019608,16.4055944 42.1019608,16.7272727 42.2614379,17.048951 C42.7398693,17.6923077 43.8562092,17.3706294 44.4941176,16.8881119 C46.4078431,15.6013986 47.8431373,13.993007 49.2784314,12.5454545 C49.2784314,12.5454545 49.4379085,12.3846154 49.5973856,12.5454545 C49.9163399,12.7062937 50.2352941,13.027972 50.3947712,13.1888112 C50.5542484,13.3496503 50.3947712,13.5104895 50.3947712,13.5104895 C48.9594771,15.2797203 47.3647059,17.048951 45.7699346,18.1748252 C43.3777778,19.9440559 40.9856209,20.4265734 39.869281,19.3006993 C39.5503268,18.8181818 39.2313725,18.1748252 39.2313725,17.6923077 C39.2313725,17.3706294 39.0718954,17.3706294 38.9124183,17.5314685 C37.4771242,18.979021 35.0849673,20.5874126 32.8522876,19.4615385 C31.0980392,18.6573427 30.6196078,16.4055944 30.9385621,14.4755245 C30.9385621,14.4755245 30.779085,14.1538462 30.6196078,14.3146853 C30.1411765,14.6363636 29.6627451,14.958042 29.0248366,15.1188811 C28.227451,15.2797203 27.9084967,15.4405594 27.1111111,15.4405594 C26.3137255,15.4405594 25.5163399,15.1188811 24.8784314,14.1538462 C24.5594771,13.6713287 24.4,12.8671329 24.4,12.3846154 C24.4,12.3846154 24.4,12.2237762 24.2405229,12.3846154 C22.6457516,14.6363636 21.2104575,16.8881119 19.7751634,19.3006993 C19.6156863,19.4615385 19.6156863,19.4615385 19.4562092,19.4615385 L16.4261438,19.4615385 C16.2666667,19.4615385 16.1071895,19.3006993 16.2666667,19.1398601 C16.9045752,18.1748252 19.7751634,13.993007 21.6888889,10.2937063 C22.3267974,9.32867133 22.1673203,8.68531469 21.848366,8.52447552 C21.5294118,8.2027972 20.572549,8.68531469 19.9346405,9.16783217 C18.020915,10.6153846 16.4261438,13.027972 15.6287582,13.993007 C15.1503268,14.6363636 14.6718954,15.4405594 13.3960784,16.8881119 C11.3228758,19.1398601 8.77124183,20.2657343 6.21960784,19.4615385 C4.94379085,19.1398601 3.82745098,18.013986 3.50849673,16.5664336 C3.50849673,16.2447552 3.34901961,16.2447552 3.18954248,16.4055944 C2.87058824,16.8881119 1.91372549,17.6923077 1.27581699,18.1748252 C1.11633987,18.3356643 0.956862745,18.4965035 0.797385621,18.3356643 C0.637908497,18.3356643 0.159477124,17.5314685 0,17.3706294 C0,17.2097902 0,17.048951 0.159477124,16.8881119 C1.11633987,16.0839161 1.59477124,15.4405594 2.07320261,14.958042 C2.39215686,14.6363636 2.55163399,14.1538462 2.87058824,13.3496503 C3.50849673,11.7412587 4.94379085,8.84615385 7.65490196,7.3986014 C8.77124183,6.75524476 9.8875817,6.43356643 11.0039216,6.27272727 C11.4823529,6.27272727 11.9607843,6.43356643 12.1202614,6.75524476 C12.2797386,6.91608392 12.2797386,7.23776224 12.4392157,7.55944056 C12.4392157,7.72027972 12.4392157,7.88111888 12.2797386,7.88111888 C10.5254902,8.36363636 8.93071895,9.32867133 7.81437908,10.9370629 C6.53856209,12.7062937 6.21960784,14.7972028 7.01699346,15.9230769 C7.65490196,16.7272727 8.61176471,16.8881119 9.56862745,16.5664336 C11.0039216,16.0839161 12.2797386,14.7972028 12.9176471,13.1888112 C13.7150327,11.4195804 13.7150327,9.48951049 13.2366013,7.72027972 C13.0771242,7.3986014 13.2366013,7.23776224 13.3960784,7.07692308 C13.8745098,6.75524476 14.3529412,6.59440559 14.5124183,6.43356643 C14.8313725,6.11188811 15.3098039,6.27272727 15.469281,6.59440559 C15.9477124,7.3986014 16.2666667,8.52447552 16.2666667,9.65034965 C16.4261438,9.97202797 16.4261438,9.97202797 16.5856209,9.81118881 C17.5424837,8.84615385 18.4993464,7.72027972 19.4562092,6.91608392 C20.2535948,6.27272727 21.5294118,5.62937063 22.6457516,5.62937063 C24.0810458,5.62937063 24.7189542,6.59440559 24.7189542,8.36363636 C24.7189542,8.52447552 24.8784314,8.52447552 25.0379085,8.36363636 C25.5163399,7.88111888 25.8352941,7.55944056 26.3137255,7.07692308 C27.2705882,6.27272727 28.227451,5.95104895 29.3437908,5.95104895 C30.779085,6.11188811 31.7359477,7.23776224 31.5764706,8.68531469 C31.4169935,9.65034965 30.9385621,10.2937063 30.1411765,10.7762238 C29.503268,11.2587413 28.7058824,11.0979021 28.0679739,10.6153846 C27.5895425,10.2937063 27.4300654,9.65034965 27.5895425,9.00699301 C27.5895425,8.84615385 27.4300654,8.68531469 27.2705882,8.84615385 C25.9947712,10.1328671 25.9947712,11.9020979 26.7921569,12.7062937 C27.7490196,13.6713287 29.1843137,13.027972 30.1411765,12.3846154 C31.8954248,11.0979021 33.4901961,9.48951049 35.0849673,8.2027972 C36.2013072,7.3986014 37.4771242,6.59440559 38.9124183,6.43356643 C39.7098039,6.43356643 40.5071895,6.43356643 41.3045752,6.75524476 C42.2614379,7.23776224 42.8993464,8.04195804 43.0588235,8.84615385 C43.0588235,9.00699301 43.2183007,9.00699301 43.3777778,8.84615385 C43.7195145,8.29470529 44.7056689,6.76837448 45.7462223,5.15341801 L46.0942788,4.61303247 C47.3719384,2.62849849 48.6329287,0.658674659 48.8,0.321678322 C48.9594771,0 49.1189542,0 49.2784314,0 Z M40.3477124,8.52447552 C39.2313725,8.04195804 37.6366013,9.00699301 36.2013072,10.7762238 C34.9254902,12.2237762 34.2875817,13.8321678 34.2875817,15.2797203 C34.2875817,15.7622378 34.4470588,16.5664336 34.9254902,16.7272727 C35.8823529,17.3706294 37.1581699,16.5664336 38.1150327,15.7622378 C38.7529412,15.2797203 39.2313725,14.7972028 39.7098039,14.1538462 L39.8889042,13.9191843 C40.3053513,13.3848339 40.7065359,12.9274476 40.9856209,12.2237762 L40.9856209,12.0629371 C40.8261438,11.9020979 40.6666667,11.9020979 40.6666667,11.7412587 L40.6666667,11.4195804 C41.145098,10.2937063 41.4640523,9.00699301 40.3477124,8.52447552 Z"></path></clipPath><clipPath id="i3"><path d="M37.347549,2.17295227 C42.450817,2.81630892 47.2351307,2.81630892 52.3383987,1.69043479 C52.9763072,1.52959563 53.2952614,2.01211311 53.2952614,2.4946306 C53.2952614,3.2988264 52.4978758,4.26386137 50.9031046,5.06805717 C48.9893791,6.1939313 47.0756536,6.35477046 45.002451,6.51560962 C40.0586601,6.51560962 35.2743464,4.58553969 30.4900327,3.45966556 C30.4900327,3.62050472 30.4900327,3.94218304 30.3305556,4.1030222 C27.6194444,6.03309213 25.2272876,8.12400123 23.6325163,11.0191061 L23.6325163,11.1799453 C25.0678105,11.1799453 26.3436275,11.0191061 27.6194444,11.0191061 C27.7789216,11.0191061 27.7789216,11.0191061 27.7789216,10.6974278 C27.6194444,9.73239283 27.9383987,8.60651871 28.7357843,7.8023229 C29.5331699,6.9981271 30.6495098,6.9981271 31.4468954,7.48064458 C32.244281,8.12400123 32.244281,9.24987535 31.7658497,10.2149103 C31.3899393,10.9731521 30.8171235,11.3342196 30.2794694,11.6101783 L29.9910855,11.7541364 C29.9440676,11.7773479 29.8976891,11.8003249 29.8521242,11.8233019 C29.8521242,11.8233019 29.6926471,11.8233019 29.6926471,11.9841411 C29.6926471,12.1449802 30.6495098,12.7883369 30.8089869,12.9491761 C30.9684641,13.1100152 30.8089869,13.2708544 30.6495098,13.4316935 C30.4900327,13.5925327 30.3305556,13.5925327 30.1710784,13.5925327 C30.0116013,13.5925327 29.8521242,13.5925327 29.6926471,13.4316935 C29.2142157,13.1100152 28.7357843,12.7883369 28.2573529,12.3058194 C28.0978758,12.1449802 28.0978758,12.1449802 27.7789216,12.1449802 C26.3436275,12.3058194 24.1109477,12.4666586 22.6756536,12.6274977 C22.3566993,12.6274977 22.1972222,12.7883369 22.1972222,12.7883369 C19.8050654,16.8093159 17.2534314,20.9911341 14.3828431,23.886239 C11.8312092,27.2638614 9.27957516,28.0680572 6.56846405,28.0680572 C3.21944444,28.0680572 0.348856209,25.9771481 0.0299019608,22.4386865 C-0.129575163,20.5086166 0.348856209,18.7393858 1.46519608,17.1309942 C2.42205882,15.8442809 4.17630719,14.7184068 5.61160131,14.5575677 C6.09003268,14.3967285 6.72794118,14.5575677 6.8874183,14.879246 C7.36584967,15.3617635 7.20637255,15.8442809 6.72794118,16.0051201 C5.61160131,16.4876376 4.33578431,17.4526726 3.69787582,18.900225 C3.21944444,20.0260991 3.05996732,21.3128124 3.85735294,22.4386865 C5.13316993,24.5295956 8.96062092,24.5295956 12.4691176,21.3128124 L14.8612745,18.900225 C16.4560458,17.1309942 16.9344771,16.4876376 18.8482026,13.5925327 L18.8482026,13.4316935 L18.6887255,13.4316935 C17.4129085,13.4316935 16.1370915,13.914211 15.0207516,14.7184068 C14.7017974,15.0400851 14.223366,14.879246 14.0638889,14.5575677 C13.9044118,14.2358893 14.0638889,13.7533719 14.3828431,13.4316935 C16.2965686,12.1449802 18.2102941,11.8233019 20.2834967,11.5016236 C20.2834967,11.5016236 20.4429739,11.5016236 20.602451,11.3407844 C21.3998366,10.2149103 22.0377451,9.24987535 22.9946078,8.12400123 C23.9514706,6.9981271 25.0678105,6.03309213 26.0246732,5.22889633 C27.3004902,4.1030222 28.0978758,3.78134388 28.8952614,3.2988264 C29.0547386,3.13798724 28.8952614,2.97714808 28.7357843,2.97714808 C28.2882195,2.89932268 27.8406546,2.81848468 27.3930898,2.73740373 L26.4979602,2.57573854 C22.6190649,1.88089782 18.7401697,1.30649615 14.8612745,2.65546976 C11.671732,3.78134388 10.395915,6.35477046 11.0338235,7.96316206 C11.5122549,9.08903619 13.1070261,9.41071451 14.5423203,8.60651871 C15.8181373,7.96316206 16.9344771,6.9981271 17.5723856,5.87225297 C18.050817,5.22889633 19.0076797,5.71141381 18.3697712,6.83728794 C17.0939542,10.0540712 14.5423203,12.4666586 11.5122549,12.6274977 C8.96062092,12.7883369 7.20637255,10.6974278 7.20637255,8.44567955 C7.20637255,3.78134388 12.4691176,0.564560666 17.8913399,0.0820431837 C24.429902,-0.400474299 30.8089869,1.36875647 37.347549,2.17295227 Z M30.0116013,8.60651871 C29.5331699,9.08903619 29.3736928,9.89323199 29.3736928,10.3757495 C29.3736928,10.5365886 29.5331699,10.6974278 29.5331699,10.5365886 C30.0116013,10.3757495 30.4900327,10.0540712 30.8089869,9.57155367 C31.1279412,9.24987535 31.1279412,8.60651871 30.9684641,8.44567955 C30.8089869,8.28484039 30.3305556,8.28484039 30.0116013,8.60651871 Z"></path></clipPath><clipPath id="i4"><path d="M58.5281046,0 C90.7424837,0 117.056209,9.48951049 117.056209,21.0699301 C117.056209,32.6503497 90.9019608,42.1398601 58.5281046,42.1398601 C26.3137255,42.1398601 0,32.6503497 0,21.0699301 C0,9.48951049 26.1542484,0 58.5281046,0 Z M58.5281046,1.76923077 C27.4300654,1.76923077 2.07320261,10.4545455 2.07320261,21.0699301 C2.07320261,31.6853147 27.2705882,40.3706294 58.5281046,40.3706294 C89.6261438,40.3706294 114.983007,31.6853147 114.983007,21.0699301 C114.983007,10.4545455 89.7856209,1.76923077 58.5281046,1.76923077 Z"></path></clipPath></defs><g transform="translate(-636.0 -1025.0)"><g clip-path="url(#i0)"><g transform="translate(636.0000000000003 1025.25)"><g transform="translate(2.8500000000000227 27.75)"><g transform=""><g clip-path="url(#i1)"><polygon points="0,0 122,0 122,46 0,46 0,0" stroke="none" fill="#00095B"></polygon></g></g><g transform="translate(44.33464052287578 16.083916083916066)"><g clip-path="url(#i2)"><polygon points="0,0 52.4679739,0 52.4679739,19.9063545 0,19.9063545 0,0" stroke="none" fill="#FFFFFF"></polygon></g></g><g transform="translate(25.32696078431372 7.638236536568069)"><g clip-path="url(#i3)"><polygon points="-6.9388939e-18,-1.38777878e-17 53.2952614,-1.38777878e-17 53.2952614,28.0680572 -6.9388939e-18,28.0680572 -6.9388939e-18,-1.38777878e-17" stroke="none" fill="#FFFFFF"></polygon></g></g><g transform="translate(2.3921568627450966 1.930069930069923)"><g clip-path="url(#i4)"><polygon points="0,0 117.056209,0 117.056209,42.1398601 0,42.1398601 0,0" stroke="none" fill="#FFFFFF"></polygon></g></g></g></g></g></g></svg>