<?xml version="1.0" encoding="UTF-8"?><svg version="1.1" width="110px" height="80px" viewBox="0 0 110.0 80.0" xmlns="http://www.w3.org/2000/svg" xmlns:xlink="http://www.w3.org/1999/xlink"><defs><clipPath id="i0"><path d="M1440,0 L1440,1587 L0,1587 L0,0 L1440,0 Z"></path></clipPath><clipPath id="i1"><path d="M18.9293734,0 C29.3903428,0 37.9140958,3.13857565 37.8590148,6.92651177 C37.8590148,10.7144479 29.3903428,13.8530235 18.9293734,13.8530235 C8.52375292,13.8530235 0,10.7685613 0,6.92651177 C0,3.08446227 8.41305483,0 18.9293734,0 Z"></path></clipPath><clipPath id="i2"><path d="M16.2907806,0.000845521456 C16.314131,0.00338208582 16.314131,0.0135283433 16.314131,0.0541133732 C16.2034329,0.270566866 13.4359807,4.4372966 13.2699335,4.97843033 C13.2145845,5.14077045 13.2145845,5.2489972 13.2699335,5.30311057 C13.3806316,5.51956407 13.7127259,5.41133732 13.9341221,5.2489972 C14.5429616,4.87020359 14.9857539,4.38318323 15.4285463,3.95027624 L15.5392444,3.95027624 C15.5945934,4.00438962 15.7052915,4.11261636 15.7606405,4.16672974 C15.8159896,4.22084311 15.7606405,4.27495648 15.7606405,4.27495648 C15.3178482,4.81609021 14.8197068,5.30311057 14.3215654,5.68190419 C13.6020278,6.22303792 12.8824902,6.38537804 12.4950469,6.00658442 C12.3843488,5.89835768 12.2736507,5.68190419 12.2736507,5.51956407 C12.2736507,5.41133732 12.2183017,5.41133732 12.1629526,5.46545069 C11.7201603,5.8442443 11.0006227,6.33126466 10.2810851,6.00658442 C9.6722456,5.73601756 9.56154751,5.08665708 9.6722456,4.49140998 C9.6722456,4.49140998 9.6722456,4.38318323 9.61689655,4.4372966 C9.45084942,4.54552335 9.34015133,4.65375009 9.11875515,4.70786347 C8.89735897,4.76197684 8.78666088,4.81609021 8.5652647,4.81609021 C8.28851948,4.81609021 8.01177425,4.70786347 7.84572712,4.4372966 C7.73502903,4.27495648 7.67967998,4.05850299 7.67967998,3.89616287 C7.67967998,3.89616287 7.62433094,3.8420495 7.62433094,3.89616287 C7.12618953,4.59963672 6.68339717,5.30311057 6.24060481,6.00658442 C6.18525577,6.0606978 6.18525577,6.0606978 6.12990672,6.0606978 L5.18897296,6.0606978 C5.13362392,6.0606978 5.07827487,6.00658442 5.13362392,5.95247105 C5.29967105,5.62779081 6.18525577,4.32906986 6.79409526,3.24680239 C7.01549144,2.92212215 6.9601424,2.75978203 6.84944431,2.70566866 C6.73874622,2.65155529 6.46200099,2.75978203 6.24060481,2.92212215 C5.63176532,3.40914251 5.13362392,4.05850299 4.85687869,4.38318323 C4.7461806,4.54552335 4.58013347,4.81609021 4.19269015,5.2489972 C3.58385066,5.89835768 2.75361498,6.27715129 1.97872836,6.00658442 C1.535936,5.8442443 1.20384173,5.51956407 1.09314364,5.08665708 C1.09314364,4.97843033 1.03779459,4.97843033 0.982445547,5.03254371 C0.871747457,5.19488383 0.595002233,5.41133732 0.373606053,5.57367744 L0.262907963,5.57367744 C0.207558918,5.51956407 0.0968608286,5.30311057 0.0415117837,5.2489972 C-0.0138372612,5.19488383 -0.0138372612,5.14077045 0.0415117837,5.14077045 C0.318257008,4.87020359 0.539653188,4.70786347 0.650351278,4.54552335 C0.761049368,4.4372966 0.816398412,4.27495648 0.927096502,4.05850299 C1.14849268,3.57148263 1.535936,2.70566866 2.42152072,2.27276167 C2.75361498,2.11042155 3.08570925,2.00219481 3.47315257,1.94808143 C3.6391997,1.89396806 3.74989779,1.94808143 3.80524684,2.05630818 C3.86059588,2.05630818 3.91594493,2.16453493 3.91594493,2.27276167 C3.91594493,2.32687505 3.91594493,2.38098842 3.86059588,2.38098842 C3.36245448,2.54332854 2.80896403,2.81389541 2.47686976,3.30091576 C2.08942645,3.8420495 1.97872836,4.4372966 2.25547358,4.81609021 C2.47686976,5.08665708 2.80896403,5.14077045 3.08570925,5.03254371 C3.52850161,4.87020359 3.91594493,4.49140998 4.13734111,4.00438962 C4.35873729,3.51736926 4.41408633,2.92212215 4.2480392,2.38098842 C4.19269015,2.27276167 4.2480392,2.2186483 4.30338824,2.16453493 C4.41408633,2.05630818 4.58013347,1.94808143 4.63548251,1.94808143 C4.7461806,1.89396806 4.85687869,1.89396806 4.91222774,2.00219481 C5.07827487,2.2186483 5.18897296,2.54332854 5.18897296,2.92212215 C5.18897296,3.0303489 5.18897296,3.0303489 5.24432201,2.97623553 C5.52106723,2.65155529 5.79781245,2.32687505 6.12990672,2.05630818 C6.40665195,1.83985469 6.79409526,1.67751457 7.12618953,1.67751457 C7.56898189,1.73162794 7.79037807,2.00219481 7.79037807,2.54332854 C7.73502903,2.59744191 7.79037807,2.59744191 7.84572712,2.54332854 C8.01177425,2.32687505 8.0671233,2.2186483 8.23317043,2.11042155 C8.50991566,1.89396806 8.84200993,1.78574132 9.17410419,1.78574132 C9.56154751,1.83985469 9.89364178,2.16453493 9.83829273,2.59744191 C9.78294369,2.86800878 9.6722456,3.13857565 9.39550037,3.24680239 C9.17410419,3.35502914 8.89735897,3.35502914 8.73131184,3.19268902 C8.5652647,3.08446227 8.50991566,2.86800878 8.5652647,2.70566866 C8.5652647,2.65155529 8.50991566,2.59744191 8.45456661,2.65155529 C8.0671233,3.08446227 8.01177425,3.625596 8.28851948,3.8420495 C8.5652647,4.11261636 9.00805706,3.95027624 9.34015133,3.73382275 C9.94899082,3.35502914 10.3917832,2.86800878 10.8899246,2.48921517 C11.2220189,2.2186483 11.6094622,2.00219481 12.0522545,1.94808143 C12.2736507,1.89396806 12.5503959,1.89396806 12.7717921,2.00219481 C13.1038864,2.11042155 13.3252826,2.38098842 13.3252826,2.59744191 C13.3252826,2.65155529 13.3806316,2.65155529 13.4359807,2.59744191 C13.7127259,2.2186483 15.041103,0.270566866 15.151801,0.0541133732 C15.2071501,0 15.2624991,0 15.3178482,0 Z M12.5503959,2.54332854 C12.2183017,2.43510179 11.7201603,2.70566866 11.2773679,3.24680239 C10.8899246,3.67970938 10.6685284,4.16672974 10.6685284,4.59963672 C10.6685284,4.76197684 10.7238775,4.97843033 10.8899246,5.03254371 C11.2220189,5.19488383 11.6094622,4.92431696 11.8862074,4.70786347 C12.1076036,4.59963672 12.2736507,4.4372966 12.3843488,4.22084311 C12.5503959,4.00438962 12.661094,3.89616287 12.7717921,3.625596 L12.7717921,3.57148263 C12.7164431,3.57148263 12.661094,3.57148263 12.661094,3.51736926 C12.661094,3.51736926 12.661094,3.46325588 12.605745,3.40914251 C12.7717921,3.08446227 12.8824902,2.70566866 12.5503959,2.54332854 Z"></path></clipPath><clipPath id="i3"><path d="M11.467741,0.625165831 C13.0175142,0.78750595 14.5119384,0.78750595 16.1170607,0.462825711 C16.2831079,0.408712338 16.449155,0.516939084 16.393806,0.733392577 C16.393806,1.00395944 16.1724098,1.27452631 15.6742684,1.54509318 C15.0654289,1.86977341 14.4565894,1.97800016 13.8477499,1.97800016 C12.2979766,1.97800016 10.8589015,1.38275306 9.36447726,1.05807282 C9.36447726,1.11218619 9.36447726,1.22041294 9.30912821,1.22041294 C8.47889254,1.81566004 7.70400591,2.41090715 7.2058645,3.27672112 L7.2058645,3.33083449 C7.64865686,3.33083449 8.03610018,3.27672112 8.42354349,3.27672112 C8.47889254,3.27672112 8.47889254,3.27672112 8.47889254,3.22260774 C8.42354349,2.95204088 8.53424158,2.57324727 8.81098681,2.35679377 C9.08773203,2.14034028 9.4198263,2.08622691 9.64122248,2.24856703 C9.91796771,2.46502052 9.86261866,2.78970076 9.75192057,3.06026762 C9.58587344,3.33083449 9.36447726,3.49317461 9.14308108,3.54728798 C9.14308108,3.54728798 9.08773203,3.54728798 9.08773203,3.60140136 C9.08773203,3.65551473 9.4198263,3.81785485 9.4198263,3.87196822 C9.4198263,3.9260816 9.4198263,3.98019497 9.36447726,4.03430834 C9.30912821,4.08842172 9.25377917,4.08842172 9.19843012,4.08842172 C9.14308108,4.08842172 9.08773203,4.08842172 9.03238299,4.03430834 C8.9216849,3.98019497 8.70028872,3.81785485 8.58959063,3.7096281 C8.53424158,3.65551473 8.53424158,3.65551473 8.42354349,3.65551473 C7.98075113,3.65551473 7.31656259,3.76374148 6.81842119,3.81785485 C6.7077231,3.81785485 6.7077231,3.87196822 6.65237406,3.87196822 C5.93283647,5.06246243 5.1026008,6.36118339 4.27236512,7.22699736 C3.66352563,8.09281133 2.888639,8.30926482 2.05840333,8.30926482 C1.00677147,8.30926482 0.121186755,7.71401772 0.0104886654,6.63175026 C-0.0448603795,6.03650315 0.121186755,5.49536942 0.453281025,5.06246243 C0.785375294,4.68366882 1.2835167,4.35898858 1.72630906,4.25076183 C1.89235619,4.25076183 2.05840333,4.25076183 2.16910142,4.35898858 C2.27979951,4.5213287 2.27979951,4.68366882 2.11375237,4.73778219 C1.7816581,4.90012231 1.39421479,5.17068918 1.17281861,5.60359616 C1.00677147,5.9282764 0.951422429,6.30707002 1.22816765,6.68586363 C1.67096001,7.28111073 2.77794091,7.33522411 3.88492181,6.36118339 C4.16166703,6.1447299 4.38306321,5.87416303 4.65980844,5.60359616 C5.15794984,5.06246243 5.26864793,4.90012231 5.93283647,4.03430834 L5.93283647,3.98019497 L5.87748743,3.98019497 C5.43469507,3.98019497 5.1026008,4.08842172 4.71515748,4.35898858 C4.60445939,4.41310195 4.43841226,4.41310195 4.38306321,4.30487521 C4.32771417,4.19664846 4.38306321,4.03430834 4.4937613,3.98019497 C5.04725175,3.60140136 5.71144029,3.49317461 6.32027979,3.43906124 C6.32027979,3.43906124 6.37562883,3.43906124 6.37562883,3.38494786 C6.65237406,3.06026762 6.81842119,2.73558739 7.09516641,2.41090715 C7.37191164,2.08622691 7.75935495,1.76154667 8.03610018,1.54509318 C8.42354349,1.22041294 8.70028872,1.11218619 8.9216849,0.94984607 C8.97703394,0.895732697 8.9216849,0.895732697 8.86633585,0.895732697 C7.42726068,0.625165831 5.98818552,0.300485592 4.54911035,0.78750595 C3.55282754,1.16629956 3.16538423,1.92388679 3.33143136,2.41090715 C3.4974785,2.78970076 3.94027085,2.84381413 4.38306321,2.62736064 C4.77050653,2.46502052 5.1026008,2.14034028 5.32399698,1.76154667 C5.43469507,1.54509318 5.76678934,1.70743329 5.6007422,2.08622691 C5.21329889,3.00615425 4.38306321,3.76374148 3.44212945,3.81785485 C2.61189378,3.81785485 2.11375237,3.27672112 2.11375237,2.51913389 C2.11375237,1.11218619 3.71887467,0.138145472 5.43469507,0.0299187256 C7.48260973,-0.132421394 9.4198263,0.408712338 11.467741,0.625165831 Z M9.36447726,2.46502052 C9.14308108,2.62736064 9.08773203,2.84381413 9.14308108,3.00615425 C9.14308108,3.06026762 9.19843012,3.06026762 9.19843012,3.06026762 C9.36447726,3.00615425 9.47517535,2.8979275 9.58587344,2.78970076 C9.69657153,2.68147401 9.69657153,2.51913389 9.64122248,2.41090715 C9.58587344,2.35679377 9.4198263,2.35679377 9.36447726,2.46502052 Z"></path></clipPath><clipPath id="i4"><path d="M18.1544867,0 C28.1726639,0 36.3089735,2.81389541 36.3089735,6.33126466 C36.3089735,9.79452055 28.1726639,12.6625293 18.1544867,12.6625293 C8.1363096,12.6625293 0,9.84863392 0,6.33126466 C0,2.81389541 8.1363096,0 18.1544867,0 Z M18.1544867,0.487020359 C8.46840387,0.487020359 0.608839494,3.08446227 0.608839494,6.27715129 C0.608839494,9.46984031 8.46840387,12.0672822 18.1544867,12.0672822 C27.8405696,12.0672822 35.700134,9.46984031 35.700134,6.27715129 C35.700134,3.13857565 27.8405696,0.487020359 18.1544867,0.487020359 Z"></path></clipPath><clipPath id="i5"><path d="M4.3172255,0 C7.08467775,0 7.74886629,1.19049421 7.74886629,2.81389541 C7.74886629,4.00438962 7.36142297,5.08665708 5.86699876,5.57367744 L7.6381682,8.65813971 L5.53490449,8.65813971 L3.92978219,5.79013093 L1.93721657,5.79013093 L1.93721657,8.65813971 L0,8.65813971 L0,0 L4.3172255,0 Z M4.26187646,1.6234012 L1.99256562,1.6234012 L1.99256562,4.11261636 L4.26187646,4.11261636 C5.31350831,4.11261636 5.81164972,3.8420495 5.81164972,2.86800878 C5.81164972,1.83985469 5.36885736,1.6234012 4.26187646,1.6234012 Z"></path></clipPath><clipPath id="i6"><path d="M3.48698983,0 C6.47583825,0 6.5311873,1.94808143 6.47583825,4.16672974 L1.77116944,4.16672974 C1.88186753,4.97843033 2.26931084,5.41133732 3.48698983,5.41133732 C4.53862168,5.41133732 5.09211213,5.14077045 5.59025354,4.81609021 L6.5311873,6.00658442 C5.64560258,6.6559449 4.81536691,6.92651177 3.48698983,6.92651177 C0.608839494,6.8723984 0,5.30311057 0,3.46325588 C0,1.6234012 0.608839494,0 3.48698983,0 Z M3.43164078,1.51517445 C2.26931084,1.51517445 1.88186753,2.05630818 1.82651848,2.81389541 L4.81536691,2.81389541 C4.76001786,2.05630818 4.59397073,1.51517445 3.43164078,1.51517445 Z"></path></clipPath><clipPath id="i7"><path d="M3.54233887,0 C4.76001786,0 5.64560258,0.378793612 6.30979112,1.08226746 L4.98141404,2.27276167 C4.70466882,2.00219481 4.3172255,1.67751457 3.54233887,1.67751457 C2.2139618,1.67751457 1.88186753,2.38098842 1.88186753,3.46325588 C1.88186753,4.54552335 2.15861275,5.30311057 3.54233887,5.30311057 C4.15117837,5.30311057 4.59397073,5.08665708 5.09211213,4.65375009 L6.30979112,5.79013093 C5.53490449,6.49360478 4.87071595,6.8723984 3.48698983,6.8723984 C0.664188539,6.8723984 0,5.35722395 0,3.46325588 C0,1.56928782 0.608839494,0 3.54233887,0 Z"></path></clipPath><clipPath id="i8"><path d="M3.54233887,0 C6.08839494,0 7.08467775,1.24460758 7.08467775,3.46325588 C7.08467775,5.68190419 6.08839494,6.92651177 3.54233887,6.92651177 C0.996282808,6.8723984 0,5.68190419 0,3.46325588 C0,1.24460758 0.996282808,0 3.54233887,0 Z M3.54233887,1.6234012 C2.2139618,1.6234012 1.88186753,2.32687505 1.88186753,3.46325588 C1.88186753,4.59963672 2.2139618,5.30311057 3.54233887,5.30311057 C4.81536691,5.30311057 5.20281022,4.59963672 5.20281022,3.46325588 C5.20281022,2.32687505 4.87071595,1.6234012 3.54233887,1.6234012 Z"></path></clipPath><clipPath id="i9"><path d="M6.91863061,0 L6.91863061,1.4069477 L5.97769685,1.4069477 C6.42048921,1.67751457 6.75258348,2.05630818 6.75258348,2.81389541 C6.75258348,4.27495648 5.81164972,4.92431696 3.59768792,4.92431696 C3.15489556,4.92431696 2.87815034,4.92431696 2.60140511,4.87020359 C2.54605607,4.92431696 2.54605607,5.03254371 2.54605607,5.08665708 C2.54605607,5.41133732 2.76745225,5.46545069 3.65303696,5.46545069 C6.42048921,5.46545069 7.14002679,5.89835768 7.14002679,7.25119201 C7.14002679,8.82047983 5.97769685,9.41572694 3.48698983,9.41572694 C0.885584719,9.41572694 0,9.14516007 0,7.79232574 C0,7.03473852 0.387443314,6.49360478 1.32837708,6.33126466 C0.996282808,6.0606978 0.940933764,5.73601756 0.940933764,5.41133732 C0.940933764,5.03254371 1.05163185,4.70786347 1.27302803,4.49140998 C0.664188539,4.16672974 0.387443314,3.625596 0.387443314,2.81389541 C0.387443314,1.35283433 1.32837708,0.595247105 3.54233887,0.595247105 L3.92978219,0.595247105 L6.91863061,0 Z M3.48698983,6.81828502 C1.99256562,6.81828502 1.77116944,7.08885189 1.77116944,7.52175887 C1.77116944,8.00877923 2.10326371,8.22523273 3.48698983,8.22523273 C4.87071595,8.22523273 5.20281022,7.90055249 5.20281022,7.41353213 C5.20281022,6.92651177 4.81536691,6.81828502 3.48698983,6.81828502 Z M3.48698983,2.00219481 C2.49070702,2.00219481 2.15861275,2.27276167 2.15861275,2.86800878 C2.15861275,3.40914251 2.49070702,3.73382275 3.48698983,3.73382275 C4.48327264,3.73382275 4.81536691,3.40914251 4.81536691,2.86800878 C4.81536691,2.27276167 4.48327264,2.00219481 3.48698983,2.00219481 Z"></path></clipPath><clipPath id="i10"><path d="M4.04048028,0 C6.08839494,0 6.47583825,1.08226746 6.47583825,2.75978203 L6.47583825,6.76417165 L4.59397073,6.76417165 L4.59397073,3.13857565 C4.59397073,2.32687505 4.48327264,1.73162794 3.37629174,1.73162794 C2.04791466,1.73162794 1.88186753,2.32687505 1.88186753,3.19268902 L1.88186753,6.76417165 L0,6.76417165 L0,0.216453493 L1.43907517,0.108226746 L1.6051223,0.703473852 C1.93721657,0.324680239 2.60140511,0 4.04048028,0 Z"></path></clipPath><clipPath id="i11"><path d="M1.88186753,2.27276167 L1.88186753,8.8745932 L0,8.8745932 L0,2.27276167 L1.88186753,2.27276167 Z M1.88186753,0 L1.88186753,1.67751457 L0,1.67751457 L0,0 L1.88186753,0 Z"></path></clipPath><clipPath id="i12"><path d="M2.98884843,0 L2.98884843,1.89396806 L4.59397073,1.89396806 L4.59397073,3.46325588 L2.98884843,3.46325588 L2.98884843,6.16892454 C2.98884843,6.6559449 3.04419747,6.98062514 3.87443314,6.98062514 L4.59397073,6.98062514 L4.59397073,8.49579959 L3.48698983,8.49579959 C1.66047135,8.49579959 1.1069809,7.90055249 1.1069809,6.43949141 L1.1069809,3.46325588 L0,3.46325588 L0,1.89396806 L1.21767899,1.89396806 L1.54977326,0.270566866 L2.98884843,0 Z"></path></clipPath><clipPath id="i13"><path d="M1.93721657,2.27276167 L1.93721657,8.8745932 L0.0553490449,8.8745932 L0.0553490449,2.27276167 L1.93721657,2.27276167 Z M1.88186753,0 L1.88186753,1.67751457 L0,1.67751457 L0,0 L1.88186753,0 Z"></path></clipPath><clipPath id="i14"><path d="M3.54233887,0 C6.08839494,0 7.08467775,1.24460758 7.08467775,3.46325588 C7.08467775,5.68190419 6.08839494,6.92651177 3.54233887,6.92651177 C0.996282808,6.8723984 0,5.68190419 0,3.46325588 C0,1.24460758 0.996282808,0 3.54233887,0 Z M3.48698983,1.6234012 C2.15861275,1.6234012 1.82651848,2.32687505 1.82651848,3.46325588 C1.82651848,4.59963672 2.15861275,5.30311057 3.48698983,5.30311057 C4.81536691,5.30311057 5.14746118,4.59963672 5.14746118,3.46325588 C5.14746118,2.32687505 4.81536691,1.6234012 3.48698983,1.6234012 Z"></path></clipPath><clipPath id="i15"><path d="M4.04048028,0 C6.08839494,0 6.47583825,1.08226746 6.47583825,2.75978203 L6.47583825,6.76417165 L4.59397073,6.76417165 L4.59397073,3.13857565 C4.59397073,2.32687505 4.48327264,1.73162794 3.37629174,1.73162794 C2.04791466,1.73162794 1.88186753,2.32687505 1.88186753,3.19268902 L1.88186753,6.76417165 L0,6.76417165 L0,0.216453493 L1.43907517,0.108226746 L1.6051223,0.703473852 C1.93721657,0.324680239 2.60140511,0 4.04048028,0 Z"></path></clipPath><clipPath id="i16"><path d="M4.3172255,0 C7.0293287,0 7.85956438,1.13638084 7.85956438,2.92212215 C7.85956438,4.70786347 7.08467775,6.00658442 4.20652741,6.00658442 L1.93721657,6.00658442 L1.93721657,8.65813971 L0,8.65813971 L0,0 L4.3172255,0 Z M4.26187646,1.67751457 L1.93721657,1.67751457 L1.93721657,4.38318323 L4.26187646,4.38318323 C5.36885736,4.38318323 5.86699876,4.00438962 5.86699876,3.0303489 C5.86699876,2.00219481 5.4242064,1.67751457 4.26187646,1.67751457 Z"></path></clipPath><clipPath id="i17"><path d="M3.76373505,0 L3.76373505,1.73162794 C2.15861275,1.73162794 1.82651848,2.32687505 1.82651848,3.40914251 L1.82651848,6.6559449 L0,6.6559449 L0,0.216453493 L1.43907517,0.108226746 L1.6051223,0.811700598 C1.88186753,0.378793612 2.7121032,0.0541133732 3.76373505,0 Z"></path></clipPath><clipPath id="i18"><path d="M3.54233887,0 C6.08839494,0 7.08467775,1.24460758 7.08467775,3.46325588 C7.08467775,5.68190419 6.08839494,6.92651177 3.54233887,6.92651177 C0.996282808,6.92651177 0,5.68190419 0,3.46325588 C0,1.24460758 0.996282808,0 3.54233887,0 Z M3.54233887,1.67751457 C2.2139618,1.67751457 1.88186753,2.38098842 1.88186753,3.51736926 C1.88186753,4.65375009 2.2139618,5.35722395 3.54233887,5.35722395 C4.81536691,5.35722395 5.20281022,4.65375009 5.20281022,3.51736926 C5.20281022,2.38098842 4.87071595,1.67751457 3.54233887,1.67751457 Z"></path></clipPath><clipPath id="i19"><path d="M6.91863061,0 L6.91863061,1.4069477 L5.97769685,1.4069477 C6.42048921,1.67751457 6.75258348,2.05630818 6.75258348,2.81389541 C6.75258348,4.27495648 5.81164972,4.92431696 3.59768792,4.92431696 C3.21024461,4.87020359 2.87815034,4.87020359 2.60140511,4.87020359 C2.54605607,4.92431696 2.54605607,5.03254371 2.54605607,5.08665708 C2.54605607,5.41133732 2.76745225,5.46545069 3.65303696,5.46545069 C6.42048921,5.46545069 7.14002679,5.89835768 7.14002679,7.25119201 C7.14002679,8.82047983 5.97769685,9.41572694 3.48698983,9.41572694 C0.885584719,9.41572694 0,9.14516007 0,7.79232574 C0,7.03473852 0.387443314,6.49360478 1.32837708,6.33126466 C0.996282808,6.0606978 0.940933764,5.73601756 0.940933764,5.41133732 C0.940933764,5.03254371 1.05163185,4.70786347 1.27302803,4.49140998 C0.664188539,4.16672974 0.387443314,3.625596 0.387443314,2.81389541 C0.387443314,1.35283433 1.32837708,0.595247105 3.54233887,0.595247105 L3.92978219,0.595247105 L6.91863061,0 Z M3.54233887,6.81828502 C2.04791466,6.81828502 1.82651848,7.08885189 1.82651848,7.52175887 C1.82651848,8.00877923 2.15861275,8.22523273 3.54233887,8.22523273 C4.926065,8.22523273 5.25815927,7.90055249 5.25815927,7.41353213 C5.25815927,6.92651177 4.87071595,6.81828502 3.54233887,6.81828502 Z M3.54233887,1.94808143 C2.54605607,1.94808143 2.2139618,2.2186483 2.2139618,2.81389541 C2.2139618,3.35502914 2.54605607,3.67970938 3.54233887,3.67970938 C4.53862168,3.67970938 4.87071595,3.40914251 4.87071595,2.81389541 C4.87071595,2.2186483 4.53862168,1.94808143 3.54233887,1.94808143 Z"></path></clipPath><clipPath id="i20"><path d="M3.8190841,0 L3.8190841,1.73162794 C2.2139618,1.73162794 1.88186753,2.32687505 1.88186753,3.40914251 L1.88186753,6.6559449 L0,6.6559449 L0,0.216453493 L0.0553490449,0.216453493 L1.49442421,0.108226746 L1.66047135,0.811700598 C1.93721657,0.378793612 2.76745225,0.0541133732 3.8190841,0 Z"></path></clipPath><clipPath id="i21"><path d="M3.48698983,0 C5.92234781,0 6.42048921,0.757587225 6.42048921,2.65155529 L6.42048921,4.65375009 C6.42048921,5.19488383 6.47583825,5.2489972 7.0293287,5.2489972 L7.0293287,6.76417165 C6.91863061,6.81828502 6.64188539,6.81828502 6.25444208,6.81828502 C5.53490449,6.81828502 5.20281022,6.6559449 4.98141404,6.16892454 C4.64931977,6.60183153 3.87443314,6.92651177 2.60140511,6.92651177 C0.442792359,6.92651177 0,6.0606978 0,4.87020359 C0,2.97623553 1.32837708,2.54332854 4.3172255,2.54332854 L4.59397073,2.54332854 C4.59397073,1.94808143 4.42792359,1.6234012 3.26559365,1.6234012 C2.43535798,1.6234012 1.71582039,1.89396806 1.32837708,2.16453493 L0.387443314,0.811700598 C0.885584719,0.487020359 2.04791466,0 3.48698983,0 Z M4.59397073,3.8420495 L4.42792359,3.8420495 C2.04791466,3.8420495 1.77116944,4.00438962 1.77116944,4.76197684 C1.77116944,5.2489972 2.04791466,5.46545069 2.87815034,5.46545069 C4.09582932,5.46545069 4.59397073,5.08665708 4.59397073,4.11261636 L4.59397073,3.8420495 Z"></path></clipPath><clipPath id="i22"><path d="M8.46840387,0 C10.5163185,0 10.8484128,1.13638084 10.8484128,2.75978203 L10.8484128,6.76417165 L8.96654528,6.76417165 L8.96654528,3.13857565 C8.96654528,2.32687505 8.96654528,1.73162794 7.80421533,1.73162794 C6.53359378,1.73162794 6.37706794,2.27623966 6.36585892,3.08131785 L6.36514017,6.76417165 L4.48327264,6.76417165 L4.48327264,3.13857565 C4.48327264,2.32687505 4.48327264,1.73162794 3.32094269,1.73162794 C1.99256562,1.73162794 1.88186753,2.32687505 1.88186753,3.19268902 L1.88186753,6.76417165 L0,6.76417165 L0,0.216453493 L1.43907517,0.108226746 L1.6051223,0.703473852 C1.88186753,0.324680239 2.60140511,0 3.98513123,0 C5.47955545,0 5.75630067,0.324680239 5.97769685,0.757587225 C6.30979112,0.324680239 7.08467775,0 8.46840387,0 Z"></path></clipPath><clipPath id="i23"><path d="M3.32094269,0 C4.42792359,0 5.47955545,0.216453493 6.19909303,0.595247105 L5.31350831,2.00219481 C4.81536691,1.73162794 4.09582932,1.56928782 3.43164078,1.56928782 C2.49070702,1.56928782 2.26931084,1.73162794 2.26931084,2.05630818 C2.26931084,2.43510179 2.49070702,2.48921517 3.37629174,2.65155529 C5.09211213,2.86800878 6.36514017,3.08446227 6.36514017,4.70786347 C6.36514017,6.22303792 5.53490449,6.81828502 3.21024461,6.81828502 C2.04791466,6.81828502 0.940933764,6.60183153 0,6.00658442 L0.940933764,4.65375009 C1.66047135,5.08665708 2.54605607,5.35722395 3.32094269,5.35722395 C4.26187646,5.35722395 4.53862168,5.2489972 4.53862168,4.81609021 C4.53862168,4.4372966 4.26187646,4.32906986 3.32094269,4.22084311 C1.66047135,4.00438962 0.387443314,3.78793612 0.387443314,2.05630818 C0.387443314,0.703473852 1.21767899,0 3.32094269,0 Z"></path></clipPath><clipPath id="i24"><path d="M0,0 L1.38399438,0.00591473574 C11.9965211,0.0965773397 22.6492904,1.22882452 33.0987289,3.35502914 L34.4271059,3.625596 L34.4271059,8.76636646 L0,8.76636646 L0,0 Z"></path></clipPath><clipPath id="i25"><path d="M23.357297,0 C21.5861275,1.73162794 19.5935619,3.40914251 17.3796001,5.03254371 C8.96654528,11.0932415 0.608839494,13.8530235 0.498141404,13.9071369 L0,14.069477 L0,0 Z"></path></clipPath><clipPath id="i26"><path d="M1.93673255,6.02950281 C1.93344407,6.18947686 1.91446054,7.18215385 1.91274156,8.85715621 L1.91274868,9.35416509 C1.91372739,10.2989106 1.92030436,11.4269406 1.93721657,12.7166427 L0,12.7166427 L0,4.38318323 L4.53862168,3.46325588 C15.6637797,1.19049421 27.065683,0 38.4675862,0 C49.8694895,0 61.2713927,1.13638084 72.3965507,3.46325588 L76.9351724,4.38318323 L76.9351724,12.7707561 L74.9979559,12.7707561 C74.9426068,8.54991296 74.8872578,6.0606978 74.8872578,6.0606978 L74.8867548,6.08361618 C74.8811079,6.34262179 74.8288338,8.78440425 74.7765597,12.7707561 L72.8393431,12.7707561 L72.8393431,7.62998562 L71.510966,7.35941875 C60.6625532,5.08665708 49.5373952,3.95027624 38.4122372,3.95027624 L38.4122372,12.7166427 L2.04791466,12.7166427 C1.99564056,8.73029088 1.94336647,6.28850842 1.93771957,6.02950281 L1.937,6.012 Z M1.93721657,6.00658442 C1.93721657,6.00658442 6.64188539,4.97843033 13.560516,4.00438962 C20.4791466,2.97623553 29.611739,2.27276167 38.3568881,2.27276167 C47.0466882,2.27276167 56.2346296,3.0303489 63.1532602,4.00438962 C70.0718909,4.97843033 74.7765597,6.00658442 74.7765597,6.00658442 L74.7575476,6.0017485 C74.4290527,5.9184739 69.8709943,4.77400204 63.2086093,3.67970938 C56.2899787,2.54332854 47.1020372,1.6234012 38.3568881,1.6234012 C29.611739,1.6234012 20.4237976,2.54332854 13.505167,3.67970938 C6.58653634,4.81609021 1.93721657,6.00658442 1.93721657,6.00658442 Z"></path></clipPath><clipPath id="i27"><path d="M57.7290538,0 C55.1829978,2.92212215 52.1388003,5.68190419 48.6518105,8.22523273 C39.6852652,14.7188375 30.774069,17.6409597 30.6633709,17.695073 L28.8368524,18.2903201 L27.0103339,17.695073 C26.5121925,17.5327329 17.8777415,14.6647241 9.07724337,8.2793461 C5.59025354,5.73601756 2.54605607,2.97623553 0,0.0541133732 L2.26931084,0.0541133732 C2.87815034,0.703473852 3.48698983,1.29872096 4.09582932,1.89396806 C7.85956438,5.46545069 11.9553937,8.2793461 15.6637797,10.3897677 C23.1359008,14.6647241 28.8922014,16.234012 28.8922014,16.234012 C28.8922014,16.234012 28.9171911,16.2272641 28.9659842,16.2134481 L29.0568784,16.1873828 C30.0510061,15.8991227 35.4333697,14.2442366 42.1206232,10.3897677 C45.8290092,8.2793461 49.9248385,5.46545069 53.6885736,1.89396806 C54.2974131,1.29872096 54.9062526,0.703473852 55.459743,0 Z"></path></clipPath><clipPath id="i28"><path d="M25.7373059,0 L25.7373059,14.069477 L26.2354473,13.9071369 C26.3461454,13.8530235 34.7592002,11.0932415 43.116906,5.03254371 C45.3308678,3.46325588 47.3234334,1.73162794 49.0946028,0 L51.5299608,0 C51.0871685,0.487020359 50.6443761,0.974040717 50.1462347,1.4069477 C46.4931977,5.03254371 42.4527174,7.84643911 38.7443314,10.0650874 C31.4382575,14.4482706 25.7373059,16.1798986 25.7373059,16.1798986 C25.7373059,16.1798986 20.0363543,14.4482706 12.7302803,10.0650874 C9.07724337,7.84643911 5.03676309,4.97843033 1.38372612,1.4069477 C0.940933764,0.974040717 0.442792359,0.487020359 0,0 L25.7373059,0 Z"></path></clipPath><clipPath id="i29"><path d="M36.4196716,0 C45.1648207,0 54.3527621,0.919927344 61.2713927,2.05630818 C68.1900233,3.19268902 72.8393431,4.38318323 72.8393431,4.38318323 C72.8393431,4.38318323 68.1346743,3.35502914 61.2160437,2.38098842 C54.2974131,1.35283433 45.1648207,0.649360478 36.4196716,0.649360478 C27.6745225,0.649360478 18.54193,1.4069477 11.6232994,2.38098842 C4.70466882,3.35502914 0,4.38318323 0,4.38318323 C0,4.38318323 4.64931977,3.19268902 11.5679504,2.05630818 C18.486581,0.919927344 27.6745225,0 36.4196716,0 Z"></path></clipPath></defs><g transform="translate(-1201.0 -1033.0)"><g clip-path="url(#i0)"><g transform="translate(1147.0 1033.0)"><g transform="translate(54.00000000000008 0.0)"><g transform="translate(12.039800995024962 0.5479452054794365)"><g transform="translate(23.910787403060574 16.07167183834102)"><g clip-path="url(#i1)"><polygon points="0,0 37.8592802,0 37.8592802,13.8530235 0,13.8530235 0,0" stroke="none" fill="#00095B"></polygon></g><g transform="translate(13.740400400022729 4.924316960569115)"><g clip-path="url(#i2)"><polygon points="0,0 16.314131,0 16.314131,6.21302525 0,6.21302525 0,0" stroke="none" fill="#FFFFFF"></polygon></g></g><g transform="translate(7.9044247573838184 2.4592964412576066)"><g clip-path="url(#i3)"><polygon points="0,-6.9388939e-18 16.4046628,-6.9388939e-18 16.4046628,8.30926482 0,8.30926482 0,-6.9388939e-18" stroke="none" fill="#FFFFFF"></polygon></g></g><g transform="translate(0.7748866288028964 0.6493604783167948)"><g clip-path="url(#i4)"><polygon points="0,0 36.3089735,0 36.3089735,12.6625293 0,12.6625293 0,0" stroke="none" fill="#FFFFFF"></polygon></g></g></g><g transform="translate(6.254442075337465 33.65851812608796)"><g transform="translate(0.0 0.21645349277224568)"><g clip-path="url(#i5)"><polygon points="0,0 7.74886629,0 7.74886629,8.65813971 0,8.65813971 0,0" stroke="none" fill="#00095B"></polygon></g></g><g transform="translate(8.523752916831654 2.1104215545296086)"><g clip-path="url(#i6)"><polygon points="0,0 6.5311873,0 6.5311873,6.92651177 0,6.92651177 0,0" stroke="none" fill="#00095B"></polygon></g></g><g transform="translate(15.885175890459323 2.1104215545296086)"><g clip-path="url(#i7)"><polygon points="0,0 6.30979112,0 6.30979112,6.8723984 0,6.8723984 0,0" stroke="none" fill="#00095B"></polygon></g></g><g transform="translate(22.637759370027204 2.1104215545296086)"><g clip-path="url(#i8)"><polygon points="0,0 7.08467775,0 7.08467775,6.92651177 0,6.92651177 0,0" stroke="none" fill="#00095B"></polygon></g></g><g transform="translate(30.386625658055888 1.5151744494059187)"><g clip-path="url(#i9)"><polygon points="0,0 7.14002679,0 7.14002679,9.41572694 0,9.41572694 0,0" stroke="none" fill="#00095B"></polygon></g></g><g transform="translate(38.6336333503159 2.1645349277227126)"><g clip-path="url(#i10)"><polygon points="0,0 6.47583825,0 6.47583825,6.76417165 0,6.76417165 0,0" stroke="none" fill="#00095B"></polygon></g></g><g transform="translate(46.65924486291715 0.0)"><g clip-path="url(#i11)"><polygon points="0,0 1.88186753,0 1.88186753,8.8745932 0,8.8745932 0,0" stroke="none" fill="#00095B"></polygon></g></g><g transform="translate(49.64809328829961 0.3787936123514726)"><g clip-path="url(#i12)"><polygon points="0,0 4.59397073,0 4.59397073,8.49579959 0,8.49579959 0,0" stroke="none" fill="#00095B"></polygon></g></g><g transform="translate(55.51509204923515 0.0)"><g clip-path="url(#i13)"><polygon points="0,0 1.93721657,0 1.93721657,8.8745932 0,8.8745932 0,0" stroke="none" fill="#00095B"></polygon></g></g><g transform="translate(58.66998760936167 2.1104215545296086)"><g clip-path="url(#i14)"><polygon points="0,0 7.08467775,0 7.08467775,6.92651177 0,6.92651177 0,0" stroke="none" fill="#00095B"></polygon></g></g><g transform="translate(66.86164625670608 2.1645349277227126)"><g clip-path="url(#i15)"><polygon points="0,0 6.47583825,0 6.47583825,6.76417165 0,6.76417165 0,0" stroke="none" fill="#00095B"></polygon></g></g><g transform="translate(7.14002679396981 12.716642700370873)"><g clip-path="url(#i16)"><polygon points="0,0 7.85956438,0 7.85956438,8.65813971 0,8.65813971 0,0" stroke="none" fill="#00095B"></polygon></g></g><g transform="translate(15.940524935373112 14.66472413532128)"><g clip-path="url(#i17)"><polygon points="0,0 3.76373505,0 3.76373505,6.6559449 0,6.6559449 0,0" stroke="none" fill="#00095B"></polygon></g></g><g transform="translate(20.313099483618316 14.610610762128202)"><g clip-path="url(#i18)"><polygon points="0,0 7.08467775,0 7.08467775,6.92651177 0,6.92651177 0,0" stroke="none" fill="#00095B"></polygon></g></g><g transform="translate(28.00661672673323 14.069477030197561)"><g clip-path="url(#i19)"><polygon points="0,0 7.14002679,0 7.14002679,9.41572694 0,9.41572694 0,0" stroke="none" fill="#00095B"></polygon></g></g><g transform="translate(36.25362441899233 14.66472413532128)"><g clip-path="url(#i20)"><polygon points="0,0 3.8190841,0 3.8190841,6.6559449 0,6.6559449 0,0" stroke="none" fill="#00095B"></polygon></g></g><g transform="translate(40.460151832493466 14.556497388935131)"><g clip-path="url(#i21)"><polygon points="0,0 7.0293287,0 7.0293287,6.92651177 0,6.92651177 0,0" stroke="none" fill="#00095B"></polygon></g></g><g transform="translate(48.59646143492409 14.66472413532128)"><g clip-path="url(#i22)"><polygon points="0,0 10.8484128,0 10.8484128,6.76417165 0,6.76417165 0,0" stroke="none" fill="#00095B"></polygon></g></g><g transform="translate(60.21976086696759 14.664724135321281)"><g clip-path="url(#i23)"><polygon points="0,0 6.36514017,0 6.36514017,6.81828502 0,6.81828502 0,0" stroke="none" fill="#00095B"></polygon></g></g></g><g transform="translate(43.781094527363166 3.9502762430939242)"><g clip-path="url(#i24)"><polygon points="0,0 34.4271059,0 34.4271059,8.76636646 0,8.76636646 0,0" stroke="none" fill="#0017F3"></polygon></g></g><g transform="translate(43.78109452736317 60.11995761749791)"><g clip-path="url(#i25)"><polygon points="0,0 23.357297,0 23.357297,14.069477 0,14.069477 0,0" stroke="none" fill="#0017F3"></polygon></g></g><g transform="translate(5.36885735670603 0.0)"><g clip-path="url(#i26)"><polygon points="0,0 76.9351724,0 76.9351724,12.7707561 0,12.7707561 0,0" stroke="none" fill="#00095B"></polygon></g></g><g transform="translate(14.888893081998503 60.06584424430486)"><g clip-path="url(#i27)"><polygon points="0,0 57.7290538,0 57.7290538,18.2903201 0,18.2903201 0,0" stroke="none" fill="#00095B"></polygon></g></g><g transform="translate(17.988439597210338 60.11995761749793)"><g clip-path="url(#i28)"><polygon points="0,0 51.5299608,0 51.5299608,16.1798986 0,16.1798986 0,0" stroke="none" fill="#00095B"></polygon></g></g><g transform="translate(7.361422973627668 1.623401195792042)"><g clip-path="url(#i29)"><polygon points="0,0 72.8393431,0 72.8393431,4.38318323 0,4.38318323 0,0" stroke="none" fill="#FFFFFF"></polygon></g></g><g transform="translate(0.0 59.84939075153258)"><path d="M0,0.270566866 L87.5621891,0.270566866" stroke="#00095B" stroke-width="0.5" fill="none" stroke-linecap="round" stroke-miterlimit="10"></path></g><g transform="translate(0.0 12.44607583440552)"><path d="M0,0.270566866 L87.5621891,0.270566866" stroke="#00095B" stroke-width="0.5" fill="none" stroke-linecap="round" stroke-miterlimit="10"></path></g></g></g></g></g></g></svg>