<?xml version="1.0" encoding="UTF-8"?><svg version="1.1" width="123px" height="101px" viewBox="0 0 123.0 101.0" xmlns="http://www.w3.org/2000/svg" xmlns:xlink="http://www.w3.org/1999/xlink"><defs><clipPath id="i0"><path d="M1440,0 L1440,1587 L0,1587 L0,0 L1440,0 Z"></path></clipPath><clipPath id="i1"><path d="M19.0517241,0 C19.3719212,0 19.6921182,0.159326594 19.8522167,0.477979783 L21.453202,4.46114464 C22.2536946,4.46114464 23.2142857,4.46114464 24.0147783,4.62047124 L25.7758621,0.796632972 C25.9359606,0.477979783 26.2561576,0.318653189 26.5763547,0.477979783 L30.0985222,1.59326594 C30.4187192,1.75259254 30.5788177,2.07124573 30.5788177,2.38989892 L29.9384236,6.53239037 C30.7389163,6.85104356 31.5394089,7.32902334 32.179803,7.80700312 L35.7019704,5.41710421 C36.0221675,5.25777761 36.3423645,5.25777761 36.6625616,5.5764308 L39.2241379,8.28498291 C39.3842365,8.60363609 39.3842365,8.92228928 39.2241379,9.24094247 L36.6625616,12.586801 C36.9827586,13.2241073 37.4630542,14.0207403 37.7832512,14.8173733 L41.9458128,14.4987201 C42.2660099,14.4987201 42.5862069,14.8173733 42.7463054,15.1360265 L43.546798,18.8005381 C43.546798,19.1191913 43.3866995,19.4378445 43.0665025,19.5971711 L39.0640394,21.190437 C39.0640394,21.98707 39.0640394,22.9430296 38.9039409,23.7396626 L42.7463054,25.4922551 C43.0665025,25.6515817 43.226601,25.9702349 43.0665025,26.6075413 L41.9458128,30.1127263 C41.7857143,30.4313795 41.4655172,30.5907061 41.1453202,30.5907061 L36.9827586,29.9533997 C36.6625616,30.7500327 36.182266,31.5466657 35.7019704,32.1839721 L38.1034483,35.6891571 C38.2635468,36.0078103 38.2635468,36.3264635 37.9433498,36.6451167 L35.2216749,39.1943422 C34.9014778,39.3536688 34.5812808,39.3536688 34.2610837,39.1943422 L30.8990148,36.6451167 C30.2586207,36.9637699 29.4581281,37.4417497 28.6576355,37.7604029 L28.9778325,41.9028943 C28.9778325,42.2215475 28.6576355,42.5402007 28.3374384,42.6995273 L24.6551724,43.4961603 C24.3349754,43.4961603 24.0147783,43.3368337 23.8546798,43.0181805 L22.2536946,39.0350156 C21.453202,39.0350156 20.4926108,39.0350156 19.6921182,38.875689 L17.9310345,42.6995273 C17.770936,43.0181805 17.4507389,43.1775071 17.1305419,43.0181805 L13.6083744,41.9028943 C13.2881773,41.7435677 13.1280788,41.4249145 13.1280788,41.1062613 L13.6083744,36.9637699 C12.8078818,36.6451167 12.0073892,36.1671369 11.3669951,35.6891571 L7.84482759,38.079056 C7.52463054,38.2383826 7.2044335,38.2383826 6.88423645,37.9197295 L4.3226601,35.2111773 C4.16256158,34.8925242 4.16256158,34.573871 4.3226601,34.2552178 L6.88423645,30.9093593 C6.56403941,30.2720529 6.08374384,29.47542 5.7635468,28.678787 L1.60098522,28.9974402 C1.28078818,28.9974402 0.960591133,28.678787 0.800492611,28.3601338 L0,24.6956221 C0,24.3769689 0.160098522,24.0583157 0.480295567,23.8989892 L4.48275862,22.3057232 C4.48275862,21.5090902 4.48275862,20.5531307 4.64285714,19.7564977 L0.800492611,18.0039052 C0.480295567,17.8445786 0.320197044,17.5259254 0.480295567,17.2072722 L1.76108374,13.3834339 C1.92118227,13.0647807 2.24137931,12.9054541 2.56157635,12.9054541 L6.72413793,13.5427605 C7.04433498,12.7461275 7.52463054,11.9494946 8.00492611,11.3121882 L5.60344828,7.80700312 C5.44334975,7.48834993 5.44334975,7.16969675 5.7635468,6.85104356 L8.48522167,4.30181805 C8.80541872,4.14249145 9.12561576,4.14249145 9.44581281,4.30181805 L12.8078818,6.85104356 C13.4482759,6.53239037 14.2487685,6.05441058 15.0492611,5.7357574 L14.729064,1.59326594 C14.729064,1.27461275 15.0492611,0.955959566 15.3694581,0.796632972 Z"></path></clipPath><clipPath id="i2"><path d="M10.5665025,0.0659952362 C10.8866995,-0.0933313581 11.046798,0.0659952362 11.2068966,0.225321831 L12.4876847,2.61522075 C14.08867,2.45589415 15.6896552,2.45589415 17.1305419,2.93387393 L18.7315271,0.703301614 C18.8916256,0.543975019 19.2118227,0.384648425 19.3719212,0.543975019 L21.6133005,1.65926118 C21.9334975,1.81858777 21.9334975,2.13724096 21.9334975,2.29656756 L21.1330049,5.00511966 C22.4137931,5.96107923 23.3743842,7.07636539 24.1748768,8.51030474 L26.8965517,8.03232495 C27.0566502,8.03232495 27.3768473,8.19165155 27.3768473,8.35097814 L28.1773399,10.5815505 C28.3374384,10.9002037 28.1773399,11.0595302 28.0172414,11.2188568 L25.6157635,12.4934696 C25.7758621,14.0867355 25.7758621,15.6800015 25.2955665,17.1139408 L27.5369458,18.7072068 C27.6970443,18.8665334 27.8571429,19.1851866 27.6970443,19.3445132 L26.5763547,21.5750855 C26.4162562,21.8937387 26.0960591,21.8937387 25.9359606,21.8937387 L23.2142857,21.0971057 C22.2536946,22.3717184 21.1330049,23.327678 19.6921182,24.124311 L20.1724138,26.8328631 C20.1724138,26.9921897 20.0123153,27.3108429 19.8522167,27.3108429 L17.6108374,28.1074758 C17.2906404,28.2668024 17.1305419,28.1074758 16.9704433,27.9481492 L15.6896552,25.5582503 C14.08867,25.7175769 12.4876847,25.7175769 11.046798,25.2395971 L9.44581281,27.4701695 C9.28571429,27.6294961 8.96551724,27.7888227 8.80541872,27.6294961 L6.56403941,26.5142099 C6.24384236,26.3548833 6.24384236,26.0362301 6.24384236,25.8769035 L7.04433498,23.1683514 C5.7635468,22.2123918 4.80295567,21.0971057 4.00246305,19.6631663 L1.28078818,20.1411461 C1.12068966,20.1411461 0.800492611,19.9818195 0.800492611,19.8224929 L0,17.5919206 C0,17.2732674 0,17.1139408 0.160098522,16.9546142 L2.56157635,15.6800015 C2.40147783,14.0867355 2.40147783,12.4934696 2.8817734,11.0595302 L0.640394089,9.4662643 C0.480295567,9.30693771 0.320197044,8.98828452 0.480295567,8.82895792 L1.60098522,6.5983856 C1.76108374,6.27973242 2.08128079,6.27973242 2.24137931,6.27973242 L4.96305419,7.07636539 C5.92364532,5.80175263 7.04433498,4.84579307 8.48522167,4.04916009 L8.00492611,1.34060799 C8.00492611,1.1812814 8.16502463,0.862628208 8.32512315,0.862628208 Z M19.8522167,12.334143 C18.8916256,8.82895792 15.0492611,6.91703879 11.5270936,8.35097814 C8.80541872,9.6255909 7.2044335,12.8121228 8.00492611,15.6800015 C8.96551724,19.1851866 12.8078818,21.0971057 16.3300493,19.6631663 C19.0517241,18.3885536 20.6527094,15.3613483 19.8522167,12.334143 Z"></path></clipPath><clipPath id="i3"><path d="M10.3551505,0 C16.0746794,0.000537201714 20.7117092,4.66001406 20.7122464,10.4072328 C20.7127836,16.1544516 16.0766248,20.8130575 10.3570959,20.8125203 C4.63756697,20.8119831 0.000537201714,16.1525063 0,10.4052875 C-0.000537201714,4.65806868 4.63562159,-0.000537201714 10.3551505,0 Z"></path></clipPath></defs><g transform="translate(-359.0 -1025.0)"><g clip-path="url(#i0)"><g transform="translate(350.0 1025.25)"><g transform="translate(8.999999999999815 0.0)"><g transform="translate(28.65000000000009 19.75)"><g transform=""><g transform="translate(21.45320197044336 0.0)"><g clip-path="url(#i1)"><polygon points="0,0 43.546798,0 43.546798,43.4961603 0,43.4961603 0,0" stroke="none" fill="#00095B"></polygon></g></g><g transform="translate(0.0 34.82652892394891)"><g clip-path="url(#i2)"><polygon points="0,-2.77555756e-17 28.2436549,-2.77555756e-17 28.2436549,28.1734711 0,28.1734711 0,-2.77555756e-17" stroke="none" fill="#00095B"></polygon></g></g><g transform="translate(32.646434710646204 31.94614653901381) rotate(-88.88898224195538)"><g clip-path="url(#i3)"><polygon points="0,1.13686838e-13 20.7122464,1.13686838e-13 20.7122464,20.8125203 0,20.8125203 0,1.13686838e-13" stroke="none" fill="#FFFFFF"></polygon></g></g></g></g></g></g></g></g></svg>