<?xml version="1.0" encoding="UTF-8"?><svg version="1.1" width="241px" height="31px" viewBox="0 0 241.0 31.0" xmlns="http://www.w3.org/2000/svg" xmlns:xlink="http://www.w3.org/1999/xlink"><defs><clipPath id="i0"><path d="M1440,0 L1440,1587 L0,1587 L0,0 L1440,0 Z"></path></clipPath><clipPath id="i1"><path d="M238.571429,0 L238.571429,0.714285714 L0,0.714285714 L0,0 L238.571429,0 Z"></path></clipPath><clipPath id="i2"><path d="M155.304099,0.0420168067 C155.998584,0.0420168067 156.562852,0.168067227 156.9535,0.378151261 C157.344147,0.588235294 157.69139,0.924369748 157.908416,1.34453782 C158.125443,1.76470588 158.255658,2.22689076 158.342469,2.81512605 C158.385874,3.40336134 158.42928,3.99159664 158.42928,4.66386555 C158.42928,5.33613445 158.385874,5.96638655 158.342469,6.55462185 C158.299064,7.10084034 158.125443,7.60504202 157.908416,8.02521008 C157.69139,8.44537815 157.387553,8.7394958 156.9535,8.94957983 C156.562852,9.15966387 155.998584,9.28571429 155.304099,9.28571429 C154.609615,9.28571429 154.045346,9.15966387 153.654699,8.94957983 C153.264051,8.7394958 152.916809,8.40336134 152.699782,8.02521008 C152.482756,7.60504202 152.35254,7.14285714 152.265729,6.55462185 C152.222324,6.00840336 152.178919,5.37815126 152.178919,4.66386555 C152.178919,3.99159664 152.178919,3.36134454 152.265729,2.81512605 C152.309135,2.22689076 152.482756,1.76470588 152.699782,1.34453782 C152.916809,0.924369748 153.220646,0.630252101 153.654699,0.378151261 C154.045346,0.168067227 154.609615,0.0420168067 155.304099,0.0420168067 Z M125.441265,0 C126.092344,0 126.613208,0.0840336134 127.003855,0.294117647 C127.394503,0.504201681 127.654935,0.756302521 127.871961,1.09243697 C128.045582,1.42857143 128.175798,1.76470588 128.219203,2.14285714 C128.262609,2.5210084 128.306014,2.85714286 128.306014,3.19327731 L126.439587,3.19327731 C126.352776,2.56302521 126.265966,2.10084034 126.092344,1.80672269 C125.918723,1.51260504 125.658292,1.34453782 125.224239,1.34453782 C125.007212,1.34453782 124.790186,1.38655462 124.65997,1.51260504 C124.529754,1.63865546 124.399538,1.8487395 124.312728,2.10084034 C124.225917,2.35294118 124.182512,2.73109244 124.139107,3.1512605 C124.095701,3.57142857 124.095701,4.11764706 124.095701,4.74789916 C124.095701,5.42016807 124.139107,5.96638655 124.182512,6.38655462 C124.225917,6.80672269 124.312728,7.14285714 124.399538,7.35294118 C124.486349,7.56302521 124.616565,7.73109244 124.790186,7.81512605 C124.920402,7.89915966 125.094023,7.94117647 125.311049,7.94117647 C125.48467,7.94117647 125.614886,7.89915966 125.788507,7.85714286 C125.918723,7.81512605 126.048939,7.68907563 126.13575,7.5210084 C126.22256,7.35294118 126.309371,7.14285714 126.396181,6.8487395 C126.439587,6.55462185 126.482992,6.17647059 126.482992,5.67226891 L128.349419,5.67226891 C128.349419,6.13445378 128.306014,6.59663866 128.219203,7.05882353 C128.132393,7.4789916 128.002177,7.85714286 127.78515,8.19327731 C127.568124,8.52941176 127.264287,8.78151261 126.917045,8.94957983 C126.526397,9.11764706 126.048939,9.24369748 125.441265,9.24369748 C124.746781,9.24369748 124.182512,9.11764706 123.791864,8.90756303 C123.401217,8.69747899 123.053975,8.36134454 122.836948,7.98319328 C122.619922,7.56302521 122.489706,7.10084034 122.402895,6.51260504 C122.35949,5.96638655 122.316085,5.33613445 122.316085,4.62184874 C122.316085,3.94957983 122.35949,3.31932773 122.402895,2.77310924 C122.446301,2.18487395 122.619922,1.72268908 122.836948,1.30252101 C123.053975,0.882352941 123.357812,0.588235294 123.791864,0.336134454 C124.182512,0.12605042 124.746781,0 125.441265,0 Z M98.790422,0 C99.7887435,0 100.526633,0.25210084 100.960686,0.714285714 C101.394739,1.21848739 101.611765,1.8907563 101.611765,2.81512605 L99.8321488,2.81512605 C99.875554,2.68907563 99.8321488,2.5210084 99.7887435,2.35294118 C99.7453382,2.18487395 99.7019329,2.01680672 99.6151223,1.8907563 C99.5283118,1.76470588 99.3980959,1.63865546 99.2678801,1.51260504 C99.1376642,1.42857143 98.9640431,1.38655462 98.790422,1.38655462 C98.3563692,1.38655462 98.0091269,1.63865546 97.8355058,2.10084034 C97.6184794,2.56302521 97.5316688,3.36134454 97.5316688,4.49579832 C97.5316688,5.04201681 97.5316688,5.50420168 97.5750741,5.92436975 C97.6184794,6.34453782 97.6618847,6.72268908 97.7486952,7.01680672 C97.8355058,7.31092437 97.9657216,7.56302521 98.1393428,7.73109244 C98.3129639,7.89915966 98.5299903,7.98319328 98.790422,7.98319328 C98.9206378,7.98319328 99.0074484,7.94117647 99.1376642,7.89915966 C99.2678801,7.85714286 99.3980959,7.77310924 99.5283118,7.64705882 C99.6585276,7.5210084 99.7453382,7.39495798 99.8321488,7.18487395 C99.9189593,7.01680672 99.9623646,6.80672269 99.9623646,6.55462185 L99.9623646,5.6302521 L98.7470167,5.6302521 L98.7470167,4.32773109 L101.741981,4.32773109 L101.741981,9.11764706 L100.396417,9.11764706 L100.396417,8.27731092 L100.353012,8.27731092 C100.135986,8.61344538 99.875554,8.86554622 99.5283118,9.03361345 C99.2244748,9.15966387 98.8338273,9.24369748 98.3997744,9.24369748 C97.8355058,9.24369748 97.3580477,9.15966387 97.0108054,8.94957983 C96.6635632,8.7394958 96.3597262,8.44537815 96.1861051,8.06722689 C95.9690787,7.64705882 95.8388628,7.18487395 95.7954575,6.59663866 C95.708647,6.00840336 95.708647,5.33613445 95.708647,4.53781513 C95.708647,3.78151261 95.7520522,3.1512605 95.8388628,2.56302521 C95.9256734,2.01680672 96.0992945,1.51260504 96.3597262,1.13445378 C96.6201579,0.756302521 96.9239949,0.462184874 97.3146424,0.294117647 C97.7052899,0.0840336134 98.182748,0 98.790422,0 Z M80.7772299,0 C81.4283092,0 81.9491725,0.0840336134 82.3398201,0.294117647 C82.7304676,0.504201681 82.9908993,0.756302521 83.2079257,1.09243697 C83.3815469,1.42857143 83.5117627,1.76470588 83.555168,2.14285714 C83.5985733,2.5210084 83.6419785,2.85714286 83.6419785,3.19327731 L81.7755514,3.19327731 C81.6887409,2.56302521 81.6019303,2.10084034 81.4283092,1.80672269 C81.254688,1.51260504 80.9942563,1.34453782 80.5602035,1.34453782 C80.3431771,1.34453782 80.1261507,1.38655462 79.9959349,1.51260504 C79.865719,1.63865546 79.7355032,1.8487395 79.6486926,2.10084034 C79.561882,2.35294118 79.5184767,2.73109244 79.4750715,3.1512605 C79.4316662,3.57142857 79.4316662,4.11764706 79.4316662,4.74789916 C79.4316662,5.42016807 79.4750715,5.96638655 79.5184767,6.38655462 C79.561882,6.80672269 79.6486926,7.14285714 79.7355032,7.35294118 C79.8223137,7.56302521 79.9525296,7.73109244 80.1261507,7.81512605 C80.2563665,7.89915966 80.4299877,7.94117647 80.6470141,7.94117647 C80.8206352,7.94117647 80.9508511,7.89915966 81.1244722,7.85714286 C81.254688,7.81512605 81.3849039,7.68907563 81.4717144,7.5210084 C81.558525,7.35294118 81.6453356,7.14285714 81.7321461,6.8487395 C81.7755514,6.55462185 81.8189567,6.17647059 81.8189567,5.67226891 L83.6853838,5.67226891 C83.6853838,6.13445378 83.6419785,6.59663866 83.555168,7.05882353 C83.4683574,7.4789916 83.3381416,7.85714286 83.1211152,8.19327731 C82.9040888,8.52941176 82.6002518,8.78151261 82.2530095,8.94957983 C81.862362,9.11764706 81.3849039,9.24369748 80.7772299,9.24369748 C80.0827454,9.24369748 79.5184767,9.11764706 79.1278292,8.90756303 C78.7371817,8.69747899 78.3899394,8.36134454 78.172913,7.98319328 C77.9558866,7.56302521 77.8256707,7.10084034 77.7388602,6.51260504 C77.6954549,5.96638655 77.6520496,5.33613445 77.6520496,4.62184874 C77.6520496,3.94957983 77.6954549,3.31932773 77.7388602,2.77310924 C77.7822655,2.18487395 77.9558866,1.72268908 78.172913,1.30252101 C78.3899394,0.882352941 78.6937764,0.588235294 79.1278292,0.336134454 C79.561882,0.12605042 80.0827454,0 80.7772299,0 Z M16.4071966,0 C17.0582759,0 17.5791392,0.0840336134 17.9697868,0.294117647 C18.3604343,0.504201681 18.620866,0.756302521 18.8378924,1.09243697 C19.0115135,1.42857143 19.1417294,1.76470588 19.1851347,2.14285714 C19.22854,2.5210084 19.2719452,2.85714286 19.2719452,3.19327731 L17.4055181,3.19327731 C17.3187075,2.56302521 17.231897,2.10084034 17.0582759,1.80672269 C16.8846547,1.51260504 16.624223,1.34453782 16.1901702,1.34453782 C15.9731438,1.34453782 15.7561174,1.38655462 15.6259015,1.51260504 C15.4956857,1.63865546 15.3654699,1.8487395 15.2786593,2.10084034 C15.1918487,2.35294118 15.1484434,2.73109244 15.1050382,3.1512605 C15.0616329,3.57142857 15.0616329,4.11764706 15.0616329,4.74789916 C15.0616329,5.42016807 15.1050382,5.96638655 15.1484434,6.38655462 C15.1918487,6.80672269 15.2786593,7.14285714 15.3654699,7.35294118 C15.4522804,7.56302521 15.5824963,7.73109244 15.7561174,7.81512605 C15.8863332,7.89915966 16.0599544,7.94117647 16.2769808,7.94117647 C16.4506019,7.94117647 16.5808178,7.89915966 16.7544389,7.85714286 C16.8846547,7.81512605 17.0148706,7.68907563 17.1016811,7.5210084 C17.1884917,7.35294118 17.2753023,7.14285714 17.3621128,6.8487395 C17.4055181,6.55462185 17.4489234,6.17647059 17.4489234,5.67226891 L19.3153505,5.67226891 C19.3153505,6.13445378 19.2719452,6.59663866 19.1851347,7.05882353 C19.0983241,7.4789916 18.9681083,7.85714286 18.7510819,8.19327731 C18.5340554,8.52941176 18.2302185,8.78151261 17.8829762,8.94957983 C17.4923287,9.11764706 17.0148706,9.24369748 16.4071966,9.24369748 C15.7127121,9.24369748 15.1484434,9.11764706 14.7577959,8.90756303 C14.3671484,8.69747899 14.0199061,8.36134454 13.8028797,7.98319328 C13.5858533,7.56302521 13.4556374,7.10084034 13.3688269,6.51260504 C13.3254216,5.96638655 13.2820163,5.33613445 13.2820163,4.62184874 C13.2820163,3.94957983 13.3254216,3.31932773 13.3688269,2.77310924 C13.4122322,2.18487395 13.5858533,1.72268908 13.8028797,1.30252101 C14.0199061,0.882352941 14.3237431,0.588235294 14.7577959,0.336134454 C15.1484434,0.12605042 15.7127121,0 16.4071966,0 Z M28.2568386,0.210084034 L28.2568386,6.42857143 C28.2568386,6.63865546 28.2568386,6.8487395 28.3002439,7.05882353 C28.3436492,7.22689076 28.3870545,7.39495798 28.473865,7.56302521 C28.5606756,7.68907563 28.6474862,7.81512605 28.8211073,7.89915966 C28.9513231,7.98319328 29.1249443,8.02521008 29.3419707,8.02521008 C29.5589971,8.02521008 29.7326182,7.98319328 29.8628341,7.89915966 C29.9930499,7.81512605 30.1232658,7.73109244 30.2100763,7.56302521 C30.2968869,7.43697479 30.3402922,7.26890756 30.3836974,7.05882353 C30.4271027,6.8907563 30.4271027,6.68067227 30.4271027,6.42857143 L30.4271027,0.210084034 L32.2935299,0.210084034 L32.2935299,6.42857143 C32.2935299,6.97478992 32.2067193,7.4789916 32.0330982,7.81512605 C31.859477,8.19327731 31.6424506,8.48739496 31.3820189,8.69747899 C31.1215872,8.90756303 30.774345,9.07563025 30.4271027,9.11764706 C30.0798605,9.20168067 29.6892129,9.24369748 29.3419707,9.24369748 C28.9513231,9.24369748 28.6040809,9.20168067 28.2568386,9.15966387 C27.9095964,9.07563025 27.6057594,8.94957983 27.3019224,8.7394958 C27.0414907,8.52941176 26.8244643,8.23529412 26.6508432,7.85714286 C26.4772221,7.4789916 26.3904115,7.01680672 26.3904115,6.38655462 L26.3904115,0.210084034 L28.2568386,0.210084034 Z M198.188518,0.0420168067 C198.579165,0.0420168067 198.969813,0.0840336134 199.317055,0.168067227 C199.664298,0.25210084 199.968134,0.378151261 200.228566,0.588235294 C200.488998,0.798319328 200.662619,1.05042017 200.83624,1.34453782 C200.966456,1.63865546 201.053267,2.01680672 201.053267,2.43697479 L201.053267,2.68907563 L199.27365,2.68907563 C199.27365,2.26890756 199.186839,1.93277311 199.056624,1.72268908 C198.883002,1.51260504 198.665976,1.38655462 198.275328,1.38655462 C198.058302,1.38655462 197.884681,1.42857143 197.754465,1.47058824 C197.624249,1.51260504 197.494033,1.59663866 197.407223,1.68067227 C197.320412,1.76470588 197.277007,1.8907563 197.233602,2.01680672 C197.190196,2.14285714 197.190196,2.26890756 197.190196,2.39495798 C197.190196,2.68907563 197.233602,2.89915966 197.363818,3.06722689 C197.494033,3.23529412 197.754465,3.44537815 198.145113,3.57142857 L199.577487,4.15966387 C199.924729,4.32773109 200.228566,4.45378151 200.445593,4.62184874 C200.662619,4.78991597 200.83624,4.95798319 200.966456,5.12605042 C201.096672,5.29411765 201.183482,5.50420168 201.226888,5.75630252 C201.270293,5.96638655 201.313698,6.21848739 201.313698,6.51260504 C201.313698,7.43697479 201.053267,8.1512605 200.488998,8.57142857 C199.924729,8.99159664 199.143434,9.20168067 198.145113,9.20168067 C197.103386,9.20168067 196.365496,8.99159664 195.888038,8.52941176 C195.453985,8.1092437 195.193553,7.43697479 195.193553,6.63865546 L195.193553,6.2605042 L197.059981,6.2605042 L197.059981,6.59663866 L197.016575,6.59663866 C197.016575,6.80672269 197.016575,6.97478992 197.059981,7.14285714 C197.103386,7.31092437 197.146791,7.43697479 197.233602,7.56302521 C197.320412,7.68907563 197.450628,7.77310924 197.624249,7.85714286 C197.79787,7.94117647 197.971492,7.94117647 198.231923,7.94117647 C198.53576,7.94117647 198.752787,7.85714286 199.013218,7.68907563 C199.230245,7.5210084 199.360461,7.22689076 199.360461,6.8487395 C199.360461,6.63865546 199.317055,6.47058824 199.27365,6.34453782 C199.230245,6.21848739 199.143434,6.05042017 199.013218,5.96638655 C198.883002,5.84033613 198.709381,5.75630252 198.492355,5.6302521 C198.275328,5.54621849 198.014897,5.42016807 197.71106,5.33613445 C197.277007,5.21008403 196.929765,5.04201681 196.625928,4.91596639 C196.322091,4.74789916 196.061659,4.57983193 195.888038,4.3697479 C195.671012,4.15966387 195.540796,3.90756303 195.453985,3.61344538 C195.367175,3.31932773 195.323769,3.02521008 195.323769,2.64705882 C195.323769,1.76470588 195.584201,1.09243697 196.105064,0.672268908 C196.625928,0.25210084 197.320412,0.0420168067 198.188518,0.0420168067 Z M36.2434105,0.0420168067 C36.6340581,0.0420168067 37.0247056,0.0840336134 37.3719479,0.168067227 C37.7191901,0.25210084 38.0230271,0.378151261 38.2834588,0.588235294 C38.5438905,0.798319328 38.7175116,1.05042017 38.8911327,1.34453782 C39.0213486,1.63865546 39.1081591,2.01680672 39.1081591,2.43697479 L39.1081591,2.68907563 L37.3285426,2.68907563 C37.3285426,2.26890756 37.241732,1.93277311 37.1115162,1.72268908 C36.937895,1.51260504 36.7208686,1.38655462 36.3302211,1.38655462 C36.1131947,1.38655462 35.9395736,1.42857143 35.8093577,1.47058824 C35.6791419,1.51260504 35.548926,1.59663866 35.4621155,1.68067227 C35.3753049,1.76470588 35.3318996,1.8907563 35.2884943,2.01680672 C35.245089,2.14285714 35.245089,2.26890756 35.245089,2.39495798 C35.245089,2.68907563 35.2884943,2.89915966 35.4187102,3.06722689 C35.548926,3.23529412 35.8093577,3.44537815 36.2000052,3.57142857 L37.6323796,4.15966387 C37.9796218,4.32773109 38.2834588,4.45378151 38.5004852,4.62184874 C38.7175116,4.78991597 38.8911327,4.95798319 39.0213486,5.12605042 C39.1515644,5.29411765 39.238375,5.50420168 39.2817803,5.75630252 C39.3251856,5.96638655 39.3685908,6.21848739 39.3685908,6.51260504 C39.3685908,7.43697479 39.1081591,8.1512605 38.5438905,8.57142857 C37.9796218,8.99159664 37.1983267,9.20168067 36.2000052,9.20168067 C35.1582785,9.20168067 34.4203887,8.99159664 33.9429306,8.52941176 C33.5088778,8.1092437 33.2484461,7.43697479 33.2484461,6.63865546 L33.2484461,6.2605042 L35.1148732,6.2605042 L35.1148732,6.59663866 L35.0714679,6.59663866 C35.0714679,6.80672269 35.0714679,6.97478992 35.1148732,7.14285714 C35.1582785,7.31092437 35.2016838,7.43697479 35.2884943,7.56302521 C35.3753049,7.68907563 35.5055207,7.77310924 35.6791419,7.85714286 C35.852763,7.94117647 36.0263841,7.94117647 36.2868158,7.94117647 C36.5906528,7.94117647 36.8076792,7.85714286 37.0681109,7.68907563 C37.2851373,7.5210084 37.4153531,7.22689076 37.4153531,6.8487395 C37.4153531,6.63865546 37.3719479,6.47058824 37.3285426,6.34453782 C37.2851373,6.21848739 37.1983267,6.05042017 37.0681109,5.96638655 C36.937895,5.84033613 36.7642739,5.75630252 36.5472475,5.6302521 C36.3302211,5.54621849 36.0697894,5.42016807 35.7659524,5.33613445 C35.3753049,5.21008403 34.9846573,5.04201681 34.6808204,4.91596639 C34.3769834,4.74789916 34.1165517,4.57983193 33.9429306,4.3697479 C33.7259042,4.15966387 33.5956883,3.90756303 33.5088778,3.61344538 C33.4220672,3.31932773 33.3786619,3.02521008 33.3786619,2.64705882 C33.3786619,1.76470588 33.6390936,1.09243697 34.159957,0.672268908 C34.6808204,0.25210084 35.3753049,0.0420168067 36.2434105,0.0420168067 Z M70.4467728,0.210084034 C71.2280679,0.210084034 71.8357418,0.420168067 72.2697946,0.798319328 C72.7038475,1.17647059 72.9208739,1.76470588 72.9208739,2.5210084 C72.9208739,3.1092437 72.790658,3.61344538 72.5302263,3.99159664 C72.2697946,4.3697479 71.8791471,4.62184874 71.3582837,4.70588235 L71.3582837,4.74789916 C71.8357418,4.83193277 72.1395788,4.95798319 72.3566052,5.16806723 C72.5736316,5.37815126 72.7038475,5.75630252 72.7472527,6.2605042 C72.7472527,6.42857143 72.790658,6.59663866 72.790658,6.80672269 C72.790658,7.01680672 72.790658,7.22689076 72.8340633,7.4789916 C72.8340633,7.94117647 72.8774686,8.31932773 72.9208739,8.57142857 C72.9642792,8.82352941 73.094495,8.99159664 73.2681161,9.07563025 L73.2681161,9.15966387 L71.2714732,9.15966387 C71.1846626,9.03361345 71.097852,8.90756303 71.097852,8.7394958 C71.0544467,8.57142857 71.0544467,8.40336134 71.0544467,8.23529412 L71.0110415,6.51260504 C71.0110415,6.17647059 70.9242309,5.88235294 70.7506098,5.67226891 C70.5769886,5.46218487 70.316557,5.37815126 69.9259094,5.37815126 L68.9275879,5.37815126 L68.9275879,9.15966387 L67.0611608,9.15966387 L67.0611608,0.210084034 L70.4467728,0.210084034 Z M236.428571,7.18487395 L236.428571,9.11764706 L234.735765,9.11764706 L234.735765,7.18487395 L236.428571,7.18487395 Z M208.56238,0.210084034 L209.864539,6.51260504 L209.907944,6.51260504 L211.253508,0.210084034 L213.988041,0.210084034 L213.988041,9.11764706 L212.295235,9.11764706 L212.295235,2.01680672 L212.251829,2.01680672 L210.602429,9.11764706 L209.170054,9.11764706 L207.520654,2.01680672 L207.477248,2.01680672 L207.477248,9.11764706 L205.784442,9.11764706 L205.784442,0.210084034 L208.56238,0.210084034 Z M218.675811,0.210084034 C219.153269,0.210084034 219.543917,0.294117647 219.847754,0.420168067 C220.151591,0.588235294 220.412022,0.756302521 220.629049,1.00840336 C220.846075,1.2605042 220.976291,1.55462185 221.063102,1.8487395 C221.149912,2.18487395 221.193317,2.4789916 221.193317,2.81512605 C221.193317,3.27731092 221.106507,3.65546218 220.976291,4.03361345 C220.846075,4.3697479 220.629049,4.66386555 220.368617,4.87394958 C220.108185,5.08403361 219.804348,5.25210084 219.457106,5.37815126 C219.109864,5.50420168 218.675811,5.54621849 218.241758,5.54621849 L217.243437,5.54621849 L217.243437,9.11764706 L215.37701,9.11764706 L215.37701,0.210084034 L218.675811,0.210084034 Z M42.32015,0.210084034 L42.32015,9.11764706 L40.4537229,9.11764706 L40.4537229,0.210084034 L42.32015,0.210084034 Z M45.2283039,0.210084034 L46.5304624,6.80672269 L47.9194314,0.210084034 L49.8292638,0.210084034 L47.702405,9.11764706 L45.3585198,9.11764706 L43.2316609,0.210084034 L45.2283039,0.210084034 Z M55.7757875,0.210084034 L55.7757875,1.68067227 L52.476986,1.68067227 L52.476986,3.78151261 L55.558761,3.78151261 L55.558761,5.25210084 L52.476986,5.25210084 L52.476986,7.64705882 L55.9060033,7.64705882 L55.9060033,9.11764706 L50.6539642,9.11764706 L50.6539642,0.210084034 L55.7757875,0.210084034 Z M63.4585224,0.210084034 C63.9359805,0.210084034 64.326628,0.294117647 64.630465,0.420168067 C64.934302,0.588235294 65.1947337,0.756302521 65.4117601,1.00840336 C65.6287865,1.2605042 65.7590023,1.55462185 65.8458129,1.8487395 C65.9326235,2.18487395 65.9760287,2.4789916 65.9760287,2.81512605 C65.9760287,3.27731092 65.8892182,3.65546218 65.7590023,4.03361345 C65.6287865,4.3697479 65.4117601,4.66386555 65.1513284,4.87394958 C64.8908967,5.08403361 64.5870597,5.25210084 64.2398175,5.37815126 C63.8925752,5.50420168 63.4585224,5.54621849 63.0244696,5.54621849 L62.0261481,5.54621849 L62.0261481,9.11764706 L60.1597209,9.11764706 L60.1597209,0.210084034 L63.4585224,0.210084034 Z M22.2669097,0.210084034 L22.2669097,7.64705882 L25.5657111,7.64705882 L25.5657111,9.11764706 L20.4004826,9.11764706 L20.4004826,0.210084034 L22.2669097,0.210084034 Z M204.308663,0.210084034 L204.308663,9.11764706 L202.442236,9.11764706 L202.442236,0.210084034 L204.308663,0.210084034 Z M5.12182328,0.210084034 L5.12182328,1.68067227 L1.82302185,1.68067227 L1.82302185,3.78151261 L4.90479687,3.78151261 L4.90479687,5.25210084 L1.82302185,5.25210084 L1.82302185,7.64705882 L5.25203913,7.64705882 L5.25203913,9.11764706 L0,9.11764706 L0,0.210084034 L5.12182328,0.210084034 Z M76.2630806,0.210084034 L76.2630806,9.11764706 L74.3966535,9.11764706 L74.3966535,0.210084034 L76.2630806,0.210084034 Z M186.903145,0.210084034 L188.161898,3.65546218 L189.464056,0.210084034 L191.460699,0.210084034 L189.073409,5.6302521 L189.073409,9.11764706 L187.206982,9.11764706 L187.206982,5.6302521 L184.819691,0.210084034 L186.903145,0.210084034 Z M182.432401,0.210084034 L182.432401,7.64705882 L185.731202,7.64705882 L185.731202,9.11764706 L180.609379,9.11764706 L180.609379,0.210084034 L182.432401,0.210084034 Z M176.312256,0.210084034 L176.312256,7.64705882 L179.611057,7.64705882 L179.611057,9.11764706 L174.489234,9.11764706 L174.489234,0.210084034 L176.312256,0.210084034 Z M86.7671589,0.210084034 L86.7671589,9.11764706 L84.9007317,9.11764706 L84.9007317,0.210084034 L86.7671589,0.210084034 Z M171.320648,0.210084034 L173.751344,9.11764706 L171.798106,9.11764706 L171.364054,7.22689076 L168.933358,7.22689076 L168.499305,9.11764706 L166.546067,9.11764706 L168.976763,0.210084034 L171.320648,0.210084034 Z M90.3697973,0.210084034 L92.6268719,6.30252101 L92.6702772,0.210084034 L94.3630832,0.210084034 L94.3630832,9.11764706 L92.2362244,9.11764706 L89.9791497,2.89915966 L89.9357444,2.89915966 L89.9357444,9.11764706 L88.2429384,9.11764706 L88.2429384,0.210084034 L90.3697973,0.210084034 Z M150.87676,0.210084034 L150.87676,9.11764706 L149.010333,9.11764706 L149.010333,0.210084034 L150.87676,0.210084034 Z M7.9865719,0.210084034 L9.15851452,3.1092437 L10.3304571,0.210084034 L12.3705054,0.210084034 L10.2436466,4.62184874 L12.5441265,9.11764706 L10.460673,9.11764706 L9.11510923,6.09243697 L7.81295077,9.11764706 L5.77290252,9.11764706 L8.07338246,4.62184874 L5.94652364,0.210084034 L7.9865719,0.210084034 Z M233.477012,0.210084034 L233.477012,1.68067227 L230.178211,1.68067227 L230.178211,3.78151261 L233.259986,3.78151261 L233.259986,5.25210084 L230.178211,5.25210084 L230.178211,7.64705882 L233.607228,7.64705882 L233.607228,9.11764706 L228.355189,9.11764706 L228.355189,0.210084034 L233.477012,0.210084034 Z M104.823756,7.18487395 L104.823756,9.11764706 L103.13095,9.11764706 L103.13095,7.18487395 L104.823756,7.18487395 Z M114.199297,0.210084034 L114.199297,1.68067227 L110.900496,1.68067227 L110.900496,3.78151261 L113.982271,3.78151261 L113.982271,5.25210084 L110.900496,5.25210084 L110.900496,7.64705882 L114.329513,7.64705882 L114.329513,9.11764706 L109.077474,9.11764706 L109.077474,0.210084034 L114.199297,0.210084034 Z M117.02064,0.210084034 L118.192583,3.1092437 L119.364526,0.210084034 L121.404574,0.210084034 L119.277715,4.62184874 L121.578195,9.11764706 L119.494742,9.11764706 L118.149178,6.09243697 L116.847019,9.11764706 L114.806971,9.11764706 L117.107451,4.62184874 L114.980592,0.210084034 L117.02064,0.210084034 Z M161.771486,0.210084034 L164.028561,6.30252101 L164.071966,0.210084034 L165.764772,0.210084034 L165.764772,9.11764706 L163.637913,9.11764706 L161.380839,2.89915966 L161.337433,2.89915966 L161.337433,9.11764706 L159.644627,9.11764706 L159.644627,0.210084034 L161.771486,0.210084034 Z M224.144877,0.210084034 L224.144877,7.64705882 L227.443678,7.64705882 L227.443678,9.11764706 L222.321855,9.11764706 L222.321855,0.210084034 L224.144877,0.210084034 Z M134.59978,0.210084034 L134.59978,1.68067227 L131.300978,1.68067227 L131.300978,3.78151261 L134.382753,3.78151261 L134.382753,5.25210084 L131.300978,5.25210084 L131.300978,7.64705882 L134.729996,7.64705882 L134.729996,9.11764706 L129.477956,9.11764706 L129.477956,0.210084034 L134.59978,0.210084034 Z M139.027118,0.210084034 C139.504577,0.210084034 139.895224,0.294117647 140.199061,0.420168067 C140.502898,0.588235294 140.76333,0.756302521 140.980356,1.00840336 C141.197383,1.2605042 141.327598,1.55462185 141.414409,1.8487395 C141.50122,2.18487395 141.544625,2.4789916 141.544625,2.81512605 C141.544625,3.27731092 141.457814,3.65546218 141.327598,4.03361345 C141.197383,4.3697479 140.980356,4.66386555 140.719924,4.87394958 C140.459493,5.08403361 140.155656,5.25210084 139.808414,5.37815126 C139.461171,5.50420168 139.027118,5.54621849 138.593066,5.54621849 L137.594744,5.54621849 L137.594744,9.11764706 L135.728317,9.11764706 L135.728317,0.210084034 L139.027118,0.210084034 Z M147.968607,0.210084034 L147.968607,1.68067227 L145.971964,1.68067227 L145.971964,9.11764706 L144.105536,9.11764706 L144.105536,1.68067227 L142.108893,1.68067227 L142.108893,0.210084034 L147.968607,0.210084034 Z M155.260694,1.38655462 C155.000262,1.38655462 154.783236,1.42857143 154.609615,1.55462185 C154.435994,1.68067227 154.305778,1.8487395 154.218967,2.14285714 C154.132157,2.39495798 154.088751,2.73109244 154.045346,3.1512605 C154.001941,3.57142857 154.001941,4.07563025 154.001941,4.66386555 C154.001941,5.25210084 154.045346,5.75630252 154.045346,6.17647059 C154.088751,6.59663866 154.132157,6.93277311 154.218967,7.18487395 C154.305778,7.43697479 154.435994,7.64705882 154.609615,7.77310924 C154.783236,7.89915966 155.000262,7.94117647 155.260694,7.94117647 C155.521126,7.94117647 155.738152,7.89915966 155.911773,7.77310924 C156.085394,7.64705882 156.21561,7.4789916 156.302421,7.18487395 C156.389231,6.93277311 156.432637,6.59663866 156.476042,6.17647059 C156.512213,5.82633053 156.518241,5.4178338 156.519246,4.95098039 L156.519447,4.66386555 C156.519447,4.07563025 156.519447,3.57142857 156.476042,3.1512605 C156.432637,2.73109244 156.389231,2.39495798 156.302421,2.14285714 C156.21561,1.8907563 156.085394,1.68067227 155.911773,1.55462185 C155.738152,1.42857143 155.521126,1.38655462 155.260694,1.38655462 Z M170.1053,1.76470588 L170.061895,1.76470588 L169.19379,5.75630252 L170.973406,5.75630252 L170.1053,1.76470588 Z M138.419445,1.55462185 L137.638149,1.55462185 L137.638149,4.24369748 L138.46285,4.24369748 C138.810092,4.24369748 139.113929,4.11764706 139.374361,3.90756303 C139.591387,3.69747899 139.721603,3.36134454 139.721603,2.89915966 C139.721603,2.43697479 139.634792,2.10084034 139.417766,1.8907563 C139.20074,1.63865546 138.896903,1.55462185 138.419445,1.55462185 Z M218.068137,1.55462185 L217.286842,1.55462185 L217.286842,4.24369748 L218.111542,4.24369748 C218.50219,4.24369748 218.762622,4.11764706 219.023053,3.90756303 C219.24008,3.69747899 219.370296,3.36134454 219.370296,2.89915966 C219.370296,2.43697479 219.283485,2.10084034 219.066459,1.8907563 C218.849432,1.63865546 218.545595,1.55462185 218.068137,1.55462185 Z M62.8508484,1.55462185 L62.0695534,1.55462185 L62.0695534,4.24369748 L62.8942537,4.24369748 C63.2849013,4.24369748 63.5453329,4.11764706 63.8057646,3.90756303 C64.0227911,3.69747899 64.1530069,3.36134454 64.1530069,2.89915966 C64.1530069,2.43697479 64.0661963,2.10084034 63.8491699,1.8907563 C63.6321435,1.63865546 63.3283065,1.55462185 62.8508484,1.55462185 Z M69.708883,1.59663866 L68.8407774,1.59663866 L68.8407774,4.15966387 L69.6220724,4.15966387 L69.6220724,4.11764706 C70.0561253,4.11764706 70.4033675,4.03361345 70.6637992,3.82352941 C70.9242309,3.61344538 71.0110415,3.27731092 71.0110415,2.81512605 C71.0110415,1.97478992 70.5769886,1.59663866 69.708883,1.59663866 Z"></path></clipPath><clipPath id="i3"><path d="M119.315465,0.0432211101 C120.31374,0.0432211101 121.094998,0.216105551 121.702643,0.561874431 C122.310288,0.907643312 122.74432,1.38307552 123.048143,1.94494995 C123.351965,2.5500455 123.568982,3.24158326 123.655788,4.10600546 C123.742594,4.92720655 123.785998,5.83484986 123.785998,6.8289354 C123.785998,7.82302093 123.742594,8.73066424 123.655788,9.55186533 C123.568982,10.3730664 123.351965,11.1078253 123.048143,11.7129208 C122.74432,12.3180164 122.266885,12.7502275 121.702643,13.0959964 C121.094998,13.3985441 120.31374,13.5714286 119.315465,13.5714286 C118.317191,13.5714286 117.535933,13.3985441 116.928288,13.0959964 C116.320643,12.7934486 115.886611,12.3180164 115.582788,11.7129208 C115.278966,11.1078253 115.061949,10.4162875 114.975143,9.55186533 C114.888337,8.73066424 114.844933,7.82302093 114.844933,6.8289354 C114.844933,5.83484986 114.888337,4.92720655 114.975143,4.10600546 C115.061949,3.28480437 115.278966,2.5500455 115.582788,1.94494995 C115.886611,1.33985441 116.364046,0.864422202 116.928288,0.561874431 C117.535933,0.216105551 118.317191,0.0432211101 119.315465,0.0432211101 Z M95.4002885,0 C96.8325949,0 97.8742723,0.345768881 98.5253207,1.08052775 C99.1763691,1.81528662 99.4801916,2.80937216 99.4801916,4.14922657 L96.9628046,4.14922657 C96.9194014,3.93312102 96.9194014,3.67379436 96.8325949,3.4144677 C96.7891917,3.15514104 96.7023852,2.93903549 96.5721756,2.72292994 C96.4419659,2.50682439 96.3117562,2.33393995 96.0947401,2.20427662 C95.9211272,2.07461328 95.6607078,1.98817106 95.4002885,1.98817106 C94.7492401,1.98817106 94.3152079,2.33393995 94.0113853,3.06869882 C93.7509659,3.76023658 93.577353,4.92720655 93.577353,6.56960874 C93.577353,7.34758872 93.6207563,8.03912648 93.6641595,8.68744313 C93.7075627,9.33575978 93.7943692,9.8544131 93.9245788,10.2866242 C94.0547885,10.7188353 94.2284014,11.0646042 94.4888208,11.3239308 C94.7492401,11.5832575 95.0530627,11.6696997 95.4002885,11.6696997 C95.5739014,11.6696997 95.7475143,11.6264786 95.9211272,11.5400364 C96.0947401,11.4535942 96.268353,11.3239308 96.4419659,11.1510464 C96.6155788,10.978162 96.7457885,10.7620564 96.8759981,10.5027298 C97.0062078,10.2434031 97.049611,9.94085532 97.049611,9.59508644 L97.049611,8.25523203 L95.313482,8.25523203 L95.313482,6.31028207 L99.6104013,6.31028207 L99.6104013,13.355323 L97.6572562,13.355323 L97.6572562,12.1451319 L97.613853,12.1451319 C97.3100304,12.6637853 96.9194014,13.0095541 96.4853691,13.2256597 C96.0513369,13.4417652 95.4870949,13.5282075 94.8794498,13.5282075 C94.0547885,13.5282075 93.4037401,13.3985441 92.8829014,13.0959964 C92.3620627,12.8366697 91.9714337,12.3612375 91.6676111,11.7993631 C91.3637886,11.1942675 91.1901757,10.5027298 91.1033692,9.63830755 C91.0165628,8.77388535 90.9731595,7.77979982 90.9731595,6.65605096 C90.9731595,5.5755232 91.059966,4.58143767 91.1901757,3.76023658 C91.3203853,2.93903549 91.5808047,2.24749773 91.9280305,1.68562329 C92.2752563,1.12374886 92.7092885,0.734758872 93.2735305,0.432211101 C93.8377724,0.17288444 94.532224,0 95.4002885,0 Z M237.111818,0.302547771 C237.80627,0.302547771 238.370512,0.432211101 238.804544,0.648316652 C239.281979,0.864422202 239.629205,1.16696997 239.933028,1.55595996 C240.193447,1.90172884 240.410463,2.33393995 240.540673,2.80937216 C240.670882,3.28480437 240.714286,3.76023658 240.714286,4.23566879 C240.714286,4.92720655 240.627479,5.48908098 240.410463,6.0077343 C240.193447,6.52638763 239.933028,6.91537762 239.542399,7.21792539 C239.195173,7.52047316 238.761141,7.77979982 238.240302,7.95268426 C237.719463,8.1255687 237.155221,8.21201092 236.547576,8.21201092 L235.11527,8.21201092 L235.11527,13.4417652 L232.467673,13.4417652 L232.467673,0.388989991 L237.111818,0.388989991 L237.111818,0.302547771 Z M211.113286,0 C211.720931,0 212.24177,0.0432211101 212.719206,0.17288444 C213.196641,0.302547771 213.630673,0.518653321 214.021302,0.777979982 C214.368528,1.08052775 214.672351,1.42629663 214.845964,1.85850773 C215.06298,2.29071884 215.149786,2.85259327 215.149786,3.45768881 L215.149786,3.80345769 L212.719206,3.80345769 C212.719206,3.19836215 212.588996,2.72292994 212.37198,2.37716106 C212.154964,2.03139217 211.764335,1.85850773 211.286899,1.85850773 C210.983077,1.85850773 210.76606,1.90172884 210.549044,1.98817106 C210.332028,2.07461328 210.201819,2.20427662 210.071609,2.33393995 C209.941399,2.46360328 209.854593,2.63648772 209.854593,2.80937216 C209.81119,2.9822566 209.81119,3.19836215 209.81119,3.37124659 C209.81119,3.76023658 209.897996,4.10600546 210.071609,4.36533212 C210.245222,4.62465878 210.592448,4.88398544 211.15669,5.1433121 L213.196641,6.0077343 C213.71748,6.22383985 214.108109,6.4399454 214.411931,6.69927207 C214.715754,6.95859873 214.976173,7.17470428 215.193189,7.47725205 C215.366802,7.73657871 215.497012,8.03912648 215.583818,8.38489536 C215.670625,8.73066424 215.714028,9.07643312 215.714028,9.46542311 C215.714028,10.8484986 215.323399,11.8425842 214.498738,12.4909008 C213.71748,13.1392175 212.588996,13.4417652 211.15669,13.4417652 C209.68098,13.4417652 208.595899,13.1392175 207.944851,12.4909008 C207.293802,11.8425842 206.98998,10.9349409 206.98998,9.72474977 L206.98998,9.29253867 L209.637577,9.29253867 L209.637577,9.68152866 L209.594173,9.68152866 C209.594173,9.98407643 209.637577,10.2434031 209.68098,10.5027298 C209.724383,10.7620564 209.81119,10.978162 209.941399,11.1510464 C210.071609,11.3239308 210.245222,11.4535942 210.462238,11.5400364 C210.679254,11.6264786 210.983077,11.6696997 211.330302,11.6696997 C211.720931,11.6696997 212.11156,11.5400364 212.415383,11.2807097 C212.719206,11.0213831 212.892819,10.6323931 212.892819,10.0705187 C212.892819,9.76797088 212.849415,9.50864422 212.762609,9.29253867 C212.675802,9.07643312 212.545593,8.90354868 212.37198,8.73066424 C212.198367,8.5577798 211.937948,8.38489536 211.634125,8.25523203 C211.330302,8.1255687 210.983077,7.95268426 210.505641,7.82302093 C209.897996,7.60691538 209.420561,7.43403094 208.986528,7.17470428 C208.552496,6.95859873 208.20527,6.65605096 207.901448,6.35350318 C207.597625,6.05095541 207.424012,5.66196542 207.250399,5.27297543 C207.12019,4.88398544 207.033383,4.40855323 207.033383,3.8466788 C207.033383,2.5500455 207.380609,1.59918107 208.118464,0.950864422 C208.856319,0.302547771 209.854593,0 211.113286,0 Z M38.3250477,0.302547771 C39.0194993,0.302547771 39.5837412,0.432211101 40.0177734,0.648316652 C40.4952089,0.864422202 40.8424347,1.16696997 41.1462573,1.55595996 C41.4066766,1.90172884 41.6236928,2.33393995 41.7539024,2.80937216 C41.8841121,3.28480437 41.9275153,3.76023658 41.9275153,4.23566879 C41.9275153,4.92720655 41.8407089,5.48908098 41.6236928,6.0077343 C41.4066766,6.52638763 41.1462573,6.91537762 40.7990315,7.21792539 C40.4518057,7.52047316 40.0177734,7.77979982 39.4969347,7.95268426 C38.976096,8.1255687 38.4118541,8.21201092 37.804209,8.21201092 L36.3719025,8.21201092 L36.3719025,13.4417652 L33.7243058,13.4417652 L33.7243058,0.388989991 L38.3250477,0.388989991 L38.3250477,0.302547771 Z M143.447659,0.302547771 C144.14211,0.302547771 144.706352,0.432211101 145.140384,0.648316652 C145.61782,0.864422202 145.965046,1.16696997 146.268868,1.55595996 C146.529288,1.90172884 146.746304,2.33393995 146.876513,2.80937216 C147.006723,3.28480437 147.050126,3.76023658 147.050126,4.23566879 C147.050126,4.92720655 146.96332,5.48908098 146.746304,6.0077343 C146.529288,6.52638763 146.268868,6.91537762 145.921642,7.21792539 C145.574417,7.52047316 145.140384,7.77979982 144.619546,7.95268426 C144.098707,8.1255687 143.534465,8.21201092 142.92682,8.21201092 L141.494513,8.21201092 L141.494513,13.4417652 L138.846917,13.4417652 L138.846917,0.388989991 L143.447659,0.388989991 L143.447659,0.302547771 Z M201.955206,0.302547771 C203.040286,0.302547771 203.908351,0.561874431 204.515996,1.12374886 C205.123641,1.68562329 205.427464,2.50682439 205.427464,3.67379436 C205.427464,4.53821656 205.253851,5.27297543 204.906625,5.83484986 C204.559399,6.39672429 203.995157,6.74249318 203.257303,6.91537762 L203.257303,6.95859873 C203.908351,7.04504095 204.385786,7.2611465 204.689609,7.60691538 C204.993432,7.95268426 205.167044,8.47133758 205.253851,9.20609645 C205.297254,9.46542311 205.297254,9.72474977 205.297254,9.98407643 C205.297254,10.2866242 205.340657,10.589172 205.340657,10.9349409 C205.384061,11.6264786 205.384061,12.1451319 205.470867,12.5341219 C205.557673,12.8798908 205.687883,13.1392175 205.948303,13.2688808 L205.948303,13.3985441 L203.08369,13.3985441 C202.95348,13.2256597 202.866674,13.0095541 202.82327,12.7502275 C202.779867,12.4909008 202.779867,12.2747953 202.736464,12.0154686 L202.649657,9.50864422 C202.606254,8.9899909 202.476045,8.60100091 202.259028,8.29845314 C202.042012,7.99590537 201.651383,7.86624204 201.087141,7.86624204 L199.698238,7.86624204 L199.698238,13.3985441 L197.050641,13.3985441 L197.050641,0.345768881 L201.955206,0.345768881 L201.955206,0.302547771 Z M163.109319,0.302547771 C164.1944,0.302547771 165.062465,0.561874431 165.67011,1.12374886 C166.277755,1.68562329 166.581577,2.50682439 166.581577,3.67379436 C166.581577,4.53821656 166.407965,5.27297543 166.060739,5.83484986 C165.713513,6.39672429 165.149271,6.74249318 164.411416,6.91537762 L164.411416,6.95859873 C165.062465,7.04504095 165.5399,7.2611465 165.843723,7.60691538 C166.147545,7.95268426 166.321158,8.47133758 166.407965,9.20609645 C166.451368,9.46542311 166.451368,9.72474977 166.451368,9.98407643 C166.451368,10.2866242 166.494771,10.589172 166.494771,10.9349409 C166.538174,11.6264786 166.538174,12.1451319 166.624981,12.5341219 C166.711787,12.8798908 166.841997,13.1392175 167.102416,13.2688808 L167.102416,13.3985441 L164.237803,13.3985441 C164.107594,13.2256597 164.020787,13.0095541 163.977384,12.7502275 C163.933981,12.4909008 163.933981,12.2747953 163.890578,12.0154686 L163.803771,9.50864422 C163.760368,8.9899909 163.630158,8.60100091 163.413142,8.29845314 C163.196126,7.99590537 162.805497,7.86624204 162.241255,7.86624204 L160.808949,7.86624204 L160.808949,13.3985441 L158.161352,13.3985441 L158.161352,0.345768881 L163.109319,0.345768881 L163.109319,0.302547771 Z M48.3077894,0.302547771 C49.39287,0.302547771 50.2609345,0.561874431 50.8685797,1.12374886 C51.4762248,1.68562329 51.7800474,2.50682439 51.7800474,3.67379436 C51.7800474,4.53821656 51.6064345,5.27297543 51.2592087,5.83484986 C50.9119829,6.39672429 50.347741,6.74249318 49.6098861,6.91537762 L49.6098861,6.95859873 C50.2609345,7.04504095 50.73837,7.2611465 51.0421926,7.60691538 C51.3460151,7.95268426 51.519628,8.47133758 51.6064345,9.20609645 C51.6498377,9.46542311 51.6498377,9.72474977 51.6498377,9.98407643 C51.6498377,10.2866242 51.6932409,10.589172 51.6932409,10.9349409 C51.7366442,11.6264786 51.7366442,12.1451319 51.8234506,12.5341219 C51.9102571,12.8798908 52.0404667,13.1392175 52.3008861,13.2688808 L52.3008861,13.3985441 L49.4362732,13.3985441 C49.3060636,13.2256597 49.2192571,13.0095541 49.1758539,12.7502275 C49.1324507,12.4909008 49.1324507,12.2747953 49.0890474,12.0154686 L49.002241,9.50864422 C48.9588378,8.9899909 48.8286281,8.60100091 48.611612,8.29845314 C48.3945958,7.99590537 48.0039668,7.86624204 47.4397249,7.86624204 L46.0074185,7.86624204 L46.0074185,13.3985441 L43.4466282,13.3985441 L43.4466282,0.345768881 L48.3077894,0.345768881 L48.3077894,0.302547771 Z M8.37682242,0.302547771 L8.37682242,2.46360328 L5.51220957,2.46360328 L5.51220957,13.355323 L2.86461285,13.355323 L2.86461285,2.46360328 L0,2.46360328 L0,0.302547771 L8.37682242,0.302547771 Z M71.2246922,0.302547771 L71.2246922,13.355323 L68.5770955,13.355323 L68.5770955,0.302547771 L71.2246922,0.302547771 Z M76.0424502,0.302547771 L76.0424502,11.1942675 L80.7299985,11.1942675 L80.7299985,13.355323 L73.3948534,13.355323 L73.3948534,0.302547771 L76.0424502,0.302547771 Z M89.4106434,0.302547771 L89.4106434,2.46360328 L84.7230952,2.46360328 L84.7230952,5.53230209 L89.1502241,5.53230209 L89.1502241,7.6933576 L84.7230952,7.6933576 L84.7230952,11.1942675 L89.5842563,11.1942675 L89.5842563,13.355323 L82.0754984,13.355323 L82.0754984,0.302547771 L89.4106434,0.302547771 Z M60.764515,0.302547771 L62.5874504,9.98407643 L62.6308536,9.98407643 L64.5839988,0.302547771 L67.3184019,0.302547771 L64.3235794,13.355323 L60.9381279,13.355323 L57.9433053,0.302547771 L60.764515,0.302547771 Z M230.340915,0.302547771 L230.340915,13.355323 L227.693318,13.355323 L227.693318,0.302547771 L230.340915,0.302547771 Z M108.811885,0.302547771 L108.811885,2.46360328 L104.16774,2.46360328 L104.16774,5.53230209 L108.551466,5.53230209 L108.551466,7.6933576 L104.124337,7.6933576 L104.124337,11.1942675 L108.985498,11.1942675 L108.985498,13.355323 L101.47674,13.355323 L101.47674,0.302547771 L108.811885,0.302547771 Z M56.5978054,0.302547771 L56.5978054,13.355323 L53.9502086,13.355323 L53.9502086,0.302547771 L56.5978054,0.302547771 Z M132.857272,0.302547771 L132.857272,2.46360328 L128.169723,2.46360328 L128.169723,5.53230209 L132.596852,5.53230209 L132.596852,7.6933576 L128.169723,7.6933576 L128.169723,13.355323 L125.522127,13.355323 L125.522127,0.302547771 L132.857272,0.302547771 Z M219.837335,0.302547771 L219.837335,5.31619654 L222.918963,5.31619654 L222.918963,0.302547771 L225.56656,0.302547771 L225.56656,13.355323 L222.918963,13.355323 L222.918963,7.56369427 L219.837335,7.56369427 L219.837335,13.355323 L217.189738,13.355323 L217.189738,0.302547771 L219.837335,0.302547771 Z M153.647416,0.302547771 L157.119674,13.355323 L154.385271,13.355323 L153.777626,10.589172 L150.305368,10.589172 L149.697723,13.355323 L146.919917,13.355323 L150.392175,0.302547771 L153.647416,0.302547771 Z M27.4308382,0.302547771 L27.4308382,2.46360328 L22.7432899,2.46360328 L22.7432899,5.53230209 L27.1704188,5.53230209 L27.1704188,7.6933576 L22.7432899,7.6933576 L22.7432899,11.1942675 L27.6044511,11.1942675 L27.6044511,13.355323 L20.0956932,13.355323 L20.0956932,0.302547771 L27.4308382,0.302547771 Z M176.000077,0.302547771 L176.000077,2.46360328 L173.135464,2.46360328 L173.135464,13.355323 L170.487868,13.355323 L170.487868,2.46360328 L167.623255,2.46360328 L167.623255,0.302547771 L176.000077,0.302547771 Z M180.3404,0.302547771 L183.552238,9.24931756 L183.595642,0.302547771 L186.026222,0.302547771 L186.026222,13.355323 L183.0314,13.355323 L179.819561,4.19244768 L179.732755,4.19244768 L179.732755,13.355323 L177.302174,13.355323 L177.302174,0.302547771 L180.3404,0.302547771 Z M195.357916,0.302547771 L195.357916,2.46360328 L190.670367,2.46360328 L190.670367,5.53230209 L195.097496,5.53230209 L195.097496,7.6933576 L190.670367,7.6933576 L190.670367,11.1942675 L195.531529,11.1942675 L195.531529,13.355323 L188.022771,13.355323 L188.022771,0.302547771 L195.357916,0.302547771 Z M12.3265159,0.302547771 L12.3265159,5.31619654 L15.4081449,5.31619654 L15.4081449,0.302547771 L18.0557416,0.302547771 L18.0557416,13.355323 L15.4081449,13.355323 L15.4081449,7.56369427 L12.3265159,7.56369427 L12.3265159,13.355323 L9.67891917,13.355323 L9.67891917,0.302547771 L12.3265159,0.302547771 Z M119.315465,1.94494995 C118.924836,1.94494995 118.621014,2.03139217 118.360595,2.20427662 C118.100175,2.37716106 117.926562,2.67970883 117.796353,3.06869882 C117.666143,3.45768881 117.579336,3.97634213 117.535933,4.58143767 C117.497955,5.11089627 117.493208,5.73962836 117.492615,6.4965887 L117.49253,6.8289354 C117.49253,7.6933576 117.49253,8.47133758 117.535933,9.07643312 C117.579336,9.68152866 117.666143,10.200182 117.796353,10.589172 C117.926562,10.978162 118.100175,11.2374886 118.360595,11.4103731 C118.621014,11.5832575 118.924836,11.6696997 119.315465,11.6696997 C119.706094,11.6696997 120.009917,11.5832575 120.270336,11.4103731 C120.487353,11.2374886 120.704369,10.9349409 120.834578,10.589172 C120.964788,10.200182 121.051594,9.72474977 121.094998,9.07643312 C121.1322,8.5577798 121.137515,7.91210934 121.138274,7.19385765 L121.138401,6.8289354 C121.138401,5.96451319 121.138401,5.18653321 121.094998,4.58143767 C121.051594,3.97634213 120.964788,3.45768881 120.834578,3.06869882 C120.704369,2.67970883 120.530756,2.37716106 120.270336,2.20427662 C120.009917,2.03139217 119.706094,1.94494995 119.315465,1.94494995 Z M152.041497,2.5500455 L151.998094,2.5500455 L150.7394,8.42811647 L153.300191,8.42811647 L152.041497,2.5500455 Z M142.492788,2.24749773 L141.407707,2.24749773 L141.407707,6.22383985 L142.622997,6.22383985 C143.143836,6.22383985 143.577868,6.05095541 143.881691,5.74840764 C144.185513,5.44585987 144.359126,4.92720655 144.359126,4.2788899 C144.359126,3.63057325 144.228917,3.11191993 143.925094,2.76615105 C143.621271,2.42038217 143.187239,2.24749773 142.492788,2.24749773 Z M37.4135799,2.24749773 L36.3284993,2.24749773 L36.3284993,6.22383985 L37.5437896,6.22383985 C38.0646283,6.22383985 38.4986606,6.05095541 38.8024831,5.74840764 C39.1063057,5.44585987 39.2799186,4.92720655 39.2799186,4.2788899 C39.2799186,3.63057325 39.1497089,3.11191993 38.8458864,2.76615105 C38.585467,2.42038217 38.1080315,2.24749773 37.4135799,2.24749773 Z M236.20035,2.24749773 L235.11527,2.24749773 L235.11527,6.22383985 L236.33056,6.22383985 C236.851399,6.22383985 237.285431,6.05095541 237.589254,5.74840764 C237.936479,5.44585987 238.066689,4.92720655 238.066689,4.2788899 C238.066689,3.63057325 237.936479,3.11191993 237.632657,2.76615105 C237.372237,2.42038217 236.894802,2.24749773 236.20035,2.24749773 Z M201.000335,2.24749773 L199.698238,2.24749773 L199.698238,6.0077343 L200.826722,6.0077343 C201.47777,6.0077343 201.955206,5.87807097 202.302432,5.5755232 C202.649657,5.27297543 202.82327,4.75432211 202.82327,4.06278435 C202.82327,2.85259327 202.215625,2.24749773 201.000335,2.24749773 Z M47.3529184,2.24749773 L46.0942249,2.24749773 L46.0942249,6.0077343 L47.1793055,6.0077343 C47.8303539,6.0077343 48.3077894,5.87807097 48.6550152,5.5755232 C49.002241,5.27297543 49.1758539,4.75432211 49.1758539,4.06278435 C49.1758539,2.85259327 48.5682087,2.24749773 47.3529184,2.24749773 Z M162.154449,2.24749773 L160.895755,2.24749773 L160.895755,6.0077343 L161.980836,6.0077343 C162.631884,6.0077343 163.109319,5.87807097 163.456545,5.5755232 C163.803771,5.27297543 163.977384,4.75432211 163.977384,4.06278435 C163.977384,2.85259327 163.369739,2.24749773 162.154449,2.24749773 Z"></path></clipPath></defs><g transform="translate(-83.0 -934.0)"><g clip-path="url(#i0)"><g transform="translate(83.00000000000016 934.9804154302674)"><g transform="translate(0.7142857142857082 16.42857142857143)"><g clip-path="url(#i1)"><polygon points="0,0 238.571429,0 238.571429,0.714285714 0,0.714285714 0,0" stroke="none" fill="#FFFFFF"></polygon></g></g><g transform="translate(1.4285714285714306 20.714285714285708)"><g clip-path="url(#i2)"><polygon points="0,0 236.428571,0 236.428571,9.28571429 0,9.28571429 0,0" stroke="none" fill="#FFFFFF"></polygon></g></g><g clip-path="url(#i3)"><polygon points="0,0 240.714286,0 240.714286,13.5714286 0,13.5714286 0,0" stroke="none" fill="#FFFFFF"></polygon></g></g></g></g></svg>