<?xml version="1.0" encoding="UTF-8"?><svg version="1.1" width="146px" height="120px" viewBox="0 0 146.0 120.0" xmlns="http://www.w3.org/2000/svg" xmlns:xlink="http://www.w3.org/1999/xlink"><defs><clipPath id="i0"><path d="M1440,0 L1440,1587 L0,1587 L0,0 L1440,0 Z"></path></clipPath><clipPath id="i1"><path d="M1.33764368,0.194214876 C1.71982759,0.194214876 1.91091954,0.388429752 2.10201149,0.582644628 C2.21441853,0.719737482 4.06913455,2.98176957 5.92385057,5.24380165 L6.11494253,5.43801653 L6.11494253,0.194214876 L8.02586207,0.194214876 L8.02586207,8.9338843 L7.0704023,8.9338843 C6.49712644,8.9338843 6.30603448,8.73966942 6.11494253,8.54545455 L6.10252417,8.52930327 C5.96159713,8.34644424 4.61805556,6.6140955 1.91091954,3.49586777 L1.91091954,8.9338843 L0,8.9338843 L0,0.194214876 Z"></path></clipPath><clipPath id="i2"><path d="M1.33764368,0.194214876 C1.71982759,0.194214876 1.91091954,0.388429752 2.10201149,0.582644628 C2.21441853,0.719737482 4.06913455,2.98176957 5.92385057,5.24380165 L6.11494253,5.43801653 L6.11494253,0.194214876 L7.83477011,0.194214876 L7.83477011,8.9338843 L6.87931034,8.9338843 C6.49712644,8.9338843 6.30603448,8.73966942 6.11494253,8.54545455 C6.11494253,8.54545455 4.9683908,6.99173554 1.91091954,3.49586777 L1.91091954,8.9338843 L0,8.9338843 L0,0.194214876 Z"></path></clipPath><clipPath id="i3"><path d="M1.91091954,0 L1.91091954,8.73966942 L0,8.73966942 L0,0 L1.91091954,0 Z"></path></clipPath><clipPath id="i4"><path d="M4.77729885,0 C7.45258621,0 9.5545977,1.94214876 9.5545977,4.46694215 C9.5545977,6.99173554 7.45258621,8.9338843 4.77729885,8.9338843 C2.10201149,8.9338843 0,6.99173554 0,4.46694215 C0,1.94214876 2.10201149,0 4.77729885,0 Z M4.77729885,1.74793388 C3.24856322,1.74793388 2.10201149,2.91322314 2.10201149,4.46694215 C2.10201149,6.02066116 3.24856322,7.18595041 4.77729885,7.18595041 C6.49712644,7.18595041 7.64367816,6.02066116 7.45258621,4.46694215 C7.45258621,2.91322314 6.30603448,1.74793388 4.77729885,1.74793388 Z"></path></clipPath><clipPath id="i5"><path d="M1.91091954,0 L1.91091954,6.79752066 L6.68821839,6.79752066 L6.68821839,8.73966942 L0,8.73966942 L0,0 L1.91091954,0 Z"></path></clipPath><clipPath id="i6"><path d="M1.91091954,0 L1.91091954,6.99173554 L6.49712644,6.99173554 L6.49712644,8.73966942 L0,8.73966942 L0,0 L1.91091954,0 Z"></path></clipPath><clipPath id="i7"><path d="M4.77729885,0 C6.68821839,0 7.64367816,0.582644628 8.40804598,1.35950413 L8.79022989,1.74793388 L7.45258621,3.10743802 L7.0704023,2.71900826 C6.30603448,1.94214876 5.54166667,1.74793388 4.77729885,1.74793388 C3.24856322,1.74793388 2.10201149,2.91322314 2.10201149,4.46694215 C2.10201149,6.02066116 3.24856322,7.18595041 4.77729885,7.18595041 C5.73275862,7.18595041 6.30603448,6.79752066 7.0704023,6.21487603 L7.45258621,5.82644628 L8.79022989,7.18595041 L8.40804598,7.57438017 C7.64367816,8.35123967 6.68821839,9.12809917 4.77729885,9.12809917 C2.10201149,9.12809917 0,7.18595041 0,4.66115702 C0,1.94214876 2.10201149,0 4.77729885,0 Z"></path></clipPath><clipPath id="i8"><path d="M8.21695402,0 L8.41512346,0.0578115612 C8.96244856,0.194214876 9.6607599,0.194214876 10.5100575,0.194214876 C11.8477011,0.388429752 12.0387931,0.582644628 12.2298851,1.94214876 C12.612069,5.43801653 13.7586207,13.0123967 13.9497126,22.1404959 L13.9497126,23.5 C13.7586207,24.4710744 13.7586207,24.4710744 13.7586207,24.8595041 L13.7571433,25.4279644 C13.7110965,34.3014323 12.6001257,41.634814 12.0387931,45.0578512 C11.8477011,46.4173554 11.8477011,46.6115702 10.3189655,46.8057851 C9.5545977,46.8057851 8.98132184,47 8.40804598,47 L5.35057471,47 L5.09429979,46.9994338 C4.56280788,46.9960364 3.93103448,46.972255 3.43965517,46.8057851 C2.10201149,46.6115702 1.91091954,46.4173554 1.71982759,45.0578512 C1.33764368,41.5619835 0.191091954,33.9876033 0,24.8595041 L0,22.1404959 L0.00147735479,21.5720356 C0.0475241709,12.6985677 1.15849497,5.36518595 1.71982759,1.94214876 C1.91091954,0.582644628 1.91091954,0.388429752 3.43965517,0.194214876 C4.20402299,0.194214876 4.9683908,0 5.54166667,0 L8.21695402,0 Z M0.764367816,24.4710744 C0.764367816,24.6652893 0.764367816,24.8595041 0.95545977,24.8595041 C1.14655172,24.8595041 1.14655172,24.8595041 1.52873563,25.053719 C1.71982759,25.053719 1.71982759,25.053719 1.71982759,25.2479339 L1.72100864,25.7067251 C1.76879366,35.0008148 3.25164535,42.1571581 3.43965517,42.9214876 C3.63074713,44.0867769 3.82183908,44.0867769 4.77729885,44.2809917 L5.15948276,44.2809917 L5.22255803,44.2813711 C5.35057471,44.2840263 5.35057471,44.3052686 5.35057471,44.4752066 L5.3507658,44.592124 C5.35248563,44.9452066 5.36968391,45.3297521 5.54166667,46.0289256 C5.54166667,46.0289256 5.54166667,46.2231405 6.49712644,46.4173554 C6.45558471,44.8129716 6.41404298,42.9974847 6.37446447,41.1325143 L6.35874242,40.3842701 C6.2234728,33.8832551 6.11494253,27.0465325 6.11494253,26.607438 C6.11494253,25.2479339 5.92385057,24.8595041 4.01293103,24.6652893 C3.05747126,24.6652893 1.71982759,24.4710744 0.764367816,24.4710744 Z M13.5675287,24.2768595 C12.612069,24.2768595 11.2744253,24.4710744 10.3189655,24.4710744 C8.40804598,24.4710744 8.21695402,25.053719 8.21695402,26.4132231 L8.21645336,26.5119672 C8.2086893,27.5107187 8.11250447,33.7259647 8.05982827,39.7272446 L8.05335017,40.4917847 C8.03675972,42.525227 8.02586207,44.5070926 8.02586207,46.2231405 C8.40804598,46.2231405 8.40804598,45.8347107 8.40804598,45.8347107 C8.40804598,44.8636364 8.59913793,44.6694215 8.59913793,44.2809917 C8.59913793,44.0867769 8.59913793,44.0867769 8.79022989,44.0867769 L9.17241379,44.0867769 C9.93678161,43.892562 10.3189655,43.892562 10.5100575,42.7272727 C10.7011494,41.9504132 12.2298851,34.5702479 12.612069,25.053719 L12.6126261,25.0429607 C12.6159688,25.0021926 12.6393678,24.8595041 12.8031609,24.8595041 C12.9942529,24.8595041 13.1853448,24.6652893 13.3764368,24.6652893 C13.3764368,24.4710744 13.5675287,24.4710744 13.5675287,24.2768595 Z M7.26149425,0.776859504 C7.30857488,2.5951611 7.35565551,4.68461293 7.39987827,6.80994475 L7.42300761,7.93717958 C7.54223584,13.8278516 7.63576479,19.6754268 7.64320117,20.5081034 L7.64367816,20.5867769 C7.64367816,21.946281 7.83477011,22.3347107 9.74568966,22.5289256 C10.7011494,22.5289256 12.2298851,22.7231405 12.9942529,22.7231405 C12.9942529,22.5289256 12.9942529,22.3347107 12.8031609,22.3347107 C12.612069,22.3347107 12.612069,22.3347107 12.2298851,22.1404959 C12.0387931,22.1404959 12.0387931,22.1404959 12.0387931,21.946281 L12.037612,21.4874898 C11.989827,12.1934 10.5069753,5.03705678 10.3189655,4.27272727 C10.1278736,3.10743802 9.93678161,3.10743802 8.98132184,2.91322314 L8.59913793,2.91322314 L8.53606266,2.91284381 C8.40804598,2.91018853 8.40804598,2.88894628 8.40804598,2.71900826 C8.40804598,2.33057851 8.40804598,1.94214876 8.21695402,1.16528926 C8.21695402,1.16528926 8.21695402,0.776859504 7.26149425,0.776859504 Z M5.73275862,0.776859504 C5.35057471,0.776859504 5.35057471,1.16528926 5.35057471,1.16528926 C5.35057471,2.13636364 5.15948276,2.33057851 5.15948276,2.71900826 C5.15948276,2.91322314 5.15948276,2.91322314 4.9683908,2.91322314 L4.5862069,2.91322314 C3.82183908,3.10743802 3.43965517,3.10743802 3.24856322,4.27272727 C3.05747126,5.04958678 1.52873563,12.4297521 0.95545977,21.946281 L0.954902651,21.9570393 C0.951559934,21.9978074 0.92816092,22.1404959 0.764367816,22.1404959 C0.573275862,22.1404959 0.382183908,22.3347107 0.191091954,22.3347107 C0.191091954,22.5289256 0,22.5289256 0,22.7231405 C0.95545977,22.7231405 2.29310345,22.5289256 3.24856322,22.5289256 C5.15948276,22.5289256 5.35057471,21.946281 5.35057471,20.5867769 C5.35057471,20.1645706 5.45091705,13.8273975 5.57888989,7.56116859 L5.59437461,6.80994475 L5.61009665,6.06170056 C5.64967516,4.19673015 5.69121689,2.38124326 5.73275862,0.776859504 Z"></path></clipPath></defs><g transform="translate(-895.0 -1015.0)"><g clip-path="url(#i0)"><g transform="translate(895.0 1015.0)"><g transform="translate(6.0 38.0)"><g transform="translate(32.10344827586233 19.03305785123968)"><g transform="translate(26.7528735632186 0.0)"><g clip-path="url(#i1)"><polygon points="0,0 8.02586207,0 8.02586207,8.9338843 0,8.9338843 0,0" stroke="none" fill="#221F20"></polygon></g></g><g transform="translate(93.06178160919535 0.194214876033044)"><g clip-path="url(#i2)"><polygon points="0,0 7.83477011,0 7.83477011,8.9338843 0,8.9338843 0,0" stroke="none" fill="#221F20"></polygon></g></g><g transform="translate(15.47844827586232 0.0)"><g clip-path="url(#i3)"><polygon points="0,0 1.91091954,0 1.91091954,8.73966942 0,8.73966942 0,0" stroke="none" fill="#221F20"></polygon></g></g><g transform="translate(59.6206896551721 0.0)"><g clip-path="url(#i4)"><polygon points="0,0 9.5545977,0 9.5545977,8.9338843 0,8.9338843 0,0" stroke="none" fill="#221F20"></polygon></g></g><g transform="translate(78.15660919540187 0.194214876033044)"><g clip-path="url(#i5)"><polygon points="0,0 6.68821839,0 6.68821839,8.73966942 0,8.73966942 0,0" stroke="none" fill="#221F20"></polygon></g></g><g transform="translate(0.0 0.194214876033044)"><g clip-path="url(#i6)"><polygon points="0,0 6.68821839,0 6.68821839,8.73966942 0,8.73966942 0,0" stroke="none" fill="#221F20"></polygon></g></g><g transform="translate(42.80459770114976 0.0)"><g clip-path="url(#i7)"><polygon points="0,0 8.79022989,0 8.79022989,9.12809917 0,9.12809917 0,0" stroke="none" fill="#221F20"></polygon></g></g></g><g clip-path="url(#i8)"><polygon points="0,0 13.9497126,0 13.9497126,47 0,47 0,0" stroke="none" fill="#221F20"></polygon></g></g></g></g></g></svg>