<?xml version="1.0" encoding="UTF-8"?><svg version="1.1" width="66px" height="66px" viewBox="0 0 66.0 66.0" xmlns="http://www.w3.org/2000/svg" xmlns:xlink="http://www.w3.org/1999/xlink"><defs><clipPath id="i0"><path d="M1440,0 L1440,1587 L0,1587 L0,0 L1440,0 Z"></path></clipPath><clipPath id="i1"><path d="M10.9657702,0 L10.9657702,25.7457213 L0,25.7457213 L0,0 L10.9657702,0 Z"></path></clipPath><clipPath id="i2"><path d="M10.9657702,0 L10.9657702,38.9364303 L0,38.9364303 L0,0 L10.9657702,0 Z"></path></clipPath><clipPath id="i3"><path d="M10.9657702,0 L10.9657702,51.9682152 L0,51.9682152 L0,0 L10.9657702,0 Z"></path></clipPath><clipPath id="i4"><path d="M10.9657702,0 L10.9657702,65 L0,65 L0,0 L10.9657702,0 Z"></path></clipPath></defs><g transform="translate(-108.0 -1040.0)"><g clip-path="url(#i0)"><g transform="translate(76.5 1040.75)"><g transform="translate(32.14999999999966 0.0)"><g transform="translate(0.0 39.25427872860632)"><g clip-path="url(#i1)"><polygon points="0,0 10.9657702,0 10.9657702,25.7457213 0,25.7457213 0,0" stroke="none" fill="#00095B"></polygon></g></g><g transform="translate(17.95843520782364 26.06356968215164)"><g clip-path="url(#i2)"><polygon points="0,0 10.9657702,0 10.9657702,38.9364303 0,38.9364303 0,0" stroke="none" fill="#00095B"></polygon></g></g><g transform="translate(35.91687041564819 13.031784841075936)"><g clip-path="url(#i3)"><polygon points="0,0 10.9657702,0 10.9657702,51.9682152 0,51.9682152 0,0" stroke="none" fill="#00095B"></polygon></g></g><g transform="translate(54.034229828850584 0.0)"><g clip-path="url(#i4)"><polygon points="0,0 10.9657702,0 10.9657702,65 0,65 0,0" stroke="none" fill="#00095B"></polygon></g></g></g></g></g></g></svg>