<?xml version="1.0" encoding="UTF-8"?><svg version="1.1" width="250px" height="63px" viewBox="0 0 250.0 63.0" xmlns="http://www.w3.org/2000/svg" xmlns:xlink="http://www.w3.org/1999/xlink"><defs><clipPath id="i0"><path d="M1440,0 L1440,1587 L0,1587 L0,0 L1440,0 Z"></path></clipPath><clipPath id="i1"><path d="M10.6516291,0 C15.1339888,0 16.2425294,2.69602082 16.2425294,4.81432289 C16.2425294,8.18434892 14.459225,10.1582213 10.989011,10.1582213 L4.3377675,10.1582213 L4.3377675,15.7909791 L0.0481974166,15.7909791 L0.0481974166,0 L10.6516291,0 Z M9.30210141,2.88859374 L4.28957008,2.88859374 L4.28957008,7.26962757 L8.91652207,7.26962757 C10.2660497,7.26962757 11.8083671,7.22148434 11.8083671,5.10318227 C11.8083671,3.03302342 10.5552342,2.88859374 9.30210141,2.88859374 Z"></path></clipPath><clipPath id="i2"><path d="M7.75978408,0 C13.3506844,0 14.5556198,1.8294427 14.5556198,4.04403123 L14.5556198,9.91750516 C14.5556198,10.9766562 14.7484095,11.6988046 14.9893966,12.3246666 L11.0854058,12.3246666 C10.9408136,11.8913775 10.8444187,11.5062317 10.7962213,11.0729427 C9.44669366,12.4209531 6.98862541,12.7579557 5.25351841,12.7579557 C2.16888375,12.7579557 0,11.6506614 0,8.90649735 C0,6.01790362 2.55446308,5.39204164 4.9161365,5.24761195 L9.06111432,4.95875258 C10.2660497,4.86246612 10.6516291,4.66989321 10.6516291,3.70702863 C10.6516291,2.74416405 9.83227299,2.31087499 7.61519183,2.31087499 C5.92828224,2.31087499 5.10892616,2.45530468 4.53055716,4.09217446 L0.722961249,4.09217446 C1.20493542,0.43328906 4.57875458,0 7.75978408,0 Z M10.699,6.568 L10.7480239,6.54747914 C10.0250627,6.88448174 9.20570657,6.9807682 8.43454791,7.07705465 L6.16926933,7.26962757 C4.77154425,7.36591403 4.09678041,7.75105986 4.09678041,8.8102109 C4.09678041,9.86936193 5.10892616,10.4952239 6.55484866,10.4952239 C8.53094274,10.4952239 10.6998265,9.53235933 10.6998265,7.55848694 L10.699,6.568 Z"></path></clipPath><clipPath id="i3"><path d="M9.97686524,0.0962864579 L9.97686524,3.75517186 C9.25390399,3.56259894 8.57914016,3.41816925 7.80798149,3.41816925 C5.15712358,3.41816925 3.90399075,4.76617966 3.90399075,7.07705465 L3.90399075,12.1802369 L0,12.1802369 L0,0.337002603 L3.80759591,0.337002603 L3.80759591,2.64787759 L3.85579333,2.64787759 C5.25351841,0.818434892 6.36205899,0 8.57914016,0 C9.01291691,0 9.54308849,0 9.97686524,0.0962864579 Z"></path></clipPath><clipPath id="i4"><path d="M6.31386158,0 L6.31386158,3.6588854 L9.44669366,3.6588854 L9.44669366,6.25861976 L6.31386158,6.25861976 L6.31386158,11.7950911 C6.31386158,12.7098124 6.60304608,13.046815 7.61519183,13.046815 C8.28995566,13.046815 8.91652207,12.9986718 9.54308849,12.9505286 L9.54308849,15.5502629 C8.82012724,15.6465494 7.32600733,15.7909791 6.50665124,15.7909791 C2.88381209,15.7909791 2.47604665,14.4605175 2.45868301,12.4265934 L2.45806825,6.25861976 L0,6.25861976 L0,3.70702863 L2.45806825,3.70702863 L2.45806825,0 L6.31386158,0 Z"></path></clipPath><clipPath id="i5"><path d="M8.67553499,0 C10.6998265,0 13.7844612,0.770291663 13.7844612,4.28474738 L13.7844612,12.1802369 L9.88047041,12.1802369 L9.88047041,5.39204164 L9.83227299,5.39204164 C9.83227299,3.75517186 8.96471949,2.93673697 7.22961249,2.93673697 C5.39811066,2.93673697 3.90399075,3.85145832 3.90399075,6.35490622 L3.90399075,12.0839505 L0,12.0839505 L0,0.288859374 L3.7593985,0.288859374 L3.7593985,2.02201562 L3.80759591,2.02201562 C4.53055716,1.01100781 6.36205899,0 8.67553499,0 Z"></path></clipPath><clipPath id="i6"><path d="M7.80798149,2.35901822 C4.72334683,2.35901822 4.09678041,4.71803644 4.09678041,5.00689581 L4.09678041,5.05503904 L11.4709852,5.05503904 C11.4709852,4.38103383 10.6516291,2.35901822 7.80798149,2.35901822 Z M15.257,8.762 L15.2785811,8.71392444 C14.1700405,11.5062317 11.4227877,12.7098124 7.85617891,12.7098124 C3.13283208,12.7098124 0,10.7840833 0,6.35490622 C0,1.87758593 3.13283208,0 7.85617891,0 C13.0133025,0 15.4713707,2.59973436 15.4713707,7.07705465 L15.4713707,7.41405726 L4.048583,7.41405726 L4.048583,7.46220049 C4.048583,8.56949475 5.20532099,10.302651 7.85617891,10.302651 C9.44669366,10.302651 10.5552342,9.77307547 11.0854058,8.76206767 L15.257,8.762 Z"></path></clipPath><clipPath id="i7"><path d="M9.97686524,0.0962864579 L9.97686524,3.75517186 C9.25390399,3.56259894 8.57914016,3.41816925 7.80798149,3.41816925 C5.15712358,3.41816925 3.90399075,4.76617966 3.90399075,7.07705465 L3.90399075,12.1802369 L0,12.1802369 L0,0.337002603 L3.80759591,0.337002603 L3.80759591,2.64787759 L3.85579333,2.64787759 C5.25351841,0.818434892 6.36205899,0 8.57914016,0 C9.01291691,0 9.54308849,0 9.97686524,0.0962864579 Z"></path></clipPath><clipPath id="i8"><path d="M11.5191826,0 C15.9051475,0 16.6281087,2.69602082 16.6281087,4.28474738 C16.6281087,6.21047653 15.8569501,7.46220049 14.0736457,8.08806246 L14.0736457,8.13620569 C15.8906883,8.41543642 16.2214832,10.6741028 16.2415173,12.2159735 L16.2425294,12.3728098 C16.2425294,13.1431015 16.2907268,15.0206874 17.0618855,15.7909791 L12.3385387,15.7909791 C11.9529593,15.0688307 11.9047619,14.3948255 11.9047619,12.7579557 C11.9047619,10.5433671 10.9408136,9.96564839 9.63948332,9.96564839 L4.28957008,9.96564839 L4.28957008,15.7909791 L0,15.7909791 L0,0 L11.5191826,0 Z M9.78407557,3.03302342 L4.28957008,3.03302342 L4.28957008,7.02891142 L9.97686524,7.02891142 C10.9408136,7.02891142 12.0493542,6.49933591 12.0493542,5.00689581 C12.0493542,3.41816925 10.7962213,3.03302342 9.78407557,3.03302342 Z"></path></clipPath><clipPath id="i9"><path d="M7.80798149,2.35901822 C4.72334683,2.35901822 4.09678041,4.71803644 4.09678041,5.00689581 L4.09678041,5.05503904 L11.4709852,5.05503904 C11.4709852,4.38103383 10.6516291,2.35901822 7.80798149,2.35901822 Z M15.257,8.762 L15.2785811,8.71392444 C14.1700405,11.5062317 11.4227877,12.7098124 7.85617891,12.7098124 C3.13283208,12.7098124 0,10.7840833 0,6.35490622 C0,1.87758593 3.13283208,0 7.85617891,0 C13.0133025,0 15.4713707,2.59973436 15.4713707,7.07705465 L15.4713707,7.41405726 L4.048583,7.41405726 L4.048583,7.46220049 C4.048583,8.56949475 5.20532099,10.302651 7.85617891,10.302651 C9.44669366,10.302651 10.5552342,9.77307547 11.0854058,8.76206767 L15.257,8.762 Z"></path></clipPath><clipPath id="i10"><path d="M7.85617891,0 C10.8926162,0 14.4110276,0.91472135 15.1339888,4.81432289 L11.0854058,4.81432289 C10.6034317,3.22559634 9.44669366,2.74416405 7.85617891,2.74416405 C5.44630808,2.74416405 4.048583,4.04403123 4.048583,6.35490622 C4.048583,8.66578121 5.44630808,9.96564839 7.85617891,9.96564839 C9.59128591,9.96564839 10.8926162,9.05092704 11.0854058,7.55848694 L15.1339888,7.55848694 C14.4110276,11.7469479 11.4227877,12.7098124 7.51879699,12.7098124 C3.03643725,12.7098124 0,10.7840833 0,6.35490622 C0,1.87758593 3.13283208,0 7.85617891,0 Z"></path></clipPath><clipPath id="i11"><path d="M7.85617891,0 C12.5795257,0 15.7123578,1.92572916 15.7123578,6.35490622 C15.7123578,10.8322265 12.5795257,12.7098124 7.85617891,12.7098124 C3.13283208,12.7098124 0,10.7840833 0,6.35490622 C0,1.87758593 3.13283208,0 7.85617891,0 Z M7.85617891,2.79230728 C5.44630808,2.79230728 4.048583,4.09217446 4.048583,6.40304945 C4.00038558,8.71392444 5.39811066,10.0137916 7.85617891,10.0137916 C10.2660497,10.0137916 11.6637748,8.71392444 11.6637748,6.40304945 C11.6637748,4.09217446 10.2660497,2.79230728 7.85617891,2.79230728 Z"></path></clipPath><clipPath id="i12"><path d="M7.08502024,0 C8.82012724,0 10.6034317,0.481432289 11.6155774,1.73315624 L11.6637748,1.73315624 L11.6637748,0.240716145 L15.3267785,0.240716145 L15.3267785,11.1692291 C15.3267785,15.2614036 12.6759206,16.8501301 7.71158666,16.8501301 C4.77154425,16.8501301 0.819356083,16.5131275 0.43377675,12.9505286 L4.57875458,12.9505286 C4.81974166,13.9133932 5.59090033,14.4429687 7.85617891,14.4429687 C9.78407557,14.4429687 11.4709852,13.9133932 11.4709852,11.0729427 L11.4709852,10.1100781 C10.3624446,11.361802 8.72373241,11.8432343 6.74763833,11.8432343 C2.07248891,11.8432343 0,8.95464058 0,5.92161716 C0,2.69602082 2.12068633,0 7.08502024,0 Z M7.71158666,2.64787759 C6.02467708,2.64787759 4.00038558,3.17745311 4.00038558,5.92161716 C3.95218816,8.66578121 5.97647966,9.19535673 7.71158666,9.19535673 C9.44669366,9.19535673 11.4709852,8.66578121 11.4709852,5.92161716 C11.4709852,3.17745311 9.44669366,2.64787759 7.71158666,2.64787759 Z"></path></clipPath><clipPath id="i13"><path d="M8.67553499,0 C10.6998265,0 13.7844612,0.770291663 13.7844612,4.28474738 L13.7844612,12.1802369 L9.88047041,12.1802369 L9.88047041,5.4883281 L9.83227299,5.4883281 C9.83227299,3.85145832 8.96471949,3.03302342 7.22961249,3.03302342 C5.39811066,3.03302342 3.90399075,3.94774477 3.90399075,6.45119268 L3.90399075,12.1802369 L0,12.1802369 L0,0.288859374 L3.7593985,0.288859374 L3.7593985,2.02201562 L3.80759591,2.02201562 C4.53055716,1.01100781 6.36205899,0 8.67553499,0 Z"></path></clipPath><clipPath id="i14"><path d="M3.90399075,4.18846092 L3.90399075,16.0798385 L0,16.0798385 L0,4.18846092 L3.90399075,4.18846092 Z M3.90399075,0 L3.90399075,2.74416405 L0,2.74416405 L0,0 L3.90399075,0 Z"></path></clipPath><clipPath id="i15"><path d="M6.31386158,0 L6.31386158,3.6588854 L9.44669366,3.6588854 L9.44669366,6.25861976 L6.31386158,6.25861976 L6.31386158,11.7950911 C6.31386158,12.7098124 6.60304608,13.046815 7.61519183,13.046815 C8.28995566,13.046815 8.91652207,12.9986718 9.54308849,12.9505286 L9.54308849,15.5502629 C8.82012724,15.6465494 7.32600733,15.7909791 6.50665124,15.7909791 C2.88381209,15.7909791 2.47604665,14.4605175 2.45868301,12.4265934 L2.45806825,6.25861976 L0,6.25861976 L0,3.6588854 L2.45806825,3.6588854 L2.45806825,0 L6.31386158,0 Z"></path></clipPath><clipPath id="i16"><path d="M3.90399075,4.18846092 L3.90399075,16.0798385 L0,16.0798385 L0,4.18846092 L3.90399075,4.18846092 Z M3.90399075,0 L3.90399075,2.74416405 L0,2.74416405 L0,0 L3.90399075,0 Z"></path></clipPath><clipPath id="i17"><path d="M7.85617891,0 C12.5795257,0 15.7123578,1.92572916 15.7123578,6.35490622 C15.7123578,10.8322265 12.5795257,12.7098124 7.85617891,12.7098124 C3.13283208,12.7098124 0,10.7840833 0,6.35490622 C0,1.87758593 3.13283208,0 7.85617891,0 Z M7.85617891,2.79230728 C5.44630808,2.79230728 4.048583,4.09217446 4.048583,6.40304945 C4.00038558,8.71392444 5.39811066,10.0137916 7.85617891,10.0137916 C10.2660497,10.0137916 11.6637748,8.71392444 11.6637748,6.40304945 C11.6637748,4.09217446 10.2660497,2.79230728 7.85617891,2.79230728 Z"></path></clipPath><clipPath id="i18"><path d="M8.67553499,0 C10.6998265,0 13.7844612,0.770291663 13.7844612,4.28474738 L13.7844612,12.1802369 L9.88047041,12.1802369 L9.88047041,5.4883281 L9.83227299,5.4883281 C9.83227299,3.85145832 8.96471949,3.03302342 7.22961249,3.03302342 C5.39811066,3.03302342 3.90399075,3.94774477 3.90399075,6.45119268 L3.90399075,12.1802369 L0,12.1802369 L0,0.288859374 L3.7593985,0.288859374 L3.7593985,2.02201562 L3.80759591,2.02201562 C4.53055716,1.01100781 6.36205899,0 8.67553499,0 Z"></path></clipPath><clipPath id="i19"><path d="M5.83188741,0 L9.39849624,4.91060935 L12.9651051,0 L18.2186235,0 L11.9529593,7.6547734 L18.7969925,15.7909791 L13.3506844,15.7909791 L9.39849624,10.4470807 L5.44630808,15.7909791 L0,15.7909791 L6.84403316,7.6547734 L0.578368999,0 L5.83188741,0 Z"></path></clipPath><clipPath id="i20"><path d="M4.048583,0 L4.048583,3.03302342 L0,3.03302342 L0,0 L4.048583,0 Z"></path></clipPath><clipPath id="i21"><path d="M10.8444187,0 C15.4231733,0 16.5317139,2.69602082 16.5317139,4.81432289 C16.5317139,8.18434892 14.7002121,10.1582213 11.1818007,10.1582213 L4.38596491,10.1582213 L4.38596491,15.7909791 L0,15.7909791 L0,0 L10.8444187,0 Z M9.49489107,2.88859374 L4.38596491,2.88859374 L4.38596491,7.26962757 L9.06111432,7.26962757 C10.410642,7.26962757 12.0011567,7.22148434 12.0011567,5.10318227 C12.0011567,3.03302342 10.6998265,2.88859374 9.49489107,2.88859374 Z"></path></clipPath><clipPath id="i22"><path d="M4.00038558,0 L4.00038558,16.0798385 L0,16.0798385 L0,0 L4.00038558,0 Z"></path></clipPath><clipPath id="i23"><path d="M8.00077116,0 C13.6880663,0 14.8930017,1.8294427 14.8930017,4.04403123 L14.8930017,9.91750516 C14.8930017,10.9766562 15.0857914,11.6988046 15.3267785,12.3246666 L11.3745903,12.3246666 C11.2299981,11.8913775 11.1336032,11.5062317 11.0854058,11.0729427 C9.73587816,12.4209531 7.18141508,12.7579557 5.39811066,12.7579557 C2.21708116,12.7579557 0,11.6506614 0,8.90649735 C0,6.01790362 2.6026605,5.39204164 5.01253133,5.24761195 L9.25390399,4.95875258 C10.4588394,4.86246612 10.8926162,4.66989321 10.8926162,3.70702863 C10.8926162,2.74416405 10.0732601,2.31087499 7.75978408,2.31087499 C6.07287449,2.31087499 5.20532099,2.45530468 4.626952,4.09217446 L0.819356083,4.09217446 C1.30133025,0.43328906 4.72334683,0 8.00077116,0 Z M10.989,6.567 L11.0372084,6.54747914 C10.3142472,6.88448174 9.49489107,6.9807682 8.67553499,7.07705465 L6.36205899,7.26962757 C4.96433391,7.36591403 4.24137266,7.75105986 4.24137266,8.8102109 C4.24137266,9.86936193 5.25351841,10.4952239 6.74763833,10.4952239 C8.77192982,10.4952239 10.989011,9.53235933 10.989011,7.55848694 L10.989,6.567 Z"></path></clipPath><clipPath id="i24"><path d="M8.86832466,0 C10.9408136,0 14.0736457,0.770291663 14.0736457,4.28474738 L14.0736457,12.1802369 L10.1214575,12.1802369 L10.1214575,5.4883281 L10.0250627,5.4883281 C10.0250627,3.85145832 9.15750916,3.03302342 7.37420474,3.03302342 C5.54270291,3.03302342 3.95218816,3.94774477 3.95218816,6.45119268 L3.95218816,12.1802369 L0,12.1802369 L0,0.288859374 L3.85579333,0.288859374 L3.85579333,2.02201562 L3.90399075,2.02201562 C4.626952,1.01100781 6.50665124,0 8.86832466,0 Z"></path></clipPath><clipPath id="i25"><path d="M1.92789666,0 L8.09716599,13.8652499 L14.2182379,0 L16.0015423,0 L8.91652207,15.6946926 L7.13321766,15.6946926 L0,0 L1.92789666,0 Z"></path></clipPath><clipPath id="i26"><path d="M6.36205899,0 C9.35029882,0 12.9169077,1.25172395 12.9169077,6.45119268 L1.68690958,6.45119268 C1.68690958,8.8102109 3.42201658,10.7359401 6.36205899,10.7359401 C9.15750916,10.7359401 10.410642,9.8212187 10.989011,8.08806246 L12.6277232,8.08806246 L12.6277232,8.13620569 C11.9529593,10.1582213 10.2178523,12.1320937 6.36205899,12.1320937 C1.59051475,12.1320937 0,8.85835412 0,6.06604685 C0,2.88859374 1.97609408,0 6.36205899,0 Z M6.50665124,1.34801041 C4.38596491,1.34801041 2.07248891,2.40716145 1.68690958,5.19946873 L11.2781955,5.19946873 C10.7962213,2.40716145 8.72373241,1.34801041 6.50665124,1.34801041 Z"></path></clipPath><clipPath id="i27"><path d="M1.63871217,0 L1.63871217,6.64376559 L1.68690958,6.64376559 C2.16888375,5.44018487 3.95218816,4.04403123 6.50665124,4.04403123 C10.3624446,4.04403123 11.56738,6.01790362 11.56738,8.76206767 L11.56738,15.8391223 L9.92866782,15.8391223 L9.92866782,8.47320829 C9.92866782,6.21047653 8.53094274,5.44018487 6.41025641,5.44018487 C3.1810295,5.44018487 1.68690958,7.07705465 1.68690958,9.67678902 L1.68690958,15.8872655 L0.0481974166,15.8872655 L0.0481974166,0 L1.63871217,0 Z"></path></clipPath><clipPath id="i28"><path d="M1.63871217,4.38103383 L1.63871217,15.7909791 L0,15.7909791 L0,4.38103383 L1.63871217,4.38103383 Z M1.63871217,0 L1.63871217,2.40716145 L0,2.40716145 L0,0 L1.63871217,0 Z"></path></clipPath><clipPath id="i29"><path d="M6.55484866,0 C10.5552342,0 12.0975516,2.45530468 12.3385387,4.09217446 L10.6998265,4.09217446 C10.1696549,2.11830207 8.62733757,1.34801041 6.55484866,1.34801041 C3.22922691,1.34801041 1.63871217,3.41816925 1.63871217,6.06604685 C1.63871217,8.90649735 3.37381916,10.7840833 6.55484866,10.7840833 C9.01291691,10.7840833 10.3624446,9.4842161 10.7962213,7.70291663 L12.4349335,7.70291663 C12.0975516,9.19535673 10.7962213,12.1320937 6.55484866,12.1320937 C2.36167341,12.1320937 0,9.62864579 0,6.06604685 C0,2.64787759 2.16888375,0 6.55484866,0 Z"></path></clipPath><clipPath id="i30"><path d="M1.63871217,0 L1.63871217,15.8391223 L0,15.8391223 L0,0 L1.63871217,0 Z"></path></clipPath><clipPath id="i31"><path d="M6.36205899,0 C9.35029882,0 12.9169077,1.25172395 12.9169077,6.45119268 L1.68690958,6.45119268 C1.68690958,8.8102109 3.42201658,10.7359401 6.36205899,10.7359401 C9.15750916,10.7359401 10.410642,9.8212187 10.989011,8.08806246 L12.6277232,8.08806246 L12.6277232,8.13620569 C11.9529593,10.1582213 10.2178523,12.1320937 6.36205899,12.1320937 C1.59051475,12.1320937 0,8.85835412 0,6.06604685 C0,2.88859374 1.97609408,0 6.36205899,0 Z M6.50665124,1.34801041 C4.38596491,1.34801041 2.07248891,2.40716145 1.68690958,5.19946873 L11.2781955,5.19946873 C10.7962213,2.40716145 8.72373241,1.34801041 6.50665124,1.34801041 Z"></path></clipPath><clipPath id="i32"><path d="M8.62733757,0 C11.0854058,0 13.4470792,1.20358072 13.4470792,4.52546352 C13.4470792,7.51034371 11.4709852,9.09907027 7.90437633,9.09907027 L1.68690958,9.09907027 L1.68690958,15.6946926 L0.0481974166,15.6946926 L0.0481974166,0 L8.62733757,0 Z M8.43454791,1.4924401 L1.68690958,1.4924401 L1.68690958,7.60663017 L8.09716599,7.60663017 C10.8926162,7.60663017 11.6637748,6.35490622 11.6637748,4.52546352 C11.6637748,2.1664453 10.3142472,1.4924401 8.43454791,1.4924401 Z"></path></clipPath><clipPath id="i33"><path d="M6.16926933,0 C6.65124349,0 6.89223058,0.0481432289 7.13321766,0.0962864579 L7.13321766,1.78129947 C6.60304608,1.68501301 6.12107191,1.63686978 5.59090033,1.63686978 C3.80759591,1.63686978 1.63871217,2.69602082 1.63871217,5.96976039 L1.63871217,11.7950911 L0,11.7950911 L0,0.385145832 L1.63871217,0.385145832 L1.63871217,2.98488019 L1.68690958,2.98488019 C2.313476,1.63686978 3.37381916,0 6.16926933,0 Z"></path></clipPath><clipPath id="i34"><path d="M1.63871217,4.38103383 L1.63871217,15.7909791 L0,15.7909791 L0,4.38103383 L1.63871217,4.38103383 Z M1.63871217,0 L1.63871217,2.40716145 L0,2.40716145 L0,0 L1.63871217,0 Z"></path></clipPath><clipPath id="i35"><path d="M6.55484866,0 C10.5552342,0 12.0975516,2.45530468 12.3385387,4.09217446 L10.6998265,4.09217446 C10.1696549,2.11830207 8.62733757,1.34801041 6.55484866,1.34801041 C3.22922691,1.34801041 1.63871217,3.41816925 1.63871217,6.06604685 C1.63871217,8.90649735 3.37381916,10.7840833 6.55484866,10.7840833 C9.01291691,10.7840833 10.3624446,9.4842161 10.7962213,7.70291663 L12.4349335,7.70291663 C12.0975516,9.19535673 10.7962213,12.1320937 6.55484866,12.1320937 C2.36167341,12.1320937 0,9.62864579 0,6.06604685 C0,2.64787759 2.16888375,0 6.55484866,0 Z"></path></clipPath><clipPath id="i36"><path d="M1.63871217,4.38103383 L1.63871217,15.7909791 L0,15.7909791 L0,4.38103383 L1.63871217,4.38103383 Z M1.63871217,0 L1.63871217,2.40716145 L0,2.40716145 L0,0 L1.63871217,0 Z"></path></clipPath><clipPath id="i37"><path d="M6.50665124,0 C10.3624446,0 11.56738,1.97387239 11.56738,4.71803644 L11.56738,11.7950911 L9.92866782,11.7950911 L9.92866782,4.3328906 L9.88047041,4.3328906 C9.88047041,2.07015884 8.48274532,1.29986718 6.36205899,1.29986718 C3.13283208,1.29986718 1.63871217,2.93673697 1.63871217,5.53647133 L1.63871217,11.7469479 L0,11.7469479 L0,0.337002603 L1.63871217,0.337002603 L1.63871217,2.59973436 L1.68690958,2.59973436 C2.16888375,1.39615364 3.90399075,0 6.50665124,0 Z"></path></clipPath><clipPath id="i38"><path d="M6.36205899,0 C8.62733757,0 10.5552342,0.818434892 11.3263929,2.55159113 L11.3745903,2.55159113 L11.3745903,0.288859374 L13.0614999,0.288859374 L13.0614999,11.2655156 C13.0614999,15.5021197 9.59128591,16.5612708 6.50665124,16.5612708 C1.20493542,16.5612708 0.674763833,14.0578228 0.530171583,12.8542421 L2.07248891,12.8542421 C2.08424438,12.9153018 2.09622922,12.9763615 2.10884625,13.0372759 L2.14899666,13.219438 C2.41325411,14.3382908 3.03173506,15.35769 6.55484866,15.35769 C9.59128591,15.35769 11.3745903,13.9615364 11.3745903,11.2173723 L11.3745903,9.19535673 L11.3263929,9.19535673 C10.6998265,10.3507942 9.15750916,11.7950911 6.16926933,11.7950911 C3.22922691,11.7950911 0,10.302651 0,5.8253307 C0,2.79230728 1.97609408,0 6.36205899,0 Z M6.50665124,1.29986718 C3.61480625,1.29986718 1.68690958,2.93673697 1.68690958,5.77718747 C1.68690958,9.09907027 3.80759591,10.3507942 6.60304608,10.3507942 C9.35029882,10.3507942 11.4227877,8.66578121 11.4227877,5.77718747 C11.4709852,3.37002603 9.78407557,1.29986718 6.50665124,1.29986718 Z"></path></clipPath><clipPath id="i39"><path d="M41.7871602,0 C64.8255254,0 83.5743204,7.02891142 83.5743204,15.6465494 C83.5743204,24.2641874 64.8255254,31.2930988 41.7871602,31.2930988 C18.7487951,31.2930988 0,24.3123306 0,15.6465494 C0,6.93262497 18.6042028,0 41.7871602,0 Z"></path></clipPath><clipPath id="i40"><path d="M35.878842,0 C36.0234342,0 36.0716317,0.0481432289 36.0234342,0.144429687 C35.6860523,0.674005205 29.5649804,9.96564839 29.0830062,10.7359401 C28.9866114,11.0729427 28.938414,11.3136588 29.0830062,11.4580885 C29.4203882,11.8913775 30.1433494,11.6025182 30.5771262,11.3136588 C31.9266538,10.3989375 32.8424047,9.29164319 33.8545505,8.32877861 C33.9027479,8.28063538 34.0473402,8.28063538 34.0955376,8.32877861 C34.2401298,8.47320829 34.4811169,8.66578121 34.6257092,8.8102109 C34.6739066,8.85835412 34.6739066,8.95464058 34.6257092,9.00278381 C33.6617608,10.2063645 32.5532202,11.361802 31.4928771,12.1802369 C29.8541649,13.4319609 28.2154527,13.7689635 27.3960967,12.9505286 C27.1069122,12.6616692 26.9141225,12.2283802 26.9141225,11.8432343 C26.9141225,11.6506614 26.8177277,11.6506614 26.7213328,11.7469479 C25.7573845,12.7098124 24.0704749,13.7689635 22.5281576,12.9986718 C21.2268273,12.3728098 20.9376428,10.8803697 21.1786299,9.58050256 C21.1786299,9.58050256 21.1304325,9.38792964 20.9858403,9.4842161 C20.6966558,9.67678902 20.3592738,9.91750516 19.9254971,10.0619348 C19.3953255,10.302651 19.1543384,10.3507942 18.6723643,10.3507942 C18.0457978,10.3507942 17.4674288,10.1100781 17.0818495,9.4842161 C16.8408624,9.1472135 16.7444676,8.66578121 16.7444676,8.28063538 C16.7444676,8.28063538 16.6962702,8.18434892 16.6480728,8.28063538 C15.635927,9.86936193 14.6237813,11.4099453 13.6116355,13.046815 C13.5634381,13.1431015 13.5152407,13.1912447 13.4188458,13.1912447 L11.3945543,13.1912447 C11.2981595,13.1912447 11.2499621,13.0949583 11.2981595,12.9505286 C11.6837388,12.2283802 13.6598329,9.33978641 15.0093606,6.88448174 C15.3467425,6.21047653 15.2985451,5.87347393 15.057558,5.72904424 C14.7683735,5.58461456 14.1900045,5.8253307 13.7080303,6.21047653 C12.4067001,7.22148434 11.2981595,8.8102109 10.7197905,9.4842161 C10.3824086,9.91750516 10.0932241,10.5433671 9.2256706,11.4580885 C7.87614293,12.9505286 6.0446411,13.7689635 4.3095341,13.1912447 C3.39378319,12.8542421 2.67082194,12.0839505 2.42983485,11.1692291 C2.38163744,11.0247994 2.2852426,10.9766562 2.18884777,11.0729427 C1.89966327,11.4580885 1.32129427,11.9395208 0.839320106,12.2765234 C0.79112269,12.3246666 0.64653044,12.3728098 0.550135606,12.3246666 C0.453740773,12.2765234 0.0681614403,11.7950911 0.0199640236,11.6506614 C-0.028233393,11.5543749 0.0199640236,11.4099453 0.0681614403,11.361802 C0.742925273,10.7840833 1.12850461,10.4470807 1.41768911,10.0619348 C1.61047877,9.77307547 1.80326844,9.43607287 1.9960581,8.95464058 C2.42983485,7.89548955 3.39378319,5.92161716 5.27348244,4.91060935 C5.99644368,4.52546352 6.71940493,4.23660415 7.53876102,4.14031769 C7.87614293,4.09217446 8.16532743,4.14031769 8.26172227,4.42917706 C8.30991968,4.52546352 8.40631452,4.76617966 8.45451193,4.95875258 C8.45451193,5.05503904 8.45451193,5.1513255 8.30991968,5.19946873 C7.15318168,5.63275779 6.0446411,6.25861976 5.27348244,7.3177708 C4.40592894,8.52135152 4.16494185,9.91750516 4.74331085,10.7359401 C5.1770876,11.3136588 5.85185143,11.4099453 6.52661527,11.2173723 C7.53876102,10.8803697 8.40631452,9.96564839 8.84009126,8.90649735 C9.32206543,7.75105986 9.37026285,6.40304945 9.03288093,5.19946873 C8.98468351,5.00689581 9.03288093,4.81432289 9.17747318,4.71803644 C9.46665768,4.52546352 9.85223701,4.3328906 9.94863185,4.28474738 C10.1896189,4.14031769 10.430606,4.23660415 10.5751983,4.42917706 C10.9125802,4.95875258 11.1535673,5.72904424 11.1535673,6.54747914 C11.2017647,6.74005205 11.2499621,6.74005205 11.3463569,6.64376559 C12.0211208,5.92161716 12.5994898,5.19946873 13.322451,4.62174998 C13.9490174,4.09217446 14.7683735,3.70702863 15.5395322,3.70702863 C16.5034805,3.70702863 17.0336521,4.38103383 16.9854547,5.58461456 C16.9854547,5.72904424 17.0818495,5.72904424 17.1782443,5.63275779 C17.4674288,5.19946873 17.6602185,5.00689581 17.9976004,4.71803644 C18.6723643,4.14031769 19.3953255,3.89960154 20.1182868,3.94774477 C21.0340377,3.995888 21.7569989,4.86246612 21.6124067,5.77718747 C21.5160118,6.35490622 21.2268273,6.88448174 20.6484583,7.17334111 C20.1664842,7.41405726 19.6363126,7.36591403 19.2507333,7.02891142 C18.9133513,6.74005205 18.8169565,6.35490622 18.9133513,5.92161716 C18.9133513,5.87347393 18.8169565,5.77718747 18.7205617,5.87347393 C17.8048108,6.78819528 17.7566133,7.991776 18.3349823,8.52135152 C19.0097462,9.1472135 19.9736945,8.71392444 20.6484583,8.28063538 C21.9497886,7.46220049 22.9137369,6.30676299 24.0704749,5.44018487 C24.8416336,4.86246612 25.7091871,4.38103383 26.6731354,4.23660415 C27.203307,4.18846092 27.7334786,4.23660415 28.2636502,4.42917706 C28.9866114,4.71803644 29.4203882,5.29575518 29.4685856,5.8253307 C29.516783,5.96976039 29.6131778,6.01790362 29.7095727,5.87347393 C29.821515,5.70574913 30.021928,5.40636939 30.2741187,5.0290904 L30.8366651,4.1865944 C31.9038842,2.58620817 33.3057218,0.470561238 33.4689712,0.144429687 C33.5171686,0 33.6135634,0 33.7581557,0 Z M27.781676,5.87347393 C27.0587147,5.53647133 25.9501742,6.1623333 24.9380284,7.41405726 C24.1186723,8.42506506 23.6366982,9.43607287 23.6366982,10.4470807 C23.6366982,10.7840833 23.733093,11.2655156 24.0704749,11.4099453 C24.7452387,11.7950911 25.6127922,11.2655156 26.2393587,10.7359401 C26.6731354,10.3989375 27.0105173,10.0137916 27.2997018,9.58050256 C27.6370837,9.09907027 27.8780708,8.8102109 28.1190579,8.23249215 C28.1672553,8.18434892 28.1672553,8.13620569 28.1190579,8.13620569 C28.0226631,8.08806246 27.9262682,7.991776 27.9262682,7.94363277 C27.8780708,7.89548955 27.9262682,7.84734632 27.9744657,7.79920309 C28.3118476,7.12519788 28.5528347,6.21047653 27.781676,5.87347393 Z"></path></clipPath><clipPath id="i41"><path d="M25.6709786,1.47072971 C29.1411926,1.90401877 32.4186169,1.90401877 35.8888309,1.08558388 C36.2744102,0.989297419 36.5635947,1.27815679 36.5635947,1.66330262 C36.5153973,2.24102137 36.0816206,2.81874012 34.9248826,3.4446021 C33.6235523,4.16675053 32.2740247,4.35932345 30.8281022,4.35932345 C27.4060856,4.40746667 24.2250561,3.05945626 20.8994343,2.33730783 C20.8994343,2.48173752 20.9476318,2.67431043 20.8030395,2.72245366 C18.9715377,4.07046407 17.3328255,5.41847448 16.2242849,7.34420364 C16.1760875,7.39234687 16.2242849,7.4404901 16.2724824,7.4404901 C17.2364307,7.39234687 18.1039842,7.34420364 19.0197351,7.29606041 C19.1643273,7.29606041 19.1643273,7.24791718 19.1643273,7.15163072 C19.0679325,6.47762552 19.2607222,5.75547708 19.8390912,5.22590157 C20.4174602,4.69632605 21.1886188,4.64818282 21.670593,5.03332865 C22.248962,5.46661771 22.2007646,6.2850526 21.8633827,6.86277135 C21.5260008,7.4404901 21.0440266,7.7774927 20.513855,7.92192239 C20.513855,7.92192239 20.4174602,7.92192239 20.4174602,8.01820884 C20.4174602,8.16263853 21.092224,8.54778436 21.1886188,8.64407082 C21.2368163,8.74035728 21.2368163,8.88478697 21.092224,8.98107342 C21.0440266,9.07735988 20.8994343,9.12550311 20.7548421,9.12550311 C20.6584473,9.12550311 20.5620524,9.07735988 20.4174602,8.98107342 C20.1282757,8.83664374 19.7426963,8.54778436 19.5017093,8.21078176 C19.4053144,8.1144953 19.357117,8.1144953 19.1643273,8.1144953 C18.200379,8.16263853 16.6580617,8.30706822 15.6459159,8.4514979 C15.4049289,8.49964113 15.3567314,8.54778436 15.308534,8.59592759 C13.6698219,11.2919484 11.9347149,14.1805421 10.0068182,16.1544145 C8.07892153,18.3690031 6.39201195,18.9467218 4.56051011,18.9467218 C2.29523153,18.9467218 0.270940036,17.5505682 0.0299529524,15.0952635 C-0.114639297,13.7472531 0.270940036,12.5436724 1.0420987,11.5326646 C1.71686253,10.6660864 2.87360053,9.89579477 3.83754887,9.75136509 C4.17493078,9.70322186 4.56051011,9.75136509 4.75329978,9.943938 C5.04248428,10.2809406 4.94608945,10.6179432 4.65690495,10.7623729 C3.9339437,11.1475187 3.01819278,11.7733807 2.58441603,12.6881021 C2.24703412,13.4102505 2.15063928,14.2768286 2.68081087,15.0952635 C3.59656178,16.4914171 6.15102486,16.5395604 8.51269828,14.3249718 C9.09106728,13.7953963 9.62123886,13.2658208 10.1514104,12.6399588 C11.2117536,11.4363781 11.5491355,11.003089 12.9468606,9.07735988 L12.9468606,9.02921665 C12.9468606,8.98107342 12.8986632,8.98107342 12.8986632,8.98107342 C11.9829123,9.02921665 11.1635562,9.2699328 10.3923975,9.84765154 C10.1514104,9.99208123 9.86222594,9.99208123 9.71763369,9.75136509 C9.57304144,9.51064894 9.66943628,9.17364634 9.91042336,9.02921665 C11.1635562,8.16263853 12.5612813,7.97006562 13.9590064,7.72934947 L13.9875678,7.72578331 C14.0232696,7.71865098 14.0875328,7.69725398 14.151796,7.63306301 C14.730165,6.91091458 15.1639418,6.23690937 15.7905082,5.46661771 C16.4170746,4.69632605 17.2364307,4.02232084 17.8147997,3.49274532 C18.6823532,2.77059689 19.2125248,2.52988075 19.7908938,2.19287814 C19.935486,2.09659168 19.7908938,2.00030523 19.7426963,2.00030523 L19.0181336,1.86453124 C16.1139157,1.31547492 13.1433578,0.741174624 10.2960027,1.80773231 C8.12711894,2.6261672 7.21136803,4.31118022 7.64514478,5.46661771 C7.98252669,6.2850526 9.04286986,6.38133906 10.0068182,5.89990677 C10.8261743,5.51476094 11.5973329,4.84075573 12.1275045,4.02232084 C12.416689,3.54088855 13.0914529,3.87789116 12.7058735,4.69632605 C11.7901226,6.81462812 10.0550156,8.49964113 7.93432928,8.59592759 C6.15102486,8.64407082 4.99428686,7.34420364 4.99428686,5.70733386 C4.99428686,2.48173752 8.56089569,0.363435443 12.3684916,0.0745760695 C16.8990488,-0.310569762 21.1886188,0.893010961 25.6709786,1.47072971 Z M20.6584473,5.75547708 C20.2246705,6.09247969 20.1282757,6.57391198 20.1764731,6.95905781 C20.2246705,7.10348749 20.2728679,7.10348749 20.3210653,7.10348749 C20.6102498,7.05534427 20.9958292,6.76648489 21.1886188,6.47762552 C21.3814085,6.18876614 21.4778033,5.80362031 21.2850137,5.65919063 C21.1404214,5.51476094 20.8512369,5.56290417 20.6584473,5.75547708 Z"></path></clipPath><clipPath id="i42"><path d="M40.0520532,0 C62.1746674,0 80.1041064,6.40304945 80.1041064,14.298539 C80.1041064,22.1940285 62.1746674,28.597078 40.0520532,28.597078 C17.929439,28.597078 0,22.1940285 0,14.298539 C0,6.40304945 17.929439,0 40.0520532,0 Z M40.0520532,1.20358072 C18.7005976,1.20358072 1.39772508,7.07705465 1.39772508,14.298539 C1.39772508,21.5200233 18.7005976,27.3934973 40.0520532,27.3934973 C61.4035088,27.3934973 78.7063813,21.5200233 78.7063813,14.298539 C78.7063813,7.07705465 61.4035088,1.20358072 40.0520532,1.20358072 Z"></path></clipPath></defs><g transform="translate(-50.0 -58.0)"><g clip-path="url(#i0)"><g transform="translate(50.0 58.0)"><g transform="translate(94.56333140543671 0.7702916630086065)"><g clip-path="url(#i1)"><polygon points="0,0 16.2425294,0 16.2425294,15.7909791 0,15.7909791 0,0" stroke="none" fill="#102B4E"></polygon></g><g transform="translate(16.38712165027957 3.466312483539122)"><g clip-path="url(#i2)"><polygon points="0,0 14.9893966,0 14.9893966,12.7579557 0,12.7579557 0,0" stroke="none" fill="#102B4E"></polygon></g></g><g transform="translate(33.35261229998075 3.6107421703532694)"><g clip-path="url(#i3)"><polygon points="0,0 9.97686524,0 9.97686524,12.1802369 0,12.1802369 0,0" stroke="none" fill="#102B4E"></polygon></g></g><g transform="translate(44.53441295546563 0.24071614469017621)"><g clip-path="url(#i4)"><polygon points="0,0 9.54308849,0 9.54308849,15.7909791 0,15.7909791 0,0" stroke="none" fill="#102B4E"></polygon></g></g><g transform="translate(56.1017929438983 3.6588853992915986)"><g clip-path="url(#i5)"><polygon points="0,0 13.7844612,0 13.7844612,12.1802369 0,12.1802369 0,0" stroke="none" fill="#102B4E"></polygon></g></g><g transform="translate(71.47676884519001 3.562598941415362)"><g clip-path="url(#i6)"><polygon points="0,0 15.4713707,0 15.4713707,12.7098124 0,12.7098124 0,0" stroke="none" fill="#102B4E"></polygon></g></g><g transform="translate(88.63504916136492 3.6107421703532694)"><g clip-path="url(#i7)"><polygon points="0,0 9.97686524,0 9.97686524,12.1802369 0,12.1802369 0,0" stroke="none" fill="#102B4E"></polygon></g></g></g><g transform="translate(94.56333140543667 18.58328637008549)"><g transform="translate(0.0 0.24071614469016822)"><g clip-path="url(#i8)"><polygon points="0,0 17.0618855,0 17.0618855,15.7909791 0,15.7909791 0,0" stroke="none" fill="#102B4E"></polygon></g></g><g transform="translate(17.399267399267444 3.803315086105499)"><g clip-path="url(#i9)"><polygon points="0,0 15.4713707,0 15.4713707,12.7098124 0,12.7098124 0,0" stroke="none" fill="#102B4E"></polygon></g></g><g transform="translate(34.12377096587613 3.755171857167624)"><g clip-path="url(#i10)"><polygon points="0,0 15.1339888,0 15.1339888,12.7098124 0,12.7098124 0,0" stroke="none" fill="#102B4E"></polygon></g></g><g transform="translate(50.46269519953728 3.755171857167624)"><g clip-path="url(#i11)"><polygon points="0,0 15.7123578,0 15.7123578,12.7098124 0,12.7098124 0,0" stroke="none" fill="#102B4E"></polygon></g></g><g transform="translate(67.42818584923839 3.947744772919691)"><g clip-path="url(#i12)"><polygon points="0,0 15.3267785,0 15.3267785,16.8501301 0,16.8501301 0,0" stroke="none" fill="#102B4E"></polygon></g></g><g transform="translate(85.1166377482167 3.8514583150434873)"><g clip-path="url(#i13)"><polygon points="0,0 13.7844612,0 13.7844612,12.1802369 0,12.1802369 0,0" stroke="none" fill="#102B4E"></polygon></g></g><g transform="translate(101.40736456525929 0.0)"><g clip-path="url(#i14)"><polygon points="0,0 3.90399075,0 3.90399075,16.0798385 0,16.0798385 0,0" stroke="none" fill="#102B4E"></polygon></g></g><g transform="translate(106.9982648930017 0.5295755183184392)"><g clip-path="url(#i15)"><polygon points="0,0 9.54308849,0 9.54308849,15.7909791 0,15.7909791 0,0" stroke="none" fill="#102B4E"></polygon></g></g><g transform="translate(118.3728552149604 0.0)"><g clip-path="url(#i16)"><polygon points="0,0 3.90399075,0 3.90399075,16.0798385 0,16.0798385 0,0" stroke="none" fill="#102B4E"></polygon></g></g><g transform="translate(124.06015037593977 3.755171857167624)"><g clip-path="url(#i17)"><polygon points="0,0 15.7123578,0 15.7123578,12.7098124 0,12.7098124 0,0" stroke="none" fill="#102B4E"></polygon></g></g><g transform="translate(141.65220744168118 3.8514583150434873)"><g clip-path="url(#i18)"><polygon points="0,0 13.7844612,0 13.7844612,12.1802369 0,12.1802369 0,0" stroke="none" fill="#102B4E"></polygon></g></g></g><g transform="translate(0.6265664160401343 41.788322718223185)"><g transform="translate(0.0 0.2888593736280862)"><g clip-path="url(#i19)"><polygon points="0,0 18.7969925,0 18.7969925,15.7909791 0,15.7909791 0,0" stroke="none" fill="#102B4E"></polygon></g></g><g transform="translate(17.83304414883361 6.59562236451225)"><g clip-path="url(#i20)"><polygon points="0,0 4.048583,0 4.048583,3.03302342 0,3.03302342 0,0" stroke="none" fill="#102B4E"></polygon></g></g><g transform="translate(25.062656641603986 0.28885937362808534)"><g clip-path="url(#i21)"><polygon points="0,0 16.5317139,0 16.5317139,15.7909791 0,15.7909791 0,0" stroke="none" fill="#102B4E"></polygon></g></g><g transform="translate(43.23308270676693 0.0)"><g clip-path="url(#i22)"><polygon points="0,0 4.00038558,0 4.00038558,16.0798385 0,16.0798385 0,0" stroke="none" fill="#102B4E"></polygon></g></g><g transform="translate(49.16136495083862 3.7551718571676265)"><g clip-path="url(#i23)"><polygon points="0,0 15.3267785,0 15.3267785,12.7579557 0,12.7579557 0,0" stroke="none" fill="#102B4E"></polygon></g></g><g transform="translate(66.7052245999615 3.899601543981774)"><g clip-path="url(#i24)"><polygon points="0,0 14.0736457,0 14.0736457,12.1802369 0,12.1802369 0,0" stroke="none" fill="#102B4E"></polygon></g></g></g><g transform="translate(91.76788124156542 42.07718209185168)"><g transform="translate(0.0 0.09628645787623835)"><g clip-path="url(#i25)"><polygon points="0,0 16.0015423,0 16.0015423,15.6946926 0,15.6946926 0,0" stroke="none" fill="#939598"></polygon></g></g><g transform="translate(14.65201465201464 4.044031230795924)"><g clip-path="url(#i26)"><polygon points="0,0 12.9169077,0 12.9169077,12.1320937 0,12.1320937 0,0" stroke="none" fill="#939598"></polygon></g></g><g transform="translate(29.496818970503178 0.0)"><g clip-path="url(#i27)"><polygon points="0,0 11.56738,0 11.56738,15.8872655 0,15.8872655 0,0" stroke="none" fill="#939598"></polygon></g></g><g transform="translate(43.47406978985922 0.0)"><g clip-path="url(#i28)"><polygon points="0,0 1.63871217,0 1.63871217,15.7909791 0,15.7909791 0,0" stroke="none" fill="#939598"></polygon></g></g><g transform="translate(46.99248120300744 3.995888001857595)"><g clip-path="url(#i29)"><polygon points="0,0 12.4349335,0 12.4349335,12.1320937 0,12.1320937 0,0" stroke="none" fill="#939598"></polygon></g></g><g transform="translate(61.11432427221894 0.0)"><g clip-path="url(#i30)"><polygon points="0,0 1.63871217,0 1.63871217,15.8391223 0,15.8391223 0,0" stroke="none" fill="#939598"></polygon></g></g><g transform="translate(64.77732793522262 4.044031230795924)"><g clip-path="url(#i31)"><polygon points="0,0 12.9169077,0 12.9169077,12.1320937 0,12.1320937 0,0" stroke="none" fill="#939598"></polygon></g></g><g transform="translate(85.64680933101985 0.09628645787623835)"><g clip-path="url(#i32)"><polygon points="0,0 13.4470792,0 13.4470792,15.6946926 0,15.6946926 0,0" stroke="none" fill="#939598"></polygon></g></g><g transform="translate(100.877192982456 3.995888001857594)"><g clip-path="url(#i33)"><polygon points="0,0 7.13321766,0 7.13321766,11.7950911 0,11.7950911 0,0" stroke="none" fill="#939598"></polygon></g></g><g transform="translate(109.7455176402544 0.0)"><g clip-path="url(#i34)"><polygon points="0,0 1.63871217,0 1.63871217,15.7909791 0,15.7909791 0,0" stroke="none" fill="#939598"></polygon></g></g><g transform="translate(113.2639290534026 3.995888001857595)"><g clip-path="url(#i35)"><polygon points="0,0 12.4349335,0 12.4349335,12.1320937 0,12.1320937 0,0" stroke="none" fill="#939598"></polygon></g></g><g transform="translate(127.38577212261411 0.0)"><g clip-path="url(#i36)"><polygon points="0,0 1.63871217,0 1.63871217,15.7909791 0,15.7909791 0,0" stroke="none" fill="#939598"></polygon></g></g><g transform="translate(131.4825525351841 4.092174459733834)"><g clip-path="url(#i37)"><polygon points="0,0 11.56738,0 11.56738,11.7950911 0,11.7950911 0,0" stroke="none" fill="#939598"></polygon></g></g><g transform="translate(144.8332369385 4.092174459733835)"><g clip-path="url(#i38)"><polygon points="0,0 13.0614999,0 13.0614999,16.5612708 0,16.5612708 0,0" stroke="none" fill="#939598"></polygon></g></g></g><g clip-path="url(#i39)"><polygon points="0,0 83.5743204,0 83.5743204,31.2930988 0,31.2930988 0,0" stroke="none" fill="#102B4E"></polygon></g><g transform="translate(30.344408446000898 11.024799426812478)"><g clip-path="url(#i40)"><polygon points="0,0 36.0415083,0 36.0415083,13.3966554 0,13.3966554 0,0" stroke="none" fill="#FFFFFF"></polygon></g></g><g transform="translate(17.369314446833553 5.3174655715192785)"><g clip-path="url(#i41)"><polygon points="6.9388939e-18,1.38777878e-17 36.5635947,1.38777878e-17 36.5635947,18.9467218 6.9388939e-18,18.9467218 6.9388939e-18,1.38777878e-17" stroke="none" fill="#FFFFFF"></polygon></g></g><g transform="translate(1.7351069982648823 1.3480104102652604)"><g clip-path="url(#i42)"><polygon points="0,0 80.1041064,0 80.1041064,28.597078 0,28.597078 0,0" stroke="none" fill="#FFFFFF"></polygon></g></g></g></g></g></svg>