<?xml version="1.0" encoding="UTF-8"?><svg version="1.1" width="31px" height="21px" viewBox="0 0 31.0 21.0" xmlns="http://www.w3.org/2000/svg" xmlns:xlink="http://www.w3.org/1999/xlink"><defs><clipPath id="i0"><path d="M1440,0 L1440,1587 L0,1587 L0,0 L1440,0 Z"></path></clipPath><clipPath id="i1"><path d="M30.8,0 L30.8,20.5 L0,20.5 L0,0 L30.8,0 Z"></path></clipPath><clipPath id="i2"><path d="M30.8,19 L30.8,20.6 L0,20.6 L0,19 L30.8,19 Z M30.8,15.8 L30.8,17.4 L0,17.4 L0,15.8 L30.8,15.8 Z M30.8,12.7 L30.8,14.3 L0,14.3 L0,12.7 L30.8,12.7 Z M30.8,9.5 L30.8,11.1 L0,11.1 L0,9.5 L30.8,9.5 Z M30.8,6.4 L30.8,8 L0,8 L0,6.4 L30.8,6.4 Z M30.8,3.2 L30.8,4.8 L0,4.8 L0,3.2 L30.8,3.2 Z M30.8,0 L30.8,1.6 L0,1.6 L0,0 L30.8,0 Z"></path></clipPath><clipPath id="i3"><path d="M15.6,0 L15.6,11.1 L0,11.1 L0,0 L15.6,0 Z"></path></clipPath><clipPath id="i4"><path d="M3.3,8.8 L3.4,9.2 L3.9,9.2 L3.5,9.5 L3.7,10 L3.3,9.7 L3,9.9 L3.1,9.5 L2.7,9.3 L3.1,9.3 L3.3,8.8 Z M0.7,8.8 L0.8,9.2 L1.3,9.2 L0.9,9.5 L1.1,10 L0.7,9.7 L0.4,9.9 L0.5,9.5 L0.1,9.2 L0.6,9.2 L0.7,8.8 Z M5.9,8.8 L6,9.2 L6.5,9.2 L6.1,9.5 L6.3,10 L5.9,9.7 L5.6,9.9 L5.7,9.5 L5.3,9.2 L5.8,9.2 L5.9,8.8 Z M8.5,8.8 L8.6,9.2 L9.1,9.2 L8.7,9.5 L8.9,10 L8.5,9.7 L8.1,10 L8.3,9.5 L7.9,9.2 L8.4,9.2 L8.5,8.8 Z M13.7,8.8 L13.8,9.2 L14.3,9.2 L13.9,9.5 L14.2,9.9 L13.8,9.6 L13.4,9.9 L13.5,9.5 L13.1,9.2 L13.6,9.2 L13.7,8.8 Z M11.1,8.8 L11.2,9.2 L11.7,9.2 L11.3,9.5 L11.6,9.9 L11.2,9.6 L10.8,9.9 L10.9,9.5 L10.5,9.2 L11,9.2 L11.1,8.8 Z M12.3,7.7 L12.5,8.1 L13,8.1 L12.6,8.4 L12.8,8.8 L12.4,8.5 L12,8.8 L12.1,8.4 L11.7,8.1 L12.2,8.1 L12.3,7.7 Z M2,7.7 L2.1,8.1 L2.6,8.1 L2.2,8.4 L2.5,8.8 L2.1,8.5 L1.7,8.8 L1.8,8.4 L1.4,8.1 L1.9,8.1 L2,7.7 Z M9.8,7.7 L9.9,8.1 L10.4,8.1 L10,8.4 L10.3,8.8 L9.9,8.5 L9.5,8.8 L9.6,8.4 L9.2,8.1 L9.7,8.1 L9.8,7.7 Z M7.2,7.7 L7.3,8.1 L7.8,8.1 L7.4,8.4 L7.7,8.8 L7.3,8.5 L6.9,8.8 L7,8.4 L6.6,8.1 L7.1,8.1 L7.2,7.7 Z M4.6,7.7 L4.7,8.1 L5.2,8.1 L4.8,8.4 L5.1,8.8 L4.7,8.5 L4.3,8.8 L4.4,8.4 L4,8.1 L4.5,8.1 L4.6,7.7 Z M8.4,6.7 L8.5,7.1 L9,7.1 L8.6,7.4 L8.9,7.8 L8.5,7.5 L8.1,7.8 L8.2,7.4 L7.8,7.1 L8.3,7.1 L8.4,6.7 Z M3.2,6.7 L3.4,7.1 L3.9,7.1 L3.5,7.4 L3.7,7.8 L3.3,7.5 L2.9,7.8 L3,7.4 L2.6,7.1 L3.1,7.1 L3.2,6.7 Z M0.6,6.7 L0.8,7.1 L1.3,7.1 L0.9,7.4 L1.1,7.8 L0.7,7.5 L0.3,7.8 L0.4,7.4 L0,7.1 L0.5,7.1 L0.6,6.7 Z M13.6,6.7 L13.7,7.1 L14.2,7.1 L13.8,7.4 L14.1,7.8 L13.7,7.5 L13.3,7.8 L13.4,7.4 L13,7.1 L13.5,7.1 L13.6,6.7 Z M5.8,6.7 L6,7.1 L6.5,7.1 L6.1,7.4 L6.3,7.8 L5.9,7.5 L5.5,7.8 L5.6,7.4 L5.2,7.1 L5.7,7.1 L5.8,6.7 Z M11,6.7 L11.1,7.1 L11.6,7.1 L11.2,7.4 L11.5,7.8 L11.1,7.5 L10.7,7.8 L10.8,7.4 L10.4,7.1 L10.9,7.1 L11,6.7 Z M4.5,5.6 L4.7,6 L5.1,6 L4.8,6.3 L4.9,6.7 L4.6,6.4 L4.2,6.7 L4.3,6.3 L3.9,6 L4.4,6 L4.5,5.6 Z M1.9,5.6 L2.1,6 L2.6,6 L2.2,6.3 L2.3,6.7 L2,6.4 L1.6,6.7 L1.7,6.3 L1.3,6 L1.8,6 L1.9,5.6 Z M9.7,5.6 L9.8,6 L10.3,6 L9.9,6.3 L10.1,6.7 L9.7,6.4 L9.3,6.7 L9.5,6.3 L9.1,6 L9.6,6 L9.7,5.6 Z M12.3,5.6 L12.4,6 L12.9,6 L12.5,6.3 L12.7,6.7 L12.3,6.4 L11.9,6.7 L12.1,6.3 L11.6,6 L12.1,6 L12.3,5.6 Z M5.8,4.5 L6,4.9 L6.5,4.9 L6.1,5.2 L6.2,5.7 L5.9,5.4 L5.5,5.7 L5.6,5.3 L5.2,5 L5.7,5 L5.8,4.5 Z M8.5,4.5 L8.6,4.9 L9.1,4.9 L8.7,5.2 L8.8,5.7 L8.5,5.4 L8.1,5.7 L8.3,5.2 L7.9,4.9 L8.4,4.9 L8.5,4.5 Z M11,4.5 L11.1,4.9 L11.6,4.9 L11.2,5.2 L11.4,5.7 L11,5.4 L10.6,5.7 L10.8,5.2 L10.4,4.9 L10.9,4.9 L11,4.5 Z M0.7,4.5 L0.8,4.9 L1.3,4.9 L0.9,5.2 L1,5.7 L0.7,5.4 L0.3,5.7 L0.5,5.3 L0.1,5 L0.5,5 L0.7,4.5 Z M3.2,4.5 L3.4,4.9 L3.9,4.9 L3.5,5.2 L3.6,5.7 L3.3,5.4 L2.9,5.7 L3,5.3 L2.6,5 L3.1,5 L3.2,4.5 Z M13.6,4.5 L13.7,4.9 L14.2,4.9 L13.8,5.2 L14,5.7 L13.6,5.4 L13.2,5.7 L13.4,5.2 L13,4.9 L13.5,4.9 L13.6,4.5 Z M9.7,3.4 L9.8,3.8 L10.3,3.8 L9.9,4.1 L10.1,4.6 L9.8,4.2 L9.4,4.5 L9.5,4.1 L9.1,3.8 L9.6,3.8 L9.7,3.4 Z M7.1,3.4 L7.3,3.8 L7.8,3.8 L7.4,4.1 L7.5,4.6 L7.1,4.3 L6.8,4.6 L6.9,4.2 L6.5,3.9 L7,3.9 L7.1,3.4 Z M2,3.4 L2.1,3.8 L2.6,3.8 L2.2,4.1 L2.4,4.6 L2,4.3 L1.6,4.6 L1.8,4.2 L1.4,3.9 L1.8,3.9 L2,3.4 Z M4.5,3.4 L4.7,3.9 L5.1,3.9 L4.8,4.1 L5,4.6 L4.6,4.3 L4.2,4.6 L4.3,4.2 L3.9,3.9 L4.4,3.9 L4.5,3.4 Z M12.299,3.4 L12.4,3.8 L12.9,3.8 L12.5,4.1 L12.8,4.5 L12.4,4.2 L12,4.5 L12.1,4.1 L11.7,3.8 L12.2,3.8 L12.299,3.4 Z M11,2.3 L11.1,2.7 L11.6,2.7 L11.2,2.9 L11.4,3.4 L11,3.1 L10.6,3.4 L10.7,3 L10.3,2.7 L10.8,2.7 L11,2.3 Z M0.6,2.2 L0.8,2.7 L1.2,2.7 L0.9,2.9 L1.1,3.4 L0.7,3.1 L0.3,3.4 L0.4,3 L0,2.7 L0.5,2.7 L0.6,2.2 Z M8.4,2.3 L8.5,2.7 L9,2.7 L8.6,2.9 L8.8,3.4 L8.4,3.1 L8,3.4 L8.1,3 L7.7,2.7 L8.2,2.7 L8.4,2.3 Z M13.6,2.3 L13.7,2.7 L14.2,2.7 L13.9,3 L14,3.4 L13.6,3.1 L13.2,3.4 L13.3,3 L12.9,2.7 L13.4,2.7 L13.6,2.3 Z M12.3,1.1 L12.4,1.5 L12.9,1.5 L12.5,1.8 L12.7,2.3 L12.3,2 L11.9,2.3 L12,1.9 L11.6,1.6 L12.1,1.6 L12.3,1.1 Z M9.7,1.1 L9.8,1.5 L10.3,1.5 L9.9,1.8 L10.1,2.3 L9.8,1.9 L9.4,2.2 L9.5,1.8 L9.1,1.5 L9.6,1.5 L9.7,1.1 Z M7.1,1.1 L7.2,1.5 L7.7,1.5 L7.3,1.8 L7.5,2.3 L7.1,2 L6.7,2.3 L6.9,1.9 L6.5,1.6 L7,1.6 L7.1,1.1 Z M4.5,1.1 L4.7,1.6 L5.1,1.6 L4.7,1.8 L4.9,2.3 L4.5,2 L4.1,2.3 L4.3,1.9 L3.9,1.6 L4.4,1.6 L4.5,1.1 Z M1.9,1.1 L2.1,1.5 L2.6,1.5 L2.2,1.8 L2.3,2.3 L1.9,2 L1.5,2.3 L1.7,1.9 L1.3,1.6 L1.8,1.6 L1.9,1.1 Z M3.2,0 L3.4,0.4 L3.8,0.4 L3.4,0.7 L3.6,1.2 L3.2,0.9 L2.8,1.2 L3,0.7 L2.6,0.4 L3.1,0.4 L3.2,0 Z M0.6,0 L0.8,0.4 L1.3,0.4 L0.9,0.7 L1.1,1.2 L0.7,0.9 L0.3,1.2 L0.4,0.7 L0,0.4 L0.5,0.4 L0.6,0 Z M5.8,0 L5.9,0.4 L6.4,0.4 L6,0.7 L6.2,1.2 L5.8,0.9 L5.4,1.2 L5.6,0.7 L5.2,0.4 L5.7,0.4 L5.8,0 Z M8.4,4.4408921e-16 L8.5,0.4 L9,0.4 L8.6,0.7 L8.9,1.1 L8.5,0.8 L8.1,1.1 L8.2,0.7 L7.8,0.4 L8.3,0.4 L8.4,4.4408921e-16 Z M11,4.4408921e-16 L11.1,0.4 L11.6,0.4 L11.2,0.7 L11.4,1.1 L11,0.8 L10.6,1.1 L10.7,0.7 L10.4,0.4 L10.9,0.4 L11,4.4408921e-16 Z M13.6,4.4408921e-16 L13.7,0.4 L14.2,0.4 L13.8,0.7 L14,1.1 L13.6,0.8 L13.2,1.1 L13.3,0.7 L13,0.4 L13.5,0.4 L13.6,4.4408921e-16 Z M6.9,6.3 L6.5,6 L7,6 L7.1,5.6 L7.2,6 L7.7,6 L7.3,6.3 L7.499,6.699 L7.1,6.4 L6.7,6.699 L6.9,6.3 Z M3,3 L2.6,2.7 L3.1,2.7 L3.2,2.2 L3.4,2.7 L3.8,2.7 L3.4,2.9 L3.6,3.4 L3.2,3.1 L2.801,3.399 L3,3 Z M5.6,3 L5.2,2.7 L5.7,2.7 L5.8,2.2 L5.9,2.7 L6.4,2.7 L6,2.9 L6.2,3.4 L5.8,3.1 L5.401,3.399 L5.6,3 Z"></path></clipPath><linearGradient id="i5" x1="-4.1705px" y1="4.9911px" x2="18.4344px" y2="4.9911px" gradientUnits="userSpaceOnUse"><stop stop-color="#D0D2D3" offset="0%"></stop><stop stop-color="#EDEDEE" offset="24%"></stop><stop stop-color="#FAFDFF" offset="53%"></stop><stop stop-color="#EDEDEE" offset="76%"></stop><stop stop-color="#D0D2D3" offset="100%"></stop></linearGradient></defs><g transform="translate(-1359.0 -51.0)"><g clip-path="url(#i0)"><g transform="translate(1359.0 50.99999999999996)"><g transform=""><g transform=""><g clip-path="url(#i1)"><polygon points="0,0 30.8,0 30.8,20.5 0,20.5 0,0" stroke="none" fill="#FFFFFF"></polygon></g></g><g transform=""><g clip-path="url(#i2)"><polygon points="0,0 30.8,0 30.8,20.6 0,20.6 0,0" stroke="none" fill="#D22026"></polygon></g></g><g transform=""><g clip-path="url(#i3)"><polygon points="0,0 15.6,0 15.6,11.1 0,11.1 0,0" stroke="none" fill="#1A468F"></polygon></g></g><g transform="translate(0.6999999999999993 0.4999999999999991)"><g clip-path="url(#i4)"><polygon points="0,0 14.3,0 14.3,10 0,10 0,0" stroke="none" fill="url(#i5)"></polygon></g></g></g></g></g></g></svg>