<?xml version="1.0" encoding="UTF-8"?>
<svg width="31px" height="21px" viewBox="0 0 31 21" version="1.1" xmlns="http://www.w3.org/2000/svg" xmlns:xlink="http://www.w3.org/1999/xlink">
    <title>icon-home-canada-flag-color</title>
    <g id="Dashboard" stroke="none" stroke-width="1" fill="none" fill-rule="evenodd">
        <g id="Home---Partner-Plan---CAN-Home---English" transform="translate(-1200.000000, -51.000000)">
            <g id="icon-home-canada-flag-color" transform="translate(1200.000000, 51.000000)">
                <g id="Group" transform="translate(-0.000000, 0.000000)">
                    <rect id="Rectangle" fill="#FFFFFF" x="7.7" y="-6.66133815e-16" width="15.4" height="20.5"></rect>
                    <rect id="Rectangle" fill="#EC1C24" x="-8.8817842e-16" y="-6.66133815e-16" width="7.7" height="20.5"></rect>
                    <rect id="Rectangle" fill="#EC1C24" x="23.1" y="-6.66133815e-16" width="7.7" height="20.5"></rect>
                    <path d="M9.4,10.5 L12.1,12.9 C12.6,13.3 12.2,13.8 12,14.2 L15.1,13.8 L15,16.9 L15.7,16.9 L15.6,13.8 L18.7,14.2 C18.5,13.7 18.2,13.2 18.7,12.8 L21.4,10.5 C21.1,10.4 20.8,10.4 20.8,10.1 C20.7,9.6 21.1,8.6 21.3,8 C20.8,8.2 20,8.4 19.6,8.3 C19.3,8.3 19.2,7.6 19.1,7.4 L17.7,8.9 C17.3,9.3 17.2,9.1 17.3,8.6 L17.8,5.4 L16.9,5.9 C16.6,6.1 16.5,6.1 16.4,5.8 L15.4,3.8 L14.4,5.8 C14.2,6.1 14.2,6.1 13.9,6 L13,5.5 L13.6,8.6 C13.7,9.1 13.6,9.3 13.2,8.8 L11.8,7.4 C11.7,7.7 11.5,8.2 11.3,8.3 C11,8.4 10.2,8.1 9.6,8 C9.8,8.5 10.2,9.5 10.1,10 C10.1,10.3 9.7,10.3 9.4,10.5 Z" id="Path" fill="#EC1C24"></path>
                </g>
            </g>
        </g>
    </g>
</svg>