<?xml version="1.0" encoding="UTF-8"?><svg version="1.1" width="200px" height="51px" viewBox="0 0 200.0 51.0" xmlns="http://www.w3.org/2000/svg" xmlns:xlink="http://www.w3.org/1999/xlink"><defs><clipPath id="i0"><path d="M1440,0 L1440,2341 L0,2341 L0,0 L1440,0 Z"></path></clipPath><clipPath id="i1"><path d="M8.47181492,0 C12.0368773,0 12.9185594,2.20907298 12.9185594,3.94477318 C12.9185594,6.7061144 11.5002013,8.3234714 8.74015295,8.3234714 L3.45006038,8.3234714 L3.45006038,12.938856 L0.0383340042,12.938856 L0.0383340042,0 L8.47181492,0 Z M7.39846281,2.36686391 L3.41172637,2.36686391 L3.41172637,5.9566075 L7.09179077,5.9566075 C8.16514289,5.9566075 9.39183102,5.91715976 9.39183102,4.18145957 C9.39183102,2.4852071 8.39514692,2.36686391 7.39846281,2.36686391 Z"></path></clipPath><clipPath id="i2"><path d="M6.17177467,0 C10.6185192,0 11.5768693,1.49901381 11.5768693,3.31360947 L11.5768693,8.12623274 C11.5768693,8.99408284 11.7302053,9.58579882 11.9218753,10.0986193 L8.81682096,10.0986193 C8.70181895,9.74358974 8.62515094,9.42800789 8.58681694,9.0729783 C7.51346482,10.1775148 5.55843061,10.4536489 4.17840646,10.4536489 C1.72503019,10.4536489 0,9.54635108 0,7.29783037 C0,4.93096647 2.03170222,4.41814596 3.91006843,4.29980276 L7.20679279,4.06311637 C8.16514289,3.98422091 8.47181492,3.82642998 8.47181492,3.03747535 C8.47181492,2.24852071 7.82013685,1.89349112 6.05677266,1.89349112 C4.71508251,1.89349112 4.06340444,2.01183432 3.60339639,3.3530572 L0.575010063,3.3530572 C0.958350104,0.355029586 3.6417304,0 6.17177467,0 Z M8.51,5.38 L8.54848293,5.36489152 C7.97347287,5.64102564 7.3217948,5.7199211 6.70845073,5.79881657 L4.90675253,5.9566075 C3.79506641,6.03550296 3.25839036,6.35108481 3.25839036,7.21893491 C3.25839036,8.08678501 4.06340444,8.59960552 5.21342457,8.59960552 C6.78511874,8.59960552 8.51014893,7.81065089 8.51014893,6.19329389 L8.51,5.38 Z"></path></clipPath><clipPath id="i3"><path d="M7.93513886,0.0788954635 L7.93513886,3.07692308 C7.3601288,2.91913215 6.82345274,2.80078895 6.21010868,2.80078895 C4.10173845,2.80078895 3.10505434,3.90532544 3.10505434,5.79881657 L3.10505434,9.98027613 L0,9.98027613 L0,0.276134122 L3.02838633,0.276134122 L3.02838633,2.16962525 L3.06672033,2.16962525 C4.17840646,0.67061144 5.06008855,0 6.82345274,0 C7.16845878,0 7.59013283,0 7.93513886,0.0788954635 Z"></path></clipPath><clipPath id="i4"><path d="M5.02175455,0 L5.02175455,2.99802761 L7.51346482,2.99802761 L7.51346482,5.12820513 L5.02175455,5.12820513 L5.02175455,9.66469428 C5.02175455,10.4142012 5.25175857,10.6903353 6.05677266,10.6903353 C6.59344872,10.6903353 7.09179077,10.6508876 7.59013283,10.6114398 L7.59013283,12.7416174 C7.01512276,12.8205128 5.82676864,12.938856 5.17509056,12.938856 C2.30770705,12.938856 1.97255833,11.8593085 1.95574769,10.2064839 L1.95503421,5.12820513 L0,5.12820513 L0,3.03747535 L1.95503421,3.03747535 L1.95503421,0 L5.02175455,0 Z"></path></clipPath><clipPath id="i5"><path d="M6.90012075,0 C8.51014893,0 10.9635252,0.631163708 10.9635252,3.51084813 L10.9635252,9.98027613 L7.85847086,9.98027613 L7.85847086,4.41814596 L7.82013685,4.41814596 C7.82013685,3.07692308 7.13012478,2.40631164 5.75010063,2.40631164 C4.29340847,2.40631164 3.10505434,3.15581854 3.10505434,5.20710059 L3.10505434,9.90138067 L0,9.90138067 L0,0.236686391 L2.99005233,0.236686391 L2.99005233,1.65680473 L3.02838633,1.65680473 C3.60339639,0.828402367 5.06008855,0 6.90012075,0 Z"></path></clipPath><clipPath id="i6"><path d="M6.21010868,1.93293886 C3.75673241,1.93293886 3.25839036,3.86587771 3.25839036,4.1025641 L3.25839036,4.14201183 L9.12349299,4.14201183 C9.12349299,3.58974359 8.47181492,1.93293886 6.21010868,1.93293886 Z M12.135,7.179 L12.1518793,7.14003945 C11.2701972,9.42800789 9.08515899,10.4142012 6.24844268,10.4142012 C2.49171027,10.4142012 0,8.83629191 0,5.20710059 C0,1.53846154 2.49171027,0 6.24844268,0 C10.3501811,0 12.3052153,2.13017751 12.3052153,5.79881657 L12.3052153,6.07495069 L3.22005635,6.07495069 L3.22005635,6.11439842 C3.22005635,7.02169625 4.14007245,8.4418146 6.24844268,8.4418146 C7.51346482,8.4418146 8.39514692,8.00788955 8.81682096,7.17948718 L12.135,7.179 Z"></path></clipPath><clipPath id="i7"><path d="M7.93513886,0.0788954635 L7.93513886,3.07692308 C7.3601288,2.91913215 6.82345274,2.80078895 6.21010868,2.80078895 C4.10173845,2.80078895 3.10505434,3.90532544 3.10505434,5.79881657 L3.10505434,9.98027613 L0,9.98027613 L0,0.276134122 L3.02838633,0.276134122 L3.02838633,2.16962525 L3.06672033,2.16962525 C4.17840646,0.67061144 5.06008855,0 6.82345274,0 C7.16845878,0 7.59013283,0 7.93513886,0.0788954635 Z"></path></clipPath><clipPath id="i8"><path d="M9.18364493,0 C12.6803466,0 13.2567259,2.13507625 13.2567259,3.39324619 C13.2567259,4.91830065 12.6419213,5.90958606 11.2201854,6.40522876 L11.2201854,6.44335512 C12.7187718,6.67211329 12.9493236,8.57843137 12.9493236,9.79847495 C12.9493236,10.4084967 12.9877489,11.8954248 13.6025536,12.5054466 L9.83687491,12.5054466 C9.52947256,11.9335512 9.49104727,11.3997821 9.49104727,10.1034858 C9.49104727,8.3496732 8.72254142,7.89215686 7.68505852,7.89215686 L3.41985104,7.89215686 L3.41985104,12.5054466 L0,12.5054466 L0,0 L9.18364493,0 Z M7.8003344,2.40196078 L3.41985104,2.40196078 L3.41985104,5.5664488 L7.95403557,5.5664488 C8.72254142,5.5664488 9.60632315,5.14705882 9.60632315,3.96514161 C9.60632315,2.70697168 8.60726554,2.40196078 7.8003344,2.40196078 Z"></path></clipPath><clipPath id="i9"><path d="M6.2248974,1.86819172 C3.76567867,1.86819172 3.26614987,3.73638344 3.26614987,3.96514161 L3.26614987,4.00326797 L9.14521964,4.00326797 C9.14521964,3.46949891 8.49198966,1.86819172 6.2248974,1.86819172 Z M12.164,6.938 L12.1808178,6.90087146 C11.297036,9.11220044 9.10679435,10.0653595 6.26332269,10.0653595 C2.49764402,10.0653595 0,8.54030501 0,5.03267974 C0,1.4869281 2.49764402,0 6.26332269,0 C10.374829,0 12.3345189,2.05882353 12.3345189,5.60457516 L12.3345189,5.87145969 L3.22772458,5.87145969 L3.22772458,5.90958606 C3.22772458,6.78649237 4.1499316,8.15904139 6.26332269,8.15904139 C7.53135735,8.15904139 8.41513908,7.73965142 8.8378173,6.93899782 L12.164,6.938 Z"></path></clipPath><clipPath id="i10"><path d="M6.26332269,0 C8.68411613,0 11.4891625,0.724400871 12.0655419,3.81263617 L8.8378173,3.81263617 C8.45356437,2.55446623 7.53135735,2.17320261 6.26332269,2.17320261 C4.34205806,2.17320261 3.22772458,3.20261438 3.22772458,5.03267974 C3.22772458,6.8627451 4.34205806,7.89215686 6.26332269,7.89215686 C7.64663323,7.89215686 8.68411613,7.16775599 8.8378173,5.98583878 L12.0655419,5.98583878 C11.4891625,9.30283224 9.10679435,10.0653595 5.99434565,10.0653595 C2.42079343,10.0653595 0,8.54030501 0,5.03267974 C0,1.4869281 2.49764402,0 6.26332269,0 Z"></path></clipPath><clipPath id="i11"><path d="M6.26332269,0 C10.0290014,0 12.5266454,1.52505447 12.5266454,5.03267974 C12.5266454,8.57843137 10.0290014,10.0653595 6.26332269,10.0653595 C2.49764402,10.0653595 0,8.54030501 0,5.03267974 C0,1.4869281 2.49764402,0 6.26332269,0 Z M6.26332269,2.21132898 C4.34205806,2.21132898 3.22772458,3.24074074 3.22772458,5.0708061 C3.18929929,6.90087146 4.30363277,7.93028322 6.26332269,7.93028322 C8.18458732,7.93028322 9.29892081,6.90087146 9.29892081,5.0708061 C9.29892081,3.24074074 8.18458732,2.21132898 6.26332269,2.21132898 Z"></path></clipPath><clipPath id="i12"><path d="M5.64851801,0 C7.03182855,0 8.45356437,0.381263617 9.26049552,1.37254902 L9.29892081,1.37254902 L9.29892081,0.190631808 L12.219243,0.190631808 L12.219243,8.8453159 C12.219243,12.0860566 10.105852,13.3442266 6.14804682,13.3442266 C3.80410397,13.3442266 0.653229974,13.077342 0.345827633,10.2559913 L3.6504028,10.2559913 C3.84252926,11.0185185 4.45733394,11.4379085 6.26332269,11.4379085 C7.8003344,11.4379085 9.14521964,11.0185185 9.14521964,8.76906318 L9.14521964,8.00653595 C8.26143791,8.99782135 6.95497796,9.37908497 5.37954096,9.37908497 C1.65228758,9.37908497 0,7.09150327 0,4.68954248 C0,2.13507625 1.69071287,0 5.64851801,0 Z M6.14804682,2.09694989 C4.80316157,2.09694989 3.18929929,2.51633987 3.18929929,4.68954248 C3.15087399,6.8627451 4.76473628,7.28213508 6.14804682,7.28213508 C7.53135735,7.28213508 9.14521964,6.8627451 9.14521964,4.68954248 C9.14521964,2.51633987 7.53135735,2.09694989 6.14804682,2.09694989 Z"></path></clipPath><clipPath id="i13"><path d="M6.91655267,0 C8.53041496,0 10.9896337,0.610021786 10.9896337,3.39324619 L10.9896337,9.6459695 L7.87718498,9.6459695 L7.87718498,4.34640523 L7.83875969,4.34640523 C7.83875969,3.05010893 7.14710442,2.40196078 5.76379389,2.40196078 C4.30363277,2.40196078 3.1124487,3.12636166 3.1124487,5.10893246 L3.1124487,9.6459695 L0,9.6459695 L0,0.22875817 L2.99717282,0.22875817 L2.99717282,1.60130719 L3.03559812,1.60130719 C3.6119775,0.800653595 5.07213862,0 6.91655267,0 Z"></path></clipPath><clipPath id="i14"><path d="M3.1124487,3.31699346 L3.1124487,12.7342048 L0,12.7342048 L0,3.31699346 L3.1124487,3.31699346 Z M3.1124487,0 L3.1124487,2.17320261 L0,2.17320261 L0,0 L3.1124487,0 Z"></path></clipPath><clipPath id="i15"><path d="M5.03371333,0 L5.03371333,2.89760349 L7.53135735,2.89760349 L7.53135735,4.95642702 L5.03371333,4.95642702 L5.03371333,9.34095861 C5.03371333,10.0653595 5.26426509,10.332244 6.07119623,10.332244 C6.60915033,10.332244 7.10867913,10.2941176 7.60820793,10.2559913 L7.60820793,12.3148148 C7.03182855,12.3910675 5.84064447,12.5054466 5.1874145,12.5054466 C2.22866697,12.5054466 1.95968992,11.3997821 1.95968992,9.72222222 L1.95968992,4.95642702 L0,4.95642702 L0,2.89760349 L1.95968992,2.89760349 L1.95968992,0 L5.03371333,0 Z"></path></clipPath><clipPath id="i16"><path d="M3.1124487,3.31699346 L3.1124487,12.7342048 L0,12.7342048 L0,3.31699346 L3.1124487,3.31699346 Z M3.1124487,0 L3.1124487,2.17320261 L0,2.17320261 L0,0 L3.1124487,0 Z"></path></clipPath><clipPath id="i17"><path d="M6.26332269,0 C10.0290014,0 12.5266454,1.52505447 12.5266454,5.03267974 C12.5266454,8.57843137 10.0290014,10.0653595 6.26332269,10.0653595 C2.49764402,10.0653595 0,8.54030501 0,5.03267974 C0,1.4869281 2.49764402,0 6.26332269,0 Z M6.26332269,2.21132898 C4.34205806,2.21132898 3.22772458,3.24074074 3.22772458,5.0708061 C3.18929929,6.90087146 4.30363277,7.93028322 6.26332269,7.93028322 C8.18458732,7.93028322 9.29892081,6.90087146 9.29892081,5.0708061 C9.29892081,3.24074074 8.18458732,2.21132898 6.26332269,2.21132898 Z"></path></clipPath><clipPath id="i18"><path d="M4.64317469,0 L7.48280219,3.96501458 L10.3224297,0 L14.5051242,0 L9.51658945,6.18075802 L14.9656044,12.750243 L10.6294164,12.750243 L7.48280219,8.43537415 L4.33618794,12.750243 L0,12.750243 L5.44901493,6.18075802 L0.460480135,0 L4.64317469,0 Z"></path></clipPath><clipPath id="i19"><path d="M3.22336094,0 L3.22336094,2.44897959 L0,2.44897959 L0,0 L3.22336094,0 Z"></path></clipPath><clipPath id="i20"><path d="M8.63400253,0 C12.2794703,0 13.1620572,2.17687075 13.1620572,3.88726919 C13.1620572,6.60835763 11.7038701,8.202138 8.90261594,8.202138 L3.49197436,8.202138 L3.49197436,12.750243 L0,12.750243 L0,0 L8.63400253,0 Z M7.6705185,2.33296088 L3.49197436,2.33236152 L3.49197436,5.86977648 L7.21418878,5.86977648 C8.28864243,5.86977648 9.5549628,5.83090379 9.5549628,4.12050534 C9.5549628,2.51326904 8.59704832,2.3436323 7.6705185,2.33296088 Z"></path></clipPath><clipPath id="i21"><path d="M3.1849876,0 L3.1849876,12.9834791 L0,12.9834791 L0,0 L3.1849876,0 Z"></path></clipPath><clipPath id="i22"><path d="M6.3699752,0 C10.8980299,0 11.8573635,1.47716229 11.8573635,3.26530612 L11.8573635,8.00777454 C11.8573635,8.86297376 12.0108568,9.44606414 12.2027236,9.95140914 L9.05610932,9.95140914 C8.94098928,9.60155491 8.86424259,9.29057337 8.82586925,8.94071914 C7.7514156,10.0291545 5.71762834,10.3012634 4.29781459,10.3012634 C1.76517385,10.3012634 0,9.40719145 0,7.19144801 C0,4.85908649 2.07216061,4.3537415 3.99082783,4.23712342 L7.36768216,4.00388727 C8.32701577,3.92614189 8.67237587,3.77065112 8.67237587,2.99319728 C8.67237587,2.21574344 8.02002901,1.86588921 6.17810847,1.86588921 C4.83504142,1.86588921 4.14432121,1.98250729 3.68384108,3.30417881 L0.652346858,3.30417881 C1.0360803,0.349854227 3.76058777,0 6.3699752,0 Z M6.90720202,5.71428571 L5.06528148,5.86977648 C3.95245449,5.94752187 3.37685432,6.2585034 3.37685432,7.11370262 C3.37685432,7.96890185 4.18269456,8.47424684 5.37226824,8.47424684 C6.98394871,8.47424684 8.74912256,7.696793 8.74912256,6.10301263 L8.749,5.302 L8.53633509,5.39197103 C8.02551092,5.58100791 7.46635647,5.64764681 6.90720202,5.71428571 Z"></path></clipPath><clipPath id="i23"><path d="M7.0606954,0 C8.71074922,0 11.2050166,0.621963071 11.2050166,3.45966958 L11.2050166,9.83479106 L8.05840236,9.83479106 L8.05840236,4.43148688 L7.98165567,4.43148688 C7.98165567,3.10981535 7.29093547,2.44897959 5.87112172,2.44897959 C4.41293462,2.44897959 3.14661425,3.18756074 3.14661425,5.20894072 L3.14661425,9.83479106 L0,9.83479106 L0,0.233236152 L3.06986757,0.233236152 L3.06986757,1.63265306 L3.10824091,1.63265306 C3.68384108,0.816326531 5.18040152,0 7.0606954,0 Z"></path></clipPath><clipPath id="i24"><path d="M1.54181331,0 L6.47561589,11.0571781 L11.3708731,0 L12.7970504,0 L7.13088654,12.5161113 L5.70470923,12.5161113 L0,0 L1.54181331,0 Z"></path></clipPath><clipPath id="i25"><path d="M5.08798391,0 C7.47779454,0 10.3301492,0.998217469 10.3301492,5.14465926 L1.34908664,5.14465926 C1.34908664,7.02591526 2.73671862,8.56163444 5.08798391,8.56163444 C7.32361321,8.56163444 8.32579186,7.83216783 8.78833585,6.45002057 L10.0988772,6.45002057 L10.0988772,6.48841355 C9.5592425,8.10091869 8.17161052,9.67503085 5.08798391,9.67503085 C1.27199598,9.67503085 0,7.06430824 0,4.83751543 C0,2.30357877 1.58035864,0 5.08798391,0 Z M5.20361991,1.07500343 C3.50762527,1.07500343 1.6574493,1.91964898 1.34908664,4.14644179 L9.01960784,4.14644179 C8.63415452,1.91964898 6.97670521,1.07500343 5.20361991,1.07500343 Z"></path></clipPath><clipPath id="i26"><path d="M1.31054131,0 L1.31054131,5.29823118 L1.34908664,5.29823118 C1.73453997,4.33840669 3.16071728,3.22501028 5.20361991,3.22501028 C8.28724652,3.22501028 9.25087984,4.79912245 9.25087984,6.98752228 L9.25087984,12.6312903 L7.94033853,12.6312903 L7.94033853,6.7571644 C7.94033853,4.95269436 6.82252388,4.33840669 5.12652924,4.33840669 C2.54399196,4.33840669 1.34908664,5.643768 1.34908664,7.71698889 L1.34908664,12.6696833 L0.0385453327,12.6696833 L0.0385453327,0 L1.31054131,0 Z"></path></clipPath><clipPath id="i27"><path d="M1.31054131,3.49376114 L1.31054131,12.5928973 L0,12.5928973 L0,3.49376114 L1.31054131,3.49376114 Z M1.31054131,0 L1.31054131,1.91964898 L0,1.91964898 L0,0 L1.31054131,0 Z"></path></clipPath><clipPath id="i28"><path d="M5.24216524,0 C8.44142785,0 9.6748785,1.95804196 9.86760516,3.26340326 L8.55706385,3.26340326 C8.13306519,1.6892911 6.89961455,1.07500343 5.24216524,1.07500343 C2.58253729,1.07500343 1.31054131,2.72590155 1.31054131,4.83751543 C1.31054131,7.10270122 2.69817329,8.60002742 5.24216524,8.60002742 C7.20797721,8.60002742 8.28724652,7.56341698 8.63415452,6.14287673 L9.94469583,6.14287673 C9.6748785,7.3330591 8.63415452,9.67503085 5.24216524,9.67503085 C1.8887213,9.67503085 0,7.67859591 0,4.83751543 C0,2.11161388 1.73453997,0 5.24216524,0 Z"></path></clipPath><clipPath id="i29"><path d="M1.31054131,0 L1.31054131,12.6312903 L0,12.6312903 L0,0 L1.31054131,0 Z"></path></clipPath><clipPath id="i30"><path d="M5.08798391,0 C7.47779454,0 10.3301492,0.998217469 10.3301492,5.14465926 L1.34908664,5.14465926 C1.34908664,7.02591526 2.73671862,8.56163444 5.08798391,8.56163444 C7.32361321,8.56163444 8.32579186,7.83216783 8.78833585,6.45002057 L10.0988772,6.45002057 L10.0988772,6.48841355 C9.5592425,8.10091869 8.17161052,9.67503085 5.08798391,9.67503085 C1.27199598,9.67503085 0,7.06430824 0,4.83751543 C0,2.30357877 1.58035864,0 5.08798391,0 Z M5.20361991,1.07500343 C3.50762527,1.07500343 1.6574493,1.91964898 1.34908664,4.14644179 L9.01960784,4.14644179 C8.63415452,1.91964898 6.97670521,1.07500343 5.20361991,1.07500343 Z"></path></clipPath><clipPath id="i31"><path d="M6.89961455,0 C8.86542651,0 10.7541478,0.959824489 10.7541478,3.60894008 C10.7541478,5.98930481 9.17378917,7.25627314 6.32143456,7.25627314 L1.34908664,7.25627314 L1.34908664,12.5161113 L0.0385453327,12.5161113 L0.0385453327,0 L6.89961455,0 Z M6.74543322,1.19018237 L1.34908664,1.19018237 L1.34908664,6.06609077 L6.47561589,6.06609077 C8.71124518,6.06609077 9.3279705,5.0678733 9.3279705,3.60894008 C9.3279705,1.72768408 8.24870119,1.19018237 6.74543322,1.19018237 Z"></path></clipPath><clipPath id="i32"><path d="M4.93380258,0 C5.31925591,0 5.51198257,0.0383929796 5.70470923,0.0767859591 L5.70470923,1.42054024 C5.28071057,1.34375428 4.89525725,1.30536131 4.47125859,1.30536131 C3.04508128,1.30536131 1.31054131,2.15000686 1.31054131,4.76072947 L1.31054131,9.40627999 L0,9.40627999 L0,0.307143837 L1.31054131,0.307143837 L1.31054131,2.38036473 L1.34908664,2.38036473 C1.85017597,1.30536131 2.69817329,0 4.93380258,0 Z"></path></clipPath><clipPath id="i33"><path d="M1.31054131,3.49376114 L1.31054131,12.5928973 L0,12.5928973 L0,3.49376114 L1.31054131,3.49376114 Z M1.31054131,0 L1.31054131,1.91964898 L0,1.91964898 L0,0 L1.31054131,0 Z"></path></clipPath><clipPath id="i34"><path d="M5.24216524,0 C8.44142785,0 9.6748785,1.95804196 9.86760516,3.26340326 L8.55706385,3.26340326 C8.13306519,1.6892911 6.89961455,1.07500343 5.24216524,1.07500343 C2.58253729,1.07500343 1.31054131,2.72590155 1.31054131,4.83751543 C1.31054131,7.10270122 2.69817329,8.60002742 5.24216524,8.60002742 C7.20797721,8.60002742 8.28724652,7.56341698 8.63415452,6.14287673 L9.94469583,6.14287673 C9.6748785,7.3330591 8.63415452,9.67503085 5.24216524,9.67503085 C1.8887213,9.67503085 0,7.67859591 0,4.83751543 C0,2.11161388 1.73453997,0 5.24216524,0 Z"></path></clipPath><clipPath id="i35"><path d="M1.31054131,3.49376114 L1.31054131,12.5928973 L0,12.5928973 L0,3.49376114 L1.31054131,3.49376114 Z M1.31054131,0 L1.31054131,1.91964898 L0,1.91964898 L0,0 L1.31054131,0 Z"></path></clipPath><clipPath id="i36"><path d="M5.20361991,0 C8.28724652,0 9.25087984,1.57411216 9.25087984,3.762512 L9.25087984,9.40627999 L7.94033853,9.40627999 L7.94033853,3.45536816 L7.9017932,3.45536816 C7.9017932,1.65089812 6.78397855,1.03661045 5.08798391,1.03661045 C2.50544662,1.03661045 1.31054131,2.34197175 1.31054131,4.41519265 L1.31054131,9.36788701 L0,9.36788701 L0,0.268750857 L1.31054131,0.268750857 L1.31054131,2.0732209 L1.34908664,2.0732209 C1.73453997,1.11339641 3.12217195,0 5.20361991,0 Z"></path></clipPath><clipPath id="i37"><path d="M5.08798391,0 C6.89961455,0 8.44142785,0.652680653 9.05815318,2.03482792 L9.09669851,2.03482792 L9.09669851,0.230357877 L10.4457852,0.230357877 L10.4457852,8.98395722 C10.4457852,12.3625394 7.6705212,13.207185 5.20361991,13.207185 C0.963633317,13.207185 0.539634657,11.21075 0.423998659,10.2509255 L1.6574493,10.2509255 C1.85017597,11.249143 2.1199933,12.2473605 5.24216524,12.2473605 C7.6705212,12.2473605 9.09669851,11.1339641 9.09669851,8.94556424 L9.09669851,7.3330591 L9.05815318,7.3330591 C8.55706385,8.25449061 7.32361321,9.40627999 4.93380258,9.40627999 C2.58253729,9.40627999 0,8.21609763 0,4.64555053 C0,2.22679282 1.58035864,0 5.08798391,0 Z M5.20361991,1.03661045 C2.89089995,1.03661045 1.34908664,2.34197175 1.34908664,4.60715755 C1.34908664,7.25627314 3.04508128,8.25449061 5.28071057,8.25449061 C7.47779454,8.25449061 9.13524384,6.91073632 9.13524384,4.60715755 C9.17378917,2.68750857 7.82470253,1.03661045 5.20361991,1.03661045 Z"></path></clipPath><clipPath id="i38"><path d="M33.3333333,0 C51.7108804,0 66.6666667,5.63740573 66.6666667,12.5490196 C66.6666667,19.4606335 51.7108804,25.0980392 33.3333333,25.0980392 C14.9557862,25.0980392 0,19.4992459 0,12.5490196 C0,5.560181 14.840446,0 33.3333333,0 Z"></path></clipPath><clipPath id="i39"><path d="M28.8886335,0 C29.0050551,0 29.0438623,0.0394599635 29.0050551,0.11837989 C28.7334047,0.552439488 23.8048899,8.16821244 23.4168179,8.79957185 C23.3392035,9.0757916 23.3003963,9.27309141 23.4168179,9.3914713 C23.6884683,9.74661098 24.2705764,9.50985119 24.6198412,9.27309141 C25.7064429,8.52335211 26.4437797,7.61577295 27.258731,6.82657368 C27.2975382,6.78711372 27.4139598,6.78711372 27.452767,6.82657368 C27.5691886,6.94495357 27.7632246,7.10279342 27.8796463,7.22117331 C27.9184535,7.26063328 27.9184535,7.3395532 27.8796463,7.37901317 C27.1035022,8.36551225 26.2109365,9.31255138 25.3571781,9.98337076 C24.0377332,11.0093298 22.7182882,11.2855496 22.0585658,10.6147302 C21.8257226,10.3779704 21.6704938,10.0228307 21.6704938,9.70715101 C21.6704938,9.54931116 21.5928794,9.54931116 21.515265,9.62823108 C20.7391209,10.4174304 19.3808688,11.2855496 18.1390383,10.6541901 C17.0912438,10.1412106 16.8584006,8.91795174 17.0524366,7.85253273 C17.0524366,7.85253273 17.0136294,7.69469288 16.8972078,7.7736128 C16.6643646,7.93145266 16.3927142,8.12875247 16.0434493,8.24713236 C15.6165701,8.44443218 15.4225341,8.48389214 15.034462,8.48389214 C14.5299684,8.48389214 14.064282,8.28659233 13.7538243,7.7736128 C13.5597883,7.49739306 13.4821739,7.10279342 13.4821739,6.78711372 C13.4821739,6.78711372 13.4433667,6.70819379 13.4045595,6.78711372 C12.5896083,8.08929251 11.774657,9.35201134 10.9597057,10.6936501 C10.9208985,10.77257 10.8820913,10.81203 10.8044769,10.81203 L9.17457439,10.81203 C9.09695998,10.81203 9.05815278,10.7331101 9.09695998,10.6147302 C9.40741761,10.0228307 10.9985129,7.65523291 12.0851146,5.64277478 C12.356765,5.09033529 12.3179578,4.81411554 12.1239218,4.69573565 C11.8910786,4.57735576 11.4253922,4.77465558 11.0373201,5.09033529 C9.98952565,5.91899452 9.09695998,7.22117331 8.63127355,7.7736128 C8.35962312,8.12875247 8.12677991,8.641732 7.42825025,9.3914713 C6.34164857,10.6147302 4.86697485,11.2855496 3.46991554,10.81203 C2.73257868,10.5358102 2.15047064,9.90445083 1.95643462,9.15471152 C1.91762742,9.03633163 1.84001301,8.99687167 1.76239861,9.0757916 C1.52955539,9.3914713 1.06386895,9.78607094 0.675796922,10.0622907 C0.636989718,10.1017506 0.520568109,10.1412106 0.442953703,10.1017506 C0.365339297,10.0622907 0.0548816729,9.66769105 0.0160744698,9.54931116 C-0.0227327332,9.47039123 0.0160744698,9.35201134 0.0548816729,9.31255138 C0.598182515,8.83903182 0.90864014,8.56281207 1.14148336,8.24713236 C1.29671217,8.01037258 1.45194098,7.73415284 1.60716979,7.3395532 C1.95643462,6.47143401 2.73257868,4.85357551 4.2460596,4.02491627 C4.82816765,3.70923657 5.41027569,3.47247678 6.06999814,3.39355686 C6.34164857,3.35409689 6.57449178,3.39355686 6.65210619,3.63031664 C6.69091339,3.70923657 6.7685278,3.90653638 6.807335,4.06437624 C6.807335,4.14329616 6.807335,4.22221609 6.69091339,4.26167605 C5.75954052,4.61681573 4.86697485,5.12979525 4.2460596,5.99791445 C3.54752995,6.98441353 3.35349393,8.12875247 3.81918037,8.79957185 C4.1684452,9.27309141 4.71174604,9.35201134 5.25504688,9.19417149 C6.06999814,8.91795174 6.7685278,8.16821244 7.11779263,7.30009324 C7.50586466,6.35305412 7.54467186,5.24817514 7.27302144,4.26167605 C7.23421424,4.1038362 7.27302144,3.94599635 7.38944305,3.86707642 C7.62228627,3.70923657 7.93274389,3.55139671 8.0103583,3.51193675 C8.20439431,3.39355686 8.39843033,3.47247678 8.51485194,3.63031664 C8.78650236,4.06437624 8.98053837,4.69573565 8.98053837,5.36655503 C9.01934558,5.52439488 9.05815278,5.52439488 9.13576718,5.44547496 C9.67906803,4.85357551 10.1447545,4.26167605 10.7268625,3.78815649 C11.2313561,3.35409689 11.8910786,3.03841719 12.5119938,3.03841719 C13.2881379,3.03841719 13.7150171,3.59085668 13.6762099,4.57735576 C13.6762099,4.69573565 13.7538243,4.69573565 13.8314388,4.61681573 C14.064282,4.26167605 14.2195108,4.1038362 14.4911612,3.86707642 C15.034462,3.39355686 15.6165701,3.19625704 16.1986781,3.235717 C16.936015,3.27517697 17.518123,3.98545631 17.4017014,4.73519562 C17.324087,5.20871518 17.0912438,5.64277478 16.6255574,5.87953456 C16.2374853,6.07683437 15.8106061,6.03737441 15.5001485,5.76115467 C15.2284981,5.52439488 15.1508837,5.20871518 15.2284981,4.85357551 C15.2284981,4.81411554 15.1508837,4.73519562 15.0732693,4.81411554 C14.3359324,5.56385485 14.2971252,6.55035393 14.7628116,6.98441353 C15.3061125,7.49739306 16.0822565,7.14225339 16.6255574,6.78711372 C17.6733519,6.11629434 18.4494959,5.16925521 19.3808688,4.45897587 C20.001784,3.98545631 20.7003137,3.59085668 21.4764578,3.47247678 C21.903337,3.43301682 22.3302162,3.47247678 22.7570955,3.63031664 C23.3392035,3.86707642 23.6884683,4.34059598 23.7272755,4.77465558 C23.7660827,4.89303547 23.8436971,4.93249543 23.9213115,4.81411554 C24.386998,4.1038362 26.7542374,0.512979525 26.9482734,0.11837989 C26.9870806,0 27.064695,0 27.1811166,0 Z M22.3690234,4.81411554 C21.7869154,4.5378958 20.8943497,5.05087532 20.0793984,6.07683437 C19.419676,6.90549361 19.031604,7.73415284 19.031604,8.56281207 C19.031604,8.83903182 19.1092184,9.23363145 19.3808688,9.35201134 C19.9241696,9.66769105 20.6226993,9.23363145 21.1271929,8.79957185 C21.4764578,8.52335211 21.7481082,8.2076724 21.9809514,7.85253273 C22.2526018,7.45793309 22.4466378,7.22117331 22.6406738,6.74765375 C22.679481,6.70819379 22.679481,6.66873383 22.6406738,6.66873383 C22.5630594,6.62927386 22.485445,6.55035393 22.485445,6.51089397 C22.4466378,6.47143401 22.485445,6.43197404 22.5242522,6.39251408 C22.7959027,5.84007459 22.9899387,5.09033529 22.3690234,4.81411554 Z"></path></clipPath><clipPath id="i40"><path d="M20.3744117,1.15675718 C23.1286335,1.49754735 25.7298429,1.49754735 28.4840647,0.85383258 C28.7900894,0.778101431 29.0196078,1.00529488 29.0196078,1.30821948 C28.9813548,1.76260637 28.637077,2.21699327 27.7190031,2.70924574 C26.6861699,3.27722936 25.6150837,3.42869166 24.4674913,3.42869166 C22.7700108,3.45235764 21.1472434,3.04707766 19.524476,2.60112177 L18.5502179,2.33177329 C17.8999155,2.15309511 17.2472224,1.98033343 16.5873567,1.83833752 C16.5873567,1.95193425 16.6256098,2.10339654 16.5108506,2.14126212 C15.0572335,3.20149821 13.7566288,4.2617343 12.8768079,5.77635729 C12.8385548,5.81422286 12.8768079,5.85208844 12.915061,5.85208844 C13.6801226,5.81422286 14.3686781,5.77635729 15.0954866,5.73849171 C15.2102458,5.73849171 15.2102458,5.70062614 15.2102458,5.62489499 C15.1337397,5.09477694 15.286752,4.52679332 15.7457889,4.110272 C16.2048259,3.69375068 16.8168752,3.65588511 17.199406,3.9588097 C17.658443,4.29959988 17.6201899,4.94331464 17.3524183,5.39770154 C17.0846468,5.85208844 16.702116,6.11714746 16.2813321,6.23074418 C16.2813321,6.23074418 16.2048259,6.23074418 16.2048259,6.30647533 C16.2048259,6.42007206 16.740369,6.72299665 16.8168752,6.7987278 C16.8551283,6.87445895 16.8551283,6.98805568 16.740369,7.06378683 C16.702116,7.13951798 16.5873567,7.17738355 16.4725975,7.17738355 C16.3960913,7.17738355 16.3195852,7.13951798 16.2048259,7.06378683 C15.9753074,6.9501901 15.6692828,6.72299665 15.4780174,6.45793763 C15.4015112,6.38220648 15.3632581,6.38220648 15.2102458,6.38220648 C14.4451842,6.42007206 13.2210856,6.53366878 12.417771,6.64726551 C12.2265056,6.68513108 12.1882525,6.72299665 12.1499994,6.76086223 C10.8493947,8.88133441 9.47228376,11.1532689 7.94216055,12.7057575 C6.41203733,14.4475739 5.07317952,14.9019608 3.61956246,14.9019608 C1.82166769,14.9019608 0.215038309,13.8038591 0.0237729069,11.8727148 C-0.0909863343,10.8124787 0.215038309,9.86583935 0.827087595,9.07066228 C1.36263072,8.38908194 2.28070465,7.78323275 3.04576626,7.66963602 C3.31353782,7.63177045 3.61956246,7.66963602 3.77257479,7.82109832 C4.00209327,8.08615734 3.92558711,8.35121637 3.69606862,8.46481309 C3.12227242,8.76773769 2.39546389,9.25999016 2.05118617,9.97943608 C1.7834146,10.5474197 1.70690844,11.229 2.12769233,11.8727148 C2.85450086,12.9708165 4.88191412,13.0086821 6.75631506,11.2668656 C7.21535202,10.8503443 7.6361359,10.433823 8.05691979,9.9415705 C8.89848756,8.99493114 9.16625912,8.65414096 10.2755985,7.13951798 L10.2755985,7.1016524 C10.2755985,7.06378683 10.2373454,7.06378683 10.2373454,7.06378683 C9.51053684,7.1016524 8.86023448,7.29098027 8.24818519,7.74536717 C8.05691979,7.85896389 7.82740131,7.85896389 7.71264207,7.66963602 C7.59788282,7.48030815 7.67438899,7.21524913 7.86565439,7.1016524 C8.69447113,6.53366878 9.60298179,6.33382269 10.5247748,6.17341991 L11.0789131,6.07928189 C11.0789131,6.07928189 11.1554193,6.07928189 11.2319255,6.00355074 C11.6909624,5.43556712 12.0352401,4.90544907 12.5325302,4.29959988 C13.0298202,3.69375068 13.6801226,3.16363264 14.1391596,2.74711131 C14.827715,2.17912769 15.2484989,1.98979982 15.7075359,1.7247408 C15.8222951,1.64900965 15.7075359,1.5732785 15.6692828,1.5732785 C13.1828326,1.1188916 10.6198762,0.513042408 8.17167903,1.4218162 C6.45029041,2.06553097 5.72348189,3.39082608 6.06775961,4.29959988 C6.33553117,4.94331464 7.17709894,5.01904579 7.94216055,4.64039005 C8.59246291,4.33746545 9.2045122,3.8073474 9.62529608,3.16363264 C9.85481457,2.78497689 10.3903577,3.05003591 10.084333,3.69375068 C9.35752452,5.35983597 7.98041363,6.68513108 6.29727809,6.76086223 C4.88191412,6.7987278 3.96384019,5.77635729 3.96384019,4.48892775 C3.96384019,1.95193425 6.79456814,0.28584896 9.81656149,0.0586555117 C13.412351,-0.244269086 16.8168752,0.702370281 20.3744117,1.15675718 Z M16.3960913,4.52679332 C16.0518136,4.79185235 15.9753074,5.17050809 16.0135605,5.47343269 C16.0518136,5.58702941 16.0900667,5.58702941 16.1283198,5.58702941 C16.3578382,5.54916384 16.6638629,5.32197039 16.8168752,5.09477694 C16.9698875,4.8675835 17.0463937,4.5646589 16.8933814,4.45106217 C16.7786221,4.33746545 16.5491036,4.37533102 16.3960913,4.52679332 Z"></path></clipPath><clipPath id="i41"><path d="M32.1568627,0 C49.9185956,0 64.3137255,5.09275764 64.3137255,11.372549 C64.3137255,17.6523404 49.9185956,22.745098 32.1568627,22.745098 C14.3951299,22.745098 0,17.6523404 0,11.372549 C0,5.09275764 14.3951299,0 32.1568627,0 Z M32.1568627,0.957285271 C15.0142753,0.957285271 1.12220099,5.62883739 1.12220099,11.372549 C1.12220099,17.1162606 15.0142753,21.7878128 32.1568627,21.7878128 C49.2994502,21.7878128 63.1915245,17.1162606 63.1915245,11.372549 C63.1915245,5.62883739 49.2994502,0.957285271 32.1568627,0.957285271 Z"></path></clipPath></defs><g transform="translate(-138.0 -570.0)"><g clip-path="url(#i0)"><g transform="translate(138.0 570.0)"><g transform="translate(76.078431372549 0.784313725490196)"><g clip-path="url(#i1)"><polygon points="0,0 12.9185594,0 12.9185594,12.938856 0,12.938856 0,0" stroke="none" fill="#102B4E"></polygon></g><g transform="translate(13.033561420658241 2.8402366863905195)"><g clip-path="url(#i2)"><polygon points="0,0 11.9218753,0 11.9218753,10.4536489 0,10.4536489 0,0" stroke="none" fill="#102B4E"></polygon></g></g><g transform="translate(26.527130891457304 2.9585798816567035)"><g clip-path="url(#i3)"><polygon points="0,0 7.93513886,0 7.93513886,9.98027613 0,9.98027613 0,0" stroke="none" fill="#102B4E"></polygon></g></g><g transform="translate(35.42061986084762 0.19723865877708935)"><g clip-path="url(#i4)"><polygon points="0,0 7.59013283,0 7.59013283,12.938856 0,12.938856 0,0" stroke="none" fill="#102B4E"></polygon></g></g><g transform="translate(44.62078086366519 2.998027613412158)"><g clip-path="url(#i5)"><polygon points="0,0 10.9635252,0 10.9635252,9.98027613 0,9.98027613 0,0" stroke="none" fill="#102B4E"></polygon></g></g><g transform="translate(56.8493281965768 2.9191321499014276)"><g clip-path="url(#i6)"><polygon points="0,0 12.3052153,0 12.3052153,10.4142012 0,10.4142012 0,0" stroke="none" fill="#102B4E"></polygon></g></g><g transform="translate(70.49623368408943 2.9585798816567035)"><g clip-path="url(#i7)"><polygon points="0,0 7.93513886,0 7.93513886,9.98027613 0,9.98027613 0,0" stroke="none" fill="#102B4E"></polygon></g></g></g><g transform="translate(76.078431372549 14.90196078431373)"><g transform="translate(0.0 0.19063180827894666)"><g clip-path="url(#i8)"><polygon points="0,0 13.6025536,0 13.6025536,12.5054466 0,12.5054466 0,0" stroke="none" fill="#102B4E"></polygon></g></g><g transform="translate(13.87153062775495 3.011982570806138)"><g clip-path="url(#i9)"><polygon points="0,0 12.3345189,0 12.3345189,10.0653595 0,10.0653595 0,0" stroke="none" fill="#102B4E"></polygon></g></g><g transform="translate(27.205107159142646 2.9738562091503873)"><g clip-path="url(#i10)"><polygon points="0,0 12.0655419,0 12.0655419,10.0653595 0,10.0653595 0,0" stroke="none" fill="#102B4E"></polygon></g></g><g transform="translate(40.23128134974917 2.9738562091503873)"><g clip-path="url(#i11)"><polygon points="0,0 12.5266454,0 12.5266454,10.0653595 0,10.0653595 0,0" stroke="none" fill="#102B4E"></polygon></g></g><g transform="translate(53.75698434412516 3.126361655773401)"><g clip-path="url(#i12)"><polygon points="0,0 12.219243,0 12.219243,13.3442266 0,13.3442266 0,0" stroke="none" fill="#102B4E"></polygon></g></g><g transform="translate(67.85906672746607 3.0501089324618924)"><g clip-path="url(#i13)"><polygon points="0,0 10.9896337,0 10.9896337,9.6459695 0,9.6459695 0,0" stroke="none" fill="#102B4E"></polygon></g></g><g transform="translate(80.84681562547495 0.0)"><g clip-path="url(#i14)"><polygon points="0,0 3.1124487,0 3.1124487,12.7342048 0,12.7342048 0,0" stroke="none" fill="#102B4E"></polygon></g></g><g transform="translate(85.30414956680343 0.41938997821346824)"><g clip-path="url(#i15)"><polygon points="0,0 7.60820793,0 7.60820793,12.5054466 0,12.5054466 0,0" stroke="none" fill="#102B4E"></polygon></g></g><g transform="translate(94.37251861985095 0.0)"><g clip-path="url(#i16)"><polygon points="0,0 3.1124487,0 3.1124487,12.7342048 0,12.7342048 0,0" stroke="none" fill="#102B4E"></polygon></g></g><g transform="translate(98.90670314637471 2.973856209150389)"><g clip-path="url(#i17)"><polygon points="0,0 12.5266454,0 12.5266454,10.0653595 0,10.0653595 0,0" stroke="none" fill="#102B4E"></polygon></g></g><g transform="translate(112.9319349445204 3.0501089324618924)"><g clip-path="url(#i13)"><polygon points="0,0 10.9896337,0 10.9896337,9.6459695 0,9.6459695 0,0" stroke="none" fill="#102B4E"></polygon></g></g></g><g transform="translate(0.7843137254901933 33.72549019607843)"><g transform="translate(0.0 0.23323615160342026)"><g clip-path="url(#i18)"><polygon points="0,0 14.9656044,0 14.9656044,12.750243 0,12.750243 0,0" stroke="none" fill="#102B4E"></polygon></g></g><g transform="translate(14.198137488885752 5.325558794946512)"><g clip-path="url(#i19)"><polygon points="0,0 3.22336094,0 3.22336094,2.44897959 0,2.44897959 0,0" stroke="none" fill="#102B4E"></polygon></g></g><g transform="translate(19.95413917356916 0.23323615160342026)"><g clip-path="url(#i20)"><polygon points="0,0 13.1620572,0 13.1620572,12.750243 0,12.750243 0,0" stroke="none" fill="#102B4E"></polygon></g></g><g transform="translate(34.42089007440681 0.0)"><g clip-path="url(#i21)"><polygon points="0,0 3.1849876,0 3.1849876,12.9834791 0,12.9834791 0,0" stroke="none" fill="#102B4E"></polygon></g></g><g transform="translate(39.14081145584719 3.032069970845531)"><g clip-path="url(#i22)"><polygon points="0,0 12.2027236,0 12.2027236,10.3012634 0,10.3012634 0,0" stroke="none" fill="#102B4E"></polygon></g></g><g transform="translate(53.10870887734564 3.1486880466473295)"><g clip-path="url(#i23)"><polygon points="0,0 11.2050166,0 11.2050166,9.83479106 0,9.83479106 0,0" stroke="none" fill="#102B4E"></polygon></g></g></g><g transform="translate(72.94117647058826 33.72549019607843)"><g transform="translate(0.0 0.07678595913888486)"><g clip-path="url(#i24)"><polygon points="0,0 12.7970504,0 12.7970504,12.5161113 0,12.5161113 0,0" stroke="none" fill="#939598"></polygon></g></g><g transform="translate(11.717781129545838 3.2250102838337176)"><g clip-path="url(#i25)"><polygon points="0,0 10.3301492,0 10.3301492,9.67503085 0,9.67503085 0,0" stroke="none" fill="#939598"></polygon></g></g><g transform="translate(23.5897435897436 0.0)"><g clip-path="url(#i26)"><polygon points="0,0 9.25087984,0 9.25087984,12.6696833 0,12.6696833 0,0" stroke="none" fill="#939598"></polygon></g></g><g transform="translate(34.76789006200767 0.0)"><g clip-path="url(#i27)"><polygon points="0,0 1.31054131,0 1.31054131,12.5928973 0,12.5928973 0,0" stroke="none" fill="#939598"></polygon></g></g><g transform="translate(37.58169934640522 3.1866173042642743)"><g clip-path="url(#i28)"><polygon points="0,0 9.94469583,0 9.94469583,9.67503085 0,9.67503085 0,0" stroke="none" fill="#939598"></polygon></g></g><g transform="translate(48.87548181665826 0.0)"><g clip-path="url(#i29)"><polygon points="0,0 1.31054131,0 1.31054131,12.6312903 0,12.6312903 0,0" stroke="none" fill="#939598"></polygon></g></g><g transform="translate(51.80492709904475 3.2250102838337176)"><g clip-path="url(#i30)"><polygon points="0,0 10.3301492,0 10.3301492,9.67503085 0,9.67503085 0,0" stroke="none" fill="#939598"></polygon></g></g><g transform="translate(68.49505614211492 0.07678595913888486)"><g clip-path="url(#i31)"><polygon points="0,0 10.7541478,0 10.7541478,12.5161113 0,12.5161113 0,0" stroke="none" fill="#939598"></polygon></g></g><g transform="translate(80.67538126361646 3.1866173042642734)"><g clip-path="url(#i32)"><polygon points="0,0 5.70470923,0 5.70470923,9.40627999 0,9.40627999 0,0" stroke="none" fill="#939598"></polygon></g></g><g transform="translate(87.76772247360476 0.0)"><g clip-path="url(#i33)"><polygon points="0,0 1.31054131,0 1.31054131,12.5928973 0,12.5928973 0,0" stroke="none" fill="#939598"></polygon></g></g><g transform="translate(90.58153175800228 3.1866173042642743)"><g clip-path="url(#i34)"><polygon points="0,0 9.94469583,0 9.94469583,9.67503085 0,9.67503085 0,0" stroke="none" fill="#939598"></polygon></g></g><g transform="translate(101.8753142282553 0.0)"><g clip-path="url(#i35)"><polygon points="0,0 1.31054131,0 1.31054131,12.5928973 0,12.5928973 0,0" stroke="none" fill="#939598"></polygon></g></g><g transform="translate(105.1516675046086 3.2634032634033385)"><g clip-path="url(#i36)"><polygon points="0,0 9.25087984,0 9.25087984,9.40627999 0,9.40627999 0,0" stroke="none" fill="#939598"></polygon></g></g><g transform="translate(115.828724652254 3.26340326340316)"><g clip-path="url(#i37)"><polygon points="0,0 10.4457852,0 10.4457852,13.207185 0,13.207185 0,0" stroke="none" fill="#939598"></polygon></g></g></g><g clip-path="url(#i38)"><polygon points="0,0 66.6666667,0 66.6666667,25.0980392 0,25.0980392 0,0" stroke="none" fill="#102B4E"></polygon></g><g transform="translate(24.31372549019607 8.627450980392158)"><g clip-path="url(#i39)"><polygon points="0,0 29.0196078,0 29.0196078,10.9803922 0,10.9803922 0,0" stroke="none" fill="#FFFFFF"></polygon></g></g><g transform="translate(14.117647058823533 4.7058823529412)"><g clip-path="url(#i40)"><polygon points="3.46944695e-18,-1.38777878e-17 29.0196078,-1.38777878e-17 29.0196078,14.9019608 3.46944695e-18,14.9019608 3.46944695e-18,-1.38777878e-17" stroke="none" fill="#FFFFFF"></polygon></g></g><g transform="translate(1.5686274509803937 0.7843137254901968)"><g clip-path="url(#i41)"><polygon points="0,0 64.3137255,0 64.3137255,22.745098 0,22.745098 0,0" stroke="none" fill="#FFFFFF"></polygon></g></g></g></g></g></svg>